%TF.GenerationSoftware,KiCad,Pcbnew,(6.0.4)*%
%TF.CreationDate,2022-04-09T23:45:41+02:00*%
%TF.ProjectId,cloud,636c6f75-642e-46b6-9963-61645f706362,rev?*%
%TF.SameCoordinates,Original*%
%TF.FileFunction,Legend,Bot*%
%TF.FilePolarity,Positive*%
%FSLAX46Y46*%
G04 Gerber Fmt 4.6, Leading zero omitted, Abs format (unit mm)*
G04 Created by KiCad (PCBNEW (6.0.4)) date 2022-04-09 23:45:41*
%MOMM*%
%LPD*%
G01*
G04 APERTURE LIST*
%ADD10C,0.150000*%
%ADD11C,0.700000*%
%ADD12C,0.010000*%
%ADD13C,0.120000*%
G04 APERTURE END LIST*
D10*
%TO.C,X1*%
X-1540000Y3204714D02*
X-1790000Y2454714D01*
X-2040000Y3204714D01*
X-2718571Y2526142D02*
X-2682857Y2490428D01*
X-2575714Y2454714D01*
X-2504285Y2454714D01*
X-2397142Y2490428D01*
X-2325714Y2561857D01*
X-2290000Y2633285D01*
X-2254285Y2776142D01*
X-2254285Y2883285D01*
X-2290000Y3026142D01*
X-2325714Y3097571D01*
X-2397142Y3169000D01*
X-2504285Y3204714D01*
X-2575714Y3204714D01*
X-2682857Y3169000D01*
X-2718571Y3133285D01*
X-3468571Y2526142D02*
X-3432857Y2490428D01*
X-3325714Y2454714D01*
X-3254285Y2454714D01*
X-3147142Y2490428D01*
X-3075714Y2561857D01*
X-3040000Y2633285D01*
X-3004285Y2776142D01*
X-3004285Y2883285D01*
X-3040000Y3026142D01*
X-3075714Y3097571D01*
X-3147142Y3169000D01*
X-3254285Y3204714D01*
X-3325714Y3204714D01*
X-3432857Y3169000D01*
X-3468571Y3133285D01*
X5044142Y-2673000D02*
X5115571Y-2637285D01*
X5222714Y-2637285D01*
X5329857Y-2673000D01*
X5401285Y-2744428D01*
X5437000Y-2815857D01*
X5472714Y-2958714D01*
X5472714Y-3065857D01*
X5437000Y-3208714D01*
X5401285Y-3280142D01*
X5329857Y-3351571D01*
X5222714Y-3387285D01*
X5151285Y-3387285D01*
X5044142Y-3351571D01*
X5008428Y-3315857D01*
X5008428Y-3065857D01*
X5151285Y-3065857D01*
X4687000Y-3387285D02*
X4687000Y-2637285D01*
X4401285Y-2637285D01*
X4329857Y-2673000D01*
X4294142Y-2708714D01*
X4258428Y-2780142D01*
X4258428Y-2887285D01*
X4294142Y-2958714D01*
X4329857Y-2994428D01*
X4401285Y-3030142D01*
X4687000Y-3030142D01*
X3937000Y-3387285D02*
X3937000Y-2637285D01*
X3437000Y-2637285D02*
X3294142Y-2637285D01*
X3222714Y-2673000D01*
X3151285Y-2744428D01*
X3115571Y-2887285D01*
X3115571Y-3137285D01*
X3151285Y-3280142D01*
X3222714Y-3351571D01*
X3294142Y-3387285D01*
X3437000Y-3387285D01*
X3508428Y-3351571D01*
X3579857Y-3280142D01*
X3615571Y-3137285D01*
X3615571Y-2887285D01*
X3579857Y-2744428D01*
X3508428Y-2673000D01*
X3437000Y-2637285D01*
X2829857Y-2708714D02*
X2794142Y-2673000D01*
X2722714Y-2637285D01*
X2544142Y-2637285D01*
X2472714Y-2673000D01*
X2437000Y-2708714D01*
X2401285Y-2780142D01*
X2401285Y-2851571D01*
X2437000Y-2958714D01*
X2865571Y-3387285D01*
X2401285Y-3387285D01*
X-1968571Y-2673000D02*
X-1897142Y-2637285D01*
X-1790000Y-2637285D01*
X-1682857Y-2673000D01*
X-1611428Y-2744428D01*
X-1575714Y-2815857D01*
X-1540000Y-2958714D01*
X-1540000Y-3065857D01*
X-1575714Y-3208714D01*
X-1611428Y-3280142D01*
X-1682857Y-3351571D01*
X-1790000Y-3387285D01*
X-1861428Y-3387285D01*
X-1968571Y-3351571D01*
X-2004285Y-3315857D01*
X-2004285Y-3065857D01*
X-1861428Y-3065857D01*
X-2325714Y-3387285D02*
X-2325714Y-2637285D01*
X-2754285Y-3387285D01*
X-2754285Y-2637285D01*
X-3111428Y-3387285D02*
X-3111428Y-2637285D01*
X-3290000Y-2637285D01*
X-3397142Y-2673000D01*
X-3468571Y-2744428D01*
X-3504285Y-2815857D01*
X-3540000Y-2958714D01*
X-3540000Y-3065857D01*
X-3504285Y-3208714D01*
X-3468571Y-3280142D01*
X-3397142Y-3351571D01*
X-3290000Y-3387285D01*
X-3111428Y-3387285D01*
X5044142Y3169000D02*
X5115571Y3204714D01*
X5222714Y3204714D01*
X5329857Y3169000D01*
X5401285Y3097571D01*
X5437000Y3026142D01*
X5472714Y2883285D01*
X5472714Y2776142D01*
X5437000Y2633285D01*
X5401285Y2561857D01*
X5329857Y2490428D01*
X5222714Y2454714D01*
X5151285Y2454714D01*
X5044142Y2490428D01*
X5008428Y2526142D01*
X5008428Y2776142D01*
X5151285Y2776142D01*
X4687000Y2454714D02*
X4687000Y3204714D01*
X4401285Y3204714D01*
X4329857Y3169000D01*
X4294142Y3133285D01*
X4258428Y3061857D01*
X4258428Y2954714D01*
X4294142Y2883285D01*
X4329857Y2847571D01*
X4401285Y2811857D01*
X4687000Y2811857D01*
X3937000Y2454714D02*
X3937000Y3204714D01*
X3437000Y3204714D02*
X3294142Y3204714D01*
X3222714Y3169000D01*
X3151285Y3097571D01*
X3115571Y2954714D01*
X3115571Y2704714D01*
X3151285Y2561857D01*
X3222714Y2490428D01*
X3294142Y2454714D01*
X3437000Y2454714D01*
X3508428Y2490428D01*
X3579857Y2561857D01*
X3615571Y2704714D01*
X3615571Y2954714D01*
X3579857Y3097571D01*
X3508428Y3169000D01*
X3437000Y3204714D01*
X2401285Y2454714D02*
X2829857Y2454714D01*
X2615571Y2454714D02*
X2615571Y3204714D01*
X2687000Y3097571D01*
X2758428Y3026142D01*
X2829857Y2990428D01*
X892857Y-3351571D02*
X785714Y-3387285D01*
X607142Y-3387285D01*
X535714Y-3351571D01*
X500000Y-3315857D01*
X464285Y-3244428D01*
X464285Y-3173000D01*
X500000Y-3101571D01*
X535714Y-3065857D01*
X607142Y-3030142D01*
X750000Y-2994428D01*
X821428Y-2958714D01*
X857142Y-2923000D01*
X892857Y-2851571D01*
X892857Y-2780142D01*
X857142Y-2708714D01*
X821428Y-2673000D01*
X750000Y-2637285D01*
X571428Y-2637285D01*
X464285Y-2673000D01*
X-285714Y-3315857D02*
X-249999Y-3351571D01*
X-142857Y-3387285D01*
X-71428Y-3387285D01*
X35714Y-3351571D01*
X107142Y-3280142D01*
X142857Y-3208714D01*
X178571Y-3065857D01*
X178571Y-2958714D01*
X142857Y-2815857D01*
X107142Y-2744428D01*
X35714Y-2673000D01*
X-71428Y-2637285D01*
X-142857Y-2637285D01*
X-249999Y-2673000D01*
X-285714Y-2708714D01*
X-964285Y-3387285D02*
X-607142Y-3387285D01*
X-607142Y-2637285D01*
X910714Y2490428D02*
X803571Y2454714D01*
X624999Y2454714D01*
X553571Y2490428D01*
X517857Y2526142D01*
X482142Y2597571D01*
X482142Y2669000D01*
X517857Y2740428D01*
X553571Y2776142D01*
X624999Y2811857D01*
X767857Y2847571D01*
X839285Y2883285D01*
X874999Y2919000D01*
X910714Y2990428D01*
X910714Y3061857D01*
X874999Y3133285D01*
X839285Y3169000D01*
X767857Y3204714D01*
X589285Y3204714D01*
X482142Y3169000D01*
X160714Y2454714D02*
X160714Y3204714D01*
X-17857Y3204714D01*
X-124999Y3169000D01*
X-196428Y3097571D01*
X-232142Y3026142D01*
X-267857Y2883285D01*
X-267857Y2776142D01*
X-232142Y2633285D01*
X-196428Y2561857D01*
X-124999Y2490428D01*
X-17857Y2454714D01*
X160714Y2454714D01*
X-553571Y2669000D02*
X-910714Y2669000D01*
X-482142Y2454714D02*
X-732142Y3204714D01*
X-982142Y2454714D01*
%TO.C,R2*%
X-12914333Y-12579380D02*
X-12581000Y-12103190D01*
X-12342904Y-12579380D02*
X-12342904Y-11579380D01*
X-12723857Y-11579380D01*
X-12819095Y-11627000D01*
X-12866714Y-11674619D01*
X-12914333Y-11769857D01*
X-12914333Y-11912714D01*
X-12866714Y-12007952D01*
X-12819095Y-12055571D01*
X-12723857Y-12103190D01*
X-12342904Y-12103190D01*
X-13295285Y-11674619D02*
X-13342904Y-11627000D01*
X-13438142Y-11579380D01*
X-13676238Y-11579380D01*
X-13771476Y-11627000D01*
X-13819095Y-11674619D01*
X-13866714Y-11769857D01*
X-13866714Y-11865095D01*
X-13819095Y-12007952D01*
X-13247666Y-12579380D01*
X-13866714Y-12579380D01*
%TO.C,D1*%
X13819095Y-14452380D02*
X13819095Y-13452380D01*
X13581000Y-13452380D01*
X13438142Y-13500000D01*
X13342904Y-13595238D01*
X13295285Y-13690476D01*
X13247666Y-13880952D01*
X13247666Y-14023809D01*
X13295285Y-14214285D01*
X13342904Y-14309523D01*
X13438142Y-14404761D01*
X13581000Y-14452380D01*
X13819095Y-14452380D01*
X12295285Y-14452380D02*
X12866714Y-14452380D01*
X12581000Y-14452380D02*
X12581000Y-13452380D01*
X12676238Y-13595238D01*
X12771476Y-13690476D01*
X12866714Y-13738095D01*
%TO.C,R1*%
X13247666Y-12517380D02*
X13581000Y-12041190D01*
X13819095Y-12517380D02*
X13819095Y-11517380D01*
X13438142Y-11517380D01*
X13342904Y-11565000D01*
X13295285Y-11612619D01*
X13247666Y-11707857D01*
X13247666Y-11850714D01*
X13295285Y-11945952D01*
X13342904Y-11993571D01*
X13438142Y-12041190D01*
X13819095Y-12041190D01*
X12295285Y-12517380D02*
X12866714Y-12517380D01*
X12581000Y-12517380D02*
X12581000Y-11517380D01*
X12676238Y-11660238D01*
X12771476Y-11755476D01*
X12866714Y-11803095D01*
%TO.C,D2*%
X-12342904Y-14422380D02*
X-12342904Y-13422380D01*
X-12581000Y-13422380D01*
X-12723857Y-13470000D01*
X-12819095Y-13565238D01*
X-12866714Y-13660476D01*
X-12914333Y-13850952D01*
X-12914333Y-13993809D01*
X-12866714Y-14184285D01*
X-12819095Y-14279523D01*
X-12723857Y-14374761D01*
X-12581000Y-14422380D01*
X-12342904Y-14422380D01*
X-13295285Y-13517619D02*
X-13342904Y-13470000D01*
X-13438142Y-13422380D01*
X-13676238Y-13422380D01*
X-13771476Y-13470000D01*
X-13819095Y-13517619D01*
X-13866714Y-13612857D01*
X-13866714Y-13708095D01*
X-13819095Y-13850952D01*
X-13247666Y-14422380D01*
X-13866714Y-14422380D01*
%TO.C,U1*%
X-10287095Y547619D02*
X-10287095Y-261904D01*
X-10334714Y-357142D01*
X-10382333Y-404761D01*
X-10477571Y-452380D01*
X-10668047Y-452380D01*
X-10763285Y-404761D01*
X-10810904Y-357142D01*
X-10858523Y-261904D01*
X-10858523Y547619D01*
X-11858523Y-452380D02*
X-11287095Y-452380D01*
X-11572809Y-452380D02*
X-11572809Y547619D01*
X-11477571Y404761D01*
X-11382333Y309523D01*
X-11287095Y261904D01*
D11*
%TO.C,X1*%
X-7366000Y-4318000D02*
X7366000Y-4318000D01*
X-2540000Y4064000D02*
X-7366000Y4064000D01*
X7366000Y-4318000D02*
X7366000Y4064000D01*
X7279640Y4114800D02*
X2540000Y4114800D01*
X-7366000Y4064000D02*
X-7366000Y-4318000D01*
%TO.C,N2*%
G36*
X3280833Y-10836333D02*
G01*
X2391833Y-10836333D01*
X2391833Y-10645833D01*
X3069166Y-10645833D01*
X3069166Y-10116667D01*
X2434166Y-10116667D01*
X2434166Y-9905000D01*
X3069166Y-9905000D01*
X3069166Y-9439333D01*
X2391833Y-9439333D01*
X2391833Y-9248833D01*
X3280833Y-9248833D01*
X3280833Y-10836333D01*
G37*
D12*
X3280833Y-10836333D02*
X2391833Y-10836333D01*
X2391833Y-10645833D01*
X3069166Y-10645833D01*
X3069166Y-10116667D01*
X2434166Y-10116667D01*
X2434166Y-9905000D01*
X3069166Y-9905000D01*
X3069166Y-9439333D01*
X2391833Y-9439333D01*
X2391833Y-9248833D01*
X3280833Y-9248833D01*
X3280833Y-10836333D01*
G36*
X-4244898Y-9636630D02*
G01*
X-4141597Y-9670565D01*
X-4063423Y-9725697D01*
X-4040304Y-9749023D01*
X-4003987Y-9774219D01*
X-3984886Y-9762874D01*
X-3979334Y-9714500D01*
X-3978795Y-9690544D01*
X-3970395Y-9663469D01*
X-3942654Y-9652841D01*
X-3884084Y-9651000D01*
X-3788834Y-9651000D01*
X-3788834Y-10836333D01*
X-4000500Y-10836333D01*
X-4000500Y-10498708D01*
X-4000621Y-10449451D01*
X-4003548Y-10287232D01*
X-4011146Y-10159938D01*
X-4024429Y-10061815D01*
X-4044409Y-9987106D01*
X-4072099Y-9930057D01*
X-4108511Y-9884912D01*
X-4131706Y-9864495D01*
X-4216532Y-9820004D01*
X-4312301Y-9803256D01*
X-4407726Y-9813553D01*
X-4491519Y-9850192D01*
X-4552393Y-9912474D01*
X-4565003Y-9935981D01*
X-4575722Y-9966714D01*
X-4583334Y-10008175D01*
X-4588357Y-10066685D01*
X-4591311Y-10148563D01*
X-4592715Y-10260131D01*
X-4593088Y-10407708D01*
X-4593167Y-10836333D01*
X-4804834Y-10836333D01*
X-4803904Y-10386542D01*
X-4803802Y-10351302D01*
X-4802099Y-10185074D01*
X-4797853Y-10054413D01*
X-4790240Y-9953638D01*
X-4778438Y-9877068D01*
X-4761625Y-9819020D01*
X-4738977Y-9773812D01*
X-4709672Y-9735764D01*
X-4681069Y-9709293D01*
X-4591410Y-9660222D01*
X-4481219Y-9631636D01*
X-4361910Y-9623712D01*
X-4244898Y-9636630D01*
G37*
X-4244898Y-9636630D02*
X-4141597Y-9670565D01*
X-4063423Y-9725697D01*
X-4040304Y-9749023D01*
X-4003987Y-9774219D01*
X-3984886Y-9762874D01*
X-3979334Y-9714500D01*
X-3978795Y-9690544D01*
X-3970395Y-9663469D01*
X-3942654Y-9652841D01*
X-3884084Y-9651000D01*
X-3788834Y-9651000D01*
X-3788834Y-10836333D01*
X-4000500Y-10836333D01*
X-4000500Y-10498708D01*
X-4000621Y-10449451D01*
X-4003548Y-10287232D01*
X-4011146Y-10159938D01*
X-4024429Y-10061815D01*
X-4044409Y-9987106D01*
X-4072099Y-9930057D01*
X-4108511Y-9884912D01*
X-4131706Y-9864495D01*
X-4216532Y-9820004D01*
X-4312301Y-9803256D01*
X-4407726Y-9813553D01*
X-4491519Y-9850192D01*
X-4552393Y-9912474D01*
X-4565003Y-9935981D01*
X-4575722Y-9966714D01*
X-4583334Y-10008175D01*
X-4588357Y-10066685D01*
X-4591311Y-10148563D01*
X-4592715Y-10260131D01*
X-4593088Y-10407708D01*
X-4593167Y-10836333D01*
X-4804834Y-10836333D01*
X-4803904Y-10386542D01*
X-4803802Y-10351302D01*
X-4802099Y-10185074D01*
X-4797853Y-10054413D01*
X-4790240Y-9953638D01*
X-4778438Y-9877068D01*
X-4761625Y-9819020D01*
X-4738977Y-9773812D01*
X-4709672Y-9735764D01*
X-4681069Y-9709293D01*
X-4591410Y-9660222D01*
X-4481219Y-9631636D01*
X-4361910Y-9623712D01*
X-4244898Y-9636630D01*
G36*
X-71501Y-9639642D02*
G01*
X17419Y-9662554D01*
X90256Y-9703688D01*
X176991Y-9781026D01*
X249403Y-9875191D01*
X295265Y-9972539D01*
X306064Y-10010976D01*
X334819Y-10180192D01*
X333336Y-10342299D01*
X303275Y-10491477D01*
X246299Y-10621906D01*
X164066Y-10727768D01*
X58238Y-10803241D01*
X37841Y-10813092D01*
X-33808Y-10840337D01*
X-109464Y-10853853D01*
X-208075Y-10857500D01*
X-297437Y-10854220D01*
X-384056Y-10845401D01*
X-447336Y-10832983D01*
X-485266Y-10820731D01*
X-515690Y-10801880D01*
X-527306Y-10768592D01*
X-529167Y-10706922D01*
X-529167Y-10605378D01*
X-439209Y-10637234D01*
X-406073Y-10647142D01*
X-319588Y-10664179D01*
X-232834Y-10672399D01*
X-193221Y-10672147D01*
X-82926Y-10651641D01*
X1138Y-10600103D01*
X59961Y-10516293D01*
X94530Y-10398968D01*
X105833Y-10246887D01*
X101594Y-10136309D01*
X83526Y-10032056D01*
X48655Y-9952071D01*
X-5810Y-9887357D01*
X-69471Y-9845565D01*
X-175333Y-9817984D01*
X-303579Y-9820620D01*
X-449775Y-9853807D01*
X-471531Y-9856007D01*
X-491706Y-9840491D01*
X-511954Y-9798713D01*
X-537255Y-9723241D01*
X-537942Y-9720976D01*
X-539489Y-9692209D01*
X-517107Y-9672116D01*
X-461968Y-9652392D01*
X-414885Y-9641183D01*
X-304499Y-9628599D01*
X-184422Y-9628204D01*
X-71501Y-9639642D01*
G37*
X-71501Y-9639642D02*
X17419Y-9662554D01*
X90256Y-9703688D01*
X176991Y-9781026D01*
X249403Y-9875191D01*
X295265Y-9972539D01*
X306064Y-10010976D01*
X334819Y-10180192D01*
X333336Y-10342299D01*
X303275Y-10491477D01*
X246299Y-10621906D01*
X164066Y-10727768D01*
X58238Y-10803241D01*
X37841Y-10813092D01*
X-33808Y-10840337D01*
X-109464Y-10853853D01*
X-208075Y-10857500D01*
X-297437Y-10854220D01*
X-384056Y-10845401D01*
X-447336Y-10832983D01*
X-485266Y-10820731D01*
X-515690Y-10801880D01*
X-527306Y-10768592D01*
X-529167Y-10706922D01*
X-529167Y-10605378D01*
X-439209Y-10637234D01*
X-406073Y-10647142D01*
X-319588Y-10664179D01*
X-232834Y-10672399D01*
X-193221Y-10672147D01*
X-82926Y-10651641D01*
X1138Y-10600103D01*
X59961Y-10516293D01*
X94530Y-10398968D01*
X105833Y-10246887D01*
X101594Y-10136309D01*
X83526Y-10032056D01*
X48655Y-9952071D01*
X-5810Y-9887357D01*
X-69471Y-9845565D01*
X-175333Y-9817984D01*
X-303579Y-9820620D01*
X-449775Y-9853807D01*
X-471531Y-9856007D01*
X-491706Y-9840491D01*
X-511954Y-9798713D01*
X-537255Y-9723241D01*
X-537942Y-9720976D01*
X-539489Y-9692209D01*
X-517107Y-9672116D01*
X-461968Y-9652392D01*
X-414885Y-9641183D01*
X-304499Y-9628599D01*
X-184422Y-9628204D01*
X-71501Y-9639642D01*
G36*
X-5207125Y-9213682D02*
G01*
X-5168900Y-9231900D01*
X-5153660Y-9257601D01*
X-5144329Y-9316538D01*
X-5152305Y-9379929D01*
X-5176762Y-9427238D01*
X-5198406Y-9443970D01*
X-5262802Y-9459337D01*
X-5335392Y-9438588D01*
X-5338839Y-9436634D01*
X-5367641Y-9401333D01*
X-5376334Y-9336988D01*
X-5376128Y-9323607D01*
X-5363058Y-9254756D01*
X-5326013Y-9217616D01*
X-5259917Y-9206500D01*
X-5207125Y-9213682D01*
G37*
X-5207125Y-9213682D02*
X-5168900Y-9231900D01*
X-5153660Y-9257601D01*
X-5144329Y-9316538D01*
X-5152305Y-9379929D01*
X-5176762Y-9427238D01*
X-5198406Y-9443970D01*
X-5262802Y-9459337D01*
X-5335392Y-9438588D01*
X-5338839Y-9436634D01*
X-5367641Y-9401333D01*
X-5376334Y-9336988D01*
X-5376128Y-9323607D01*
X-5363058Y-9254756D01*
X-5326013Y-9217616D01*
X-5259917Y-9206500D01*
X-5207125Y-9213682D01*
G36*
X-3168687Y-7726081D02*
G01*
X-3185805Y-7937874D01*
X-3223421Y-8120971D01*
X-3283927Y-8282483D01*
X-3369716Y-8429521D01*
X-3483181Y-8569196D01*
X-3487341Y-8573662D01*
X-3632997Y-8700286D01*
X-3802986Y-8794226D01*
X-4000500Y-8857258D01*
X-4023413Y-8862016D01*
X-4163516Y-8877805D01*
X-4320913Y-8878053D01*
X-4477290Y-8863435D01*
X-4614334Y-8834627D01*
X-4686843Y-8810361D01*
X-4865993Y-8721047D01*
X-5020903Y-8597949D01*
X-5150104Y-8442706D01*
X-5252124Y-8256954D01*
X-5325493Y-8042333D01*
X-5341231Y-7962152D01*
X-5355557Y-7825873D01*
X-5361314Y-7672685D01*
X-5360337Y-7619000D01*
X-4940040Y-7619000D01*
X-4939618Y-7674782D01*
X-4934752Y-7787125D01*
X-4925620Y-7891026D01*
X-4913503Y-7969555D01*
X-4868784Y-8115697D01*
X-4798059Y-8255443D01*
X-4708532Y-8370913D01*
X-4604868Y-8456178D01*
X-4491735Y-8505310D01*
X-4378374Y-8527755D01*
X-4201225Y-8535964D01*
X-4042018Y-8507627D01*
X-3902558Y-8443157D01*
X-3784655Y-8342969D01*
X-3711269Y-8238432D01*
X-3649195Y-8094724D01*
X-3607137Y-7929440D01*
X-3585137Y-7750861D01*
X-3583238Y-7567264D01*
X-3601482Y-7386928D01*
X-3639912Y-7218133D01*
X-3698570Y-7069158D01*
X-3777499Y-6948281D01*
X-3856169Y-6873206D01*
X-3966366Y-6810721D01*
X-4100660Y-6774826D01*
X-4265084Y-6763230D01*
X-4326770Y-6763864D01*
X-4418077Y-6769747D01*
X-4488212Y-6783537D01*
X-4550834Y-6807342D01*
X-4592919Y-6828915D01*
X-4716647Y-6922272D01*
X-4813183Y-7047877D01*
X-4882568Y-7205811D01*
X-4924840Y-7396158D01*
X-4940040Y-7619000D01*
X-5360337Y-7619000D01*
X-5358477Y-7516824D01*
X-5347020Y-7372523D01*
X-5326918Y-7254017D01*
X-5279009Y-7100626D01*
X-5192079Y-6919665D01*
X-5080370Y-6760476D01*
X-4948539Y-6629443D01*
X-4801240Y-6532954D01*
X-4759656Y-6512897D01*
X-4606179Y-6455071D01*
X-4446320Y-6422870D01*
X-4264239Y-6412751D01*
X-4207486Y-6413543D01*
X-4002131Y-6434172D01*
X-3821797Y-6484395D01*
X-3660320Y-6566420D01*
X-3511533Y-6682456D01*
X-3469768Y-6723016D01*
X-3355530Y-6861375D01*
X-3269965Y-7016188D01*
X-3211246Y-7192479D01*
X-3177546Y-7395269D01*
X-3169833Y-7567264D01*
X-3167039Y-7629583D01*
X-3168687Y-7726081D01*
G37*
X-3168687Y-7726081D02*
X-3185805Y-7937874D01*
X-3223421Y-8120971D01*
X-3283927Y-8282483D01*
X-3369716Y-8429521D01*
X-3483181Y-8569196D01*
X-3487341Y-8573662D01*
X-3632997Y-8700286D01*
X-3802986Y-8794226D01*
X-4000500Y-8857258D01*
X-4023413Y-8862016D01*
X-4163516Y-8877805D01*
X-4320913Y-8878053D01*
X-4477290Y-8863435D01*
X-4614334Y-8834627D01*
X-4686843Y-8810361D01*
X-4865993Y-8721047D01*
X-5020903Y-8597949D01*
X-5150104Y-8442706D01*
X-5252124Y-8256954D01*
X-5325493Y-8042333D01*
X-5341231Y-7962152D01*
X-5355557Y-7825873D01*
X-5361314Y-7672685D01*
X-5360337Y-7619000D01*
X-4940040Y-7619000D01*
X-4939618Y-7674782D01*
X-4934752Y-7787125D01*
X-4925620Y-7891026D01*
X-4913503Y-7969555D01*
X-4868784Y-8115697D01*
X-4798059Y-8255443D01*
X-4708532Y-8370913D01*
X-4604868Y-8456178D01*
X-4491735Y-8505310D01*
X-4378374Y-8527755D01*
X-4201225Y-8535964D01*
X-4042018Y-8507627D01*
X-3902558Y-8443157D01*
X-3784655Y-8342969D01*
X-3711269Y-8238432D01*
X-3649195Y-8094724D01*
X-3607137Y-7929440D01*
X-3585137Y-7750861D01*
X-3583238Y-7567264D01*
X-3601482Y-7386928D01*
X-3639912Y-7218133D01*
X-3698570Y-7069158D01*
X-3777499Y-6948281D01*
X-3856169Y-6873206D01*
X-3966366Y-6810721D01*
X-4100660Y-6774826D01*
X-4265084Y-6763230D01*
X-4326770Y-6763864D01*
X-4418077Y-6769747D01*
X-4488212Y-6783537D01*
X-4550834Y-6807342D01*
X-4592919Y-6828915D01*
X-4716647Y-6922272D01*
X-4813183Y-7047877D01*
X-4882568Y-7205811D01*
X-4924840Y-7396158D01*
X-4940040Y-7619000D01*
X-5360337Y-7619000D01*
X-5358477Y-7516824D01*
X-5347020Y-7372523D01*
X-5326918Y-7254017D01*
X-5279009Y-7100626D01*
X-5192079Y-6919665D01*
X-5080370Y-6760476D01*
X-4948539Y-6629443D01*
X-4801240Y-6532954D01*
X-4759656Y-6512897D01*
X-4606179Y-6455071D01*
X-4446320Y-6422870D01*
X-4264239Y-6412751D01*
X-4207486Y-6413543D01*
X-4002131Y-6434172D01*
X-3821797Y-6484395D01*
X-3660320Y-6566420D01*
X-3511533Y-6682456D01*
X-3469768Y-6723016D01*
X-3355530Y-6861375D01*
X-3269965Y-7016188D01*
X-3211246Y-7192479D01*
X-3177546Y-7395269D01*
X-3169833Y-7567264D01*
X-3167039Y-7629583D01*
X-3168687Y-7726081D01*
G36*
X-6976025Y-8466337D02*
G01*
X-6986761Y-8496692D01*
X-7057446Y-8621488D01*
X-7162039Y-8725304D01*
X-7296578Y-8804924D01*
X-7457103Y-8857130D01*
X-7668679Y-8884673D01*
X-7870004Y-8874094D01*
X-8057357Y-8826217D01*
X-8227291Y-8741922D01*
X-8376359Y-8622091D01*
X-8487134Y-8511461D01*
X-8506658Y-8589105D01*
X-8508178Y-8595179D01*
X-8526861Y-8672871D01*
X-8544777Y-8751417D01*
X-8563371Y-8836083D01*
X-8717490Y-8842330D01*
X-8871610Y-8848577D01*
X-8864085Y-7910997D01*
X-8863255Y-7808383D01*
X-8862095Y-7682500D01*
X-8472887Y-7682500D01*
X-8461068Y-7880593D01*
X-8457081Y-7932211D01*
X-8426394Y-8106355D01*
X-8369770Y-8248576D01*
X-8285523Y-8361315D01*
X-8171968Y-8447013D01*
X-8027418Y-8508108D01*
X-7964358Y-8525279D01*
X-7812819Y-8546903D01*
X-7675294Y-8539020D01*
X-7556376Y-8503413D01*
X-7460662Y-8441864D01*
X-7392746Y-8356156D01*
X-7357221Y-8248071D01*
X-7355711Y-8127112D01*
X-7390705Y-8004639D01*
X-7460129Y-7898325D01*
X-7559998Y-7814109D01*
X-7686323Y-7757929D01*
X-7736332Y-7745760D01*
X-7840444Y-7727384D01*
X-7966862Y-7710593D01*
X-8103456Y-7696736D01*
X-8238096Y-7687160D01*
X-8358652Y-7683213D01*
X-8472887Y-7682500D01*
X-8862095Y-7682500D01*
X-8861169Y-7581963D01*
X-8858554Y-7392250D01*
X-8854795Y-7235236D01*
X-8849279Y-7106911D01*
X-8841391Y-7003269D01*
X-8830518Y-6920300D01*
X-8816046Y-6853996D01*
X-8797360Y-6800348D01*
X-8773847Y-6755348D01*
X-8744892Y-6714988D01*
X-8709882Y-6675260D01*
X-8668203Y-6632154D01*
X-8602909Y-6570900D01*
X-8519938Y-6511520D01*
X-8428769Y-6469877D01*
X-8321011Y-6443275D01*
X-8188274Y-6429014D01*
X-8022167Y-6424397D01*
X-7920501Y-6424746D01*
X-7813924Y-6428243D01*
X-7728019Y-6436376D01*
X-7650484Y-6450429D01*
X-7569015Y-6471687D01*
X-7565328Y-6472755D01*
X-7450835Y-6508429D01*
X-7349888Y-6544488D01*
X-7269321Y-6578090D01*
X-7215969Y-6606391D01*
X-7196667Y-6626550D01*
X-7196693Y-6627174D01*
X-7204870Y-6656578D01*
X-7224846Y-6712854D01*
X-7252516Y-6784396D01*
X-7265720Y-6816539D01*
X-7295646Y-6878995D01*
X-7319827Y-6908878D01*
X-7342474Y-6912169D01*
X-7362872Y-6905084D01*
X-7418679Y-6885590D01*
X-7497163Y-6858115D01*
X-7588250Y-6826184D01*
X-7716715Y-6786785D01*
X-7894771Y-6753499D01*
X-8052685Y-6750828D01*
X-8188081Y-6778188D01*
X-8298585Y-6834995D01*
X-8381821Y-6920664D01*
X-8435414Y-7034612D01*
X-8437092Y-7040542D01*
X-8448803Y-7097974D01*
X-8458575Y-7170767D01*
X-8465563Y-7247471D01*
X-8468922Y-7316639D01*
X-8467807Y-7366822D01*
X-8461375Y-7386571D01*
X-8447434Y-7387379D01*
X-8397310Y-7390214D01*
X-8317410Y-7394707D01*
X-8214726Y-7400466D01*
X-8096250Y-7407098D01*
X-8089381Y-7407486D01*
X-7849144Y-7426892D01*
X-7645888Y-7456296D01*
X-7475273Y-7496992D01*
X-7332958Y-7550278D01*
X-7214603Y-7617448D01*
X-7115867Y-7699800D01*
X-7031839Y-7804974D01*
X-6964692Y-7948790D01*
X-6932439Y-8110072D01*
X-6932782Y-8127112D01*
X-6935933Y-8284146D01*
X-6976025Y-8466337D01*
G37*
X-6976025Y-8466337D02*
X-6986761Y-8496692D01*
X-7057446Y-8621488D01*
X-7162039Y-8725304D01*
X-7296578Y-8804924D01*
X-7457103Y-8857130D01*
X-7668679Y-8884673D01*
X-7870004Y-8874094D01*
X-8057357Y-8826217D01*
X-8227291Y-8741922D01*
X-8376359Y-8622091D01*
X-8487134Y-8511461D01*
X-8506658Y-8589105D01*
X-8508178Y-8595179D01*
X-8526861Y-8672871D01*
X-8544777Y-8751417D01*
X-8563371Y-8836083D01*
X-8717490Y-8842330D01*
X-8871610Y-8848577D01*
X-8864085Y-7910997D01*
X-8863255Y-7808383D01*
X-8862095Y-7682500D01*
X-8472887Y-7682500D01*
X-8461068Y-7880593D01*
X-8457081Y-7932211D01*
X-8426394Y-8106355D01*
X-8369770Y-8248576D01*
X-8285523Y-8361315D01*
X-8171968Y-8447013D01*
X-8027418Y-8508108D01*
X-7964358Y-8525279D01*
X-7812819Y-8546903D01*
X-7675294Y-8539020D01*
X-7556376Y-8503413D01*
X-7460662Y-8441864D01*
X-7392746Y-8356156D01*
X-7357221Y-8248071D01*
X-7355711Y-8127112D01*
X-7390705Y-8004639D01*
X-7460129Y-7898325D01*
X-7559998Y-7814109D01*
X-7686323Y-7757929D01*
X-7736332Y-7745760D01*
X-7840444Y-7727384D01*
X-7966862Y-7710593D01*
X-8103456Y-7696736D01*
X-8238096Y-7687160D01*
X-8358652Y-7683213D01*
X-8472887Y-7682500D01*
X-8862095Y-7682500D01*
X-8861169Y-7581963D01*
X-8858554Y-7392250D01*
X-8854795Y-7235236D01*
X-8849279Y-7106911D01*
X-8841391Y-7003269D01*
X-8830518Y-6920300D01*
X-8816046Y-6853996D01*
X-8797360Y-6800348D01*
X-8773847Y-6755348D01*
X-8744892Y-6714988D01*
X-8709882Y-6675260D01*
X-8668203Y-6632154D01*
X-8602909Y-6570900D01*
X-8519938Y-6511520D01*
X-8428769Y-6469877D01*
X-8321011Y-6443275D01*
X-8188274Y-6429014D01*
X-8022167Y-6424397D01*
X-7920501Y-6424746D01*
X-7813924Y-6428243D01*
X-7728019Y-6436376D01*
X-7650484Y-6450429D01*
X-7569015Y-6471687D01*
X-7565328Y-6472755D01*
X-7450835Y-6508429D01*
X-7349888Y-6544488D01*
X-7269321Y-6578090D01*
X-7215969Y-6606391D01*
X-7196667Y-6626550D01*
X-7196693Y-6627174D01*
X-7204870Y-6656578D01*
X-7224846Y-6712854D01*
X-7252516Y-6784396D01*
X-7265720Y-6816539D01*
X-7295646Y-6878995D01*
X-7319827Y-6908878D01*
X-7342474Y-6912169D01*
X-7362872Y-6905084D01*
X-7418679Y-6885590D01*
X-7497163Y-6858115D01*
X-7588250Y-6826184D01*
X-7716715Y-6786785D01*
X-7894771Y-6753499D01*
X-8052685Y-6750828D01*
X-8188081Y-6778188D01*
X-8298585Y-6834995D01*
X-8381821Y-6920664D01*
X-8435414Y-7034612D01*
X-8437092Y-7040542D01*
X-8448803Y-7097974D01*
X-8458575Y-7170767D01*
X-8465563Y-7247471D01*
X-8468922Y-7316639D01*
X-8467807Y-7366822D01*
X-8461375Y-7386571D01*
X-8447434Y-7387379D01*
X-8397310Y-7390214D01*
X-8317410Y-7394707D01*
X-8214726Y-7400466D01*
X-8096250Y-7407098D01*
X-8089381Y-7407486D01*
X-7849144Y-7426892D01*
X-7645888Y-7456296D01*
X-7475273Y-7496992D01*
X-7332958Y-7550278D01*
X-7214603Y-7617448D01*
X-7115867Y-7699800D01*
X-7031839Y-7804974D01*
X-6964692Y-7948790D01*
X-6932439Y-8110072D01*
X-6932782Y-8127112D01*
X-6935933Y-8284146D01*
X-6976025Y-8466337D01*
G36*
X-7095644Y-9629542D02*
G01*
X-6977708Y-9644924D01*
X-6885968Y-9673998D01*
X-6837610Y-9700682D01*
X-6761667Y-9768295D01*
X-6722109Y-9854026D01*
X-6715702Y-9963371D01*
X-6717382Y-9982513D01*
X-6728966Y-10044811D01*
X-6753050Y-10097101D01*
X-6795030Y-10144447D01*
X-6860299Y-10191912D01*
X-6954250Y-10244557D01*
X-7082276Y-10307445D01*
X-7102724Y-10317242D01*
X-7196339Y-10364606D01*
X-7274197Y-10407994D01*
X-7328675Y-10442955D01*
X-7352151Y-10465039D01*
X-7362996Y-10537677D01*
X-7338456Y-10598845D01*
X-7283417Y-10645534D01*
X-7203164Y-10675764D01*
X-7102980Y-10687555D01*
X-6988151Y-10678928D01*
X-6863960Y-10647905D01*
X-6798165Y-10626196D01*
X-6745446Y-10609779D01*
X-6721085Y-10603500D01*
X-6719900Y-10604267D01*
X-6714543Y-10629000D01*
X-6710879Y-10676641D01*
X-6709416Y-10730921D01*
X-6710662Y-10775570D01*
X-6715125Y-10794319D01*
X-6719340Y-10795460D01*
X-6752040Y-10806728D01*
X-6805084Y-10826075D01*
X-6878799Y-10843851D01*
X-6984455Y-10853789D01*
X-7102758Y-10854189D01*
X-7220128Y-10845569D01*
X-7322985Y-10828452D01*
X-7397750Y-10803357D01*
X-7419367Y-10790983D01*
X-7496525Y-10720438D01*
X-7548043Y-10628592D01*
X-7571154Y-10526041D01*
X-7563091Y-10423381D01*
X-7521085Y-10331207D01*
X-7513275Y-10322032D01*
X-7466074Y-10283729D01*
X-7395170Y-10239145D01*
X-7312382Y-10195941D01*
X-7234662Y-10159178D01*
X-7118356Y-10102874D01*
X-7033708Y-10058742D01*
X-6976248Y-10023328D01*
X-6941502Y-9993181D01*
X-6925000Y-9964847D01*
X-6922270Y-9934873D01*
X-6928839Y-9899808D01*
X-6956043Y-9853320D01*
X-7018279Y-9817646D01*
X-7108278Y-9801931D01*
X-7220478Y-9807048D01*
X-7349313Y-9833868D01*
X-7406606Y-9848627D01*
X-7458667Y-9858905D01*
X-7482317Y-9859239D01*
X-7484766Y-9855919D01*
X-7501239Y-9823951D01*
X-7524021Y-9772425D01*
X-7556396Y-9694942D01*
X-7445323Y-9661630D01*
X-7354245Y-9641089D01*
X-7225812Y-9628161D01*
X-7095644Y-9629542D01*
G37*
X-7095644Y-9629542D02*
X-6977708Y-9644924D01*
X-6885968Y-9673998D01*
X-6837610Y-9700682D01*
X-6761667Y-9768295D01*
X-6722109Y-9854026D01*
X-6715702Y-9963371D01*
X-6717382Y-9982513D01*
X-6728966Y-10044811D01*
X-6753050Y-10097101D01*
X-6795030Y-10144447D01*
X-6860299Y-10191912D01*
X-6954250Y-10244557D01*
X-7082276Y-10307445D01*
X-7102724Y-10317242D01*
X-7196339Y-10364606D01*
X-7274197Y-10407994D01*
X-7328675Y-10442955D01*
X-7352151Y-10465039D01*
X-7362996Y-10537677D01*
X-7338456Y-10598845D01*
X-7283417Y-10645534D01*
X-7203164Y-10675764D01*
X-7102980Y-10687555D01*
X-6988151Y-10678928D01*
X-6863960Y-10647905D01*
X-6798165Y-10626196D01*
X-6745446Y-10609779D01*
X-6721085Y-10603500D01*
X-6719900Y-10604267D01*
X-6714543Y-10629000D01*
X-6710879Y-10676641D01*
X-6709416Y-10730921D01*
X-6710662Y-10775570D01*
X-6715125Y-10794319D01*
X-6719340Y-10795460D01*
X-6752040Y-10806728D01*
X-6805084Y-10826075D01*
X-6878799Y-10843851D01*
X-6984455Y-10853789D01*
X-7102758Y-10854189D01*
X-7220128Y-10845569D01*
X-7322985Y-10828452D01*
X-7397750Y-10803357D01*
X-7419367Y-10790983D01*
X-7496525Y-10720438D01*
X-7548043Y-10628592D01*
X-7571154Y-10526041D01*
X-7563091Y-10423381D01*
X-7521085Y-10331207D01*
X-7513275Y-10322032D01*
X-7466074Y-10283729D01*
X-7395170Y-10239145D01*
X-7312382Y-10195941D01*
X-7234662Y-10159178D01*
X-7118356Y-10102874D01*
X-7033708Y-10058742D01*
X-6976248Y-10023328D01*
X-6941502Y-9993181D01*
X-6925000Y-9964847D01*
X-6922270Y-9934873D01*
X-6928839Y-9899808D01*
X-6956043Y-9853320D01*
X-7018279Y-9817646D01*
X-7108278Y-9801931D01*
X-7220478Y-9807048D01*
X-7349313Y-9833868D01*
X-7406606Y-9848627D01*
X-7458667Y-9858905D01*
X-7482317Y-9859239D01*
X-7484766Y-9855919D01*
X-7501239Y-9823951D01*
X-7524021Y-9772425D01*
X-7556396Y-9694942D01*
X-7445323Y-9661630D01*
X-7354245Y-9641089D01*
X-7225812Y-9628161D01*
X-7095644Y-9629542D01*
G36*
X-5969000Y-8846667D02*
G01*
X-6371167Y-8846667D01*
X-6371167Y-5460000D01*
X-5969000Y-5460000D01*
X-5969000Y-8846667D01*
G37*
X-5969000Y-8846667D02*
X-6371167Y-8846667D01*
X-6371167Y-5460000D01*
X-5969000Y-5460000D01*
X-5969000Y-8846667D01*
G36*
X-42334Y-8846667D02*
G01*
X-444500Y-8846667D01*
X-444500Y-6454833D01*
X-42334Y-6454833D01*
X-42334Y-8846667D01*
G37*
X-42334Y-8846667D02*
X-444500Y-8846667D01*
X-444500Y-6454833D01*
X-42334Y-6454833D01*
X-42334Y-8846667D01*
G36*
X-2398203Y-10349621D02*
G01*
X-2433479Y-10504004D01*
X-2497078Y-10637283D01*
X-2586080Y-10743981D01*
X-2697569Y-10818617D01*
X-2726000Y-10830606D01*
X-2786120Y-10846706D01*
X-2861331Y-10853527D01*
X-2965050Y-10852783D01*
X-2987807Y-10851990D01*
X-3075770Y-10846488D01*
X-3138900Y-10835586D01*
X-3191670Y-10815743D01*
X-3248555Y-10783417D01*
X-3339367Y-10709823D01*
X-3416171Y-10603500D01*
X-3433440Y-10572393D01*
X-3456241Y-10525434D01*
X-3470483Y-10480061D01*
X-3478173Y-10425294D01*
X-3481315Y-10350156D01*
X-3481917Y-10243667D01*
X-3481898Y-10233083D01*
X-3270250Y-10233083D01*
X-3263314Y-10368023D01*
X-3238983Y-10480838D01*
X-3194953Y-10566546D01*
X-3128952Y-10631548D01*
X-3077758Y-10658731D01*
X-2982901Y-10680495D01*
X-2882247Y-10678728D01*
X-2794114Y-10652297D01*
X-2724458Y-10602145D01*
X-2663599Y-10514776D01*
X-2627437Y-10396098D01*
X-2615013Y-10243925D01*
X-2619924Y-10130088D01*
X-2643773Y-10013382D01*
X-2689630Y-9923331D01*
X-2759963Y-9853283D01*
X-2781596Y-9839853D01*
X-2863304Y-9813963D01*
X-2959368Y-9807772D01*
X-3052603Y-9821232D01*
X-3125823Y-9854296D01*
X-3148044Y-9871761D01*
X-3206936Y-9933768D01*
X-3244522Y-10008331D01*
X-3264421Y-10104940D01*
X-3270250Y-10233083D01*
X-3481898Y-10233083D01*
X-3481826Y-10193792D01*
X-3480253Y-10101209D01*
X-3475249Y-10035441D01*
X-3464931Y-9985585D01*
X-3447417Y-9940740D01*
X-3420823Y-9890004D01*
X-3416567Y-9882437D01*
X-3331427Y-9768216D01*
X-3224776Y-9688475D01*
X-3093783Y-9641674D01*
X-2935616Y-9626275D01*
X-2905589Y-9626821D01*
X-2754083Y-9650404D01*
X-2627177Y-9707731D01*
X-2526185Y-9797308D01*
X-2452421Y-9917641D01*
X-2407199Y-10067237D01*
X-2391892Y-10243925D01*
X-2391834Y-10244600D01*
X-2398203Y-10349621D01*
G37*
X-2398203Y-10349621D02*
X-2433479Y-10504004D01*
X-2497078Y-10637283D01*
X-2586080Y-10743981D01*
X-2697569Y-10818617D01*
X-2726000Y-10830606D01*
X-2786120Y-10846706D01*
X-2861331Y-10853527D01*
X-2965050Y-10852783D01*
X-2987807Y-10851990D01*
X-3075770Y-10846488D01*
X-3138900Y-10835586D01*
X-3191670Y-10815743D01*
X-3248555Y-10783417D01*
X-3339367Y-10709823D01*
X-3416171Y-10603500D01*
X-3433440Y-10572393D01*
X-3456241Y-10525434D01*
X-3470483Y-10480061D01*
X-3478173Y-10425294D01*
X-3481315Y-10350156D01*
X-3481917Y-10243667D01*
X-3481898Y-10233083D01*
X-3270250Y-10233083D01*
X-3263314Y-10368023D01*
X-3238983Y-10480838D01*
X-3194953Y-10566546D01*
X-3128952Y-10631548D01*
X-3077758Y-10658731D01*
X-2982901Y-10680495D01*
X-2882247Y-10678728D01*
X-2794114Y-10652297D01*
X-2724458Y-10602145D01*
X-2663599Y-10514776D01*
X-2627437Y-10396098D01*
X-2615013Y-10243925D01*
X-2619924Y-10130088D01*
X-2643773Y-10013382D01*
X-2689630Y-9923331D01*
X-2759963Y-9853283D01*
X-2781596Y-9839853D01*
X-2863304Y-9813963D01*
X-2959368Y-9807772D01*
X-3052603Y-9821232D01*
X-3125823Y-9854296D01*
X-3148044Y-9871761D01*
X-3206936Y-9933768D01*
X-3244522Y-10008331D01*
X-3264421Y-10104940D01*
X-3270250Y-10233083D01*
X-3481898Y-10233083D01*
X-3481826Y-10193792D01*
X-3480253Y-10101209D01*
X-3475249Y-10035441D01*
X-3464931Y-9985585D01*
X-3447417Y-9940740D01*
X-3420823Y-9890004D01*
X-3416567Y-9882437D01*
X-3331427Y-9768216D01*
X-3224776Y-9688475D01*
X-3093783Y-9641674D01*
X-2935616Y-9626275D01*
X-2905589Y-9626821D01*
X-2754083Y-9650404D01*
X-2627177Y-9707731D01*
X-2526185Y-9797308D01*
X-2452421Y-9917641D01*
X-2407199Y-10067237D01*
X-2391892Y-10243925D01*
X-2391834Y-10244600D01*
X-2398203Y-10349621D01*
G36*
X-5143500Y-10836333D02*
G01*
X-5376334Y-10836333D01*
X-5376334Y-9651000D01*
X-5143500Y-9651000D01*
X-5143500Y-10836333D01*
G37*
X-5143500Y-10836333D02*
X-5376334Y-10836333D01*
X-5376334Y-9651000D01*
X-5143500Y-9651000D01*
X-5143500Y-10836333D01*
G36*
X7506051Y-9361369D02*
G01*
X7467093Y-9501614D01*
X7392915Y-9624242D01*
X7288709Y-9722624D01*
X7159668Y-9790134D01*
X7099387Y-9807268D01*
X6959277Y-9817739D01*
X6820347Y-9791642D01*
X6692421Y-9731546D01*
X6585323Y-9640018D01*
X6519875Y-9554744D01*
X6478917Y-9468892D01*
X6460179Y-9370945D01*
X6459231Y-9256857D01*
X6733067Y-9256857D01*
X6740588Y-9342871D01*
X6780826Y-9425523D01*
X6856147Y-9496906D01*
X6868757Y-9505162D01*
X6940446Y-9538408D01*
X7009174Y-9539132D01*
X7090833Y-9508092D01*
X7127050Y-9485326D01*
X7190241Y-9415436D01*
X7226938Y-9328668D01*
X7229944Y-9238946D01*
X7204246Y-9173899D01*
X7146843Y-9105290D01*
X7072389Y-9056036D01*
X6993796Y-9037167D01*
X6982787Y-9037345D01*
X6883122Y-9057726D01*
X6806701Y-9106377D01*
X6755894Y-9175390D01*
X6733067Y-9256857D01*
X6459231Y-9256857D01*
X6459148Y-9246840D01*
X6466416Y-9083615D01*
X5967310Y-8578336D01*
X5891535Y-8501455D01*
X5763285Y-8370179D01*
X5661398Y-8263875D01*
X5583205Y-8179550D01*
X5526038Y-8114207D01*
X5487230Y-8064854D01*
X5464112Y-8028494D01*
X5454018Y-8002133D01*
X5450884Y-7980098D01*
X5445936Y-7910256D01*
X5442517Y-7813151D01*
X5440625Y-7698719D01*
X5440260Y-7576900D01*
X5441421Y-7457630D01*
X5444108Y-7350848D01*
X5448321Y-7266492D01*
X5454058Y-7214500D01*
X5455355Y-7209388D01*
X5466791Y-7184849D01*
X5490239Y-7150396D01*
X5527973Y-7103562D01*
X5582266Y-7041876D01*
X5655392Y-6962869D01*
X5749624Y-6864073D01*
X5867235Y-6743018D01*
X6010500Y-6597236D01*
X6181692Y-6424257D01*
X6895100Y-5705137D01*
X7172755Y-5696486D01*
X7286700Y-5694361D01*
X7411812Y-5694736D01*
X7524940Y-5697649D01*
X7610935Y-5702878D01*
X7771460Y-5717920D01*
X8477250Y-6402768D01*
X8572500Y-6355944D01*
X8692264Y-6308188D01*
X8877796Y-6270054D01*
X9071691Y-6267894D01*
X9265941Y-6301572D01*
X9452537Y-6370951D01*
X9515992Y-6408014D01*
X9612673Y-6480854D01*
X9710099Y-6569028D01*
X9795600Y-6660821D01*
X9856509Y-6744519D01*
X9908726Y-6849904D01*
X9964681Y-7028891D01*
X9990521Y-7218681D01*
X9989303Y-7259931D01*
X9984954Y-7407263D01*
X9946686Y-7582626D01*
X9880076Y-7738051D01*
X9772151Y-7900684D01*
X9637987Y-8036393D01*
X9482521Y-8143094D01*
X9310688Y-8218705D01*
X9127426Y-8261141D01*
X8937670Y-8268320D01*
X8746357Y-8238157D01*
X8558424Y-8168569D01*
X8460970Y-8114733D01*
X8300940Y-7991514D01*
X8172843Y-7842345D01*
X8078765Y-7670577D01*
X8020788Y-7479561D01*
X8002342Y-7286682D01*
X8467364Y-7286682D01*
X8491829Y-7433491D01*
X8501688Y-7460638D01*
X8552630Y-7549241D01*
X8625607Y-7636106D01*
X8708715Y-7708458D01*
X8790048Y-7753523D01*
X8808478Y-7759836D01*
X8964390Y-7792946D01*
X9109638Y-7785521D01*
X9245792Y-7737506D01*
X9258818Y-7730175D01*
X9330629Y-7673591D01*
X9402895Y-7595403D01*
X9463445Y-7510204D01*
X9500107Y-7432588D01*
X9507499Y-7405650D01*
X9524623Y-7259931D01*
X9505075Y-7121457D01*
X9452813Y-6995739D01*
X9371798Y-6888290D01*
X9265990Y-6804621D01*
X9139349Y-6750245D01*
X8995833Y-6730671D01*
X8965527Y-6731429D01*
X8825327Y-6757867D01*
X8702768Y-6818038D01*
X8601770Y-6906473D01*
X8526256Y-7017705D01*
X8480147Y-7146264D01*
X8467364Y-7286682D01*
X8002342Y-7286682D01*
X8001000Y-7272647D01*
X8002486Y-7217220D01*
X8015994Y-7087870D01*
X8041255Y-6964202D01*
X8075421Y-6858391D01*
X8115642Y-6782615D01*
X8117608Y-6779910D01*
X8125590Y-6763725D01*
X8124308Y-6744671D01*
X8110288Y-6718268D01*
X8080055Y-6680034D01*
X8030133Y-6625489D01*
X7957048Y-6550152D01*
X7857325Y-6449542D01*
X7567650Y-6158500D01*
X7101138Y-6158500D01*
X5905500Y-7354690D01*
X5905500Y-7858192D01*
X6355163Y-8314638D01*
X6804827Y-8771084D01*
X6953799Y-8764867D01*
X7063630Y-8766694D01*
X7179953Y-8791328D01*
X7279574Y-8845134D01*
X7373683Y-8932578D01*
X7388263Y-8949292D01*
X7467047Y-9069358D01*
X7506180Y-9199161D01*
X7506652Y-9238946D01*
X7507914Y-9345630D01*
X7506051Y-9361369D01*
G37*
X7506051Y-9361369D02*
X7467093Y-9501614D01*
X7392915Y-9624242D01*
X7288709Y-9722624D01*
X7159668Y-9790134D01*
X7099387Y-9807268D01*
X6959277Y-9817739D01*
X6820347Y-9791642D01*
X6692421Y-9731546D01*
X6585323Y-9640018D01*
X6519875Y-9554744D01*
X6478917Y-9468892D01*
X6460179Y-9370945D01*
X6459231Y-9256857D01*
X6733067Y-9256857D01*
X6740588Y-9342871D01*
X6780826Y-9425523D01*
X6856147Y-9496906D01*
X6868757Y-9505162D01*
X6940446Y-9538408D01*
X7009174Y-9539132D01*
X7090833Y-9508092D01*
X7127050Y-9485326D01*
X7190241Y-9415436D01*
X7226938Y-9328668D01*
X7229944Y-9238946D01*
X7204246Y-9173899D01*
X7146843Y-9105290D01*
X7072389Y-9056036D01*
X6993796Y-9037167D01*
X6982787Y-9037345D01*
X6883122Y-9057726D01*
X6806701Y-9106377D01*
X6755894Y-9175390D01*
X6733067Y-9256857D01*
X6459231Y-9256857D01*
X6459148Y-9246840D01*
X6466416Y-9083615D01*
X5967310Y-8578336D01*
X5891535Y-8501455D01*
X5763285Y-8370179D01*
X5661398Y-8263875D01*
X5583205Y-8179550D01*
X5526038Y-8114207D01*
X5487230Y-8064854D01*
X5464112Y-8028494D01*
X5454018Y-8002133D01*
X5450884Y-7980098D01*
X5445936Y-7910256D01*
X5442517Y-7813151D01*
X5440625Y-7698719D01*
X5440260Y-7576900D01*
X5441421Y-7457630D01*
X5444108Y-7350848D01*
X5448321Y-7266492D01*
X5454058Y-7214500D01*
X5455355Y-7209388D01*
X5466791Y-7184849D01*
X5490239Y-7150396D01*
X5527973Y-7103562D01*
X5582266Y-7041876D01*
X5655392Y-6962869D01*
X5749624Y-6864073D01*
X5867235Y-6743018D01*
X6010500Y-6597236D01*
X6181692Y-6424257D01*
X6895100Y-5705137D01*
X7172755Y-5696486D01*
X7286700Y-5694361D01*
X7411812Y-5694736D01*
X7524940Y-5697649D01*
X7610935Y-5702878D01*
X7771460Y-5717920D01*
X8477250Y-6402768D01*
X8572500Y-6355944D01*
X8692264Y-6308188D01*
X8877796Y-6270054D01*
X9071691Y-6267894D01*
X9265941Y-6301572D01*
X9452537Y-6370951D01*
X9515992Y-6408014D01*
X9612673Y-6480854D01*
X9710099Y-6569028D01*
X9795600Y-6660821D01*
X9856509Y-6744519D01*
X9908726Y-6849904D01*
X9964681Y-7028891D01*
X9990521Y-7218681D01*
X9989303Y-7259931D01*
X9984954Y-7407263D01*
X9946686Y-7582626D01*
X9880076Y-7738051D01*
X9772151Y-7900684D01*
X9637987Y-8036393D01*
X9482521Y-8143094D01*
X9310688Y-8218705D01*
X9127426Y-8261141D01*
X8937670Y-8268320D01*
X8746357Y-8238157D01*
X8558424Y-8168569D01*
X8460970Y-8114733D01*
X8300940Y-7991514D01*
X8172843Y-7842345D01*
X8078765Y-7670577D01*
X8020788Y-7479561D01*
X8002342Y-7286682D01*
X8467364Y-7286682D01*
X8491829Y-7433491D01*
X8501688Y-7460638D01*
X8552630Y-7549241D01*
X8625607Y-7636106D01*
X8708715Y-7708458D01*
X8790048Y-7753523D01*
X8808478Y-7759836D01*
X8964390Y-7792946D01*
X9109638Y-7785521D01*
X9245792Y-7737506D01*
X9258818Y-7730175D01*
X9330629Y-7673591D01*
X9402895Y-7595403D01*
X9463445Y-7510204D01*
X9500107Y-7432588D01*
X9507499Y-7405650D01*
X9524623Y-7259931D01*
X9505075Y-7121457D01*
X9452813Y-6995739D01*
X9371798Y-6888290D01*
X9265990Y-6804621D01*
X9139349Y-6750245D01*
X8995833Y-6730671D01*
X8965527Y-6731429D01*
X8825327Y-6757867D01*
X8702768Y-6818038D01*
X8601770Y-6906473D01*
X8526256Y-7017705D01*
X8480147Y-7146264D01*
X8467364Y-7286682D01*
X8002342Y-7286682D01*
X8001000Y-7272647D01*
X8002486Y-7217220D01*
X8015994Y-7087870D01*
X8041255Y-6964202D01*
X8075421Y-6858391D01*
X8115642Y-6782615D01*
X8117608Y-6779910D01*
X8125590Y-6763725D01*
X8124308Y-6744671D01*
X8110288Y-6718268D01*
X8080055Y-6680034D01*
X8030133Y-6625489D01*
X7957048Y-6550152D01*
X7857325Y-6449542D01*
X7567650Y-6158500D01*
X7101138Y-6158500D01*
X5905500Y-7354690D01*
X5905500Y-7858192D01*
X6355163Y-8314638D01*
X6804827Y-8771084D01*
X6953799Y-8764867D01*
X7063630Y-8766694D01*
X7179953Y-8791328D01*
X7279574Y-8845134D01*
X7373683Y-8932578D01*
X7388263Y-8949292D01*
X7467047Y-9069358D01*
X7506180Y-9199161D01*
X7506652Y-9238946D01*
X7507914Y-9345630D01*
X7506051Y-9361369D01*
G36*
X1973791Y-9147185D02*
G01*
X2084916Y-9153583D01*
X2095986Y-10836333D01*
X1862666Y-10836333D01*
X1862666Y-9140788D01*
X1973791Y-9147185D01*
G37*
X1973791Y-9147185D02*
X2084916Y-9153583D01*
X2095986Y-10836333D01*
X1862666Y-10836333D01*
X1862666Y-9140788D01*
X1973791Y-9147185D01*
G36*
X-9711236Y-5577091D02*
G01*
X-9625876Y-5627597D01*
X-9590833Y-5661605D01*
X-9568237Y-5697517D01*
X-9558707Y-5745169D01*
X-9556750Y-5819833D01*
X-9558180Y-5887252D01*
X-9566509Y-5937344D01*
X-9587244Y-5973859D01*
X-9625876Y-6012069D01*
X-9626728Y-6012828D01*
X-9712219Y-6062903D01*
X-9807217Y-6072769D01*
X-9906424Y-6041864D01*
X-9936213Y-6024346D01*
X-9981637Y-5978895D01*
X-10005137Y-5914317D01*
X-10011834Y-5819833D01*
X-10010504Y-5771803D01*
X-9996685Y-5692468D01*
X-9963697Y-5638061D01*
X-9906424Y-5597802D01*
X-9905349Y-5597249D01*
X-9806159Y-5566787D01*
X-9711236Y-5577091D01*
G37*
X-9711236Y-5577091D02*
X-9625876Y-5627597D01*
X-9590833Y-5661605D01*
X-9568237Y-5697517D01*
X-9558707Y-5745169D01*
X-9556750Y-5819833D01*
X-9558180Y-5887252D01*
X-9566509Y-5937344D01*
X-9587244Y-5973859D01*
X-9625876Y-6012069D01*
X-9626728Y-6012828D01*
X-9712219Y-6062903D01*
X-9807217Y-6072769D01*
X-9906424Y-6041864D01*
X-9936213Y-6024346D01*
X-9981637Y-5978895D01*
X-10005137Y-5914317D01*
X-10011834Y-5819833D01*
X-10010504Y-5771803D01*
X-9996685Y-5692468D01*
X-9963697Y-5638061D01*
X-9906424Y-5597802D01*
X-9905349Y-5597249D01*
X-9806159Y-5566787D01*
X-9711236Y-5577091D01*
G36*
X5897540Y-9700014D02*
G01*
X5846689Y-9814997D01*
X6424631Y-10391833D01*
X6902551Y-10391833D01*
X8106833Y-9199871D01*
X8106833Y-8736593D01*
X7636478Y-8255320D01*
X7166123Y-7774048D01*
X7086569Y-7794241D01*
X6971393Y-7804798D01*
X6844952Y-7781659D01*
X6722636Y-7727917D01*
X6614520Y-7648060D01*
X6530677Y-7546576D01*
X6522212Y-7532700D01*
X6492458Y-7477403D01*
X6475616Y-7425591D01*
X6468123Y-7362011D01*
X6466713Y-7287195D01*
X6737059Y-7287195D01*
X6760853Y-7374306D01*
X6819544Y-7453288D01*
X6853217Y-7481287D01*
X6908167Y-7506526D01*
X6981947Y-7513061D01*
X7046783Y-7505858D01*
X7134135Y-7468061D01*
X7197371Y-7404710D01*
X7232025Y-7323552D01*
X7233630Y-7232336D01*
X7197720Y-7138809D01*
X7153210Y-7081249D01*
X7079308Y-7034933D01*
X6981688Y-7020560D01*
X6927693Y-7026037D01*
X6843480Y-7061376D01*
X6781531Y-7122301D01*
X6745005Y-7200383D01*
X6737059Y-7287195D01*
X6466713Y-7287195D01*
X6466416Y-7271410D01*
X6466419Y-7266821D01*
X6468551Y-7175910D01*
X6476954Y-7111220D01*
X6494995Y-7057371D01*
X6526040Y-6998982D01*
X6553861Y-6956188D01*
X6650624Y-6853162D01*
X6765394Y-6782478D01*
X6891475Y-6743938D01*
X7022172Y-6737344D01*
X7150788Y-6762499D01*
X7270629Y-6819205D01*
X7374998Y-6907264D01*
X7457200Y-7026479D01*
X7481062Y-7075912D01*
X7502914Y-7138575D01*
X7511527Y-7204682D01*
X7511289Y-7232336D01*
X7510764Y-7293496D01*
X7504878Y-7444242D01*
X8026587Y-7977668D01*
X8548295Y-8511095D01*
X8562503Y-8643769D01*
X8563212Y-8650854D01*
X8567795Y-8727371D01*
X8570475Y-8831744D01*
X8571049Y-8951155D01*
X8569314Y-9072791D01*
X8561916Y-9369138D01*
X8406882Y-9541080D01*
X8359390Y-9591834D01*
X8283563Y-9669998D01*
X8186166Y-9768564D01*
X8071810Y-9882924D01*
X7945105Y-10008469D01*
X7810660Y-10140590D01*
X7673087Y-10274677D01*
X7094326Y-10836333D01*
X6663955Y-10835384D01*
X6233583Y-10834435D01*
X5516367Y-10143863D01*
X5379359Y-10207977D01*
X5356438Y-10218501D01*
X5286303Y-10246503D01*
X5218186Y-10264246D01*
X5137306Y-10274825D01*
X5028884Y-10281333D01*
X5003879Y-10282355D01*
X4901067Y-10284214D01*
X4822661Y-10279595D01*
X4753952Y-10266957D01*
X4680234Y-10244755D01*
X4497630Y-10163734D01*
X4335863Y-10051842D01*
X4202449Y-9915789D01*
X4098866Y-9760264D01*
X4026594Y-9589950D01*
X3987109Y-9409533D01*
X3985363Y-9347349D01*
X4453763Y-9347349D01*
X4486655Y-9476369D01*
X4553384Y-9594905D01*
X4652779Y-9696911D01*
X4783666Y-9776337D01*
X4867852Y-9805470D01*
X4998963Y-9818767D01*
X5126221Y-9797292D01*
X5244229Y-9745458D01*
X5347590Y-9667677D01*
X5430906Y-9568362D01*
X5488779Y-9451925D01*
X5515813Y-9322777D01*
X5506609Y-9185333D01*
X5495384Y-9140512D01*
X5434683Y-9004726D01*
X5341800Y-8892414D01*
X5221862Y-8808704D01*
X5080000Y-8758724D01*
X5003896Y-8748456D01*
X4864813Y-8760516D01*
X4734722Y-8813643D01*
X4615127Y-8907357D01*
X4569849Y-8957864D01*
X4494188Y-9082049D01*
X4455883Y-9213893D01*
X4453763Y-9347349D01*
X3985363Y-9347349D01*
X3981892Y-9223700D01*
X4012421Y-9037135D01*
X4080173Y-8854524D01*
X4186629Y-8680553D01*
X4235343Y-8620758D01*
X4381244Y-8485625D01*
X4549257Y-8383089D01*
X4733460Y-8315579D01*
X4927933Y-8285520D01*
X5126753Y-8295338D01*
X5254373Y-8323159D01*
X5437422Y-8395163D01*
X5598375Y-8497983D01*
X5734747Y-8627088D01*
X5844050Y-8777949D01*
X5923800Y-8946035D01*
X5971510Y-9126814D01*
X5984694Y-9315758D01*
X5983825Y-9322777D01*
X5960866Y-9508335D01*
X5897540Y-9700014D01*
G37*
X5897540Y-9700014D02*
X5846689Y-9814997D01*
X6424631Y-10391833D01*
X6902551Y-10391833D01*
X8106833Y-9199871D01*
X8106833Y-8736593D01*
X7636478Y-8255320D01*
X7166123Y-7774048D01*
X7086569Y-7794241D01*
X6971393Y-7804798D01*
X6844952Y-7781659D01*
X6722636Y-7727917D01*
X6614520Y-7648060D01*
X6530677Y-7546576D01*
X6522212Y-7532700D01*
X6492458Y-7477403D01*
X6475616Y-7425591D01*
X6468123Y-7362011D01*
X6466713Y-7287195D01*
X6737059Y-7287195D01*
X6760853Y-7374306D01*
X6819544Y-7453288D01*
X6853217Y-7481287D01*
X6908167Y-7506526D01*
X6981947Y-7513061D01*
X7046783Y-7505858D01*
X7134135Y-7468061D01*
X7197371Y-7404710D01*
X7232025Y-7323552D01*
X7233630Y-7232336D01*
X7197720Y-7138809D01*
X7153210Y-7081249D01*
X7079308Y-7034933D01*
X6981688Y-7020560D01*
X6927693Y-7026037D01*
X6843480Y-7061376D01*
X6781531Y-7122301D01*
X6745005Y-7200383D01*
X6737059Y-7287195D01*
X6466713Y-7287195D01*
X6466416Y-7271410D01*
X6466419Y-7266821D01*
X6468551Y-7175910D01*
X6476954Y-7111220D01*
X6494995Y-7057371D01*
X6526040Y-6998982D01*
X6553861Y-6956188D01*
X6650624Y-6853162D01*
X6765394Y-6782478D01*
X6891475Y-6743938D01*
X7022172Y-6737344D01*
X7150788Y-6762499D01*
X7270629Y-6819205D01*
X7374998Y-6907264D01*
X7457200Y-7026479D01*
X7481062Y-7075912D01*
X7502914Y-7138575D01*
X7511527Y-7204682D01*
X7511289Y-7232336D01*
X7510764Y-7293496D01*
X7504878Y-7444242D01*
X8026587Y-7977668D01*
X8548295Y-8511095D01*
X8562503Y-8643769D01*
X8563212Y-8650854D01*
X8567795Y-8727371D01*
X8570475Y-8831744D01*
X8571049Y-8951155D01*
X8569314Y-9072791D01*
X8561916Y-9369138D01*
X8406882Y-9541080D01*
X8359390Y-9591834D01*
X8283563Y-9669998D01*
X8186166Y-9768564D01*
X8071810Y-9882924D01*
X7945105Y-10008469D01*
X7810660Y-10140590D01*
X7673087Y-10274677D01*
X7094326Y-10836333D01*
X6663955Y-10835384D01*
X6233583Y-10834435D01*
X5516367Y-10143863D01*
X5379359Y-10207977D01*
X5356438Y-10218501D01*
X5286303Y-10246503D01*
X5218186Y-10264246D01*
X5137306Y-10274825D01*
X5028884Y-10281333D01*
X5003879Y-10282355D01*
X4901067Y-10284214D01*
X4822661Y-10279595D01*
X4753952Y-10266957D01*
X4680234Y-10244755D01*
X4497630Y-10163734D01*
X4335863Y-10051842D01*
X4202449Y-9915789D01*
X4098866Y-9760264D01*
X4026594Y-9589950D01*
X3987109Y-9409533D01*
X3985363Y-9347349D01*
X4453763Y-9347349D01*
X4486655Y-9476369D01*
X4553384Y-9594905D01*
X4652779Y-9696911D01*
X4783666Y-9776337D01*
X4867852Y-9805470D01*
X4998963Y-9818767D01*
X5126221Y-9797292D01*
X5244229Y-9745458D01*
X5347590Y-9667677D01*
X5430906Y-9568362D01*
X5488779Y-9451925D01*
X5515813Y-9322777D01*
X5506609Y-9185333D01*
X5495384Y-9140512D01*
X5434683Y-9004726D01*
X5341800Y-8892414D01*
X5221862Y-8808704D01*
X5080000Y-8758724D01*
X5003896Y-8748456D01*
X4864813Y-8760516D01*
X4734722Y-8813643D01*
X4615127Y-8907357D01*
X4569849Y-8957864D01*
X4494188Y-9082049D01*
X4455883Y-9213893D01*
X4453763Y-9347349D01*
X3985363Y-9347349D01*
X3981892Y-9223700D01*
X4012421Y-9037135D01*
X4080173Y-8854524D01*
X4186629Y-8680553D01*
X4235343Y-8620758D01*
X4381244Y-8485625D01*
X4549257Y-8383089D01*
X4733460Y-8315579D01*
X4927933Y-8285520D01*
X5126753Y-8295338D01*
X5254373Y-8323159D01*
X5437422Y-8395163D01*
X5598375Y-8497983D01*
X5734747Y-8627088D01*
X5844050Y-8777949D01*
X5923800Y-8946035D01*
X5971510Y-9126814D01*
X5984694Y-9315758D01*
X5983825Y-9322777D01*
X5960866Y-9508335D01*
X5897540Y-9700014D01*
G36*
X1573873Y-10264833D02*
G01*
X1570594Y-10349863D01*
X1543913Y-10502822D01*
X1488886Y-10627181D01*
X1403681Y-10726377D01*
X1286467Y-10803846D01*
X1279837Y-10807190D01*
X1227417Y-10831588D01*
X1180387Y-10846595D01*
X1126833Y-10853952D01*
X1054842Y-10855401D01*
X952500Y-10852685D01*
X907092Y-10850792D01*
X781541Y-10840322D01*
X691957Y-10821926D01*
X633706Y-10793632D01*
X602154Y-10753467D01*
X592666Y-10699455D01*
X592735Y-10693245D01*
X598770Y-10642616D01*
X611579Y-10615476D01*
X621418Y-10613533D01*
X663914Y-10619722D01*
X722704Y-10637537D01*
X781540Y-10654892D01*
X892188Y-10672001D01*
X1005880Y-10674292D01*
X1108349Y-10661852D01*
X1185333Y-10634766D01*
X1238035Y-10591785D01*
X1296277Y-10514887D01*
X1338431Y-10427024D01*
X1354666Y-10345015D01*
X1354666Y-10286000D01*
X550333Y-10286000D01*
X550333Y-10172947D01*
X554862Y-10116667D01*
X783166Y-10116667D01*
X1068916Y-10116667D01*
X1165527Y-10116588D01*
X1256352Y-10114692D01*
X1313892Y-10108027D01*
X1343243Y-10093619D01*
X1349498Y-10068498D01*
X1337752Y-10029692D01*
X1313099Y-9974229D01*
X1292230Y-9935260D01*
X1223993Y-9858599D01*
X1139967Y-9812874D01*
X1048578Y-9798526D01*
X958252Y-9815996D01*
X877415Y-9865724D01*
X814494Y-9948151D01*
X793088Y-10004198D01*
X783166Y-10062699D01*
X783166Y-10116667D01*
X554862Y-10116667D01*
X561416Y-10035216D01*
X603268Y-9893384D01*
X674634Y-9779768D01*
X773781Y-9696265D01*
X898979Y-9644773D01*
X1048497Y-9627187D01*
X1095006Y-9628658D01*
X1237575Y-9655919D01*
X1356901Y-9718112D01*
X1454476Y-9815932D01*
X1509893Y-9903257D01*
X1547740Y-10001662D01*
X1559377Y-10068498D01*
X1568077Y-10118468D01*
X1573873Y-10264833D01*
G37*
X1573873Y-10264833D02*
X1570594Y-10349863D01*
X1543913Y-10502822D01*
X1488886Y-10627181D01*
X1403681Y-10726377D01*
X1286467Y-10803846D01*
X1279837Y-10807190D01*
X1227417Y-10831588D01*
X1180387Y-10846595D01*
X1126833Y-10853952D01*
X1054842Y-10855401D01*
X952500Y-10852685D01*
X907092Y-10850792D01*
X781541Y-10840322D01*
X691957Y-10821926D01*
X633706Y-10793632D01*
X602154Y-10753467D01*
X592666Y-10699455D01*
X592735Y-10693245D01*
X598770Y-10642616D01*
X611579Y-10615476D01*
X621418Y-10613533D01*
X663914Y-10619722D01*
X722704Y-10637537D01*
X781540Y-10654892D01*
X892188Y-10672001D01*
X1005880Y-10674292D01*
X1108349Y-10661852D01*
X1185333Y-10634766D01*
X1238035Y-10591785D01*
X1296277Y-10514887D01*
X1338431Y-10427024D01*
X1354666Y-10345015D01*
X1354666Y-10286000D01*
X550333Y-10286000D01*
X550333Y-10172947D01*
X554862Y-10116667D01*
X783166Y-10116667D01*
X1068916Y-10116667D01*
X1165527Y-10116588D01*
X1256352Y-10114692D01*
X1313892Y-10108027D01*
X1343243Y-10093619D01*
X1349498Y-10068498D01*
X1337752Y-10029692D01*
X1313099Y-9974229D01*
X1292230Y-9935260D01*
X1223993Y-9858599D01*
X1139967Y-9812874D01*
X1048578Y-9798526D01*
X958252Y-9815996D01*
X877415Y-9865724D01*
X814494Y-9948151D01*
X793088Y-10004198D01*
X783166Y-10062699D01*
X783166Y-10116667D01*
X554862Y-10116667D01*
X561416Y-10035216D01*
X603268Y-9893384D01*
X674634Y-9779768D01*
X773781Y-9696265D01*
X898979Y-9644773D01*
X1048497Y-9627187D01*
X1095006Y-9628658D01*
X1237575Y-9655919D01*
X1356901Y-9718112D01*
X1454476Y-9815932D01*
X1509893Y-9903257D01*
X1547740Y-10001662D01*
X1559377Y-10068498D01*
X1568077Y-10118468D01*
X1573873Y-10264833D01*
G36*
X-165069Y-5577091D02*
G01*
X-79709Y-5627597D01*
X-44666Y-5661605D01*
X-22071Y-5697517D01*
X-12540Y-5745169D01*
X-10584Y-5819833D01*
X-12013Y-5887252D01*
X-20343Y-5937344D01*
X-41078Y-5973859D01*
X-79709Y-6012069D01*
X-80561Y-6012828D01*
X-166053Y-6062903D01*
X-261050Y-6072769D01*
X-360257Y-6041864D01*
X-390046Y-6024346D01*
X-435470Y-5978895D01*
X-458971Y-5914317D01*
X-465667Y-5819833D01*
X-464337Y-5771803D01*
X-450518Y-5692468D01*
X-417531Y-5638061D01*
X-360257Y-5597802D01*
X-359182Y-5597249D01*
X-259992Y-5566787D01*
X-165069Y-5577091D01*
G37*
X-165069Y-5577091D02*
X-79709Y-5627597D01*
X-44666Y-5661605D01*
X-22071Y-5697517D01*
X-12540Y-5745169D01*
X-10584Y-5819833D01*
X-12013Y-5887252D01*
X-20343Y-5937344D01*
X-41078Y-5973859D01*
X-79709Y-6012069D01*
X-80561Y-6012828D01*
X-166053Y-6062903D01*
X-261050Y-6072769D01*
X-360257Y-6041864D01*
X-390046Y-6024346D01*
X-435470Y-5978895D01*
X-458971Y-5914317D01*
X-465667Y-5819833D01*
X-464337Y-5771803D01*
X-450518Y-5692468D01*
X-417531Y-5638061D01*
X-360257Y-5597802D01*
X-359182Y-5597249D01*
X-259992Y-5566787D01*
X-165069Y-5577091D01*
G36*
X-947835Y-9379784D02*
G01*
X-916637Y-9384526D01*
X-887942Y-9399997D01*
X-867065Y-9435482D01*
X-845095Y-9501540D01*
X-834436Y-9535322D01*
X-809653Y-9592240D01*
X-776257Y-9628588D01*
X-722760Y-9659169D01*
X-671451Y-9687782D01*
X-642425Y-9719316D01*
X-635000Y-9761003D01*
X-635097Y-9771212D01*
X-641142Y-9804140D01*
X-665308Y-9817695D01*
X-719667Y-9820333D01*
X-804334Y-9820333D01*
X-804334Y-10196181D01*
X-805061Y-10297425D01*
X-807853Y-10417643D01*
X-812369Y-10521193D01*
X-818215Y-10599520D01*
X-824995Y-10644071D01*
X-859175Y-10719159D01*
X-917301Y-10791245D01*
X-984250Y-10837306D01*
X-984327Y-10837338D01*
X-1032772Y-10847723D01*
X-1107357Y-10853915D01*
X-1192107Y-10855598D01*
X-1271049Y-10852452D01*
X-1328209Y-10844159D01*
X-1353337Y-10833562D01*
X-1371314Y-10804925D01*
X-1375834Y-10747901D01*
X-1375834Y-10664406D01*
X-1280292Y-10678733D01*
X-1264318Y-10680830D01*
X-1164750Y-10678181D01*
X-1087882Y-10647310D01*
X-1039913Y-10590490D01*
X-1037752Y-10584737D01*
X-1028661Y-10533070D01*
X-1021816Y-10445005D01*
X-1017501Y-10325414D01*
X-1016000Y-10179171D01*
X-1016000Y-9820333D01*
X-1354667Y-9820333D01*
X-1354667Y-9651000D01*
X-1016000Y-9651000D01*
X-1016000Y-9373151D01*
X-947835Y-9379784D01*
G37*
X-947835Y-9379784D02*
X-916637Y-9384526D01*
X-887942Y-9399997D01*
X-867065Y-9435482D01*
X-845095Y-9501540D01*
X-834436Y-9535322D01*
X-809653Y-9592240D01*
X-776257Y-9628588D01*
X-722760Y-9659169D01*
X-671451Y-9687782D01*
X-642425Y-9719316D01*
X-635000Y-9761003D01*
X-635097Y-9771212D01*
X-641142Y-9804140D01*
X-665308Y-9817695D01*
X-719667Y-9820333D01*
X-804334Y-9820333D01*
X-804334Y-10196181D01*
X-805061Y-10297425D01*
X-807853Y-10417643D01*
X-812369Y-10521193D01*
X-818215Y-10599520D01*
X-824995Y-10644071D01*
X-859175Y-10719159D01*
X-917301Y-10791245D01*
X-984250Y-10837306D01*
X-984327Y-10837338D01*
X-1032772Y-10847723D01*
X-1107357Y-10853915D01*
X-1192107Y-10855598D01*
X-1271049Y-10852452D01*
X-1328209Y-10844159D01*
X-1353337Y-10833562D01*
X-1371314Y-10804925D01*
X-1375834Y-10747901D01*
X-1375834Y-10664406D01*
X-1280292Y-10678733D01*
X-1264318Y-10680830D01*
X-1164750Y-10678181D01*
X-1087882Y-10647310D01*
X-1039913Y-10590490D01*
X-1037752Y-10584737D01*
X-1028661Y-10533070D01*
X-1021816Y-10445005D01*
X-1017501Y-10325414D01*
X-1016000Y-10179171D01*
X-1016000Y-9820333D01*
X-1354667Y-9820333D01*
X-1354667Y-9651000D01*
X-1016000Y-9651000D01*
X-1016000Y-9373151D01*
X-947835Y-9379784D01*
G36*
X1139970Y-6952641D02*
G01*
X1138693Y-7185605D01*
X1137690Y-7421926D01*
X1137264Y-7620948D01*
X1137459Y-7785385D01*
X1138318Y-7917953D01*
X1139884Y-8021368D01*
X1142201Y-8098345D01*
X1145311Y-8151599D01*
X1149259Y-8183846D01*
X1154088Y-8197802D01*
X1159841Y-8196182D01*
X1168050Y-8183995D01*
X1198123Y-8138013D01*
X1247851Y-8061368D01*
X1315318Y-7957031D01*
X1398608Y-7827974D01*
X1495804Y-7677168D01*
X1604992Y-7507586D01*
X1724255Y-7322197D01*
X1851676Y-7123975D01*
X1985341Y-6915890D01*
X2783416Y-5673029D01*
X3032125Y-5672348D01*
X3280833Y-5671667D01*
X3280833Y-7247003D01*
X3280645Y-7501259D01*
X3280106Y-7743119D01*
X3279247Y-7969255D01*
X3278095Y-8176343D01*
X3276682Y-8361054D01*
X3275037Y-8520063D01*
X3273188Y-8650044D01*
X3271167Y-8747671D01*
X3269001Y-8809617D01*
X3266722Y-8832555D01*
X3259593Y-8835501D01*
X3217818Y-8841222D01*
X3148824Y-8845185D01*
X3063040Y-8846667D01*
X2873469Y-8846667D01*
X2886183Y-7613708D01*
X2888200Y-7431223D01*
X2890989Y-7212225D01*
X2894000Y-7007136D01*
X2897152Y-6820017D01*
X2900365Y-6654929D01*
X2903559Y-6515930D01*
X2906654Y-6407083D01*
X2909570Y-6332447D01*
X2912226Y-6296083D01*
X2912494Y-6288744D01*
X2906049Y-6287233D01*
X2889538Y-6302906D01*
X2861701Y-6337621D01*
X2821279Y-6393235D01*
X2767013Y-6471606D01*
X2697644Y-6574591D01*
X2611914Y-6704048D01*
X2508562Y-6861835D01*
X2386331Y-7049809D01*
X2243961Y-7269828D01*
X2080194Y-7523750D01*
X1234833Y-8836083D01*
X751416Y-8836083D01*
X740564Y-5671667D01*
X944044Y-5671666D01*
X1147524Y-5671666D01*
X1139970Y-6952641D01*
G37*
X1139970Y-6952641D02*
X1138693Y-7185605D01*
X1137690Y-7421926D01*
X1137264Y-7620948D01*
X1137459Y-7785385D01*
X1138318Y-7917953D01*
X1139884Y-8021368D01*
X1142201Y-8098345D01*
X1145311Y-8151599D01*
X1149259Y-8183846D01*
X1154088Y-8197802D01*
X1159841Y-8196182D01*
X1168050Y-8183995D01*
X1198123Y-8138013D01*
X1247851Y-8061368D01*
X1315318Y-7957031D01*
X1398608Y-7827974D01*
X1495804Y-7677168D01*
X1604992Y-7507586D01*
X1724255Y-7322197D01*
X1851676Y-7123975D01*
X1985341Y-6915890D01*
X2783416Y-5673029D01*
X3032125Y-5672348D01*
X3280833Y-5671667D01*
X3280833Y-7247003D01*
X3280645Y-7501259D01*
X3280106Y-7743119D01*
X3279247Y-7969255D01*
X3278095Y-8176343D01*
X3276682Y-8361054D01*
X3275037Y-8520063D01*
X3273188Y-8650044D01*
X3271167Y-8747671D01*
X3269001Y-8809617D01*
X3266722Y-8832555D01*
X3259593Y-8835501D01*
X3217818Y-8841222D01*
X3148824Y-8845185D01*
X3063040Y-8846667D01*
X2873469Y-8846667D01*
X2886183Y-7613708D01*
X2888200Y-7431223D01*
X2890989Y-7212225D01*
X2894000Y-7007136D01*
X2897152Y-6820017D01*
X2900365Y-6654929D01*
X2903559Y-6515930D01*
X2906654Y-6407083D01*
X2909570Y-6332447D01*
X2912226Y-6296083D01*
X2912494Y-6288744D01*
X2906049Y-6287233D01*
X2889538Y-6302906D01*
X2861701Y-6337621D01*
X2821279Y-6393235D01*
X2767013Y-6471606D01*
X2697644Y-6574591D01*
X2611914Y-6704048D01*
X2508562Y-6861835D01*
X2386331Y-7049809D01*
X2243961Y-7269828D01*
X2080194Y-7523750D01*
X1234833Y-8836083D01*
X751416Y-8836083D01*
X740564Y-5671667D01*
X944044Y-5671666D01*
X1147524Y-5671666D01*
X1139970Y-6952641D01*
G36*
X7086707Y-5216583D02*
G01*
X7086736Y-5221596D01*
X7083898Y-5254731D01*
X7076949Y-5254028D01*
X7073066Y-5236635D01*
X7076165Y-5190528D01*
X7077212Y-5186888D01*
X7083655Y-5183755D01*
X7086707Y-5216583D01*
G37*
X7086707Y-5216583D02*
X7086736Y-5221596D01*
X7083898Y-5254731D01*
X7076949Y-5254028D01*
X7073066Y-5236635D01*
X7076165Y-5190528D01*
X7077212Y-5186888D01*
X7083655Y-5183755D01*
X7086707Y-5216583D01*
G36*
X-9784292Y-6459358D02*
G01*
X-9577917Y-6465417D01*
X-9572418Y-7629583D01*
X-9571863Y-7760948D01*
X-9571252Y-7972611D01*
X-9571031Y-8169504D01*
X-9571185Y-8347691D01*
X-9571699Y-8503234D01*
X-9572557Y-8632194D01*
X-9573745Y-8730635D01*
X-9575246Y-8794619D01*
X-9577046Y-8820208D01*
X-9581204Y-8825755D01*
X-9614481Y-8837680D01*
X-9682486Y-8844497D01*
X-9788919Y-8846667D01*
X-9990667Y-8846667D01*
X-9990667Y-6453300D01*
X-9784292Y-6459358D01*
G37*
X-9784292Y-6459358D02*
X-9577917Y-6465417D01*
X-9572418Y-7629583D01*
X-9571863Y-7760948D01*
X-9571252Y-7972611D01*
X-9571031Y-8169504D01*
X-9571185Y-8347691D01*
X-9571699Y-8503234D01*
X-9572557Y-8632194D01*
X-9573745Y-8730635D01*
X-9575246Y-8794619D01*
X-9577046Y-8820208D01*
X-9581204Y-8825755D01*
X-9614481Y-8837680D01*
X-9682486Y-8844497D01*
X-9788919Y-8846667D01*
X-9990667Y-8846667D01*
X-9990667Y-6453300D01*
X-9784292Y-6459358D01*
G36*
X-1972360Y-6421038D02*
G01*
X-1830072Y-6444894D01*
X-1686460Y-6491669D01*
X-1507553Y-6584760D01*
X-1356694Y-6708725D01*
X-1234484Y-6862562D01*
X-1141524Y-7045268D01*
X-1078413Y-7255842D01*
X-1045753Y-7493281D01*
X-1044143Y-7756583D01*
X-1053661Y-7883141D01*
X-1086484Y-8089964D01*
X-1141017Y-8268459D01*
X-1219464Y-8425001D01*
X-1324030Y-8565968D01*
X-1416916Y-8651985D01*
X-1543242Y-8735693D01*
X-1682738Y-8802595D01*
X-1820334Y-8844242D01*
X-1867305Y-8853585D01*
X-1934873Y-8867003D01*
X-1979084Y-8875753D01*
X-2007789Y-8880296D01*
X-2118688Y-8885648D01*
X-2251122Y-8878844D01*
X-2391206Y-8861455D01*
X-2525053Y-8835049D01*
X-2638779Y-8801195D01*
X-2751667Y-8758958D01*
X-2751667Y-8580562D01*
X-2751411Y-8548679D01*
X-2748488Y-8473838D01*
X-2742992Y-8421844D01*
X-2735792Y-8402437D01*
X-2730855Y-8403249D01*
X-2693408Y-8413525D01*
X-2629842Y-8433097D01*
X-2550584Y-8458792D01*
X-2461738Y-8483111D01*
X-2329526Y-8506049D01*
X-2191723Y-8517910D01*
X-2059824Y-8518292D01*
X-1945322Y-8506793D01*
X-1859713Y-8483008D01*
X-1750381Y-8418827D01*
X-1640889Y-8310827D01*
X-1557161Y-8171106D01*
X-1499851Y-8001168D01*
X-1469611Y-7802520D01*
X-1467092Y-7576667D01*
X-1473746Y-7482819D01*
X-1493608Y-7334601D01*
X-1522307Y-7213588D01*
X-1580943Y-7076314D01*
X-1672857Y-6951732D01*
X-1790504Y-6859090D01*
X-1931933Y-6799182D01*
X-2095191Y-6772803D01*
X-2278329Y-6780748D01*
X-2479394Y-6823812D01*
X-2514060Y-6833547D01*
X-2589421Y-6852066D01*
X-2644440Y-6861821D01*
X-2669094Y-6860854D01*
X-2670667Y-6858597D01*
X-2685766Y-6826340D01*
X-2709629Y-6767147D01*
X-2737844Y-6691861D01*
X-2793916Y-6537305D01*
X-2719841Y-6506354D01*
X-2639781Y-6478232D01*
X-2486082Y-6442968D01*
X-2314314Y-6421038D01*
X-2138423Y-6413407D01*
X-1972360Y-6421038D01*
G37*
X-1972360Y-6421038D02*
X-1830072Y-6444894D01*
X-1686460Y-6491669D01*
X-1507553Y-6584760D01*
X-1356694Y-6708725D01*
X-1234484Y-6862562D01*
X-1141524Y-7045268D01*
X-1078413Y-7255842D01*
X-1045753Y-7493281D01*
X-1044143Y-7756583D01*
X-1053661Y-7883141D01*
X-1086484Y-8089964D01*
X-1141017Y-8268459D01*
X-1219464Y-8425001D01*
X-1324030Y-8565968D01*
X-1416916Y-8651985D01*
X-1543242Y-8735693D01*
X-1682738Y-8802595D01*
X-1820334Y-8844242D01*
X-1867305Y-8853585D01*
X-1934873Y-8867003D01*
X-1979084Y-8875753D01*
X-2007789Y-8880296D01*
X-2118688Y-8885648D01*
X-2251122Y-8878844D01*
X-2391206Y-8861455D01*
X-2525053Y-8835049D01*
X-2638779Y-8801195D01*
X-2751667Y-8758958D01*
X-2751667Y-8580562D01*
X-2751411Y-8548679D01*
X-2748488Y-8473838D01*
X-2742992Y-8421844D01*
X-2735792Y-8402437D01*
X-2730855Y-8403249D01*
X-2693408Y-8413525D01*
X-2629842Y-8433097D01*
X-2550584Y-8458792D01*
X-2461738Y-8483111D01*
X-2329526Y-8506049D01*
X-2191723Y-8517910D01*
X-2059824Y-8518292D01*
X-1945322Y-8506793D01*
X-1859713Y-8483008D01*
X-1750381Y-8418827D01*
X-1640889Y-8310827D01*
X-1557161Y-8171106D01*
X-1499851Y-8001168D01*
X-1469611Y-7802520D01*
X-1467092Y-7576667D01*
X-1473746Y-7482819D01*
X-1493608Y-7334601D01*
X-1522307Y-7213588D01*
X-1580943Y-7076314D01*
X-1672857Y-6951732D01*
X-1790504Y-6859090D01*
X-1931933Y-6799182D01*
X-2095191Y-6772803D01*
X-2278329Y-6780748D01*
X-2479394Y-6823812D01*
X-2514060Y-6833547D01*
X-2589421Y-6852066D01*
X-2644440Y-6861821D01*
X-2669094Y-6860854D01*
X-2670667Y-6858597D01*
X-2685766Y-6826340D01*
X-2709629Y-6767147D01*
X-2737844Y-6691861D01*
X-2793916Y-6537305D01*
X-2719841Y-6506354D01*
X-2639781Y-6478232D01*
X-2486082Y-6442968D01*
X-2314314Y-6421038D01*
X-2138423Y-6413407D01*
X-1972360Y-6421038D01*
G36*
X-2119163Y-9630355D02*
G01*
X-1996166Y-9656368D01*
X-1900007Y-9710032D01*
X-1826139Y-9793237D01*
X-1788584Y-9850888D01*
X-1778000Y-9756236D01*
X-1772709Y-9713819D01*
X-1760661Y-9676561D01*
X-1732969Y-9661063D01*
X-1677459Y-9655074D01*
X-1587500Y-9648566D01*
X-1587500Y-10836333D01*
X-1795805Y-10836333D01*
X-1802777Y-10450042D01*
X-1804974Y-10338893D01*
X-1808136Y-10228579D01*
X-1812449Y-10148196D01*
X-1818740Y-10090773D01*
X-1827836Y-10049341D01*
X-1840563Y-10016929D01*
X-1857748Y-9986565D01*
X-1877768Y-9956697D01*
X-1945924Y-9886396D01*
X-2032494Y-9843468D01*
X-2147975Y-9821959D01*
X-2275417Y-9809750D01*
X-2287423Y-9719792D01*
X-2299430Y-9629833D01*
X-2223923Y-9627590D01*
X-2119163Y-9630355D01*
G37*
X-2119163Y-9630355D02*
X-1996166Y-9656368D01*
X-1900007Y-9710032D01*
X-1826139Y-9793237D01*
X-1788584Y-9850888D01*
X-1778000Y-9756236D01*
X-1772709Y-9713819D01*
X-1760661Y-9676561D01*
X-1732969Y-9661063D01*
X-1677459Y-9655074D01*
X-1587500Y-9648566D01*
X-1587500Y-10836333D01*
X-1795805Y-10836333D01*
X-1802777Y-10450042D01*
X-1804974Y-10338893D01*
X-1808136Y-10228579D01*
X-1812449Y-10148196D01*
X-1818740Y-10090773D01*
X-1827836Y-10049341D01*
X-1840563Y-10016929D01*
X-1857748Y-9986565D01*
X-1877768Y-9956697D01*
X-1945924Y-9886396D01*
X-2032494Y-9843468D01*
X-2147975Y-9821959D01*
X-2275417Y-9809750D01*
X-2287423Y-9719792D01*
X-2299430Y-9629833D01*
X-2223923Y-9627590D01*
X-2119163Y-9630355D01*
G36*
X-6099448Y-9634300D02*
G01*
X-6020793Y-9648398D01*
X-5972934Y-9665449D01*
X-5870077Y-9729280D01*
X-5780233Y-9820951D01*
X-5714187Y-9930537D01*
X-5688628Y-10008097D01*
X-5667527Y-10135939D01*
X-5662151Y-10276101D01*
X-5672869Y-10412939D01*
X-5700049Y-10530809D01*
X-5710673Y-10558163D01*
X-5775527Y-10666290D01*
X-5865815Y-10759403D01*
X-5969000Y-10823843D01*
X-5970019Y-10824278D01*
X-6042258Y-10843146D01*
X-6140455Y-10853749D01*
X-6249282Y-10855789D01*
X-6353407Y-10848966D01*
X-6437503Y-10832983D01*
X-6477001Y-10820149D01*
X-6506401Y-10801219D01*
X-6517571Y-10767507D01*
X-6519334Y-10705238D01*
X-6519097Y-10674729D01*
X-6515416Y-10629490D01*
X-6504351Y-10614654D01*
X-6482188Y-10621890D01*
X-6465953Y-10629477D01*
X-6389594Y-10652036D01*
X-6295435Y-10667474D01*
X-6202313Y-10673368D01*
X-6129068Y-10667297D01*
X-6074109Y-10649930D01*
X-5989750Y-10593788D01*
X-5930577Y-10506082D01*
X-5895843Y-10385475D01*
X-5884798Y-10230627D01*
X-5885316Y-10204134D01*
X-5902737Y-10070251D01*
X-5942947Y-9959583D01*
X-6003365Y-9879767D01*
X-6017736Y-9868519D01*
X-6097137Y-9833793D01*
X-6200090Y-9818545D01*
X-6314882Y-9823598D01*
X-6429803Y-9849778D01*
X-6460263Y-9855232D01*
X-6484826Y-9839123D01*
X-6509178Y-9790825D01*
X-6514253Y-9778433D01*
X-6532940Y-9727474D01*
X-6540500Y-9697363D01*
X-6540204Y-9694411D01*
X-6516207Y-9671477D01*
X-6460225Y-9652560D01*
X-6381407Y-9638521D01*
X-6288905Y-9630224D01*
X-6191869Y-9628529D01*
X-6099448Y-9634300D01*
G37*
X-6099448Y-9634300D02*
X-6020793Y-9648398D01*
X-5972934Y-9665449D01*
X-5870077Y-9729280D01*
X-5780233Y-9820951D01*
X-5714187Y-9930537D01*
X-5688628Y-10008097D01*
X-5667527Y-10135939D01*
X-5662151Y-10276101D01*
X-5672869Y-10412939D01*
X-5700049Y-10530809D01*
X-5710673Y-10558163D01*
X-5775527Y-10666290D01*
X-5865815Y-10759403D01*
X-5969000Y-10823843D01*
X-5970019Y-10824278D01*
X-6042258Y-10843146D01*
X-6140455Y-10853749D01*
X-6249282Y-10855789D01*
X-6353407Y-10848966D01*
X-6437503Y-10832983D01*
X-6477001Y-10820149D01*
X-6506401Y-10801219D01*
X-6517571Y-10767507D01*
X-6519334Y-10705238D01*
X-6519097Y-10674729D01*
X-6515416Y-10629490D01*
X-6504351Y-10614654D01*
X-6482188Y-10621890D01*
X-6465953Y-10629477D01*
X-6389594Y-10652036D01*
X-6295435Y-10667474D01*
X-6202313Y-10673368D01*
X-6129068Y-10667297D01*
X-6074109Y-10649930D01*
X-5989750Y-10593788D01*
X-5930577Y-10506082D01*
X-5895843Y-10385475D01*
X-5884798Y-10230627D01*
X-5885316Y-10204134D01*
X-5902737Y-10070251D01*
X-5942947Y-9959583D01*
X-6003365Y-9879767D01*
X-6017736Y-9868519D01*
X-6097137Y-9833793D01*
X-6200090Y-9818545D01*
X-6314882Y-9823598D01*
X-6429803Y-9849778D01*
X-6460263Y-9855232D01*
X-6484826Y-9839123D01*
X-6509178Y-9790825D01*
X-6514253Y-9778433D01*
X-6532940Y-9727474D01*
X-6540500Y-9697363D01*
X-6540204Y-9694411D01*
X-6516207Y-9671477D01*
X-6460225Y-9652560D01*
X-6381407Y-9638521D01*
X-6288905Y-9630224D01*
X-6191869Y-9628529D01*
X-6099448Y-9634300D01*
D13*
%TO.C,R2*%
X-10227064Y-11265000D02*
X-9772936Y-11265000D01*
X-10227064Y-12735000D02*
X-9772936Y-12735000D01*
%TO.C,D1*%
X11860000Y-13040000D02*
X11860000Y-14960000D01*
X9000000Y-13040000D02*
X11860000Y-13040000D01*
X11860000Y-14960000D02*
X9000000Y-14960000D01*
%TO.C,R1*%
X10227064Y-11265000D02*
X9772936Y-11265000D01*
X10227064Y-12735000D02*
X9772936Y-12735000D01*
%TO.C,D2*%
X-11860000Y-14960000D02*
X-11860000Y-13040000D01*
X-9000000Y-14960000D02*
X-11860000Y-14960000D01*
X-11860000Y-13040000D02*
X-9000000Y-13040000D01*
%TO.C,U1*%
X-8489000Y0D02*
X-8489000Y-3450000D01*
X-8489000Y0D02*
X-8489000Y1950000D01*
X-13609000Y0D02*
X-13609000Y-1950000D01*
X-13609000Y0D02*
X-13609000Y1950000D01*
%TD*%
M02*
