%TF.GenerationSoftware,KiCad,Pcbnew,(6.0.4)*%
%TF.CreationDate,2022-04-09T23:31:34+02:00*%
%TF.ProjectId,cloud,636c6f75-642e-46b6-9963-61645f706362,rev?*%
%TF.SameCoordinates,Original*%
%TF.FileFunction,Copper,L2,Bot*%
%TF.FilePolarity,Positive*%
%FSLAX46Y46*%
G04 Gerber Fmt 4.6, Leading zero omitted, Abs format (unit mm)*
G04 Created by KiCad (PCBNEW (6.0.4)) date 2022-04-09 23:31:34*
%MOMM*%
%LPD*%
G01*
G04 APERTURE LIST*
G04 Aperture macros list*
%AMRoundRect*
0 Rectangle with rounded corners*
0 $1 Rounding radius*
0 $2 $3 $4 $5 $6 $7 $8 $9 X,Y pos of 4 corners*
0 Add a 4 corners polygon primitive as box body*
4,1,4,$2,$3,$4,$5,$6,$7,$8,$9,$2,$3,0*
0 Add four circle primitives for the rounded corners*
1,1,$1+$1,$2,$3*
1,1,$1+$1,$4,$5*
1,1,$1+$1,$6,$7*
1,1,$1+$1,$8,$9*
0 Add four rect primitives between the rounded corners*
20,1,$1+$1,$2,$3,$4,$5,0*
20,1,$1+$1,$4,$5,$6,$7,0*
20,1,$1+$1,$6,$7,$8,$9,0*
20,1,$1+$1,$8,$9,$2,$3,0*%
G04 Aperture macros list end*
%TA.AperFunction,ComponentPad*%
%ADD10O,1.727200X1.727200*%
%TD*%
%TA.AperFunction,ComponentPad*%
%ADD11R,1.727200X1.727200*%
%TD*%
%TA.AperFunction,ComponentPad*%
%ADD12C,1.727200*%
%TD*%
%TA.AperFunction,SMDPad,CuDef*%
%ADD13RoundRect,0.250000X-0.350000X-0.450000X0.350000X-0.450000X0.350000X0.450000X-0.350000X0.450000X0*%
%TD*%
%TA.AperFunction,SMDPad,CuDef*%
%ADD14RoundRect,0.250000X0.325000X0.450000X-0.325000X0.450000X-0.325000X-0.450000X0.325000X-0.450000X0*%
%TD*%
%TA.AperFunction,SMDPad,CuDef*%
%ADD15RoundRect,0.250000X0.350000X0.450000X-0.350000X0.450000X-0.350000X-0.450000X0.350000X-0.450000X0*%
%TD*%
%TA.AperFunction,SMDPad,CuDef*%
%ADD16RoundRect,0.250000X-0.325000X-0.450000X0.325000X-0.450000X0.325000X0.450000X-0.325000X0.450000X0*%
%TD*%
%TA.AperFunction,SMDPad,CuDef*%
%ADD17RoundRect,0.150000X0.150000X-0.825000X0.150000X0.825000X-0.150000X0.825000X-0.150000X-0.825000X0*%
%TD*%
%TA.AperFunction,Conductor*%
%ADD18C,0.250000*%
%TD*%
G04 APERTURE END LIST*
D10*
%TO.P,X1,1,VCC*%
%TO.N,+3V3*%
X-2480000Y1250000D03*
D11*
%TO.P,X1,2,GND*%
%TO.N,GND*%
X-2480000Y-1290000D03*
D10*
%TO.P,X1,3,SDA*%
%TO.N,Net-(U1-Pad5)*%
X60000Y1250000D03*
%TO.P,X1,4,SCL*%
%TO.N,Net-(U1-Pad6)*%
X60000Y-1290000D03*
D12*
%TO.P,X1,5,GPIO1*%
%TO.N,Net-(R2-Pad1)*%
X2600000Y1250000D03*
%TO.P,X1,6,GPIO2*%
%TO.N,Net-(R1-Pad1)*%
X2600000Y-1290000D03*
%TD*%
D13*
%TO.P,R2,1*%
%TO.N,Net-(R2-Pad1)*%
X-11000000Y-12000000D03*
%TO.P,R2,2*%
%TO.N,Net-(D2-Pad2)*%
X-9000000Y-12000000D03*
%TD*%
D14*
%TO.P,D1,1,K*%
%TO.N,GND*%
X11025000Y-14000000D03*
%TO.P,D1,2,A*%
%TO.N,Net-(D1-Pad2)*%
X8975000Y-14000000D03*
%TD*%
D15*
%TO.P,R1,1*%
%TO.N,Net-(R1-Pad1)*%
X11000000Y-12000000D03*
%TO.P,R1,2*%
%TO.N,Net-(D1-Pad2)*%
X9000000Y-12000000D03*
%TD*%
D16*
%TO.P,D2,1,K*%
%TO.N,GND*%
X-11025000Y-14000000D03*
%TO.P,D2,2,A*%
%TO.N,Net-(D2-Pad2)*%
X-8975000Y-14000000D03*
%TD*%
D17*
%TO.P,U1,1,A0*%
%TO.N,GND*%
X-9144000Y-2475000D03*
%TO.P,U1,2,A1*%
X-10414000Y-2475000D03*
%TO.P,U1,3,A2*%
X-11684000Y-2475000D03*
%TO.P,U1,4,GND*%
X-12954000Y-2475000D03*
%TO.P,U1,5,SDA*%
%TO.N,Net-(U1-Pad5)*%
X-12954000Y2475000D03*
%TO.P,U1,6,SCL*%
%TO.N,Net-(U1-Pad6)*%
X-11684000Y2475000D03*
%TO.P,U1,7,WP*%
%TO.N,GND*%
X-10414000Y2475000D03*
%TO.P,U1,8,VCC*%
%TO.N,+3V3*%
X-9144000Y2475000D03*
%TD*%
D18*
%TO.N,Net-(U1-Pad5)*%
X-12250480Y4259520D02*
X-2949520Y4259520D01*
X-12954000Y3556000D02*
X-12250480Y4259520D01*
X-2949520Y4259520D02*
X60000Y1250000D01*
X-12954000Y2475000D02*
X-12954000Y3556000D01*
%TO.N,Net-(U1-Pad6)*%
X-11557000Y3810000D02*
X-11684000Y3683000D01*
X-1291889Y1799889D02*
X-3302000Y3810000D01*
X-3302000Y3810000D02*
X-11557000Y3810000D01*
X60000Y-1290000D02*
X-1291889Y61889D01*
X-1291889Y61889D02*
X-1291889Y1799889D01*
X-11684000Y3683000D02*
X-11684000Y2475000D01*
%TO.N,+3V3*%
X-8870000Y1250000D02*
X-9144000Y1524000D01*
X-9144000Y1524000D02*
X-9144000Y2475000D01*
X-2480000Y1250000D02*
X-8870000Y1250000D01*
%TO.N,Net-(D1-Pad2)*%
X8975000Y-12025000D02*
X9000000Y-12000000D01*
X8975000Y-14000000D02*
X8975000Y-12025000D01*
%TO.N,Net-(D2-Pad2)*%
X-8975000Y-12025000D02*
X-9000000Y-12000000D01*
X-8975000Y-14000000D02*
X-8975000Y-12025000D01*
X-9000000Y-12000000D02*
X-8825000Y-12000000D01*
%TO.N,Net-(R1-Pad1)*%
X11000000Y-12000000D02*
X2600000Y-3600000D01*
X2600000Y-3600000D02*
X2600000Y-1290000D01*
%TO.N,Net-(R2-Pad1)*%
X-11000000Y-12000000D02*
X-3318000Y-4318000D01*
X-3318000Y-4318000D02*
X762000Y-4318000D01*
X762000Y-4318000D02*
X1411889Y-3668111D01*
X1411889Y61889D02*
X2600000Y1250000D01*
X-11025000Y-12025000D02*
X-11000000Y-12000000D01*
X1411889Y-3668111D02*
X1411889Y61889D01*
%TD*%
%TA.AperFunction,Conductor*%
%TO.N,GND*%
G36*
X-2801989Y15276038D02*
G01*
X-2354915Y15265614D01*
X-2349396Y15265363D01*
X-2193002Y15254818D01*
X-1892174Y15234533D01*
X-1890510Y15234409D01*
X-1479067Y15201186D01*
X-1474182Y15200696D01*
X-1072983Y15152507D01*
X-1068167Y15151834D01*
X-669609Y15088277D01*
X-664885Y15087431D01*
X-269240Y15008784D01*
X-264616Y15007774D01*
X8646Y14942698D01*
X127845Y14914311D01*
X132356Y14913148D01*
X521060Y14805175D01*
X525468Y14803863D01*
X745423Y14733967D01*
X910113Y14681632D01*
X914448Y14680167D01*
X1294565Y14543989D01*
X1298807Y14542382D01*
X1673829Y14392591D01*
X1677977Y14390848D01*
X1875740Y14303545D01*
X2047746Y14227612D01*
X2051733Y14225767D01*
X2236734Y14136181D01*
X2415724Y14049505D01*
X2419664Y14047512D01*
X2772486Y13861047D01*
X2778171Y13857849D01*
X3477931Y13439883D01*
X3485228Y13435175D01*
X3820569Y13202015D01*
X4150165Y12972849D01*
X4157147Y12967628D01*
X4788562Y12460391D01*
X4795148Y12454715D01*
X4988587Y12276021D01*
X5389911Y11905286D01*
X5396147Y11899109D01*
X5954577Y11306035D01*
X5959014Y11301066D01*
X6216609Y10996755D01*
X6219435Y10993294D01*
X6467031Y10678829D01*
X6469421Y10675793D01*
X6472151Y10672194D01*
X6553740Y10560536D01*
X6710474Y10346037D01*
X6713090Y10342317D01*
X6800167Y10213631D01*
X6939320Y10007986D01*
X6941842Y10004108D01*
X7129371Y9703780D01*
X7155621Y9661740D01*
X7157998Y9657772D01*
X7359032Y9307850D01*
X7361316Y9303697D01*
X7548987Y8946576D01*
X7551125Y8942312D01*
X7725286Y8578048D01*
X7727285Y8573654D01*
X7887497Y8202684D01*
X7889346Y8198164D01*
X8035036Y7821330D01*
X8036654Y7816900D01*
X8056847Y7758231D01*
X8079702Y7725944D01*
X8086744Y7714800D01*
X8106089Y7680308D01*
X8112501Y7674026D01*
X8112505Y7674021D01*
X8117287Y7669336D01*
X8131950Y7652132D01*
X8141002Y7639344D01*
X8148034Y7633769D01*
X8148035Y7633768D01*
X8171985Y7614781D01*
X8181884Y7606051D01*
X8210134Y7578374D01*
X8223956Y7570990D01*
X8242864Y7558588D01*
X8248104Y7554434D01*
X8248107Y7554432D01*
X8255142Y7548855D01*
X8291782Y7533972D01*
X8303722Y7528376D01*
X8338607Y7509739D01*
X8353958Y7506528D01*
X8375575Y7499935D01*
X8390091Y7494039D01*
X8414868Y7491519D01*
X8429415Y7490039D01*
X8442457Y7488018D01*
X8468679Y7482535D01*
X8481180Y7479920D01*
X8490125Y7480622D01*
X8490128Y7480622D01*
X8494644Y7480977D01*
X8496811Y7481147D01*
X8519419Y7480886D01*
X8535001Y7479301D01*
X8573882Y7486502D01*
X8586961Y7488222D01*
X8626392Y7491316D01*
X8634786Y7494503D01*
X8634788Y7494503D01*
X8688494Y7514890D01*
X8691477Y7515980D01*
X8965835Y7612289D01*
X8972243Y7614348D01*
X9242792Y7693370D01*
X9249259Y7695074D01*
X9522779Y7759432D01*
X9529212Y7760769D01*
X9805478Y7810738D01*
X9811829Y7811720D01*
X9953575Y7829953D01*
X10090133Y7847518D01*
X10096415Y7848166D01*
X10376369Y7869922D01*
X10382530Y7870250D01*
X10663446Y7878263D01*
X10669612Y7878287D01*
X10943619Y7872666D01*
X10952524Y7872168D01*
X11178188Y7851505D01*
X11522157Y7820008D01*
X11533728Y7818404D01*
X12090208Y7714687D01*
X12101332Y7712086D01*
X12213952Y7680308D01*
X12647678Y7557921D01*
X12658377Y7554378D01*
X13189524Y7351720D01*
X13199849Y7347243D01*
X13710702Y7098045D01*
X13720609Y7092649D01*
X14206336Y6799196D01*
X14215861Y6792834D01*
X14671597Y6457468D01*
X14680699Y6450093D01*
X15107588Y6069933D01*
X15114077Y6063726D01*
X15224546Y5950211D01*
X15305055Y5867482D01*
X15309247Y5862957D01*
X15495064Y5652304D01*
X15499073Y5647527D01*
X15674153Y5428047D01*
X15677973Y5423002D01*
X15841680Y5195194D01*
X15845346Y5189804D01*
X15997101Y4953760D01*
X16000516Y4948131D01*
X16140034Y4703954D01*
X16143195Y4698064D01*
X16227962Y4529546D01*
X16269961Y4446050D01*
X16272843Y4439914D01*
X16392580Y4166107D01*
X16392847Y4165492D01*
X16438121Y4060442D01*
X16439206Y4057846D01*
X16480248Y3956444D01*
X16481175Y3954086D01*
X16520336Y3851444D01*
X16521247Y3848979D01*
X16558217Y3745661D01*
X16559065Y3743210D01*
X16594117Y3638506D01*
X16594848Y3636253D01*
X16620051Y3555988D01*
X16627992Y3530696D01*
X16628708Y3528336D01*
X16659875Y3421824D01*
X16660485Y3419670D01*
X16689843Y3312298D01*
X16690439Y3310036D01*
X16717818Y3202063D01*
X16718348Y3199890D01*
X16743960Y3090790D01*
X16744421Y3088750D01*
X16749616Y3064846D01*
X16759015Y3021596D01*
X16768215Y2979259D01*
X16768660Y2977122D01*
X16788342Y2878218D01*
X16790614Y2866803D01*
X16790962Y2864978D01*
X16811117Y2754636D01*
X16811329Y2753476D01*
X16811648Y2751651D01*
X16830313Y2640211D01*
X16830641Y2638149D01*
X16835931Y2603000D01*
X16844595Y2545434D01*
X16847516Y2526022D01*
X16847762Y2524308D01*
X16858216Y2447666D01*
X16862170Y2418676D01*
X16862668Y2414505D01*
X16869140Y2351385D01*
X16872523Y2343075D01*
X16872524Y2343072D01*
X16883564Y2315955D01*
X16888033Y2303002D01*
X16896067Y2274833D01*
X16896069Y2274828D01*
X16898531Y2266196D01*
X16907573Y2251848D01*
X16917671Y2232186D01*
X16924066Y2216480D01*
X16929649Y2209450D01*
X16929650Y2209448D01*
X16947857Y2186522D01*
X16955780Y2175349D01*
X16976186Y2142966D01*
X16982910Y2137021D01*
X16982912Y2137018D01*
X16988898Y2131725D01*
X17004100Y2115697D01*
X17014648Y2102415D01*
X17032148Y2090049D01*
X17045885Y2080342D01*
X17056634Y2071833D01*
X17078579Y2052429D01*
X17078584Y2052426D01*
X17085305Y2046483D01*
X17098006Y2040511D01*
X17100660Y2039263D01*
X17119758Y2028141D01*
X17133604Y2018357D01*
X17142090Y2015444D01*
X17142092Y2015443D01*
X17169784Y2005937D01*
X17182488Y2000787D01*
X17205894Y1989782D01*
X17217119Y1984504D01*
X17225985Y1983118D01*
X17225986Y1983118D01*
X17258485Y1978039D01*
X17284372Y1973993D01*
X17286959Y1973561D01*
X17630589Y1912374D01*
X17673636Y1904709D01*
X17679897Y1903429D01*
X18053829Y1816959D01*
X18059896Y1815393D01*
X18428221Y1710449D01*
X18434142Y1708604D01*
X18796534Y1585772D01*
X18802296Y1583661D01*
X19158033Y1443420D01*
X19163585Y1441077D01*
X19512449Y1283800D01*
X19517717Y1281276D01*
X19832121Y1121509D01*
X19859237Y1107730D01*
X19864371Y1104970D01*
X20197750Y915649D01*
X20202653Y912714D01*
X20527355Y708217D01*
X20532030Y705125D01*
X20746303Y556335D01*
X20847823Y485840D01*
X20852330Y482560D01*
X21158406Y249299D01*
X21162725Y245855D01*
X21458579Y-846D01*
X21462737Y-4470D01*
X21747856Y-264195D01*
X21751738Y-267887D01*
X22025679Y-539774D01*
X22029429Y-543658D01*
X22132659Y-655354D01*
X22291408Y-827121D01*
X22295000Y-831180D01*
X22544535Y-1125635D01*
X22547949Y-1129843D01*
X22784668Y-1434849D01*
X22787881Y-1439178D01*
X23011148Y-1753767D01*
X23014210Y-1758284D01*
X23223486Y-2081999D01*
X23226357Y-2086660D01*
X23421159Y-2418794D01*
X23423839Y-2423601D01*
X23469204Y-2509324D01*
X23603752Y-2763570D01*
X23606261Y-2768578D01*
X23770664Y-3115733D01*
X23772958Y-3120870D01*
X23921454Y-3474433D01*
X23923565Y-3479801D01*
X24055530Y-3839267D01*
X24057398Y-3844740D01*
X24172609Y-4209497D01*
X24174262Y-4215193D01*
X24272079Y-4584578D01*
X24273475Y-4590408D01*
X24353573Y-4963860D01*
X24354711Y-4969872D01*
X24416583Y-5346747D01*
X24417438Y-5352907D01*
X24460654Y-5732528D01*
X24461213Y-5738854D01*
X24485285Y-6120771D01*
X24485526Y-6127210D01*
X24489819Y-6491927D01*
X24490043Y-6510977D01*
X24489952Y-6517470D01*
X24480018Y-6766233D01*
X24473936Y-6918535D01*
X24473927Y-6918755D01*
X24456834Y-7328789D01*
X24456384Y-7335392D01*
X24419504Y-7725766D01*
X24418721Y-7732259D01*
X24361774Y-8119253D01*
X24360675Y-8125591D01*
X24323695Y-8310714D01*
X24284510Y-8506879D01*
X24284155Y-8508654D01*
X24282770Y-8514787D01*
X24238442Y-8690509D01*
X24187267Y-8893374D01*
X24185600Y-8899354D01*
X24071548Y-9272827D01*
X24069632Y-9278599D01*
X23937608Y-9646373D01*
X23935449Y-9651965D01*
X23785894Y-10013499D01*
X23783515Y-10018890D01*
X23617012Y-10373479D01*
X23614436Y-10378652D01*
X23431587Y-10725730D01*
X23428783Y-10730770D01*
X23230024Y-11069491D01*
X23227060Y-11074293D01*
X23012964Y-11404345D01*
X23009813Y-11408974D01*
X22781035Y-11729506D01*
X22777709Y-11733955D01*
X22534827Y-12044351D01*
X22531319Y-12048636D01*
X22274929Y-12348178D01*
X22271250Y-12352291D01*
X22001945Y-12640371D01*
X21998082Y-12644326D01*
X21719705Y-12917074D01*
X21716299Y-12920411D01*
X21712304Y-12924158D01*
X21539296Y-13079485D01*
X21418895Y-13187581D01*
X21414684Y-13191198D01*
X21110227Y-13441223D01*
X21105838Y-13444667D01*
X20790929Y-13680733D01*
X20786359Y-13684002D01*
X20461554Y-13905575D01*
X20456798Y-13908665D01*
X20122742Y-14115155D01*
X20117787Y-14118064D01*
X20085630Y-14135969D01*
X19785787Y-14302920D01*
X19775255Y-14308784D01*
X19770102Y-14311498D01*
X19747989Y-14322502D01*
X19419579Y-14485923D01*
X19414233Y-14488429D01*
X19056430Y-14646019D01*
X19050866Y-14648313D01*
X18922174Y-14697800D01*
X18686941Y-14788256D01*
X18686137Y-14788565D01*
X18680388Y-14790617D01*
X18309727Y-14912873D01*
X18303774Y-14914675D01*
X17927387Y-15018460D01*
X17921253Y-15019987D01*
X17565971Y-15099016D01*
X17540013Y-15104790D01*
X17533657Y-15106033D01*
X17147769Y-15171270D01*
X17141301Y-15172192D01*
X16995348Y-15189142D01*
X16751526Y-15217457D01*
X16744917Y-15218049D01*
X16373105Y-15241385D01*
X16370387Y-15241468D01*
X16367789Y-15241261D01*
X16332211Y-15243943D01*
X16330697Y-15244047D01*
X16298206Y-15246086D01*
X16295975Y-15246550D01*
X16292277Y-15246923D01*
X16285749Y-15247362D01*
X16266204Y-15248676D01*
X16265308Y-15248733D01*
X16235487Y-15250503D01*
X16234973Y-15250532D01*
X16205113Y-15252137D01*
X16204551Y-15252165D01*
X16174744Y-15253597D01*
X16173991Y-15253631D01*
X16143616Y-15254908D01*
X16143271Y-15254922D01*
X16111895Y-15256155D01*
X16111482Y-15256170D01*
X16080354Y-15257291D01*
X16080000Y-15257303D01*
X16048182Y-15258356D01*
X16048139Y-15258344D01*
X16048139Y-15258357D01*
X16012997Y-15259507D01*
X15985518Y-15260399D01*
X15985025Y-15260396D01*
X15984516Y-15260335D01*
X15949543Y-15261544D01*
X15949121Y-15261543D01*
X15948620Y-15261484D01*
X15947185Y-15261537D01*
X15947174Y-15261537D01*
X15928319Y-15262234D01*
X15927706Y-15262255D01*
X15921220Y-15262463D01*
X15912395Y-15262746D01*
X15912395Y-15262742D01*
X15912369Y-15262743D01*
X15912094Y-15262753D01*
X15911907Y-15262760D01*
X15911907Y-15262761D01*
X15911844Y-15262763D01*
X15911720Y-15262767D01*
X15911712Y-15262767D01*
X15911617Y-15262770D01*
X15909707Y-15262832D01*
X15909703Y-15262833D01*
X15909694Y-15262833D01*
X15909692Y-15262756D01*
X15909596Y-15262756D01*
X15909600Y-15262851D01*
X15909599Y-15262851D01*
X15892946Y-15263501D01*
X15892491Y-15263518D01*
X15874750Y-15264131D01*
X15874687Y-15262313D01*
X15873995Y-15262463D01*
X15874065Y-15264055D01*
X15847518Y-15265215D01*
X15846676Y-15265249D01*
X15841697Y-15265433D01*
X15837351Y-15265594D01*
X15837281Y-15263700D01*
X15836795Y-15263613D01*
X15836885Y-15265678D01*
X15836861Y-15265682D01*
X15835758Y-15265730D01*
X15835305Y-15265748D01*
X15833362Y-15265824D01*
X15808802Y-15266781D01*
X15803720Y-15266877D01*
X13845328Y-15264156D01*
X13845199Y-15264151D01*
X13845042Y-15264126D01*
X13812390Y-15264105D01*
X13805831Y-15264101D01*
X13805735Y-15264101D01*
X13769294Y-15264050D01*
X13769136Y-15264072D01*
X13769006Y-15264077D01*
X11913347Y-15262880D01*
X11845240Y-15242834D01*
X11798782Y-15189148D01*
X11788723Y-15118868D01*
X11818258Y-15054306D01*
X11824256Y-15047862D01*
X11943739Y-14928171D01*
X11952751Y-14916760D01*
X12037816Y-14778757D01*
X12043963Y-14765576D01*
X12095138Y-14611290D01*
X12098005Y-14597914D01*
X12107672Y-14503562D01*
X12108000Y-14497146D01*
X12108000Y-14272115D01*
X12103525Y-14256876D01*
X12102135Y-14255671D01*
X12094452Y-14254000D01*
X10897000Y-14254000D01*
X10828879Y-14233998D01*
X10782386Y-14180342D01*
X10771000Y-14128000D01*
X10771000Y-13872000D01*
X10791002Y-13803879D01*
X10844658Y-13757386D01*
X10897000Y-13746000D01*
X12089884Y-13746000D01*
X12105123Y-13741525D01*
X12106328Y-13740135D01*
X12107999Y-13732452D01*
X12107999Y-13502905D01*
X12107662Y-13496386D01*
X12097743Y-13400794D01*
X12094851Y-13387400D01*
X12043412Y-13233216D01*
X12037239Y-13220038D01*
X11951936Y-13082191D01*
X11949145Y-13078670D01*
X11922506Y-13012860D01*
X11935676Y-12943096D01*
X11946696Y-12925917D01*
X11949305Y-12923303D01*
X11953146Y-12917073D01*
X12038275Y-12778968D01*
X12038276Y-12778966D01*
X12042115Y-12772738D01*
X12097797Y-12604861D01*
X12108500Y-12500400D01*
X12108500Y-11499600D01*
X12099097Y-11408974D01*
X12098238Y-11400692D01*
X12098237Y-11400688D01*
X12097526Y-11393834D01*
X12041550Y-11226054D01*
X11948478Y-11075652D01*
X11823303Y-10950695D01*
X11683617Y-10864591D01*
X11678968Y-10861725D01*
X11678966Y-10861724D01*
X11672738Y-10857885D01*
X11587144Y-10829495D01*
X11511389Y-10804368D01*
X11511387Y-10804368D01*
X11504861Y-10802203D01*
X11498025Y-10801503D01*
X11498022Y-10801502D01*
X11454969Y-10797091D01*
X11400400Y-10791500D01*
X10739594Y-10791500D01*
X10671473Y-10771498D01*
X10650499Y-10754595D01*
X3270405Y-3374500D01*
X3236379Y-3312188D01*
X3233500Y-3285405D01*
X3233500Y-2586217D01*
X3253502Y-2518096D01*
X3296991Y-2479376D01*
X3295897Y-2477541D01*
X3300342Y-2474891D01*
X3304982Y-2472618D01*
X3377101Y-2421176D01*
X3484455Y-2344601D01*
X3484459Y-2344597D01*
X3488667Y-2341596D01*
X3648487Y-2182333D01*
X3780150Y-1999105D01*
X3880118Y-1796835D01*
X3945708Y-1580952D01*
X3946383Y-1575826D01*
X3974721Y-1360578D01*
X3974722Y-1360572D01*
X3975158Y-1357256D01*
X3975240Y-1353903D01*
X3976720Y-1293364D01*
X3976720Y-1293360D01*
X3976802Y-1290000D01*
X3958315Y-1065132D01*
X3903349Y-846304D01*
X3813380Y-639391D01*
X3734997Y-518229D01*
X3693634Y-454291D01*
X3693632Y-454288D01*
X3690826Y-449951D01*
X3538977Y-283071D01*
X3534926Y-279872D01*
X3534922Y-279868D01*
X3365966Y-146434D01*
X3365962Y-146432D01*
X3361911Y-143232D01*
X3338535Y-130328D01*
X3288564Y-79896D01*
X3273792Y-10453D01*
X3298908Y55953D01*
X3326259Y82559D01*
X3484455Y195399D01*
X3484459Y195403D01*
X3488667Y198404D01*
X3648487Y357667D01*
X3780150Y540895D01*
X3870475Y723654D01*
X3877824Y738523D01*
X3877825Y738525D01*
X3880118Y743165D01*
X3945708Y959048D01*
X3946383Y964174D01*
X3974721Y1179422D01*
X3974722Y1179428D01*
X3975158Y1182744D01*
X3976229Y1226555D01*
X3976720Y1246636D01*
X3976720Y1246640D01*
X3976802Y1250000D01*
X3958315Y1474868D01*
X3903349Y1693696D01*
X3813380Y1900609D01*
X3765282Y1974957D01*
X3693634Y2085709D01*
X3693632Y2085712D01*
X3690826Y2090049D01*
X3538977Y2256929D01*
X3534926Y2260128D01*
X3534922Y2260132D01*
X3365966Y2393566D01*
X3365962Y2393568D01*
X3361911Y2396768D01*
X3344186Y2406553D01*
X3236287Y2466116D01*
X3164383Y2505809D01*
X2951698Y2581124D01*
X2901297Y2590102D01*
X2734657Y2619786D01*
X2734653Y2619786D01*
X2729569Y2620692D01*
X2657574Y2621571D01*
X2509129Y2623385D01*
X2509127Y2623385D01*
X2503959Y2623448D01*
X2280929Y2589320D01*
X2066468Y2519223D01*
X2061876Y2516833D01*
X2061877Y2516833D01*
X1873320Y2418676D01*
X1866335Y2415040D01*
X1862202Y2411937D01*
X1862199Y2411935D01*
X1690040Y2282675D01*
X1685905Y2279570D01*
X1682333Y2275832D01*
X1563498Y2151478D01*
X1530024Y2116450D01*
X1527112Y2112181D01*
X1527106Y2112173D01*
X1433503Y1974957D01*
X1378592Y1929954D01*
X1308067Y1921783D01*
X1244320Y1953037D01*
X1223623Y1977521D01*
X1220003Y1983118D01*
X1175953Y2051208D01*
X1153634Y2085709D01*
X1153632Y2085712D01*
X1150826Y2090049D01*
X998977Y2256929D01*
X994926Y2260128D01*
X994922Y2260132D01*
X825966Y2393566D01*
X825962Y2393568D01*
X821911Y2396768D01*
X804186Y2406553D01*
X696287Y2466116D01*
X624383Y2505809D01*
X411698Y2581124D01*
X361297Y2590102D01*
X194657Y2619786D01*
X194653Y2619786D01*
X189569Y2620692D01*
X117574Y2621571D01*
X-30871Y2623385D01*
X-30873Y2623385D01*
X-36041Y2623448D01*
X-184377Y2600750D01*
X-253962Y2590102D01*
X-253965Y2590101D01*
X-259071Y2589320D01*
X-263980Y2587715D01*
X-263986Y2587714D01*
X-279254Y2582724D01*
X-350218Y2580575D01*
X-407491Y2613395D01*
X-1423178Y3629083D01*
X-2445868Y4651773D01*
X-2453408Y4660059D01*
X-2457520Y4666538D01*
X-2507172Y4713164D01*
X-2510013Y4715918D01*
X-2529750Y4735655D01*
X-2532947Y4738135D01*
X-2541969Y4745840D01*
X-2546123Y4749741D01*
X-2574199Y4776106D01*
X-2581145Y4779925D01*
X-2581148Y4779927D01*
X-2591954Y4785868D01*
X-2608473Y4796719D01*
X-2608937Y4797079D01*
X-2624479Y4809134D01*
X-2631748Y4812279D01*
X-2631752Y4812282D01*
X-2665057Y4826694D01*
X-2675707Y4831911D01*
X-2714460Y4853215D01*
X-2734083Y4858253D01*
X-2752786Y4864657D01*
X-2764100Y4869553D01*
X-2764101Y4869553D01*
X-2771375Y4872701D01*
X-2779198Y4873940D01*
X-2779208Y4873943D01*
X-2815044Y4879619D01*
X-2826664Y4882025D01*
X-2861809Y4891048D01*
X-2861810Y4891048D01*
X-2869490Y4893020D01*
X-2889744Y4893020D01*
X-2909455Y4894571D01*
X-2921634Y4896500D01*
X-2929463Y4897740D01*
X-2958734Y4894973D01*
X-2973481Y4893579D01*
X-2985339Y4893020D01*
X-12171712Y4893020D01*
X-12182895Y4893547D01*
X-12190388Y4895222D01*
X-12198314Y4894973D01*
X-12198315Y4894973D01*
X-12258478Y4893082D01*
X-12262436Y4893020D01*
X-12290336Y4893020D01*
X-12294326Y4892516D01*
X-12306160Y4891584D01*
X-12350369Y4890194D01*
X-12357985Y4887981D01*
X-12357987Y4887981D01*
X-12369828Y4884541D01*
X-12389187Y4880532D01*
X-12390497Y4880366D01*
X-12409277Y4877994D01*
X-12416643Y4875078D01*
X-12416649Y4875076D01*
X-12450382Y4861720D01*
X-12461612Y4857875D01*
X-12490787Y4849399D01*
X-12504073Y4845539D01*
X-12510896Y4841504D01*
X-12521514Y4835225D01*
X-12539267Y4826528D01*
X-12546912Y4823501D01*
X-12558097Y4819072D01*
X-12571775Y4809134D01*
X-12593868Y4793083D01*
X-12603785Y4786569D01*
X-12641842Y4764062D01*
X-12656163Y4749741D01*
X-12671196Y4736901D01*
X-12687587Y4724992D01*
X-12704991Y4703954D01*
X-12715768Y4690927D01*
X-12723758Y4682146D01*
X-13346258Y4059647D01*
X-13354537Y4052113D01*
X-13361018Y4048000D01*
X-13369394Y4039080D01*
X-13407643Y3998349D01*
X-13410398Y3995507D01*
X-13430135Y3975770D01*
X-13432615Y3972573D01*
X-13440318Y3963553D01*
X-13470586Y3931321D01*
X-13474405Y3924375D01*
X-13474407Y3924372D01*
X-13480348Y3913566D01*
X-13491199Y3897047D01*
X-13503614Y3881041D01*
X-13506759Y3873772D01*
X-13506762Y3873768D01*
X-13521174Y3840463D01*
X-13526391Y3829813D01*
X-13529200Y3824702D01*
X-13543324Y3799010D01*
X-13564644Y3770616D01*
X-13628453Y3706807D01*
X-13632489Y3699983D01*
X-13632491Y3699980D01*
X-13674419Y3629083D01*
X-13713145Y3563601D01*
X-13715356Y3555990D01*
X-13715357Y3555988D01*
X-13715910Y3554085D01*
X-13759562Y3403831D01*
X-13762500Y3366502D01*
X-13762500Y1583498D01*
X-13759562Y1546169D01*
X-13713145Y1386399D01*
X-13709108Y1379573D01*
X-13632491Y1250020D01*
X-13632489Y1250017D01*
X-13628453Y1243193D01*
X-13510807Y1125547D01*
X-13503984Y1121512D01*
X-13503980Y1121509D01*
X-13408702Y1065162D01*
X-13367601Y1040855D01*
X-13359990Y1038644D01*
X-13359988Y1038643D01*
X-13324665Y1028381D01*
X-13207831Y994438D01*
X-13201426Y993934D01*
X-13201421Y993933D01*
X-13172958Y991693D01*
X-13172950Y991693D01*
X-13170502Y991500D01*
X-12737498Y991500D01*
X-12735050Y991693D01*
X-12735042Y991693D01*
X-12706579Y993933D01*
X-12706574Y993934D01*
X-12700169Y994438D01*
X-12583335Y1028381D01*
X-12548012Y1038643D01*
X-12548010Y1038644D01*
X-12540399Y1040855D01*
X-12397193Y1125547D01*
X-12394511Y1128229D01*
X-12330139Y1153502D01*
X-12260516Y1139600D01*
X-12244688Y1129428D01*
X-12240807Y1125547D01*
X-12097601Y1040855D01*
X-12089990Y1038644D01*
X-12089988Y1038643D01*
X-12054665Y1028381D01*
X-11937831Y994438D01*
X-11931426Y993934D01*
X-11931421Y993933D01*
X-11902958Y991693D01*
X-11902950Y991693D01*
X-11900502Y991500D01*
X-11467498Y991500D01*
X-11465050Y991693D01*
X-11465042Y991693D01*
X-11436579Y993933D01*
X-11436574Y993934D01*
X-11430169Y994438D01*
X-11313335Y1028381D01*
X-11278012Y1038643D01*
X-11278010Y1038644D01*
X-11270399Y1040855D01*
X-11127193Y1125547D01*
X-11124253Y1128487D01*
X-11059729Y1153821D01*
X-10990106Y1139920D01*
X-10971360Y1127871D01*
X-10963677Y1121911D01*
X-10834221Y1045352D01*
X-10819790Y1039107D01*
X-10685395Y1000061D01*
X-10671294Y1000101D01*
X-10668000Y1007370D01*
X-10668000Y2603000D01*
X-10647998Y2671121D01*
X-10594342Y2717614D01*
X-10542000Y2729000D01*
X-10286000Y2729000D01*
X-10217879Y2708998D01*
X-10171386Y2655342D01*
X-10160000Y2603000D01*
X-10160000Y1013122D01*
X-10156027Y999591D01*
X-10148129Y998456D01*
X-10008210Y1039107D01*
X-9993779Y1045352D01*
X-9864324Y1121910D01*
X-9856636Y1127874D01*
X-9790551Y1153821D01*
X-9720928Y1139920D01*
X-9704842Y1129582D01*
X-9700807Y1125547D01*
X-9693979Y1121509D01*
X-9693976Y1121507D01*
X-9666008Y1104967D01*
X-9588659Y1059223D01*
X-9569241Y1047739D01*
X-9544285Y1028381D01*
X-9373657Y857753D01*
X-9366113Y849463D01*
X-9362000Y842982D01*
X-9356223Y837557D01*
X-9312333Y796342D01*
X-9309491Y793587D01*
X-9289769Y773865D01*
X-9286645Y771442D01*
X-9286641Y771438D01*
X-9286576Y771388D01*
X-9277555Y763683D01*
X-9245321Y733414D01*
X-9238373Y729595D01*
X-9238371Y729593D01*
X-9227568Y723654D01*
X-9211041Y712798D01*
X-9201302Y705243D01*
X-9201300Y705242D01*
X-9195040Y700386D01*
X-9154460Y682826D01*
X-9143812Y677609D01*
X-9134962Y672744D01*
X-9105060Y656305D01*
X-9097384Y654334D01*
X-9097381Y654333D01*
X-9085438Y651267D01*
X-9066733Y644863D01*
X-9048145Y636819D01*
X-9040322Y635580D01*
X-9040312Y635577D01*
X-9004476Y629901D01*
X-8992856Y627495D01*
X-8957711Y618472D01*
X-8950030Y616500D01*
X-8929776Y616500D01*
X-8910066Y614949D01*
X-8890057Y611780D01*
X-8882165Y612526D01*
X-8846039Y615941D01*
X-8834181Y616500D01*
X-3771676Y616500D01*
X-3703555Y596498D01*
X-3664243Y556335D01*
X-3591025Y436853D01*
X-3587636Y432940D01*
X-3587634Y432938D01*
X-3502537Y334700D01*
X-3445587Y268955D01*
X-3445586Y268954D01*
X-3443298Y266313D01*
X-3443843Y265841D01*
X-3411150Y207424D01*
X-3415475Y136560D01*
X-3457427Y79283D01*
X-3489754Y61376D01*
X-3581654Y26924D01*
X-3597249Y18386D01*
X-3699324Y-58115D01*
X-3711885Y-70676D01*
X-3788386Y-172751D01*
X-3796924Y-188346D01*
X-3842078Y-308794D01*
X-3845705Y-324049D01*
X-3851231Y-374914D01*
X-3851600Y-381728D01*
X-3851600Y-1017885D01*
X-3847125Y-1033124D01*
X-3845735Y-1034329D01*
X-3838052Y-1036000D01*
X-2352000Y-1036000D01*
X-2283879Y-1056002D01*
X-2237386Y-1109658D01*
X-2226000Y-1162000D01*
X-2226000Y-2643484D01*
X-2221525Y-2658723D01*
X-2220135Y-2659928D01*
X-2212452Y-2661599D01*
X-1571731Y-2661599D01*
X-1564910Y-2661229D01*
X-1514048Y-2655705D01*
X-1498796Y-2652079D01*
X-1378346Y-2606924D01*
X-1362751Y-2598386D01*
X-1260676Y-2521885D01*
X-1248115Y-2509324D01*
X-1171614Y-2407249D01*
X-1163076Y-2391654D01*
X-1128159Y-2298515D01*
X-1085517Y-2241750D01*
X-1018955Y-2217051D01*
X-949606Y-2232259D01*
X-914940Y-2260247D01*
X-903298Y-2273687D01*
X-729701Y-2417810D01*
X-725249Y-2420412D01*
X-725244Y-2420415D01*
X-602866Y-2491927D01*
X-534897Y-2531645D01*
X-324116Y-2612134D01*
X-319048Y-2613165D01*
X-319045Y-2613166D01*
X-239645Y-2629320D01*
X-103019Y-2657117D01*
X-97844Y-2657307D01*
X-97842Y-2657307D01*
X117292Y-2665196D01*
X117296Y-2665196D01*
X122456Y-2665385D01*
X127576Y-2664729D01*
X127578Y-2664729D01*
X198020Y-2655705D01*
X346253Y-2636716D01*
X351202Y-2635231D01*
X351208Y-2635230D01*
X557413Y-2573365D01*
X557412Y-2573365D01*
X562363Y-2571880D01*
X596958Y-2554932D01*
X666932Y-2542926D01*
X732289Y-2570657D01*
X772278Y-2629320D01*
X778389Y-2668084D01*
X778389Y-3353516D01*
X758387Y-3421637D01*
X741484Y-3442612D01*
X536499Y-3647596D01*
X474187Y-3681621D01*
X447404Y-3684500D01*
X-3239232Y-3684500D01*
X-3250415Y-3683973D01*
X-3257908Y-3682298D01*
X-3265834Y-3682547D01*
X-3265835Y-3682547D01*
X-3325998Y-3684438D01*
X-3329956Y-3684500D01*
X-3357856Y-3684500D01*
X-3361846Y-3685004D01*
X-3373680Y-3685936D01*
X-3417889Y-3687326D01*
X-3425505Y-3689539D01*
X-3425507Y-3689539D01*
X-3437348Y-3692979D01*
X-3456707Y-3696988D01*
X-3458017Y-3697154D01*
X-3476797Y-3699526D01*
X-3484163Y-3702442D01*
X-3484169Y-3702444D01*
X-3517902Y-3715800D01*
X-3529132Y-3719645D01*
X-3563983Y-3729770D01*
X-3571593Y-3731981D01*
X-3578416Y-3736016D01*
X-3589034Y-3742295D01*
X-3606787Y-3750992D01*
X-3614432Y-3754019D01*
X-3625617Y-3758448D01*
X-3632032Y-3763109D01*
X-3661388Y-3784437D01*
X-3671305Y-3790951D01*
X-3709362Y-3813458D01*
X-3723683Y-3827779D01*
X-3738716Y-3840619D01*
X-3755107Y-3852528D01*
X-3760158Y-3858634D01*
X-3783298Y-3886605D01*
X-3791288Y-3895384D01*
X-10650500Y-10754595D01*
X-10712812Y-10788621D01*
X-10739595Y-10791500D01*
X-11400400Y-10791500D01*
X-11403646Y-10791837D01*
X-11403650Y-10791837D01*
X-11499308Y-10801762D01*
X-11499312Y-10801763D01*
X-11506166Y-10802474D01*
X-11512702Y-10804655D01*
X-11512704Y-10804655D01*
X-11521252Y-10807507D01*
X-11673946Y-10858450D01*
X-11824348Y-10951522D01*
X-11949305Y-11076697D01*
X-12042115Y-11227262D01*
X-12044419Y-11234209D01*
X-12095390Y-11387883D01*
X-12097797Y-11395139D01*
X-12098497Y-11401975D01*
X-12098498Y-11401978D01*
X-12098981Y-11406695D01*
X-12108500Y-11499600D01*
X-12108500Y-12500400D01*
X-12097526Y-12606166D01*
X-12095345Y-12612702D01*
X-12095345Y-12612704D01*
X-12064519Y-12705101D01*
X-12041550Y-12773946D01*
X-11948478Y-12924348D01*
X-11948096Y-12924729D01*
X-11922506Y-12987956D01*
X-11935678Y-13057720D01*
X-11949009Y-13078503D01*
X-11952753Y-13083243D01*
X-12037816Y-13221243D01*
X-12043963Y-13234424D01*
X-12095138Y-13388710D01*
X-12098005Y-13402086D01*
X-12107672Y-13496438D01*
X-12108000Y-13502855D01*
X-12108000Y-13727885D01*
X-12103525Y-13743124D01*
X-12102135Y-13744329D01*
X-12094452Y-13746000D01*
X-10897000Y-13746000D01*
X-10828879Y-13766002D01*
X-10782386Y-13819658D01*
X-10771000Y-13872000D01*
X-10771000Y-14128000D01*
X-10791002Y-14196121D01*
X-10844658Y-14242614D01*
X-10897000Y-14254000D01*
X-12089884Y-14254000D01*
X-12105123Y-14258475D01*
X-12106328Y-14259865D01*
X-12107999Y-14267548D01*
X-12107999Y-14497095D01*
X-12107662Y-14503614D01*
X-12097743Y-14599206D01*
X-12094851Y-14612600D01*
X-12043412Y-14766784D01*
X-12037239Y-14779962D01*
X-11951937Y-14917807D01*
X-11942901Y-14929208D01*
X-11827908Y-15044002D01*
X-11793829Y-15106285D01*
X-11798832Y-15177105D01*
X-11841330Y-15233978D01*
X-11907828Y-15258846D01*
X-11917320Y-15259174D01*
X-12143502Y-15258443D01*
X-12372000Y-15257705D01*
X-12372150Y-15257705D01*
X-14384564Y-15248808D01*
X-14384733Y-15248807D01*
X-14726282Y-15246838D01*
X-16358197Y-15237433D01*
X-16359304Y-15237387D01*
X-16360506Y-15237200D01*
X-16378659Y-15237200D01*
X-16387176Y-15236912D01*
X-16767106Y-15211171D01*
X-16773584Y-15210564D01*
X-17118600Y-15169211D01*
X-17155155Y-15164830D01*
X-17161481Y-15163908D01*
X-17539389Y-15099016D01*
X-17545555Y-15097798D01*
X-17919343Y-15014235D01*
X-17925331Y-15012741D01*
X-18294325Y-14911046D01*
X-18300153Y-14909287D01*
X-18663846Y-14789872D01*
X-18669481Y-14787873D01*
X-18687273Y-14781080D01*
X-19027476Y-14651196D01*
X-19032865Y-14648994D01*
X-19384444Y-14495718D01*
X-19389706Y-14493278D01*
X-19734285Y-14323756D01*
X-19739318Y-14321137D01*
X-20076383Y-14135959D01*
X-20081227Y-14133154D01*
X-20410161Y-13932784D01*
X-20414806Y-13929813D01*
X-20735006Y-13714903D01*
X-20739471Y-13711763D01*
X-21050214Y-13482879D01*
X-21054559Y-13479531D01*
X-21355422Y-13237029D01*
X-21359527Y-13233572D01*
X-21649848Y-12978263D01*
X-21653813Y-12974623D01*
X-21932986Y-12706942D01*
X-21936765Y-12703159D01*
X-22204125Y-12423862D01*
X-22207801Y-12419852D01*
X-22462825Y-12129310D01*
X-22466310Y-12125164D01*
X-22708476Y-11824102D01*
X-22711779Y-11819809D01*
X-22940439Y-11508845D01*
X-22943589Y-11504358D01*
X-23158188Y-11184026D01*
X-23161184Y-11179333D01*
X-23354194Y-10861725D01*
X-23361210Y-10850180D01*
X-23364016Y-10845322D01*
X-23386470Y-10804368D01*
X-23548902Y-10508108D01*
X-23551526Y-10503053D01*
X-23720723Y-10158324D01*
X-23723151Y-10153076D01*
X-23876162Y-9801391D01*
X-23878378Y-9795955D01*
X-24014682Y-9437945D01*
X-24016676Y-9432310D01*
X-24049301Y-9332637D01*
X-24135776Y-9068449D01*
X-24137520Y-9062651D01*
X-24162643Y-8971191D01*
X-24220037Y-8762256D01*
X-24238925Y-8693496D01*
X-24240415Y-8687503D01*
X-24318873Y-8335095D01*
X-24323618Y-8313781D01*
X-24324831Y-8307609D01*
X-24358865Y-8108254D01*
X-24389366Y-7929586D01*
X-24390280Y-7923273D01*
X-24394206Y-7890240D01*
X-24435647Y-7541645D01*
X-24436248Y-7535174D01*
X-24463056Y-7134082D01*
X-24463070Y-7133865D01*
X-24489362Y-6730044D01*
X-24489618Y-6723451D01*
X-24494513Y-6336421D01*
X-24494428Y-6329927D01*
X-24486411Y-6123993D01*
X-24479413Y-5944250D01*
X-24479003Y-5937882D01*
X-24444521Y-5554149D01*
X-24443804Y-5547915D01*
X-24390285Y-5166554D01*
X-24389278Y-5160467D01*
X-24317162Y-4782222D01*
X-24315884Y-4776297D01*
X-24307286Y-4740626D01*
X-24264895Y-4564744D01*
X-24225611Y-4401753D01*
X-24224078Y-4395991D01*
X-24140369Y-4109032D01*
X-24116073Y-4025746D01*
X-24114305Y-4020170D01*
X-24105490Y-3994465D01*
X-23989042Y-3654894D01*
X-23987049Y-3649490D01*
X-23986300Y-3647596D01*
X-23874264Y-3363984D01*
X-13761999Y-3363984D01*
X-13761805Y-3368920D01*
X-13759570Y-3397336D01*
X-13757270Y-3409931D01*
X-13714893Y-3555790D01*
X-13708648Y-3570221D01*
X-13632089Y-3699678D01*
X-13622449Y-3712104D01*
X-13516104Y-3818449D01*
X-13503678Y-3828089D01*
X-13374221Y-3904648D01*
X-13359790Y-3910893D01*
X-13225395Y-3949939D01*
X-13211294Y-3949899D01*
X-13208000Y-3942630D01*
X-13208000Y-3936878D01*
X-12700000Y-3936878D01*
X-12696027Y-3950409D01*
X-12688129Y-3951544D01*
X-12548210Y-3910893D01*
X-12533779Y-3904648D01*
X-12404322Y-3828088D01*
X-12396230Y-3821811D01*
X-12330146Y-3795861D01*
X-12260523Y-3809759D01*
X-12241770Y-3821811D01*
X-12233678Y-3828088D01*
X-12104221Y-3904648D01*
X-12089790Y-3910893D01*
X-11955395Y-3949939D01*
X-11941294Y-3949899D01*
X-11938000Y-3942630D01*
X-11938000Y-3936878D01*
X-11430000Y-3936878D01*
X-11426027Y-3950409D01*
X-11418129Y-3951544D01*
X-11278210Y-3910893D01*
X-11263779Y-3904648D01*
X-11134322Y-3828088D01*
X-11126230Y-3821811D01*
X-11060146Y-3795861D01*
X-10990523Y-3809759D01*
X-10971770Y-3821811D01*
X-10963678Y-3828088D01*
X-10834221Y-3904648D01*
X-10819790Y-3910893D01*
X-10685395Y-3949939D01*
X-10671294Y-3949899D01*
X-10668000Y-3942630D01*
X-10668000Y-3936878D01*
X-10160000Y-3936878D01*
X-10156027Y-3950409D01*
X-10148129Y-3951544D01*
X-10008210Y-3910893D01*
X-9993779Y-3904648D01*
X-9864322Y-3828088D01*
X-9856230Y-3821811D01*
X-9790146Y-3795861D01*
X-9720523Y-3809759D01*
X-9701770Y-3821811D01*
X-9693678Y-3828088D01*
X-9564221Y-3904648D01*
X-9549790Y-3910893D01*
X-9415395Y-3949939D01*
X-9401294Y-3949899D01*
X-9398000Y-3942630D01*
X-9398000Y-3936878D01*
X-8890000Y-3936878D01*
X-8886027Y-3950409D01*
X-8878129Y-3951544D01*
X-8738210Y-3910893D01*
X-8723779Y-3904648D01*
X-8594322Y-3828089D01*
X-8581896Y-3818449D01*
X-8475551Y-3712104D01*
X-8465911Y-3699678D01*
X-8389352Y-3570221D01*
X-8383107Y-3555790D01*
X-8340731Y-3409935D01*
X-8338430Y-3397333D01*
X-8336193Y-3368916D01*
X-8336000Y-3363986D01*
X-8336000Y-2747115D01*
X-8340475Y-2731876D01*
X-8341865Y-2730671D01*
X-8349548Y-2729000D01*
X-8871885Y-2729000D01*
X-8887124Y-2733475D01*
X-8888329Y-2734865D01*
X-8890000Y-2742548D01*
X-8890000Y-3936878D01*
X-9398000Y-3936878D01*
X-9398000Y-2747115D01*
X-9402475Y-2731876D01*
X-9403865Y-2730671D01*
X-9411548Y-2729000D01*
X-10141885Y-2729000D01*
X-10157124Y-2733475D01*
X-10158329Y-2734865D01*
X-10160000Y-2742548D01*
X-10160000Y-3936878D01*
X-10668000Y-3936878D01*
X-10668000Y-2747115D01*
X-10672475Y-2731876D01*
X-10673865Y-2730671D01*
X-10681548Y-2729000D01*
X-11411885Y-2729000D01*
X-11427124Y-2733475D01*
X-11428329Y-2734865D01*
X-11430000Y-2742548D01*
X-11430000Y-3936878D01*
X-11938000Y-3936878D01*
X-11938000Y-2747115D01*
X-11942475Y-2731876D01*
X-11943865Y-2730671D01*
X-11951548Y-2729000D01*
X-12681885Y-2729000D01*
X-12697124Y-2733475D01*
X-12698329Y-2734865D01*
X-12700000Y-2742548D01*
X-12700000Y-3936878D01*
X-13208000Y-3936878D01*
X-13208000Y-2747115D01*
X-13212475Y-2731876D01*
X-13213865Y-2730671D01*
X-13221548Y-2729000D01*
X-13743884Y-2729000D01*
X-13759123Y-2733475D01*
X-13760328Y-2734865D01*
X-13761999Y-2742548D01*
X-13761999Y-3363984D01*
X-23874264Y-3363984D01*
X-23863840Y-3337595D01*
X-23844977Y-3289844D01*
X-23842766Y-3284598D01*
X-23684368Y-2931230D01*
X-23681952Y-2926148D01*
X-23507700Y-2579742D01*
X-23505091Y-2574827D01*
X-23336554Y-2273687D01*
X-23315439Y-2235960D01*
X-23312642Y-2231209D01*
X-23303883Y-2217051D01*
X-23295119Y-2202885D01*
X-13762000Y-2202885D01*
X-13757525Y-2218124D01*
X-13756135Y-2219329D01*
X-13748452Y-2221000D01*
X-13226115Y-2221000D01*
X-13210876Y-2216525D01*
X-13209671Y-2215135D01*
X-13208000Y-2207452D01*
X-13208000Y-2202885D01*
X-12700000Y-2202885D01*
X-12695525Y-2218124D01*
X-12694135Y-2219329D01*
X-12686452Y-2221000D01*
X-11956115Y-2221000D01*
X-11940876Y-2216525D01*
X-11939671Y-2215135D01*
X-11938000Y-2207452D01*
X-11938000Y-2202885D01*
X-11430000Y-2202885D01*
X-11425525Y-2218124D01*
X-11424135Y-2219329D01*
X-11416452Y-2221000D01*
X-10686115Y-2221000D01*
X-10670876Y-2216525D01*
X-10669671Y-2215135D01*
X-10668000Y-2207452D01*
X-10668000Y-2202885D01*
X-10160000Y-2202885D01*
X-10155525Y-2218124D01*
X-10154135Y-2219329D01*
X-10146452Y-2221000D01*
X-9416115Y-2221000D01*
X-9400876Y-2216525D01*
X-9399671Y-2215135D01*
X-9398000Y-2207452D01*
X-9398000Y-2202885D01*
X-8890000Y-2202885D01*
X-8885525Y-2218124D01*
X-8884135Y-2219329D01*
X-8876452Y-2221000D01*
X-8354116Y-2221000D01*
X-8338877Y-2216525D01*
X-8337672Y-2215135D01*
X-8336001Y-2207452D01*
X-8336001Y-2198269D01*
X-3851599Y-2198269D01*
X-3851229Y-2205090D01*
X-3845705Y-2255952D01*
X-3842079Y-2271204D01*
X-3796924Y-2391654D01*
X-3788386Y-2407249D01*
X-3711885Y-2509324D01*
X-3699324Y-2521885D01*
X-3597249Y-2598386D01*
X-3581654Y-2606924D01*
X-3461206Y-2652078D01*
X-3445951Y-2655705D01*
X-3395086Y-2661231D01*
X-3388272Y-2661600D01*
X-2752115Y-2661600D01*
X-2736876Y-2657125D01*
X-2735671Y-2655735D01*
X-2734000Y-2648052D01*
X-2734000Y-1562115D01*
X-2738475Y-1546876D01*
X-2739865Y-1545671D01*
X-2747548Y-1544000D01*
X-3833484Y-1544000D01*
X-3848723Y-1548475D01*
X-3849928Y-1549865D01*
X-3851599Y-1557548D01*
X-3851599Y-2198269D01*
X-8336001Y-2198269D01*
X-8336001Y-1586017D01*
X-8336195Y-1581080D01*
X-8338430Y-1552664D01*
X-8340730Y-1540069D01*
X-8383107Y-1394210D01*
X-8389352Y-1379779D01*
X-8465911Y-1250322D01*
X-8475551Y-1237896D01*
X-8581896Y-1131551D01*
X-8594322Y-1121911D01*
X-8723779Y-1045352D01*
X-8738210Y-1039107D01*
X-8872605Y-1000061D01*
X-8886706Y-1000101D01*
X-8890000Y-1007370D01*
X-8890000Y-2202885D01*
X-9398000Y-2202885D01*
X-9398000Y-1013122D01*
X-9401973Y-999591D01*
X-9409871Y-998456D01*
X-9549790Y-1039107D01*
X-9564221Y-1045352D01*
X-9693678Y-1121912D01*
X-9701770Y-1128189D01*
X-9767854Y-1154139D01*
X-9837477Y-1140241D01*
X-9856230Y-1128189D01*
X-9864322Y-1121912D01*
X-9993779Y-1045352D01*
X-10008210Y-1039107D01*
X-10142605Y-1000061D01*
X-10156706Y-1000101D01*
X-10160000Y-1007370D01*
X-10160000Y-2202885D01*
X-10668000Y-2202885D01*
X-10668000Y-1013122D01*
X-10671973Y-999591D01*
X-10679871Y-998456D01*
X-10819790Y-1039107D01*
X-10834221Y-1045352D01*
X-10963678Y-1121912D01*
X-10971770Y-1128189D01*
X-11037854Y-1154139D01*
X-11107477Y-1140241D01*
X-11126230Y-1128189D01*
X-11134322Y-1121912D01*
X-11263779Y-1045352D01*
X-11278210Y-1039107D01*
X-11412605Y-1000061D01*
X-11426706Y-1000101D01*
X-11430000Y-1007370D01*
X-11430000Y-2202885D01*
X-11938000Y-2202885D01*
X-11938000Y-1013122D01*
X-11941973Y-999591D01*
X-11949871Y-998456D01*
X-12089790Y-1039107D01*
X-12104221Y-1045352D01*
X-12233678Y-1121912D01*
X-12241770Y-1128189D01*
X-12307854Y-1154139D01*
X-12377477Y-1140241D01*
X-12396230Y-1128189D01*
X-12404322Y-1121912D01*
X-12533779Y-1045352D01*
X-12548210Y-1039107D01*
X-12682605Y-1000061D01*
X-12696706Y-1000101D01*
X-12700000Y-1007370D01*
X-12700000Y-2202885D01*
X-13208000Y-2202885D01*
X-13208000Y-1013122D01*
X-13211973Y-999591D01*
X-13219871Y-998456D01*
X-13359790Y-1039107D01*
X-13374221Y-1045352D01*
X-13503678Y-1121911D01*
X-13516104Y-1131551D01*
X-13622449Y-1237896D01*
X-13632089Y-1250322D01*
X-13708648Y-1379779D01*
X-13714893Y-1394210D01*
X-13757269Y-1540065D01*
X-13759570Y-1552667D01*
X-13761807Y-1581084D01*
X-13762000Y-1586014D01*
X-13762000Y-2202885D01*
X-23295119Y-2202885D01*
X-23108132Y-1900644D01*
X-23105157Y-1896061D01*
X-22886309Y-1574457D01*
X-22883138Y-1570009D01*
X-22868735Y-1550705D01*
X-22650453Y-1258138D01*
X-22647147Y-1253901D01*
X-22401102Y-952219D01*
X-22397577Y-948084D01*
X-22138766Y-657392D01*
X-22135054Y-653399D01*
X-22126063Y-644141D01*
X-21864023Y-374292D01*
X-21860104Y-370429D01*
X-21816696Y-329473D01*
X-21577423Y-103715D01*
X-21573334Y-100024D01*
X-21279424Y153825D01*
X-21275142Y157362D01*
X-20970668Y397746D01*
X-20966139Y401159D01*
X-20750286Y556335D01*
X-20651597Y627282D01*
X-20646919Y630487D01*
X-20637450Y636666D01*
X-20322896Y841944D01*
X-20317954Y845009D01*
X-20202931Y912707D01*
X-19988171Y1039107D01*
X-19985028Y1040957D01*
X-19979896Y1043819D01*
X-19638468Y1223889D01*
X-19633108Y1226555D01*
X-19283776Y1390083D01*
X-19278215Y1392524D01*
X-18921585Y1538955D01*
X-18915775Y1541175D01*
X-18901668Y1546169D01*
X-18552244Y1669866D01*
X-18546321Y1671798D01*
X-18176256Y1782367D01*
X-18170071Y1784044D01*
X-17794225Y1875813D01*
X-17787847Y1877196D01*
X-17415599Y1947891D01*
X-17405621Y1949375D01*
X-17404880Y1949455D01*
X-17391530Y1950897D01*
X-17386826Y1952159D01*
X-17386824Y1952159D01*
X-17376060Y1955046D01*
X-17366942Y1957132D01*
X-17354252Y1959542D01*
X-17340058Y1964402D01*
X-17331898Y1966891D01*
X-17266229Y1984504D01*
X-17211738Y1999119D01*
X-17200460Y2001596D01*
X-17162393Y2008145D01*
X-17071901Y2023712D01*
X-17063688Y2024848D01*
X-16926053Y2039263D01*
X-16914137Y2040511D01*
X-16908604Y2040967D01*
X-16741386Y2051061D01*
X-16738330Y2051208D01*
X-16556299Y2057765D01*
X-16555625Y2057788D01*
X-16403348Y2062457D01*
X-16400701Y2062452D01*
X-16398199Y2062171D01*
X-16388930Y2062568D01*
X-16362453Y2063702D01*
X-16360922Y2063758D01*
X-16349857Y2064097D01*
X-16328301Y2064758D01*
X-16325821Y2065191D01*
X-16323135Y2065386D01*
X-16206412Y2070384D01*
X-16200238Y2070272D01*
X-16200237Y2070463D01*
X-16195379Y2070450D01*
X-16190523Y2070062D01*
X-16185665Y2070425D01*
X-16185659Y2070425D01*
X-16161093Y2072261D01*
X-16157111Y2072496D01*
X-16130681Y2073628D01*
X-16126283Y2074451D01*
X-16121825Y2074961D01*
X-16121813Y2074854D01*
X-16115677Y2075656D01*
X-15995414Y2084645D01*
X-15982426Y2084944D01*
X-15980564Y2084891D01*
X-15980562Y2084891D01*
X-15975689Y2084752D01*
X-15970857Y2085364D01*
X-15970854Y2085364D01*
X-15952540Y2087683D01*
X-15946105Y2088330D01*
X-15930439Y2089501D01*
X-15930438Y2089501D01*
X-15925958Y2089836D01*
X-15918595Y2091458D01*
X-15907328Y2093409D01*
X-15821468Y2104281D01*
X-15778186Y2109762D01*
X-15768105Y2110629D01*
X-15765842Y2110732D01*
X-15754025Y2111272D01*
X-15738260Y2114469D01*
X-15729052Y2115984D01*
X-15720602Y2117054D01*
X-15720600Y2117054D01*
X-15716165Y2117616D01*
X-15711852Y2118801D01*
X-15711844Y2118803D01*
X-15701773Y2121571D01*
X-15693428Y2123562D01*
X-15555767Y2151480D01*
X-15548848Y2152683D01*
X-15531785Y2155162D01*
X-15526960Y2155863D01*
X-15519026Y2158307D01*
X-15506988Y2161372D01*
X-15506309Y2161510D01*
X-15506306Y2161511D01*
X-15501906Y2162403D01*
X-15497681Y2163909D01*
X-15497676Y2163910D01*
X-15480199Y2170138D01*
X-15474988Y2171868D01*
X-15352959Y2209448D01*
X-15330172Y2216465D01*
X-15326671Y2217488D01*
X-15296647Y2225771D01*
X-15292213Y2227771D01*
X-15291830Y2227909D01*
X-15288555Y2229282D01*
X-15285024Y2230369D01*
X-15255325Y2244387D01*
X-15253444Y2245255D01*
X-15109464Y2310186D01*
X-15109085Y2310355D01*
X-15068477Y2328387D01*
X-15042057Y2345409D01*
X-15041655Y2345666D01*
X-14976444Y2387089D01*
X-14975471Y2388198D01*
X-14974340Y2389040D01*
X-14948658Y2405587D01*
X-14946617Y2406720D01*
X-14944312Y2407430D01*
X-14883251Y2447722D01*
X-14882229Y2448389D01*
X-14857503Y2464319D01*
X-14855940Y2465676D01*
X-14855314Y2466116D01*
X-14854970Y2466383D01*
X-14850898Y2469070D01*
X-14847291Y2472348D01*
X-14847284Y2472354D01*
X-14828317Y2489594D01*
X-14826138Y2491529D01*
X-14782126Y2529712D01*
X-14782121Y2529718D01*
X-14775342Y2535599D01*
X-14772680Y2539736D01*
X-14768946Y2543560D01*
X-14741308Y2568682D01*
X-14738228Y2571150D01*
X-14734816Y2572888D01*
X-14728284Y2579041D01*
X-14728281Y2579043D01*
X-14684253Y2620515D01*
X-14682612Y2622033D01*
X-14664766Y2638255D01*
X-14664763Y2638258D01*
X-14661445Y2641274D01*
X-14659267Y2643910D01*
X-14657083Y2646079D01*
X-14656892Y2646289D01*
X-14653348Y2649627D01*
X-14635722Y2672299D01*
X-14633359Y2675246D01*
X-14597863Y2718184D01*
X-14592139Y2725108D01*
X-14589652Y2730888D01*
X-14585471Y2736938D01*
X-14555879Y2775001D01*
X-14554537Y2776510D01*
X-14552850Y2777752D01*
X-14507856Y2836766D01*
X-14507184Y2837639D01*
X-14491968Y2857211D01*
X-14491966Y2857214D01*
X-14489234Y2860728D01*
X-14488364Y2862254D01*
X-14488227Y2862445D01*
X-14487942Y2862886D01*
X-14484993Y2866753D01*
X-14470264Y2893910D01*
X-14468939Y2896291D01*
X-14450877Y2927940D01*
X-14435321Y2955200D01*
X-14434251Y2959689D01*
X-14432165Y2964159D01*
X-14371960Y3075166D01*
X-14369832Y3078935D01*
X-14342414Y3125591D01*
X-14337867Y3133328D01*
X-14328445Y3170722D01*
X-14324420Y3183700D01*
X-14314140Y3211454D01*
X-14314140Y3211455D01*
X-14311022Y3219873D01*
X-14306278Y3287337D01*
X-14306052Y3290105D01*
X-14294945Y3410008D01*
X-14283985Y3528336D01*
X-14281612Y3553954D01*
X-14281589Y3554129D01*
X-14281541Y3554320D01*
X-14281489Y3554889D01*
X-14281487Y3554903D01*
X-14277897Y3594065D01*
X-14277886Y3594182D01*
X-14274653Y3629083D01*
X-14274653Y3629088D01*
X-14274600Y3629657D01*
X-14274610Y3629849D01*
X-14274601Y3630006D01*
X-14249246Y3906533D01*
X-14249226Y3906741D01*
X-14225038Y4165799D01*
X-14220120Y4218473D01*
X-14189575Y4529145D01*
X-14189482Y4530057D01*
X-14189027Y4534321D01*
X-14156621Y4838361D01*
X-14156472Y4839686D01*
X-14152593Y4872701D01*
X-14120498Y5145901D01*
X-14120282Y5147636D01*
X-14113009Y5202721D01*
X-14098593Y5311924D01*
X-14080182Y5451378D01*
X-14079883Y5453504D01*
X-14034927Y5754435D01*
X-14034525Y5756952D01*
X-14001643Y5950211D01*
X-13983847Y6054804D01*
X-13983322Y6057687D01*
X-13980942Y6069940D01*
X-13926131Y6352097D01*
X-13925451Y6355364D01*
X-13887355Y6526959D01*
X-13860932Y6645979D01*
X-13860069Y6649612D01*
X-13787423Y6936351D01*
X-13786345Y6940332D01*
X-13704875Y7222731D01*
X-13703544Y7227052D01*
X-13698533Y7242339D01*
X-13612385Y7505153D01*
X-13610797Y7509701D01*
X-13610782Y7509739D01*
X-13509377Y7783157D01*
X-13507428Y7788088D01*
X-13494399Y7819132D01*
X-13422847Y7989627D01*
X-13404447Y8033470D01*
X-13404054Y8034318D01*
X-13403527Y8035185D01*
X-13388933Y8070436D01*
X-13388697Y8071001D01*
X-13376273Y8100604D01*
X-13376267Y8100621D01*
X-13375188Y8103191D01*
X-13374932Y8104173D01*
X-13374605Y8105042D01*
X-13336963Y8195962D01*
X-13211695Y8498533D01*
X-13209491Y8503544D01*
X-13061228Y8821432D01*
X-13020496Y8908763D01*
X-13018117Y8913591D01*
X-12812250Y9309861D01*
X-12809703Y9314520D01*
X-12587386Y9701497D01*
X-12584672Y9706002D01*
X-12550118Y9760715D01*
X-12346451Y10083209D01*
X-12343585Y10087545D01*
X-12089887Y10454763D01*
X-12086926Y10458870D01*
X-12010461Y10560536D01*
X-11818636Y10815582D01*
X-11815502Y10819579D01*
X-11752587Y10896542D01*
X-11532814Y11165391D01*
X-11529596Y11169172D01*
X-11452013Y11256771D01*
X-11233287Y11503738D01*
X-11229941Y11507369D01*
X-10920583Y11830182D01*
X-10917132Y11833646D01*
X-10595221Y12144466D01*
X-10591652Y12147781D01*
X-10257771Y12446103D01*
X-10254113Y12449248D01*
X-9908893Y12734703D01*
X-9905136Y12737691D01*
X-9549127Y13009917D01*
X-9545266Y13012755D01*
X-9277218Y13202015D01*
X-9179127Y13271274D01*
X-9175196Y13273939D01*
X-8799490Y13518398D01*
X-8795443Y13520923D01*
X-8590491Y13643419D01*
X-8410688Y13750883D01*
X-8406561Y13753245D01*
X-8013500Y13968470D01*
X-8009238Y13970699D01*
X-7608461Y14170661D01*
X-7604104Y14172731D01*
X-7196166Y14357115D01*
X-7191733Y14359017D01*
X-6777248Y14527484D01*
X-6772681Y14529238D01*
X-6352374Y14681339D01*
X-6347698Y14682928D01*
X-5921984Y14818370D01*
X-5917201Y14819788D01*
X-5486772Y14938185D01*
X-5481886Y14939424D01*
X-5047400Y15040431D01*
X-5042403Y15041487D01*
X-4604331Y15124774D01*
X-4599227Y15125636D01*
X-4475948Y15143864D01*
X-4158188Y15190848D01*
X-4153015Y15191503D01*
X-3904864Y15217702D01*
X-3709612Y15238316D01*
X-3704313Y15238762D01*
X-3259170Y15266832D01*
X-3253777Y15267056D01*
X-3022561Y15271713D01*
X-2807422Y15276046D01*
X-2801989Y15276038D01*
G37*
%TD.AperFunction*%
%TD*%
M02*
