%TF.GenerationSoftware,KiCad,Pcbnew,(6.0.4)*%
%TF.CreationDate,2022-04-09T22:55:50+02:00*%
%TF.ProjectId,cloud,636c6f75-642e-46b6-9963-61645f706362,rev?*%
%TF.SameCoordinates,Original*%
%TF.FileFunction,Legend,Top*%
%TF.FilePolarity,Positive*%
%FSLAX46Y46*%
G04 Gerber Fmt 4.6, Leading zero omitted, Abs format (unit mm)*
G04 Created by KiCad (PCBNEW (6.0.4)) date 2022-04-09 22:55:50*
%MOMM*%
%LPD*%
G01*
G04 APERTURE LIST*
%ADD10C,0.500000*%
%ADD11C,0.010000*%
G04 APERTURE END LIST*
D10*
%TO.C,X1*%
X-3953000Y3429000D02*
G75*
G03*
X-3953000Y3429000I-1000000J0D01*
G01*
%TO.C,N1*%
G36*
X-2253407Y13127244D02*
G01*
X-1635638Y13075447D01*
X-1019535Y12982123D01*
X-870137Y12953091D01*
X-260165Y12808119D01*
X334483Y12624312D01*
X912259Y12402862D01*
X1471613Y12144959D01*
X2010998Y11851796D01*
X2528866Y11524565D01*
X3023667Y11164456D01*
X3493853Y10772662D01*
X3937876Y10350373D01*
X4354188Y9898783D01*
X4741240Y9419082D01*
X5097484Y8912462D01*
X5421371Y8380114D01*
X5660872Y7926960D01*
X5829481Y7569020D01*
X5977818Y7216502D01*
X6110189Y6857685D01*
X6230896Y6480849D01*
X6344244Y6074275D01*
X6351674Y6045709D01*
X6387118Y5913327D01*
X6422910Y5787502D01*
X6456415Y5676948D01*
X6484994Y5590376D01*
X6505446Y5537709D01*
X6577796Y5407701D01*
X6672152Y5275499D01*
X6776668Y5156360D01*
X6861338Y5079356D01*
X7060376Y4947693D01*
X7274304Y4853863D01*
X7498588Y4798856D01*
X7728693Y4783663D01*
X7960085Y4809273D01*
X8027651Y4824696D01*
X8116702Y4849358D01*
X8194889Y4876460D01*
X8271443Y4910538D01*
X8355596Y4956122D01*
X8456581Y5017748D01*
X8569952Y5090975D01*
X8898831Y5283723D01*
X9250778Y5447842D01*
X9613765Y5578047D01*
X9791129Y5627641D01*
X10129470Y5694858D01*
X10486918Y5731933D01*
X10852897Y5738909D01*
X11216831Y5715829D01*
X11568144Y5662735D01*
X11755879Y5619790D01*
X12145370Y5497165D01*
X12516599Y5337416D01*
X12867352Y5142589D01*
X13195417Y4914733D01*
X13498583Y4655894D01*
X13774637Y4368120D01*
X14021366Y4053459D01*
X14236560Y3713959D01*
X14418005Y3351666D01*
X14538108Y3044672D01*
X14632740Y2731374D01*
X14698631Y2419616D01*
X14737271Y2098931D01*
X14750148Y1758851D01*
X14747275Y1574544D01*
X14743760Y1378763D01*
X14747658Y1216687D01*
X14760204Y1080141D01*
X14782631Y960950D01*
X14816175Y850940D01*
X14862071Y741935D01*
X14877985Y709106D01*
X15001170Y507879D01*
X15156672Y332949D01*
X15339669Y188961D01*
X15466908Y113415D01*
X15590712Y57861D01*
X15722969Y18613D01*
X15875569Y-8014D01*
X16023167Y-22932D01*
X16335794Y-50245D01*
X16614075Y-80753D01*
X16865956Y-115751D01*
X17099382Y-156534D01*
X17322298Y-204395D01*
X17542650Y-260630D01*
X17625933Y-284052D01*
X18123398Y-448437D01*
X18599523Y-649195D01*
X19054875Y-886663D01*
X19490023Y-1161176D01*
X19905533Y-1473072D01*
X20301973Y-1822687D01*
X20427741Y-1945425D01*
X20790518Y-2336649D01*
X21115655Y-2747165D01*
X21403205Y-3177089D01*
X21653227Y-3626538D01*
X21865775Y-4095629D01*
X22040906Y-4584479D01*
X22178676Y-5093204D01*
X22279140Y-5621921D01*
X22313063Y-5873750D01*
X22325181Y-6012492D01*
X22333461Y-6183249D01*
X22337975Y-6375884D01*
X22338797Y-6580260D01*
X22335999Y-6786240D01*
X22329656Y-6983686D01*
X22319840Y-7162462D01*
X22306624Y-7312431D01*
X22302424Y-7347121D01*
X22212412Y-7881107D01*
X22083997Y-8397458D01*
X21917275Y-8895944D01*
X21712338Y-9376340D01*
X21469284Y-9838416D01*
X21188207Y-10281947D01*
X20930532Y-10630234D01*
X20842803Y-10735241D01*
X20730697Y-10860320D01*
X20601200Y-10998434D01*
X20461297Y-11142547D01*
X20317972Y-11285626D01*
X20178210Y-11420633D01*
X20048996Y-11540534D01*
X19937314Y-11638294D01*
X19896667Y-11671576D01*
X19628996Y-11871259D01*
X19332747Y-12068545D01*
X19020341Y-12256101D01*
X18704198Y-12426594D01*
X18396738Y-12572690D01*
X18301718Y-12613296D01*
X17897807Y-12763111D01*
X17460158Y-12891975D01*
X16992366Y-12998894D01*
X16742833Y-13044739D01*
X16478250Y-13089531D01*
X105833Y-13092225D01*
X-725937Y-13092352D01*
X-1547508Y-13092457D01*
X-2357852Y-13092541D01*
X-3155943Y-13092604D01*
X-3940753Y-13092647D01*
X-4711256Y-13092669D01*
X-5466425Y-13092672D01*
X-6205233Y-13092655D01*
X-6926654Y-13092618D01*
X-7629660Y-13092563D01*
X-8313224Y-13092489D01*
X-8976321Y-13092397D01*
X-9617922Y-13092287D01*
X-10237001Y-13092159D01*
X-10832532Y-13092013D01*
X-11403487Y-13091851D01*
X-11948839Y-13091672D01*
X-12467563Y-13091477D01*
X-12958630Y-13091265D01*
X-13421014Y-13091038D01*
X-13853689Y-13090795D01*
X-14255626Y-13090538D01*
X-14625801Y-13090265D01*
X-14963185Y-13089978D01*
X-15266752Y-13089677D01*
X-15535474Y-13089362D01*
X-15768326Y-13089034D01*
X-15964281Y-13088692D01*
X-16122311Y-13088338D01*
X-16241389Y-13087971D01*
X-16320490Y-13087592D01*
X-16358585Y-13087200D01*
X-16361833Y-13087083D01*
X-16477461Y-13074902D01*
X-16622149Y-13055624D01*
X-16783604Y-13031216D01*
X-16949535Y-13003639D01*
X-17107649Y-12974859D01*
X-17245654Y-12946840D01*
X-17261683Y-12943310D01*
X-17702792Y-12825922D01*
X-18146494Y-12670935D01*
X-18585441Y-12481896D01*
X-19012287Y-12262356D01*
X-19419684Y-12015865D01*
X-19800286Y-11745972D01*
X-19896667Y-11670220D01*
X-20011416Y-11573329D01*
X-20145055Y-11452914D01*
X-20289053Y-11317313D01*
X-20434880Y-11174865D01*
X-20574006Y-11033910D01*
X-20697900Y-10902788D01*
X-20798033Y-10789838D01*
X-20801972Y-10785163D01*
X-21128574Y-10364720D01*
X-21416942Y-9926198D01*
X-21667140Y-9469453D01*
X-21879230Y-8994338D01*
X-22053277Y-8500711D01*
X-22189343Y-7988425D01*
X-22287491Y-7457336D01*
X-22302502Y-7349407D01*
X-22318303Y-7193895D01*
X-22329718Y-7007410D01*
X-22336746Y-6800097D01*
X-22339387Y-6582102D01*
X-22337641Y-6363571D01*
X-22331508Y-6154651D01*
X-22320988Y-5965487D01*
X-22306081Y-5806226D01*
X-22302524Y-5778500D01*
X-22219155Y-5278484D01*
X-22107888Y-4806365D01*
X-21967076Y-4356825D01*
X-21795070Y-3924549D01*
X-21607432Y-3536724D01*
X-21346294Y-3084567D01*
X-21052343Y-2657291D01*
X-20727572Y-2256466D01*
X-20373976Y-1883663D01*
X-19993551Y-1540452D01*
X-19588290Y-1228403D01*
X-19160188Y-949087D01*
X-18711241Y-704075D01*
X-18243441Y-494935D01*
X-17758785Y-323240D01*
X-17399000Y-223313D01*
X-17188451Y-173886D01*
X-16991614Y-133433D01*
X-16799258Y-100739D01*
X-16602149Y-74592D01*
X-16391054Y-53778D01*
X-16156740Y-37083D01*
X-15889973Y-23294D01*
X-15870764Y-22447D01*
X-15722069Y-14700D01*
X-15574140Y-4764D01*
X-15437096Y6519D01*
X-15321059Y18309D01*
X-15236148Y29762D01*
X-15229417Y30916D01*
X-14844782Y119850D01*
X-14475527Y246863D01*
X-14123948Y409777D01*
X-13792342Y606410D01*
X-13483004Y834582D01*
X-13198231Y1092112D01*
X-12940320Y1376820D01*
X-12711565Y1686526D01*
X-12514265Y2019049D01*
X-12350714Y2372209D01*
X-12223210Y2743825D01*
X-12174682Y2931583D01*
X-12151144Y3040163D01*
X-12131611Y3147560D01*
X-12115439Y3260333D01*
X-12101988Y3385040D01*
X-12090613Y3528238D01*
X-12080674Y3696484D01*
X-12071528Y3896336D01*
X-12065831Y4042833D01*
X-12058100Y4217483D01*
X-12047754Y4400637D01*
X-12035579Y4581131D01*
X-12022364Y4747801D01*
X-12008896Y4889484D01*
X-12001630Y4953000D01*
X-11904023Y5567883D01*
X-11766209Y6171518D01*
X-11589228Y6762183D01*
X-11374120Y7338157D01*
X-11121925Y7897718D01*
X-10833684Y8439146D01*
X-10510437Y8960718D01*
X-10153224Y9460715D01*
X-9763085Y9937415D01*
X-9341060Y10389096D01*
X-8888190Y10814037D01*
X-8405514Y11210517D01*
X-8072424Y11454858D01*
X-7550565Y11794922D01*
X-7009906Y12097715D01*
X-6452494Y12362812D01*
X-5880374Y12589788D01*
X-5295593Y12778216D01*
X-4700198Y12927671D01*
X-4096236Y13037726D01*
X-3485752Y13107958D01*
X-2870793Y13137939D01*
X-2253407Y13127244D01*
G37*
D11*
X-2253407Y13127244D02*
X-1635638Y13075447D01*
X-1019535Y12982123D01*
X-870137Y12953091D01*
X-260165Y12808119D01*
X334483Y12624312D01*
X912259Y12402862D01*
X1471613Y12144959D01*
X2010998Y11851796D01*
X2528866Y11524565D01*
X3023667Y11164456D01*
X3493853Y10772662D01*
X3937876Y10350373D01*
X4354188Y9898783D01*
X4741240Y9419082D01*
X5097484Y8912462D01*
X5421371Y8380114D01*
X5660872Y7926960D01*
X5829481Y7569020D01*
X5977818Y7216502D01*
X6110189Y6857685D01*
X6230896Y6480849D01*
X6344244Y6074275D01*
X6351674Y6045709D01*
X6387118Y5913327D01*
X6422910Y5787502D01*
X6456415Y5676948D01*
X6484994Y5590376D01*
X6505446Y5537709D01*
X6577796Y5407701D01*
X6672152Y5275499D01*
X6776668Y5156360D01*
X6861338Y5079356D01*
X7060376Y4947693D01*
X7274304Y4853863D01*
X7498588Y4798856D01*
X7728693Y4783663D01*
X7960085Y4809273D01*
X8027651Y4824696D01*
X8116702Y4849358D01*
X8194889Y4876460D01*
X8271443Y4910538D01*
X8355596Y4956122D01*
X8456581Y5017748D01*
X8569952Y5090975D01*
X8898831Y5283723D01*
X9250778Y5447842D01*
X9613765Y5578047D01*
X9791129Y5627641D01*
X10129470Y5694858D01*
X10486918Y5731933D01*
X10852897Y5738909D01*
X11216831Y5715829D01*
X11568144Y5662735D01*
X11755879Y5619790D01*
X12145370Y5497165D01*
X12516599Y5337416D01*
X12867352Y5142589D01*
X13195417Y4914733D01*
X13498583Y4655894D01*
X13774637Y4368120D01*
X14021366Y4053459D01*
X14236560Y3713959D01*
X14418005Y3351666D01*
X14538108Y3044672D01*
X14632740Y2731374D01*
X14698631Y2419616D01*
X14737271Y2098931D01*
X14750148Y1758851D01*
X14747275Y1574544D01*
X14743760Y1378763D01*
X14747658Y1216687D01*
X14760204Y1080141D01*
X14782631Y960950D01*
X14816175Y850940D01*
X14862071Y741935D01*
X14877985Y709106D01*
X15001170Y507879D01*
X15156672Y332949D01*
X15339669Y188961D01*
X15466908Y113415D01*
X15590712Y57861D01*
X15722969Y18613D01*
X15875569Y-8014D01*
X16023167Y-22932D01*
X16335794Y-50245D01*
X16614075Y-80753D01*
X16865956Y-115751D01*
X17099382Y-156534D01*
X17322298Y-204395D01*
X17542650Y-260630D01*
X17625933Y-284052D01*
X18123398Y-448437D01*
X18599523Y-649195D01*
X19054875Y-886663D01*
X19490023Y-1161176D01*
X19905533Y-1473072D01*
X20301973Y-1822687D01*
X20427741Y-1945425D01*
X20790518Y-2336649D01*
X21115655Y-2747165D01*
X21403205Y-3177089D01*
X21653227Y-3626538D01*
X21865775Y-4095629D01*
X22040906Y-4584479D01*
X22178676Y-5093204D01*
X22279140Y-5621921D01*
X22313063Y-5873750D01*
X22325181Y-6012492D01*
X22333461Y-6183249D01*
X22337975Y-6375884D01*
X22338797Y-6580260D01*
X22335999Y-6786240D01*
X22329656Y-6983686D01*
X22319840Y-7162462D01*
X22306624Y-7312431D01*
X22302424Y-7347121D01*
X22212412Y-7881107D01*
X22083997Y-8397458D01*
X21917275Y-8895944D01*
X21712338Y-9376340D01*
X21469284Y-9838416D01*
X21188207Y-10281947D01*
X20930532Y-10630234D01*
X20842803Y-10735241D01*
X20730697Y-10860320D01*
X20601200Y-10998434D01*
X20461297Y-11142547D01*
X20317972Y-11285626D01*
X20178210Y-11420633D01*
X20048996Y-11540534D01*
X19937314Y-11638294D01*
X19896667Y-11671576D01*
X19628996Y-11871259D01*
X19332747Y-12068545D01*
X19020341Y-12256101D01*
X18704198Y-12426594D01*
X18396738Y-12572690D01*
X18301718Y-12613296D01*
X17897807Y-12763111D01*
X17460158Y-12891975D01*
X16992366Y-12998894D01*
X16742833Y-13044739D01*
X16478250Y-13089531D01*
X105833Y-13092225D01*
X-725937Y-13092352D01*
X-1547508Y-13092457D01*
X-2357852Y-13092541D01*
X-3155943Y-13092604D01*
X-3940753Y-13092647D01*
X-4711256Y-13092669D01*
X-5466425Y-13092672D01*
X-6205233Y-13092655D01*
X-6926654Y-13092618D01*
X-7629660Y-13092563D01*
X-8313224Y-13092489D01*
X-8976321Y-13092397D01*
X-9617922Y-13092287D01*
X-10237001Y-13092159D01*
X-10832532Y-13092013D01*
X-11403487Y-13091851D01*
X-11948839Y-13091672D01*
X-12467563Y-13091477D01*
X-12958630Y-13091265D01*
X-13421014Y-13091038D01*
X-13853689Y-13090795D01*
X-14255626Y-13090538D01*
X-14625801Y-13090265D01*
X-14963185Y-13089978D01*
X-15266752Y-13089677D01*
X-15535474Y-13089362D01*
X-15768326Y-13089034D01*
X-15964281Y-13088692D01*
X-16122311Y-13088338D01*
X-16241389Y-13087971D01*
X-16320490Y-13087592D01*
X-16358585Y-13087200D01*
X-16361833Y-13087083D01*
X-16477461Y-13074902D01*
X-16622149Y-13055624D01*
X-16783604Y-13031216D01*
X-16949535Y-13003639D01*
X-17107649Y-12974859D01*
X-17245654Y-12946840D01*
X-17261683Y-12943310D01*
X-17702792Y-12825922D01*
X-18146494Y-12670935D01*
X-18585441Y-12481896D01*
X-19012287Y-12262356D01*
X-19419684Y-12015865D01*
X-19800286Y-11745972D01*
X-19896667Y-11670220D01*
X-20011416Y-11573329D01*
X-20145055Y-11452914D01*
X-20289053Y-11317313D01*
X-20434880Y-11174865D01*
X-20574006Y-11033910D01*
X-20697900Y-10902788D01*
X-20798033Y-10789838D01*
X-20801972Y-10785163D01*
X-21128574Y-10364720D01*
X-21416942Y-9926198D01*
X-21667140Y-9469453D01*
X-21879230Y-8994338D01*
X-22053277Y-8500711D01*
X-22189343Y-7988425D01*
X-22287491Y-7457336D01*
X-22302502Y-7349407D01*
X-22318303Y-7193895D01*
X-22329718Y-7007410D01*
X-22336746Y-6800097D01*
X-22339387Y-6582102D01*
X-22337641Y-6363571D01*
X-22331508Y-6154651D01*
X-22320988Y-5965487D01*
X-22306081Y-5806226D01*
X-22302524Y-5778500D01*
X-22219155Y-5278484D01*
X-22107888Y-4806365D01*
X-21967076Y-4356825D01*
X-21795070Y-3924549D01*
X-21607432Y-3536724D01*
X-21346294Y-3084567D01*
X-21052343Y-2657291D01*
X-20727572Y-2256466D01*
X-20373976Y-1883663D01*
X-19993551Y-1540452D01*
X-19588290Y-1228403D01*
X-19160188Y-949087D01*
X-18711241Y-704075D01*
X-18243441Y-494935D01*
X-17758785Y-323240D01*
X-17399000Y-223313D01*
X-17188451Y-173886D01*
X-16991614Y-133433D01*
X-16799258Y-100739D01*
X-16602149Y-74592D01*
X-16391054Y-53778D01*
X-16156740Y-37083D01*
X-15889973Y-23294D01*
X-15870764Y-22447D01*
X-15722069Y-14700D01*
X-15574140Y-4764D01*
X-15437096Y6519D01*
X-15321059Y18309D01*
X-15236148Y29762D01*
X-15229417Y30916D01*
X-14844782Y119850D01*
X-14475527Y246863D01*
X-14123948Y409777D01*
X-13792342Y606410D01*
X-13483004Y834582D01*
X-13198231Y1092112D01*
X-12940320Y1376820D01*
X-12711565Y1686526D01*
X-12514265Y2019049D01*
X-12350714Y2372209D01*
X-12223210Y2743825D01*
X-12174682Y2931583D01*
X-12151144Y3040163D01*
X-12131611Y3147560D01*
X-12115439Y3260333D01*
X-12101988Y3385040D01*
X-12090613Y3528238D01*
X-12080674Y3696484D01*
X-12071528Y3896336D01*
X-12065831Y4042833D01*
X-12058100Y4217483D01*
X-12047754Y4400637D01*
X-12035579Y4581131D01*
X-12022364Y4747801D01*
X-12008896Y4889484D01*
X-12001630Y4953000D01*
X-11904023Y5567883D01*
X-11766209Y6171518D01*
X-11589228Y6762183D01*
X-11374120Y7338157D01*
X-11121925Y7897718D01*
X-10833684Y8439146D01*
X-10510437Y8960718D01*
X-10153224Y9460715D01*
X-9763085Y9937415D01*
X-9341060Y10389096D01*
X-8888190Y10814037D01*
X-8405514Y11210517D01*
X-8072424Y11454858D01*
X-7550565Y11794922D01*
X-7009906Y12097715D01*
X-6452494Y12362812D01*
X-5880374Y12589788D01*
X-5295593Y12778216D01*
X-4700198Y12927671D01*
X-4096236Y13037726D01*
X-3485752Y13107958D01*
X-2870793Y13137939D01*
X-2253407Y13127244D01*
%TD*%
M02*
