%TF.GenerationSoftware,KiCad,Pcbnew,(6.0.4)*%
%TF.CreationDate,2022-04-09T23:35:01+02:00*%
%TF.ProjectId,diskette,6469736b-6574-4746-952e-6b696361645f,rev?*%
%TF.SameCoordinates,Original*%
%TF.FileFunction,Soldermask,Top*%
%TF.FilePolarity,Negative*%
%FSLAX46Y46*%
G04 Gerber Fmt 4.6, Leading zero omitted, Abs format (unit mm)*
G04 Created by KiCad (PCBNEW (6.0.4)) date 2022-04-09 23:35:01*
%MOMM*%
%LPD*%
G01*
G04 APERTURE LIST*
%ADD10C,0.010000*%
%ADD11O,1.727200X1.727200*%
%ADD12R,1.727200X1.727200*%
%ADD13C,1.727200*%
G04 APERTURE END LIST*
%TO.C,N1*%
G36*
X12509500Y22997833D02*
G01*
X12509500Y2677833D01*
X-12509500Y2677833D01*
X-12509500Y5831667D01*
X3132667Y5831667D01*
X9355667Y5831667D01*
X9355667Y19865167D01*
X3132667Y19865167D01*
X3132667Y5831667D01*
X-12509500Y5831667D01*
X-12509500Y22997833D01*
X12509500Y22997833D01*
G37*
D10*
X12509500Y22997833D02*
X12509500Y2677833D01*
X-12509500Y2677833D01*
X-12509500Y5831667D01*
X3132667Y5831667D01*
X9355667Y5831667D01*
X9355667Y19865167D01*
X3132667Y19865167D01*
X3132667Y5831667D01*
X-12509500Y5831667D01*
X-12509500Y22997833D01*
X12509500Y22997833D01*
G36*
X-20489333Y-25516167D02*
G01*
X-23516167Y-25516167D01*
X-23516167Y-22489333D01*
X-20489333Y-22489333D01*
X-20489333Y-25516167D01*
G37*
X-20489333Y-25516167D02*
X-23516167Y-25516167D01*
X-23516167Y-22489333D01*
X-20489333Y-22489333D01*
X-20489333Y-25516167D01*
%TD*%
D11*
%TO.C,X1*%
X-2480000Y1250000D03*
D12*
X-2480000Y-1290000D03*
D11*
X60000Y1250000D03*
X60000Y-1290000D03*
D13*
X2600000Y1250000D03*
X2600000Y-1290000D03*
%TD*%
M02*
