<?xml version="1.0" encoding="UTF-8" standalone="no"?>
<!-- Created with Inkscape (http://www.inkscape.org/) -->

<svg
   version="1.1"
   width="50.0mm"
   height="50.0mm"
   id="svg2"
   sodipodi:docname="tape.svg"
   inkscape:version="1.1.2 (0a00cf5339, 2022-02-04, custom)"
   viewBox="0 0 50.0 50.0"
   xmlns:inkscape="http://www.inkscape.org/namespaces/inkscape"
   xmlns:sodipodi="http://sodipodi.sourceforge.net/DTD/sodipodi-0.dtd"
   xmlns:xlink="http://www.w3.org/1999/xlink"
   xmlns="http://www.w3.org/2000/svg"
   xmlns:svg="http://www.w3.org/2000/svg">
  <sodipodi:namedview
     id="namedview48"
     pagecolor="#ffffff"
     bordercolor="#666666"
     borderopacity="1.0"
     inkscape:pageshadow="2"
     inkscape:pageopacity="0.0"
     inkscape:pagecheckerboard="0"
     showgrid="false"
     inkscape:zoom="10.242578"
     inkscape:cx="100.21891"
     inkscape:cy="145.27593"
     inkscape:window-width="1920"
     inkscape:window-height="1009"
     inkscape:window-x="0"
     inkscape:window-y="0"
     inkscape:window-maximized="1"
     inkscape:current-layer="g3487"
     inkscape:document-units="mm" />
  <defs
     id="defs4">
    <linearGradient
       id="linearGradient3631">
      <stop
         id="stop3633"
         style="stop-color:#646464;stop-opacity:1"
         offset="0" />
      <stop
         id="stop3635"
         style="stop-color:#b3b3b3;stop-opacity:1"
         offset="1" />
    </linearGradient>
    <filter
       color-interpolation-filters="sRGB"
       id="filter3891"
       x="-0.015531771"
       y="-0.024605878"
       width="1.0310635"
       height="1.0492118">
      <feGaussianBlur
         id="feGaussianBlur3893"
         stdDeviation="3.6290222" />
    </filter>
    <linearGradient
       x1="506.08643"
       y1="563.7453"
       x2="350.52292"
       y2="563.7453"
       id="linearGradient3639"
       xlink:href="#linearGradient3631"
       gradientUnits="userSpaceOnUse"
       gradientTransform="translate(0,359.82143)" />
    <linearGradient
       x1="506.08643"
       y1="563.7453"
       x2="350.52292"
       y2="563.7453"
       id="linearGradient3677"
       xlink:href="#linearGradient3631"
       gradientUnits="userSpaceOnUse"
       gradientTransform="translate(0,359.82143)" />
    <linearGradient
       x1="506.08643"
       y1="563.7453"
       x2="350.52292"
       y2="563.7453"
       id="linearGradient3683"
       xlink:href="#linearGradient3631"
       gradientUnits="userSpaceOnUse"
       gradientTransform="translate(-76.377085,-227.68055)" />
  </defs>
  <g
     inkscape:label="[fixed] BG"
     inkscape:groupmode="layer"
     sodipodi:insensitive="true"
     id="g3483">
    <rect
       x="0"
       y="0"
       width="50.0"
       height="50.0"
       style="fill:#FFFFFF;fill-opacity:1;stroke:none"
       id="rect3481" />
  </g>
  <g
     inkscape:label="Edge.Cuts"
     inkscape:groupmode="layer"
     id="g3485"
     style="display:inline"
     sodipodi:insensitive="true">
    <path
       style="color:#000000;fill:none;stroke:#000000;stroke-width:0.1;stroke-miterlimit:4;stroke-dasharray:none;stroke-opacity:1"
       d="m 1.0800781,9.2011719 c -0.074646,0 -0.14750696,0.00755 -0.21786245,0.021916 C 0.79186016,9.2374591 0.72401,9.2586555 0.65938519,9.2859572 0.59476038,9.313259 0.53336091,9.3466661 0.47590682,9.3854587 0.41845272,9.4242513 0.36494399,9.4684292 0.31610064,9.5172726 0.26725729,9.5661159 0.22307933,9.6196247 0.18428677,9.6770788 0.1454942,9.7345329 0.11208704,9.7959323 0.0847853,9.8605571 0.05748356,9.9251819 0.03628723,9.9930321 0.02191634,10.063388 0.00754545,10.133743 0,10.206604 0,10.28125 v 3.679688 3.679687 3.679687 V 25 v 3.679687 3.679688 3.679687 3.679688 c 0,0.07465 0.00754545,0.147507 0.02191634,0.217862 0.01437089,0.07036 0.03556721,0.138206 0.06286895,0.202831 0.02730175,0.06462 0.06070891,0.126024 0.09950147,0.183478 0.0387926,0.05745 0.0829705,0.110963 0.13181387,0.159806 0.0488433,0.04884 0.10235207,0.09302 0.15980617,0.131814 0.0574541,0.03879 0.11885356,0.0722 0.18347837,0.0995 0.0646248,0.0273 0.13247497,0.0485 0.20283047,0.06287 0.0703555,0.01437 0.14321636,0.02192 0.21786246,0.02192 H 7.0600586 13.040039 19.02002 25 h 5.979981 5.97998 5.979981 5.97998 c 0.07465,0 0.147507,-0.0075 0.217862,-0.02192 0.07036,-0.01437 0.138206,-0.03557 0.202831,-0.06287 0.06462,-0.0273 0.126024,-0.06071 0.183478,-0.0995 0.05745,-0.03879 0.110963,-0.08297 0.159806,-0.131814 0.04884,-0.04884 0.09302,-0.102352 0.131814,-0.159806 0.03879,-0.05745 0.0722,-0.118853 0.0995,-0.183478 0.0273,-0.06462 0.0485,-0.132475 0.06287,-0.202831 C 49.992455,39.866257 50,39.793396 50,39.71875 V 36.039062 32.359375 28.679687 25 21.320312 17.640625 13.960938 10.28125 C 50,10.2066 49.9925,10.133743 49.97808,10.063388 49.96371,9.993032 49.94251,9.925182 49.91521,9.8605572 49.88791,9.7959322 49.8545,9.7345329 49.81571,9.6770788 49.77692,9.6196248 49.73274,9.566116 49.683896,9.5172726 49.635056,9.4684296 49.581544,9.4242516 49.52409,9.3854587 c -0.05745,-0.038793 -0.118853,-0.0722 -0.183478,-0.099501 -0.06462,-0.027302 -0.132475,-0.048498 -0.202831,-0.062869 -0.07036,-0.014371 -0.143216,-0.021916 -0.217862,-0.021916 H 42.939942 36.959961 30.979981 25 19.02002 13.040039 7.0600586 Z"
       id="rect3867"
       sodipodi:nodetypes="ssssssssscccccccssssssssscccccccssssssssscccccccssssssssscccccccs" />
  </g>
  <g
     inkscape:label="F.Mask"
     inkscape:groupmode="layer"
     id="g3487"
     style="display:inline">
    <path
       d="m 7.5901275,40.778978 34.8197455,0.02002 -1.801765,-7.78643 H 9.0490115 Z"
       id="path3629"
       style="fill:#b3b3b3;fill-opacity:1;stroke:none;stroke-width:0.0849542;stroke-opacity:1"
       sodipodi:nodetypes="ccccc" />
    <path
       id="rect3688-7-5"
       style="display:inline;fill:#008080;fill-opacity:1;stroke:none;stroke-width:0.0849543"
       d="m 13.881841,19.747593 c -2.106217,0 -3.587378,1.695618 -3.587378,3.801835 0,2.106217 1.481161,3.801835 3.587378,3.801835 h 22.252387 c 2.106218,0 3.67316,-1.695618 3.67316,-3.801835 0,-2.106217 -1.566942,-3.801835 -3.67316,-3.801835 z m 21.868948,0.629935 a 3.1402713,3.1402713 0 0 1 2.16731,0.905888 3.1403865,3.1403865 0 0 1 -4.410583,4.471562 3.1402713,3.1402713 0 0 1 2.243273,-5.37745 z m -21.448302,0.0016 a 3.1402713,3.1402713 0 0 1 3.080432,3.932566 3.1403304,3.1403304 0 1 1 -6.077665,-1.583883 3.1402713,3.1402713 0 0 1 2.997233,-2.348693 z m 5.287015,0.60048 H 30.4214 V 24.59023 H 19.589502 Z" />
    <path
       d="m 37.342167,25.126686 c -0.239,0.252278 -0.546911,-0.335143 -0.852172,-0.169068 -0.30526,0.166075 0.02066,0.743696 -0.320975,0.807312 -0.34164,0.06362 -0.245469,-0.592602 -0.590045,-0.637672 -0.344576,-0.04507 -0.420417,0.613809 -0.734202,0.464464 -0.313784,-0.149344 0.149737,-0.623707 -0.102541,-0.862707 -0.252277,-0.238999 -0.700912,0.249467 -0.866987,-0.05579 -0.166074,-0.30526 0.487745,-0.416578 0.424129,-0.758218 -0.06362,-0.341639 -0.713683,-0.210162 -0.668613,-0.554739 0.04507,-0.344577 0.639452,-0.05033 0.788797,-0.364115 0.149344,-0.313785 -0.453851,-0.589517 -0.214851,-0.841794 0.239,-0.252277 0.54691,0.335143 0.85217,0.169069 0.30526,-0.166075 -0.02066,-0.743696 0.320976,-0.807313 0.34164,-0.06362 0.245468,0.592603 0.590045,0.637672 0.344577,0.04507 0.420417,-0.613808 0.734201,-0.464464 0.313785,0.149344 -0.149735,0.623708 0.102541,0.862707 0.252279,0.239 0.700913,-0.249466 0.866988,0.05579 0.166075,0.30526 -0.487745,0.416577 -0.424129,0.758217 0.06362,0.34164 0.713683,0.210163 0.668613,0.55474 -0.04507,0.344576 -0.639453,0.05033 -0.788797,0.364114 -0.149344,0.313785 0.453851,0.589517 0.214852,0.841794 z"
       id="path4467"
       style="display:inline;fill:#008080;fill-opacity:1;stroke:none;stroke-width:0.0577953" />
    <path
       d="m 13.766619,25.73454 c -0.337978,-0.08084 0.01679,-0.641211 -0.279668,-0.822536 -0.296455,-0.181326 -0.633728,0.389743 -0.859641,0.125683 -0.225913,-0.264061 0.390475,-0.508883 0.257219,-0.829831 -0.133257,-0.320946 -0.741782,-0.05719 -0.769339,-0.403604 -0.02756,-0.346418 0.615015,-0.182179 0.695856,-0.520158 0.08084,-0.337978 -0.5665,-0.482273 -0.385176,-0.778728 0.181326,-0.296456 0.60464,0.21411 0.8687,-0.0118 0.264061,-0.225913 -0.174835,-0.723148 0.146113,-0.856405 0.320947,-0.133257 0.363312,0.528617 0.70973,0.50106 0.346418,-0.02756 0.283612,-0.687805 0.62159,-0.606964 0.337978,0.08084 -0.01679,0.641211 0.279668,0.822536 0.296455,0.181326 0.633727,-0.389743 0.85964,-0.125683 0.225914,0.264061 -0.390475,0.508883 -0.257217,0.82983 0.133256,0.320947 0.741781,0.05719 0.769338,0.403605 0.02756,0.346418 -0.615015,0.182179 -0.695855,0.520157 -0.08084,0.337979 0.5665,0.482275 0.385174,0.778729 -0.181325,0.296456 -0.604639,-0.21411 -0.8687,0.0118 -0.264061,0.225913 0.174835,0.723149 -0.146112,0.856406 -0.320947,0.133256 -0.363312,-0.528618 -0.70973,-0.501062 -0.346418,0.02756 -0.283611,0.687805 -0.62159,0.606965 z"
       id="path4490"
       style="display:inline;fill:#008080;fill-opacity:1;stroke:none;stroke-width:0.0577953" />
  </g>
  <g
     inkscape:label="F.SilkS"
     inkscape:groupmode="layer"
     id="g3489"
     style="display:inline"
     sodipodi:insensitive="true">
    <path
       id="rect3895"
       style="fill:#ff0000;fill-opacity:1;stroke:none;stroke-width:0.321087"
       d="m 14.636719,42.626953 c -2.113387,0 -3.814453,1.701067 -3.814453,3.814453 v 71.873044 c 0,2.11339 1.701066,3.81641 3.814453,3.81641 H 174.33984 c 2.11339,0 3.81446,-1.70302 3.81446,-3.81641 V 46.441406 c 0,-2.113386 -1.70107,-3.814453 -3.81446,-3.814453 z m 37.830078,32.009766 h 84.105473 c 7.9605,0 13.88085,6.408635 13.88085,14.36914 10e-6,7.960506 -5.92035,14.369141 -13.88085,14.369141 H 52.466797 c -7.960505,0 -13.558594,-6.408635 -13.558594,-14.369141 0,-7.960505 5.598089,-14.36914 13.558594,-14.36914 z m 21.572265,4.65625 V 92.939453 H 114.97852 V 79.292969 Z"
       transform="scale(0.26458333)" />
  </g>
  <g
     inkscape:label="Dwgs.User"
     inkscape:groupmode="layer"
     id="g2685">
    <g
       transform="matrix(0.08495421,0,0,0.08495421,-8.0177923,-6.677505)"
       id="g3619"
       style="display:inline;fill:#333333;fill-opacity:1;stroke:none">
      <path
         d="m 264.65996,530.87091 a 12.879445,12.879445 0 1 1 -25.75889,0 12.879445,12.879445 0 1 1 25.75889,0 z"
         transform="matrix(1.0554593,0,0,1.0554593,-15.578342,-23.393354)"
         id="path3617"
         style="fill:#333333;fill-opacity:1;stroke:none" />
      <path
         d="m 264.65996,530.87091 a 12.879445,12.879445 0 1 1 -25.75889,0 12.879445,12.879445 0 1 1 25.75889,0 z"
         transform="translate(-2.0815811,6.7244382)"
         id="path2843"
         style="fill:#333333;fill-opacity:1;stroke:none" />
    </g>
    <g
       transform="matrix(0.06821444,0,0,0.06821444,1.3126879,1.551876)"
       id="use3623"
       style="display:inline;fill:#333333;fill-opacity:1;stroke:none">
      <path
         d="m 264.65996,530.87091 a 12.879445,12.879445 0 1 1 -25.75889,0 12.879445,12.879445 0 1 1 25.75889,0 z"
         transform="matrix(1.0554593,0,0,1.0554593,-15.578342,-23.393354)"
         id="path2576"
         style="fill:#333333;fill-opacity:1;stroke:none" />
      <path
         d="m 264.65996,530.87091 a 12.879445,12.879445 0 1 1 -25.75889,0 12.879445,12.879445 0 1 1 25.75889,0 z"
         transform="translate(-2.0815811,6.7244382)"
         id="path2578"
         style="fill:#333333;fill-opacity:1;stroke:none" />
    </g>
    <g
       transform="matrix(0.08495421,0,0,0.08495421,16.109204,-6.677505)"
       id="use3625"
       style="display:inline;fill:#333333;fill-opacity:1;stroke:none">
      <path
         d="m 264.65996,530.87091 a 12.879445,12.879445 0 1 1 -25.75889,0 12.879445,12.879445 0 1 1 25.75889,0 z"
         transform="matrix(1.0554593,0,0,1.0554593,-15.578342,-23.393354)"
         id="path2552"
         style="fill:#333333;fill-opacity:1;stroke:none" />
      <path
         d="m 264.65996,530.87091 a 12.879445,12.879445 0 1 1 -25.75889,0 12.879445,12.879445 0 1 1 25.75889,0 z"
         transform="translate(-2.0815811,6.7244382)"
         id="path2554"
         style="fill:#333333;fill-opacity:1;stroke:none" />
    </g>
    <g
       transform="matrix(0.06821444,0,0,0.06821444,15.415087,1.551876)"
       id="use3627"
       style="display:inline;fill:#333333;fill-opacity:1;stroke:none">
      <path
         d="m 264.65996,530.87091 a 12.879445,12.879445 0 1 1 -25.75889,0 12.879445,12.879445 0 1 1 25.75889,0 z"
         transform="matrix(1.0554593,0,0,1.0554593,-15.578342,-23.393354)"
         id="path2528"
         style="fill:#333333;fill-opacity:1;stroke:none" />
      <path
         d="m 264.65996,530.87091 a 12.879445,12.879445 0 1 1 -25.75889,0 12.879445,12.879445 0 1 1 25.75889,0 z"
         transform="translate(-2.0815811,6.7244382)"
         id="path2530"
         style="fill:#333333;fill-opacity:1;stroke:none" />
    </g>
  </g>
</svg>
