%TF.GenerationSoftware,KiCad,Pcbnew,(6.0.4)*%
%TF.CreationDate,2022-04-09T23:38:07+02:00*%
%TF.ProjectId,cassette,63617373-6574-4746-952e-6b696361645f,rev?*%
%TF.SameCoordinates,Original*%
%TF.FileFunction,Copper,L2,Bot*%
%TF.FilePolarity,Positive*%
%FSLAX46Y46*%
G04 Gerber Fmt 4.6, Leading zero omitted, Abs format (unit mm)*
G04 Created by KiCad (PCBNEW (6.0.4)) date 2022-04-09 23:38:07*
%MOMM*%
%LPD*%
G01*
G04 APERTURE LIST*
G04 Aperture macros list*
%AMRoundRect*
0 Rectangle with rounded corners*
0 $1 Rounding radius*
0 $2 $3 $4 $5 $6 $7 $8 $9 X,Y pos of 4 corners*
0 Add a 4 corners polygon primitive as box body*
4,1,4,$2,$3,$4,$5,$6,$7,$8,$9,$2,$3,0*
0 Add four circle primitives for the rounded corners*
1,1,$1+$1,$2,$3*
1,1,$1+$1,$4,$5*
1,1,$1+$1,$6,$7*
1,1,$1+$1,$8,$9*
0 Add four rect primitives between the rounded corners*
20,1,$1+$1,$2,$3,$4,$5,0*
20,1,$1+$1,$4,$5,$6,$7,0*
20,1,$1+$1,$6,$7,$8,$9,0*
20,1,$1+$1,$8,$9,$2,$3,0*%
G04 Aperture macros list end*
%TA.AperFunction,ComponentPad*%
%ADD10O,1.727200X1.727200*%
%TD*%
%TA.AperFunction,ComponentPad*%
%ADD11R,1.727200X1.727200*%
%TD*%
%TA.AperFunction,ComponentPad*%
%ADD12C,1.727200*%
%TD*%
%TA.AperFunction,SMDPad,CuDef*%
%ADD13RoundRect,0.250000X-0.350000X-0.450000X0.350000X-0.450000X0.350000X0.450000X-0.350000X0.450000X0*%
%TD*%
%TA.AperFunction,SMDPad,CuDef*%
%ADD14RoundRect,0.250000X0.325000X0.450000X-0.325000X0.450000X-0.325000X-0.450000X0.325000X-0.450000X0*%
%TD*%
%TA.AperFunction,SMDPad,CuDef*%
%ADD15RoundRect,0.250000X0.350000X0.450000X-0.350000X0.450000X-0.350000X-0.450000X0.350000X-0.450000X0*%
%TD*%
%TA.AperFunction,SMDPad,CuDef*%
%ADD16RoundRect,0.250000X-0.325000X-0.450000X0.325000X-0.450000X0.325000X0.450000X-0.325000X0.450000X0*%
%TD*%
%TA.AperFunction,SMDPad,CuDef*%
%ADD17RoundRect,0.150000X0.150000X-0.825000X0.150000X0.825000X-0.150000X0.825000X-0.150000X-0.825000X0*%
%TD*%
%TA.AperFunction,ViaPad*%
%ADD18C,2.500000*%
%TD*%
%TA.AperFunction,ViaPad*%
%ADD19C,2.000000*%
%TD*%
%TA.AperFunction,Conductor*%
%ADD20C,0.250000*%
%TD*%
G04 APERTURE END LIST*
D10*
%TO.P,X1,1,VCC*%
%TO.N,+3V3*%
X-2480000Y1250000D03*
D11*
%TO.P,X1,2,GND*%
%TO.N,GND*%
X-2480000Y-1290000D03*
D10*
%TO.P,X1,3,SDA*%
%TO.N,Net-(U1-Pad5)*%
X60000Y1250000D03*
%TO.P,X1,4,SCL*%
%TO.N,Net-(U1-Pad6)*%
X60000Y-1290000D03*
D12*
%TO.P,X1,5,GPIO1*%
%TO.N,Net-(R2-Pad1)*%
X2600000Y1250000D03*
%TO.P,X1,6,GPIO2*%
%TO.N,Net-(R1-Pad1)*%
X2600000Y-1290000D03*
%TD*%
D13*
%TO.P,R2,1*%
%TO.N,Net-(R2-Pad1)*%
X-11000000Y-10000000D03*
%TO.P,R2,2*%
%TO.N,Net-(D2-Pad2)*%
X-9000000Y-10000000D03*
%TD*%
D14*
%TO.P,D1,1,K*%
%TO.N,GND*%
X11025000Y-12000000D03*
%TO.P,D1,2,A*%
%TO.N,Net-(D1-Pad2)*%
X8975000Y-12000000D03*
%TD*%
D15*
%TO.P,R1,1*%
%TO.N,Net-(R1-Pad1)*%
X11000000Y-10000000D03*
%TO.P,R1,2*%
%TO.N,Net-(D1-Pad2)*%
X9000000Y-10000000D03*
%TD*%
D16*
%TO.P,D2,1,K*%
%TO.N,GND*%
X-11025000Y-12000000D03*
%TO.P,D2,2,A*%
%TO.N,Net-(D2-Pad2)*%
X-8975000Y-12000000D03*
%TD*%
D17*
%TO.P,U1,1,A0*%
%TO.N,GND*%
X-9144000Y-2475000D03*
%TO.P,U1,2,A1*%
X-10414000Y-2475000D03*
%TO.P,U1,3,A2*%
X-11684000Y-2475000D03*
%TO.P,U1,4,GND*%
X-12954000Y-2475000D03*
%TO.P,U1,5,SDA*%
%TO.N,Net-(U1-Pad5)*%
X-12954000Y2475000D03*
%TO.P,U1,6,SCL*%
%TO.N,Net-(U1-Pad6)*%
X-11684000Y2475000D03*
%TO.P,U1,7,WP*%
%TO.N,GND*%
X-10414000Y2475000D03*
%TO.P,U1,8,VCC*%
%TO.N,+3V3*%
X-9144000Y2475000D03*
%TD*%
D18*
%TO.N,GND*%
X-12000000Y-16000000D03*
D19*
X-7000000Y-15000000D03*
D18*
X12000000Y-16000000D03*
D19*
X7000000Y-15000000D03*
%TD*%
D20*
%TO.N,Net-(U1-Pad5)*%
X-12250480Y4259520D02*
X-2949520Y4259520D01*
X-12954000Y3556000D02*
X-12250480Y4259520D01*
X-2949520Y4259520D02*
X60000Y1250000D01*
X-12954000Y2475000D02*
X-12954000Y3556000D01*
%TO.N,Net-(U1-Pad6)*%
X-11557000Y3810000D02*
X-11684000Y3683000D01*
X-1291889Y1799889D02*
X-3302000Y3810000D01*
X-3302000Y3810000D02*
X-11557000Y3810000D01*
X60000Y-1290000D02*
X-1291889Y61889D01*
X-1291889Y61889D02*
X-1291889Y1799889D01*
X-11684000Y3683000D02*
X-11684000Y2475000D01*
%TO.N,+3V3*%
X-8870000Y1250000D02*
X-9144000Y1524000D01*
X-9144000Y1524000D02*
X-9144000Y2475000D01*
X-2480000Y1250000D02*
X-8870000Y1250000D01*
%TO.N,Net-(D1-Pad2)*%
X8975000Y-10025000D02*
X9000000Y-10000000D01*
X8975000Y-12000000D02*
X8975000Y-10025000D01*
%TO.N,Net-(D2-Pad2)*%
X-8975000Y-10025000D02*
X-9000000Y-10000000D01*
X-8975000Y-12000000D02*
X-8975000Y-10025000D01*
%TO.N,Net-(R1-Pad1)*%
X2600000Y-7299000D02*
X3683000Y-8382000D01*
X10922000Y-8763000D02*
X10922000Y-9922000D01*
X3683000Y-8382000D02*
X10541000Y-8382000D01*
X10541000Y-8382000D02*
X10922000Y-8763000D01*
X2600000Y-1290000D02*
X2600000Y-7299000D01*
X10922000Y-9922000D02*
X11000000Y-10000000D01*
%TO.N,Net-(R2-Pad1)*%
X2600000Y1250000D02*
X1411889Y61889D01*
X127000Y-8509000D02*
X-10795000Y-8509000D01*
X-10795000Y-8509000D02*
X-11000000Y-8714000D01*
X1411889Y-7224111D02*
X127000Y-8509000D01*
X1411889Y61889D02*
X1411889Y-7224111D01*
X-11000000Y-8714000D02*
X-11000000Y-10000000D01*
%TD*%
%TA.AperFunction,Conductor*%
%TO.N,GND*%
G36*
X-17979555Y13290327D02*
G01*
X17939495Y13290327D01*
X23992292Y13282873D01*
X24021475Y13279410D01*
X24096460Y13261457D01*
X24119932Y13253319D01*
X24197600Y13217465D01*
X24218614Y13205174D01*
X24287813Y13155143D01*
X24305869Y13139256D01*
X24364353Y13076925D01*
X24379092Y13057843D01*
X24424568Y12985602D01*
X24435540Y12963706D01*
X24461854Y12895286D01*
X24466383Y12883509D01*
X24472999Y12859387D01*
X24489719Y12760988D01*
X24491500Y12739881D01*
X24491500Y-13038519D01*
X24484102Y-16790981D01*
X24480638Y-16820075D01*
X24462628Y-16895287D01*
X24454491Y-16918754D01*
X24418634Y-16996431D01*
X24406346Y-17017441D01*
X24392963Y-17035952D01*
X24356316Y-17086639D01*
X24340423Y-17104700D01*
X24278099Y-17163178D01*
X24259009Y-17177924D01*
X24186764Y-17223403D01*
X24164869Y-17234373D01*
X24084686Y-17265212D01*
X24060568Y-17271828D01*
X23995675Y-17282855D01*
X23962153Y-17288551D01*
X23941046Y-17290331D01*
X-17939467Y-17290331D01*
X-23992293Y-17282873D01*
X-24021480Y-17279409D01*
X-24096457Y-17261455D01*
X-24119924Y-17253319D01*
X-24197606Y-17217459D01*
X-24218613Y-17205171D01*
X-24287814Y-17155138D01*
X-24305869Y-17139252D01*
X-24364354Y-17076920D01*
X-24379092Y-17057840D01*
X-24424574Y-16985593D01*
X-24435546Y-16963696D01*
X-24466382Y-16883519D01*
X-24473000Y-16859395D01*
X-24489720Y-16760987D01*
X-24491500Y-16739881D01*
X-24491500Y-12497095D01*
X-12107999Y-12497095D01*
X-12107662Y-12503614D01*
X-12097743Y-12599206D01*
X-12094851Y-12612600D01*
X-12043412Y-12766784D01*
X-12037239Y-12779962D01*
X-11951937Y-12917807D01*
X-11942901Y-12929208D01*
X-11828171Y-13043739D01*
X-11816760Y-13052751D01*
X-11678757Y-13137816D01*
X-11665576Y-13143963D01*
X-11511290Y-13195138D01*
X-11497914Y-13198005D01*
X-11403562Y-13207672D01*
X-11397146Y-13208000D01*
X-11297115Y-13208000D01*
X-11281876Y-13203525D01*
X-11280671Y-13202135D01*
X-11279000Y-13194452D01*
X-11279000Y-12272115D01*
X-11283475Y-12256876D01*
X-11284865Y-12255671D01*
X-11292548Y-12254000D01*
X-12089884Y-12254000D01*
X-12105123Y-12258475D01*
X-12106328Y-12259865D01*
X-12107999Y-12267548D01*
X-12107999Y-12497095D01*
X-24491500Y-12497095D01*
X-24491500Y-3363984D01*
X-13761999Y-3363984D01*
X-13761805Y-3368920D01*
X-13759570Y-3397336D01*
X-13757270Y-3409931D01*
X-13714893Y-3555790D01*
X-13708648Y-3570221D01*
X-13632089Y-3699678D01*
X-13622449Y-3712104D01*
X-13516104Y-3818449D01*
X-13503678Y-3828089D01*
X-13374221Y-3904648D01*
X-13359790Y-3910893D01*
X-13225395Y-3949939D01*
X-13211294Y-3949899D01*
X-13208000Y-3942630D01*
X-13208000Y-3936878D01*
X-12700000Y-3936878D01*
X-12696027Y-3950409D01*
X-12688129Y-3951544D01*
X-12548210Y-3910893D01*
X-12533779Y-3904648D01*
X-12404322Y-3828088D01*
X-12396230Y-3821811D01*
X-12330146Y-3795861D01*
X-12260523Y-3809759D01*
X-12241770Y-3821811D01*
X-12233678Y-3828088D01*
X-12104221Y-3904648D01*
X-12089790Y-3910893D01*
X-11955395Y-3949939D01*
X-11941294Y-3949899D01*
X-11938000Y-3942630D01*
X-11938000Y-3936878D01*
X-11430000Y-3936878D01*
X-11426027Y-3950409D01*
X-11418129Y-3951544D01*
X-11278210Y-3910893D01*
X-11263779Y-3904648D01*
X-11134322Y-3828088D01*
X-11126230Y-3821811D01*
X-11060146Y-3795861D01*
X-10990523Y-3809759D01*
X-10971770Y-3821811D01*
X-10963678Y-3828088D01*
X-10834221Y-3904648D01*
X-10819790Y-3910893D01*
X-10685395Y-3949939D01*
X-10671294Y-3949899D01*
X-10668000Y-3942630D01*
X-10668000Y-3936878D01*
X-10160000Y-3936878D01*
X-10156027Y-3950409D01*
X-10148129Y-3951544D01*
X-10008210Y-3910893D01*
X-9993779Y-3904648D01*
X-9864322Y-3828088D01*
X-9856230Y-3821811D01*
X-9790146Y-3795861D01*
X-9720523Y-3809759D01*
X-9701770Y-3821811D01*
X-9693678Y-3828088D01*
X-9564221Y-3904648D01*
X-9549790Y-3910893D01*
X-9415395Y-3949939D01*
X-9401294Y-3949899D01*
X-9398000Y-3942630D01*
X-9398000Y-3936878D01*
X-8890000Y-3936878D01*
X-8886027Y-3950409D01*
X-8878129Y-3951544D01*
X-8738210Y-3910893D01*
X-8723779Y-3904648D01*
X-8594322Y-3828089D01*
X-8581896Y-3818449D01*
X-8475551Y-3712104D01*
X-8465911Y-3699678D01*
X-8389352Y-3570221D01*
X-8383107Y-3555790D01*
X-8340731Y-3409935D01*
X-8338430Y-3397333D01*
X-8336193Y-3368916D01*
X-8336000Y-3363986D01*
X-8336000Y-2747115D01*
X-8340475Y-2731876D01*
X-8341865Y-2730671D01*
X-8349548Y-2729000D01*
X-8871885Y-2729000D01*
X-8887124Y-2733475D01*
X-8888329Y-2734865D01*
X-8890000Y-2742548D01*
X-8890000Y-3936878D01*
X-9398000Y-3936878D01*
X-9398000Y-2747115D01*
X-9402475Y-2731876D01*
X-9403865Y-2730671D01*
X-9411548Y-2729000D01*
X-10141885Y-2729000D01*
X-10157124Y-2733475D01*
X-10158329Y-2734865D01*
X-10160000Y-2742548D01*
X-10160000Y-3936878D01*
X-10668000Y-3936878D01*
X-10668000Y-2747115D01*
X-10672475Y-2731876D01*
X-10673865Y-2730671D01*
X-10681548Y-2729000D01*
X-11411885Y-2729000D01*
X-11427124Y-2733475D01*
X-11428329Y-2734865D01*
X-11430000Y-2742548D01*
X-11430000Y-3936878D01*
X-11938000Y-3936878D01*
X-11938000Y-2747115D01*
X-11942475Y-2731876D01*
X-11943865Y-2730671D01*
X-11951548Y-2729000D01*
X-12681885Y-2729000D01*
X-12697124Y-2733475D01*
X-12698329Y-2734865D01*
X-12700000Y-2742548D01*
X-12700000Y-3936878D01*
X-13208000Y-3936878D01*
X-13208000Y-2747115D01*
X-13212475Y-2731876D01*
X-13213865Y-2730671D01*
X-13221548Y-2729000D01*
X-13743884Y-2729000D01*
X-13759123Y-2733475D01*
X-13760328Y-2734865D01*
X-13761999Y-2742548D01*
X-13761999Y-3363984D01*
X-24491500Y-3363984D01*
X-24491500Y-2202885D01*
X-13762000Y-2202885D01*
X-13757525Y-2218124D01*
X-13756135Y-2219329D01*
X-13748452Y-2221000D01*
X-13226115Y-2221000D01*
X-13210876Y-2216525D01*
X-13209671Y-2215135D01*
X-13208000Y-2207452D01*
X-13208000Y-2202885D01*
X-12700000Y-2202885D01*
X-12695525Y-2218124D01*
X-12694135Y-2219329D01*
X-12686452Y-2221000D01*
X-11956115Y-2221000D01*
X-11940876Y-2216525D01*
X-11939671Y-2215135D01*
X-11938000Y-2207452D01*
X-11938000Y-2202885D01*
X-11430000Y-2202885D01*
X-11425525Y-2218124D01*
X-11424135Y-2219329D01*
X-11416452Y-2221000D01*
X-10686115Y-2221000D01*
X-10670876Y-2216525D01*
X-10669671Y-2215135D01*
X-10668000Y-2207452D01*
X-10668000Y-2202885D01*
X-10160000Y-2202885D01*
X-10155525Y-2218124D01*
X-10154135Y-2219329D01*
X-10146452Y-2221000D01*
X-9416115Y-2221000D01*
X-9400876Y-2216525D01*
X-9399671Y-2215135D01*
X-9398000Y-2207452D01*
X-9398000Y-2202885D01*
X-8890000Y-2202885D01*
X-8885525Y-2218124D01*
X-8884135Y-2219329D01*
X-8876452Y-2221000D01*
X-8354116Y-2221000D01*
X-8338877Y-2216525D01*
X-8337672Y-2215135D01*
X-8336001Y-2207452D01*
X-8336001Y-2198269D01*
X-3851599Y-2198269D01*
X-3851229Y-2205090D01*
X-3845705Y-2255952D01*
X-3842079Y-2271204D01*
X-3796924Y-2391654D01*
X-3788386Y-2407249D01*
X-3711885Y-2509324D01*
X-3699324Y-2521885D01*
X-3597249Y-2598386D01*
X-3581654Y-2606924D01*
X-3461206Y-2652078D01*
X-3445951Y-2655705D01*
X-3395086Y-2661231D01*
X-3388272Y-2661600D01*
X-2752115Y-2661600D01*
X-2736876Y-2657125D01*
X-2735671Y-2655735D01*
X-2734000Y-2648052D01*
X-2734000Y-1562115D01*
X-2738475Y-1546876D01*
X-2739865Y-1545671D01*
X-2747548Y-1544000D01*
X-3833484Y-1544000D01*
X-3848723Y-1548475D01*
X-3849928Y-1549865D01*
X-3851599Y-1557548D01*
X-3851599Y-2198269D01*
X-8336001Y-2198269D01*
X-8336001Y-1586017D01*
X-8336195Y-1581080D01*
X-8338430Y-1552664D01*
X-8340730Y-1540069D01*
X-8383107Y-1394210D01*
X-8389352Y-1379779D01*
X-8465911Y-1250322D01*
X-8475551Y-1237896D01*
X-8581896Y-1131551D01*
X-8594322Y-1121911D01*
X-8723779Y-1045352D01*
X-8738210Y-1039107D01*
X-8872605Y-1000061D01*
X-8886706Y-1000101D01*
X-8890000Y-1007370D01*
X-8890000Y-2202885D01*
X-9398000Y-2202885D01*
X-9398000Y-1013122D01*
X-9401973Y-999591D01*
X-9409871Y-998456D01*
X-9549790Y-1039107D01*
X-9564221Y-1045352D01*
X-9693678Y-1121912D01*
X-9701770Y-1128189D01*
X-9767854Y-1154139D01*
X-9837477Y-1140241D01*
X-9856230Y-1128189D01*
X-9864322Y-1121912D01*
X-9993779Y-1045352D01*
X-10008210Y-1039107D01*
X-10142605Y-1000061D01*
X-10156706Y-1000101D01*
X-10160000Y-1007370D01*
X-10160000Y-2202885D01*
X-10668000Y-2202885D01*
X-10668000Y-1013122D01*
X-10671973Y-999591D01*
X-10679871Y-998456D01*
X-10819790Y-1039107D01*
X-10834221Y-1045352D01*
X-10963678Y-1121912D01*
X-10971770Y-1128189D01*
X-11037854Y-1154139D01*
X-11107477Y-1140241D01*
X-11126230Y-1128189D01*
X-11134322Y-1121912D01*
X-11263779Y-1045352D01*
X-11278210Y-1039107D01*
X-11412605Y-1000061D01*
X-11426706Y-1000101D01*
X-11430000Y-1007370D01*
X-11430000Y-2202885D01*
X-11938000Y-2202885D01*
X-11938000Y-1013122D01*
X-11941973Y-999591D01*
X-11949871Y-998456D01*
X-12089790Y-1039107D01*
X-12104221Y-1045352D01*
X-12233678Y-1121912D01*
X-12241770Y-1128189D01*
X-12307854Y-1154139D01*
X-12377477Y-1140241D01*
X-12396230Y-1128189D01*
X-12404322Y-1121912D01*
X-12533779Y-1045352D01*
X-12548210Y-1039107D01*
X-12682605Y-1000061D01*
X-12696706Y-1000101D01*
X-12700000Y-1007370D01*
X-12700000Y-2202885D01*
X-13208000Y-2202885D01*
X-13208000Y-1013122D01*
X-13211973Y-999591D01*
X-13219871Y-998456D01*
X-13359790Y-1039107D01*
X-13374221Y-1045352D01*
X-13503678Y-1121911D01*
X-13516104Y-1131551D01*
X-13622449Y-1237896D01*
X-13632089Y-1250322D01*
X-13708648Y-1379779D01*
X-13714893Y-1394210D01*
X-13757269Y-1540065D01*
X-13759570Y-1552667D01*
X-13761807Y-1581084D01*
X-13762000Y-1586014D01*
X-13762000Y-2202885D01*
X-24491500Y-2202885D01*
X-24491500Y1583498D01*
X-13762500Y1583498D01*
X-13759562Y1546169D01*
X-13713145Y1386399D01*
X-13709108Y1379573D01*
X-13632491Y1250020D01*
X-13632489Y1250017D01*
X-13628453Y1243193D01*
X-13510807Y1125547D01*
X-13503984Y1121512D01*
X-13503980Y1121509D01*
X-13396411Y1057893D01*
X-13367601Y1040855D01*
X-13359990Y1038644D01*
X-13359988Y1038643D01*
X-13324665Y1028381D01*
X-13207831Y994438D01*
X-13201426Y993934D01*
X-13201421Y993933D01*
X-13172958Y991693D01*
X-13172950Y991693D01*
X-13170502Y991500D01*
X-12737498Y991500D01*
X-12735050Y991693D01*
X-12735042Y991693D01*
X-12706579Y993933D01*
X-12706574Y993934D01*
X-12700169Y994438D01*
X-12583335Y1028381D01*
X-12548012Y1038643D01*
X-12548010Y1038644D01*
X-12540399Y1040855D01*
X-12397193Y1125547D01*
X-12394511Y1128229D01*
X-12330139Y1153502D01*
X-12260516Y1139600D01*
X-12244688Y1129428D01*
X-12240807Y1125547D01*
X-12097601Y1040855D01*
X-12089990Y1038644D01*
X-12089988Y1038643D01*
X-12054665Y1028381D01*
X-11937831Y994438D01*
X-11931426Y993934D01*
X-11931421Y993933D01*
X-11902958Y991693D01*
X-11902950Y991693D01*
X-11900502Y991500D01*
X-11467498Y991500D01*
X-11465050Y991693D01*
X-11465042Y991693D01*
X-11436579Y993933D01*
X-11436574Y993934D01*
X-11430169Y994438D01*
X-11313335Y1028381D01*
X-11278012Y1038643D01*
X-11278010Y1038644D01*
X-11270399Y1040855D01*
X-11127193Y1125547D01*
X-11124253Y1128487D01*
X-11059729Y1153821D01*
X-10990106Y1139920D01*
X-10971360Y1127871D01*
X-10963677Y1121911D01*
X-10834221Y1045352D01*
X-10819790Y1039107D01*
X-10685395Y1000061D01*
X-10671294Y1000101D01*
X-10668000Y1007370D01*
X-10668000Y2603000D01*
X-10647998Y2671121D01*
X-10594342Y2717614D01*
X-10542000Y2729000D01*
X-10286000Y2729000D01*
X-10217879Y2708998D01*
X-10171386Y2655342D01*
X-10160000Y2603000D01*
X-10160000Y1013122D01*
X-10156027Y999591D01*
X-10148129Y998456D01*
X-10008210Y1039107D01*
X-9993779Y1045352D01*
X-9864324Y1121910D01*
X-9856636Y1127874D01*
X-9790551Y1153821D01*
X-9720928Y1139920D01*
X-9704842Y1129582D01*
X-9700807Y1125547D01*
X-9693979Y1121509D01*
X-9693976Y1121507D01*
X-9569241Y1047739D01*
X-9544285Y1028381D01*
X-9373657Y857753D01*
X-9366113Y849463D01*
X-9362000Y842982D01*
X-9356223Y837557D01*
X-9312333Y796342D01*
X-9309491Y793587D01*
X-9289769Y773865D01*
X-9286645Y771442D01*
X-9286641Y771438D01*
X-9286576Y771388D01*
X-9277555Y763683D01*
X-9245321Y733414D01*
X-9238373Y729595D01*
X-9238371Y729593D01*
X-9227568Y723654D01*
X-9211041Y712798D01*
X-9201302Y705243D01*
X-9201300Y705242D01*
X-9195040Y700386D01*
X-9154460Y682826D01*
X-9143812Y677609D01*
X-9105060Y656305D01*
X-9097384Y654334D01*
X-9097381Y654333D01*
X-9085438Y651267D01*
X-9066733Y644863D01*
X-9048145Y636819D01*
X-9040322Y635580D01*
X-9040312Y635577D01*
X-9004476Y629901D01*
X-8992856Y627495D01*
X-8957711Y618472D01*
X-8950030Y616500D01*
X-8929776Y616500D01*
X-8910066Y614949D01*
X-8890057Y611780D01*
X-8882165Y612526D01*
X-8846039Y615941D01*
X-8834181Y616500D01*
X-3771676Y616500D01*
X-3703555Y596498D01*
X-3664243Y556335D01*
X-3591025Y436853D01*
X-3445587Y268955D01*
X-3445586Y268954D01*
X-3443298Y266313D01*
X-3443843Y265841D01*
X-3411150Y207424D01*
X-3415475Y136560D01*
X-3457427Y79283D01*
X-3489754Y61376D01*
X-3581654Y26924D01*
X-3597249Y18386D01*
X-3699324Y-58115D01*
X-3711885Y-70676D01*
X-3788386Y-172751D01*
X-3796924Y-188346D01*
X-3842078Y-308794D01*
X-3845705Y-324049D01*
X-3851231Y-374914D01*
X-3851600Y-381728D01*
X-3851600Y-1017885D01*
X-3847125Y-1033124D01*
X-3845735Y-1034329D01*
X-3838052Y-1036000D01*
X-2352000Y-1036000D01*
X-2283879Y-1056002D01*
X-2237386Y-1109658D01*
X-2226000Y-1162000D01*
X-2226000Y-2643484D01*
X-2221525Y-2658723D01*
X-2220135Y-2659928D01*
X-2212452Y-2661599D01*
X-1571731Y-2661599D01*
X-1564910Y-2661229D01*
X-1514048Y-2655705D01*
X-1498796Y-2652079D01*
X-1378346Y-2606924D01*
X-1362751Y-2598386D01*
X-1260676Y-2521885D01*
X-1248115Y-2509324D01*
X-1171614Y-2407249D01*
X-1163076Y-2391654D01*
X-1128159Y-2298515D01*
X-1085517Y-2241750D01*
X-1018955Y-2217051D01*
X-949606Y-2232259D01*
X-914940Y-2260247D01*
X-903298Y-2273687D01*
X-729701Y-2417810D01*
X-725249Y-2420412D01*
X-725244Y-2420415D01*
X-575982Y-2507637D01*
X-534897Y-2531645D01*
X-324116Y-2612134D01*
X-319048Y-2613165D01*
X-319045Y-2613166D01*
X-239645Y-2629320D01*
X-103019Y-2657117D01*
X-97844Y-2657307D01*
X-97842Y-2657307D01*
X117292Y-2665196D01*
X117296Y-2665196D01*
X122456Y-2665385D01*
X127576Y-2664729D01*
X127578Y-2664729D01*
X198020Y-2655705D01*
X346253Y-2636716D01*
X351202Y-2635231D01*
X351208Y-2635230D01*
X557413Y-2573365D01*
X557412Y-2573365D01*
X562363Y-2571880D01*
X596958Y-2554932D01*
X666932Y-2542926D01*
X732289Y-2570657D01*
X772278Y-2629320D01*
X778389Y-2668084D01*
X778389Y-6909516D01*
X758387Y-6977637D01*
X741484Y-6998611D01*
X-98500Y-7838595D01*
X-160812Y-7872621D01*
X-187595Y-7875500D01*
X-10716232Y-7875500D01*
X-10727415Y-7874973D01*
X-10734908Y-7873298D01*
X-10742834Y-7873547D01*
X-10742835Y-7873547D01*
X-10802998Y-7875438D01*
X-10806956Y-7875500D01*
X-10834856Y-7875500D01*
X-10838846Y-7876004D01*
X-10850680Y-7876936D01*
X-10894889Y-7878326D01*
X-10902503Y-7880538D01*
X-10902508Y-7880539D01*
X-10914341Y-7883977D01*
X-10933704Y-7887988D01*
X-10953797Y-7890526D01*
X-10961164Y-7893443D01*
X-10961169Y-7893444D01*
X-10994908Y-7906802D01*
X-11006135Y-7910646D01*
X-11048593Y-7922982D01*
X-11055419Y-7927019D01*
X-11066028Y-7933293D01*
X-11083776Y-7941988D01*
X-11102617Y-7949448D01*
X-11109033Y-7954110D01*
X-11109034Y-7954110D01*
X-11138387Y-7975436D01*
X-11148307Y-7981952D01*
X-11179535Y-8000420D01*
X-11179538Y-8000422D01*
X-11186362Y-8004458D01*
X-11200686Y-8018782D01*
X-11215713Y-8031617D01*
X-11232107Y-8043528D01*
X-11237160Y-8049636D01*
X-11260292Y-8077597D01*
X-11268280Y-8086375D01*
X-11392256Y-8210352D01*
X-11400538Y-8217888D01*
X-11407018Y-8222000D01*
X-11412445Y-8227779D01*
X-11412446Y-8227780D01*
X-11453644Y-8271652D01*
X-11456399Y-8274494D01*
X-11476135Y-8294230D01*
X-11478615Y-8297427D01*
X-11486318Y-8306447D01*
X-11516586Y-8338679D01*
X-11520405Y-8345625D01*
X-11520407Y-8345628D01*
X-11526348Y-8356434D01*
X-11537199Y-8372953D01*
X-11549614Y-8388959D01*
X-11552759Y-8396228D01*
X-11552762Y-8396232D01*
X-11567174Y-8429537D01*
X-11572391Y-8440187D01*
X-11593695Y-8478940D01*
X-11595666Y-8486615D01*
X-11595666Y-8486616D01*
X-11598733Y-8498562D01*
X-11605137Y-8517266D01*
X-11613181Y-8535855D01*
X-11614420Y-8543678D01*
X-11614423Y-8543688D01*
X-11620099Y-8579524D01*
X-11622505Y-8591144D01*
X-11627877Y-8612068D01*
X-11633500Y-8633970D01*
X-11633500Y-8654224D01*
X-11635051Y-8673934D01*
X-11638220Y-8693943D01*
X-11637474Y-8701835D01*
X-11634059Y-8737961D01*
X-11633500Y-8749819D01*
X-11633500Y-8763219D01*
X-11653502Y-8831340D01*
X-11693197Y-8870363D01*
X-11824348Y-8951522D01*
X-11949305Y-9076697D01*
X-11953145Y-9082927D01*
X-11953146Y-9082928D01*
X-11989560Y-9142003D01*
X-12042115Y-9227262D01*
X-12097797Y-9395139D01*
X-12108500Y-9499600D01*
X-12108500Y-10500400D01*
X-12097526Y-10606166D01*
X-12041550Y-10773946D01*
X-11948478Y-10924348D01*
X-11948096Y-10924729D01*
X-11922506Y-10987956D01*
X-11935678Y-11057720D01*
X-11949009Y-11078503D01*
X-11952753Y-11083243D01*
X-12037816Y-11221243D01*
X-12043963Y-11234424D01*
X-12095138Y-11388710D01*
X-12098005Y-11402086D01*
X-12107672Y-11496438D01*
X-12108000Y-11502855D01*
X-12108000Y-11727885D01*
X-12103525Y-11743124D01*
X-12102135Y-11744329D01*
X-12094452Y-11746000D01*
X-10897000Y-11746000D01*
X-10828879Y-11766002D01*
X-10782386Y-11819658D01*
X-10771000Y-11872000D01*
X-10771000Y-13189884D01*
X-10766525Y-13205123D01*
X-10765135Y-13206328D01*
X-10757452Y-13207999D01*
X-10652905Y-13207999D01*
X-10646386Y-13207662D01*
X-10550794Y-13197743D01*
X-10537400Y-13194851D01*
X-10383216Y-13143412D01*
X-10370038Y-13137239D01*
X-10232193Y-13051937D01*
X-10220792Y-13042901D01*
X-10106262Y-12928172D01*
X-10099206Y-12919238D01*
X-10041288Y-12878177D01*
X-9970365Y-12874947D01*
X-9908954Y-12910574D01*
X-9902154Y-12918407D01*
X-9898478Y-12924348D01*
X-9773303Y-13049305D01*
X-9767073Y-13053145D01*
X-9767072Y-13053146D01*
X-9629712Y-13137816D01*
X-9622738Y-13142115D01*
X-9542995Y-13168564D01*
X-9461389Y-13195632D01*
X-9461387Y-13195632D01*
X-9454861Y-13197797D01*
X-9448025Y-13198497D01*
X-9448022Y-13198498D01*
X-9404969Y-13202909D01*
X-9350400Y-13208500D01*
X-8599600Y-13208500D01*
X-8596354Y-13208163D01*
X-8596350Y-13208163D01*
X-8500692Y-13198238D01*
X-8500688Y-13198237D01*
X-8493834Y-13197526D01*
X-8487298Y-13195345D01*
X-8487296Y-13195345D01*
X-8355194Y-13151272D01*
X-8326054Y-13141550D01*
X-8175652Y-13048478D01*
X-8166756Y-13039567D01*
X-8055866Y-12928483D01*
X-8050695Y-12923303D01*
X-7957885Y-12772738D01*
X-7902203Y-12604861D01*
X-7891500Y-12500400D01*
X-7891500Y-11499600D01*
X-7891837Y-11496350D01*
X-7901762Y-11400692D01*
X-7901763Y-11400688D01*
X-7902474Y-11393834D01*
X-7958450Y-11226054D01*
X-8051522Y-11075652D01*
X-8051638Y-11075536D01*
X-8077173Y-11012457D01*
X-8064004Y-10942692D01*
X-8053136Y-10925749D01*
X-8050695Y-10923303D01*
X-7957885Y-10772738D01*
X-7902203Y-10604861D01*
X-7891500Y-10500400D01*
X-7891500Y-9499600D01*
X-7902474Y-9393834D01*
X-7930985Y-9308376D01*
X-7933569Y-9237427D01*
X-7897386Y-9176343D01*
X-7833921Y-9144518D01*
X-7811461Y-9142500D01*
X48233Y-9142500D01*
X59416Y-9143027D01*
X66909Y-9144702D01*
X74835Y-9144453D01*
X74836Y-9144453D01*
X134986Y-9142562D01*
X138945Y-9142500D01*
X166856Y-9142500D01*
X170791Y-9142003D01*
X170856Y-9141995D01*
X182693Y-9141062D01*
X214951Y-9140048D01*
X218970Y-9139922D01*
X226889Y-9139673D01*
X246343Y-9134021D01*
X265700Y-9130013D01*
X277930Y-9128468D01*
X277931Y-9128468D01*
X285797Y-9127474D01*
X293168Y-9124555D01*
X293170Y-9124555D01*
X326912Y-9111196D01*
X338142Y-9107351D01*
X372983Y-9097229D01*
X372984Y-9097229D01*
X380593Y-9095018D01*
X387412Y-9090985D01*
X387417Y-9090983D01*
X398028Y-9084707D01*
X415776Y-9076012D01*
X434617Y-9068552D01*
X470387Y-9042564D01*
X480307Y-9036048D01*
X511535Y-9017580D01*
X511538Y-9017578D01*
X518362Y-9013542D01*
X532683Y-8999221D01*
X547717Y-8986380D01*
X552095Y-8983199D01*
X564107Y-8974472D01*
X592298Y-8940395D01*
X600288Y-8931616D01*
X1804136Y-7727768D01*
X1812426Y-7720224D01*
X1818907Y-7716111D01*
X1865548Y-7666443D01*
X1868302Y-7663602D01*
X1886236Y-7645668D01*
X1948548Y-7611642D01*
X2019363Y-7616707D01*
X2076199Y-7659254D01*
X2083781Y-7670617D01*
X2095458Y-7690362D01*
X2109779Y-7704683D01*
X2122619Y-7719716D01*
X2134528Y-7736107D01*
X2162799Y-7759495D01*
X2168605Y-7764298D01*
X2177384Y-7772288D01*
X3179343Y-8774247D01*
X3186887Y-8782537D01*
X3191000Y-8789018D01*
X3196777Y-8794443D01*
X3240667Y-8835658D01*
X3243509Y-8838413D01*
X3263230Y-8858134D01*
X3266425Y-8860612D01*
X3275447Y-8868318D01*
X3307679Y-8898586D01*
X3314628Y-8902406D01*
X3325432Y-8908346D01*
X3341956Y-8919199D01*
X3357959Y-8931613D01*
X3398543Y-8949176D01*
X3409173Y-8954383D01*
X3447940Y-8975695D01*
X3455617Y-8977666D01*
X3455622Y-8977668D01*
X3467558Y-8980732D01*
X3486266Y-8987137D01*
X3504855Y-8995181D01*
X3512683Y-8996421D01*
X3512690Y-8996423D01*
X3548524Y-9002099D01*
X3560144Y-9004505D01*
X3595289Y-9013528D01*
X3602970Y-9015500D01*
X3623224Y-9015500D01*
X3642934Y-9017051D01*
X3662943Y-9020220D01*
X3670835Y-9019474D01*
X3706961Y-9016059D01*
X3718819Y-9015500D01*
X7862735Y-9015500D01*
X7930856Y-9035502D01*
X7977349Y-9089158D01*
X7987453Y-9159432D01*
X7969995Y-9207616D01*
X7957885Y-9227262D01*
X7902203Y-9395139D01*
X7891500Y-9499600D01*
X7891500Y-10500400D01*
X7902474Y-10606166D01*
X7958450Y-10773946D01*
X8051522Y-10924348D01*
X8051638Y-10924464D01*
X8077173Y-10987543D01*
X8064004Y-11057308D01*
X8053136Y-11074251D01*
X8050695Y-11076697D01*
X8046855Y-11082927D01*
X7976048Y-11197797D01*
X7957885Y-11227262D01*
X7902203Y-11395139D01*
X7891500Y-11499600D01*
X7891500Y-12500400D01*
X7891837Y-12503646D01*
X7891837Y-12503650D01*
X7901752Y-12599206D01*
X7902474Y-12606166D01*
X7958450Y-12773946D01*
X8051522Y-12924348D01*
X8176697Y-13049305D01*
X8182927Y-13053145D01*
X8182928Y-13053146D01*
X8320288Y-13137816D01*
X8327262Y-13142115D01*
X8407005Y-13168564D01*
X8488611Y-13195632D01*
X8488613Y-13195632D01*
X8495139Y-13197797D01*
X8501975Y-13198497D01*
X8501978Y-13198498D01*
X8545031Y-13202909D01*
X8599600Y-13208500D01*
X9350400Y-13208500D01*
X9353646Y-13208163D01*
X9353650Y-13208163D01*
X9449308Y-13198238D01*
X9449312Y-13198237D01*
X9456166Y-13197526D01*
X9462702Y-13195345D01*
X9462704Y-13195345D01*
X9594806Y-13151272D01*
X9623946Y-13141550D01*
X9774348Y-13048478D01*
X9783244Y-13039567D01*
X9894131Y-12928486D01*
X9899305Y-12923303D01*
X9902102Y-12918765D01*
X9959353Y-12878176D01*
X10030276Y-12874946D01*
X10091687Y-12910572D01*
X10099062Y-12919068D01*
X10107098Y-12929207D01*
X10221829Y-13043739D01*
X10233240Y-13052751D01*
X10371243Y-13137816D01*
X10384424Y-13143963D01*
X10538710Y-13195138D01*
X10552086Y-13198005D01*
X10646438Y-13207672D01*
X10652854Y-13208000D01*
X10752885Y-13208000D01*
X10768124Y-13203525D01*
X10769329Y-13202135D01*
X10771000Y-13194452D01*
X10771000Y-13189884D01*
X11279000Y-13189884D01*
X11283475Y-13205123D01*
X11284865Y-13206328D01*
X11292548Y-13207999D01*
X11397095Y-13207999D01*
X11403614Y-13207662D01*
X11499206Y-13197743D01*
X11512600Y-13194851D01*
X11666784Y-13143412D01*
X11679962Y-13137239D01*
X11817807Y-13051937D01*
X11829208Y-13042901D01*
X11943739Y-12928171D01*
X11952751Y-12916760D01*
X12037816Y-12778757D01*
X12043963Y-12765576D01*
X12095138Y-12611290D01*
X12098005Y-12597914D01*
X12107672Y-12503562D01*
X12108000Y-12497146D01*
X12108000Y-12272115D01*
X12103525Y-12256876D01*
X12102135Y-12255671D01*
X12094452Y-12254000D01*
X11297115Y-12254000D01*
X11281876Y-12258475D01*
X11280671Y-12259865D01*
X11279000Y-12267548D01*
X11279000Y-13189884D01*
X10771000Y-13189884D01*
X10771000Y-11872000D01*
X10791002Y-11803879D01*
X10844658Y-11757386D01*
X10897000Y-11746000D01*
X12089884Y-11746000D01*
X12105123Y-11741525D01*
X12106328Y-11740135D01*
X12107999Y-11732452D01*
X12107999Y-11502905D01*
X12107662Y-11496386D01*
X12097743Y-11400794D01*
X12094851Y-11387400D01*
X12043412Y-11233216D01*
X12037239Y-11220038D01*
X11951936Y-11082191D01*
X11949145Y-11078670D01*
X11922506Y-11012860D01*
X11935676Y-10943096D01*
X11946696Y-10925917D01*
X11949305Y-10923303D01*
X11953146Y-10917073D01*
X12038275Y-10778968D01*
X12038276Y-10778966D01*
X12042115Y-10772738D01*
X12097797Y-10604861D01*
X12108500Y-10500400D01*
X12108500Y-9499600D01*
X12097526Y-9393834D01*
X12041550Y-9226054D01*
X11948478Y-9075652D01*
X11936696Y-9063890D01*
X11828483Y-8955866D01*
X11823303Y-8950695D01*
X11817072Y-8946854D01*
X11678968Y-8861725D01*
X11678966Y-8861724D01*
X11672738Y-8857885D01*
X11641832Y-8847634D01*
X11583472Y-8807203D01*
X11556236Y-8741638D01*
X11555500Y-8728041D01*
X11555500Y-8723144D01*
X11554994Y-8719138D01*
X11554061Y-8707292D01*
X11552922Y-8671037D01*
X11552673Y-8663110D01*
X11547022Y-8643658D01*
X11543014Y-8624306D01*
X11541468Y-8612068D01*
X11541467Y-8612066D01*
X11540474Y-8604203D01*
X11524194Y-8563086D01*
X11520359Y-8551885D01*
X11508018Y-8509406D01*
X11503985Y-8502587D01*
X11503983Y-8502582D01*
X11497707Y-8491971D01*
X11489010Y-8474221D01*
X11481552Y-8455383D01*
X11470520Y-8440198D01*
X11455572Y-8419625D01*
X11449053Y-8409701D01*
X11430578Y-8378460D01*
X11430574Y-8378455D01*
X11426542Y-8371637D01*
X11412218Y-8357313D01*
X11399376Y-8342278D01*
X11387472Y-8325893D01*
X11353406Y-8297711D01*
X11344627Y-8289722D01*
X11044652Y-7989747D01*
X11037112Y-7981461D01*
X11033000Y-7974982D01*
X10983348Y-7928356D01*
X10980507Y-7925602D01*
X10960770Y-7905865D01*
X10957573Y-7903385D01*
X10948551Y-7895680D01*
X10939036Y-7886745D01*
X10916321Y-7865414D01*
X10909375Y-7861595D01*
X10909372Y-7861593D01*
X10898566Y-7855652D01*
X10882047Y-7844801D01*
X10881583Y-7844441D01*
X10866041Y-7832386D01*
X10858772Y-7829241D01*
X10858768Y-7829238D01*
X10825463Y-7814826D01*
X10814813Y-7809609D01*
X10776060Y-7788305D01*
X10756437Y-7783267D01*
X10737734Y-7776863D01*
X10726420Y-7771967D01*
X10726419Y-7771967D01*
X10719145Y-7768819D01*
X10711322Y-7767580D01*
X10711312Y-7767577D01*
X10675476Y-7761901D01*
X10663856Y-7759495D01*
X10628711Y-7750472D01*
X10628710Y-7750472D01*
X10621030Y-7748500D01*
X10600776Y-7748500D01*
X10581065Y-7746949D01*
X10568886Y-7745020D01*
X10561057Y-7743780D01*
X10553165Y-7744526D01*
X10517039Y-7747941D01*
X10505181Y-7748500D01*
X3997595Y-7748500D01*
X3929474Y-7728498D01*
X3908500Y-7711595D01*
X3270405Y-7073500D01*
X3236379Y-7011188D01*
X3233500Y-6984405D01*
X3233500Y-2586217D01*
X3253502Y-2518096D01*
X3296991Y-2479376D01*
X3295897Y-2477541D01*
X3300342Y-2474891D01*
X3304982Y-2472618D01*
X3346216Y-2443206D01*
X3484455Y-2344601D01*
X3484459Y-2344597D01*
X3488667Y-2341596D01*
X3648487Y-2182333D01*
X3780150Y-1999105D01*
X3880118Y-1796835D01*
X3945708Y-1580952D01*
X3950573Y-1544000D01*
X3974721Y-1360578D01*
X3974722Y-1360572D01*
X3975158Y-1357256D01*
X3976802Y-1290000D01*
X3958315Y-1065132D01*
X3903349Y-846304D01*
X3813380Y-639391D01*
X3690826Y-449951D01*
X3538977Y-283071D01*
X3534926Y-279872D01*
X3534922Y-279868D01*
X3365966Y-146434D01*
X3365962Y-146432D01*
X3361911Y-143232D01*
X3338535Y-130328D01*
X3288564Y-79896D01*
X3273792Y-10453D01*
X3298908Y55953D01*
X3326259Y82559D01*
X3484455Y195399D01*
X3484459Y195403D01*
X3488667Y198404D01*
X3648487Y357667D01*
X3780150Y540895D01*
X3870475Y723654D01*
X3877824Y738523D01*
X3877825Y738525D01*
X3880118Y743165D01*
X3945708Y959048D01*
X3946383Y964174D01*
X3974721Y1179422D01*
X3974722Y1179428D01*
X3975158Y1182744D01*
X3976802Y1250000D01*
X3958315Y1474868D01*
X3903349Y1693696D01*
X3813380Y1900609D01*
X3765282Y1974957D01*
X3693634Y2085709D01*
X3693632Y2085712D01*
X3690826Y2090049D01*
X3538977Y2256929D01*
X3534926Y2260128D01*
X3534922Y2260132D01*
X3365966Y2393566D01*
X3365962Y2393568D01*
X3361911Y2396768D01*
X3164383Y2505809D01*
X2951698Y2581124D01*
X2901297Y2590102D01*
X2734657Y2619786D01*
X2734653Y2619786D01*
X2729569Y2620692D01*
X2657574Y2621571D01*
X2509129Y2623385D01*
X2509127Y2623385D01*
X2503959Y2623448D01*
X2280929Y2589320D01*
X2066468Y2519223D01*
X1866335Y2415040D01*
X1862202Y2411937D01*
X1862199Y2411935D01*
X1837734Y2393566D01*
X1685905Y2279570D01*
X1530024Y2116450D01*
X1527112Y2112181D01*
X1527106Y2112173D01*
X1433503Y1974957D01*
X1378592Y1929954D01*
X1308067Y1921783D01*
X1244320Y1953037D01*
X1223623Y1977521D01*
X1153634Y2085709D01*
X1153632Y2085712D01*
X1150826Y2090049D01*
X998977Y2256929D01*
X994926Y2260128D01*
X994922Y2260132D01*
X825966Y2393566D01*
X825962Y2393568D01*
X821911Y2396768D01*
X624383Y2505809D01*
X411698Y2581124D01*
X361297Y2590102D01*
X194657Y2619786D01*
X194653Y2619786D01*
X189569Y2620692D01*
X117574Y2621571D01*
X-30871Y2623385D01*
X-30873Y2623385D01*
X-36041Y2623448D01*
X-184377Y2600750D01*
X-253962Y2590102D01*
X-253965Y2590101D01*
X-259071Y2589320D01*
X-263980Y2587715D01*
X-263986Y2587714D01*
X-279254Y2582724D01*
X-350218Y2580575D01*
X-407491Y2613395D01*
X-2445868Y4651773D01*
X-2453408Y4660059D01*
X-2457520Y4666538D01*
X-2507172Y4713164D01*
X-2510013Y4715918D01*
X-2529750Y4735655D01*
X-2532947Y4738135D01*
X-2541969Y4745840D01*
X-2546123Y4749741D01*
X-2574199Y4776106D01*
X-2581145Y4779925D01*
X-2581148Y4779927D01*
X-2591954Y4785868D01*
X-2608473Y4796719D01*
X-2608937Y4797079D01*
X-2624479Y4809134D01*
X-2631748Y4812279D01*
X-2631752Y4812282D01*
X-2665057Y4826694D01*
X-2675707Y4831911D01*
X-2714460Y4853215D01*
X-2734083Y4858253D01*
X-2752786Y4864657D01*
X-2764100Y4869553D01*
X-2764101Y4869553D01*
X-2771375Y4872701D01*
X-2779198Y4873940D01*
X-2779208Y4873943D01*
X-2815044Y4879619D01*
X-2826664Y4882025D01*
X-2861809Y4891048D01*
X-2861810Y4891048D01*
X-2869490Y4893020D01*
X-2889744Y4893020D01*
X-2909455Y4894571D01*
X-2921634Y4896500D01*
X-2929463Y4897740D01*
X-2958734Y4894973D01*
X-2973481Y4893579D01*
X-2985339Y4893020D01*
X-12171712Y4893020D01*
X-12182895Y4893547D01*
X-12190388Y4895222D01*
X-12198314Y4894973D01*
X-12198315Y4894973D01*
X-12258478Y4893082D01*
X-12262436Y4893020D01*
X-12290336Y4893020D01*
X-12294326Y4892516D01*
X-12306160Y4891584D01*
X-12350369Y4890194D01*
X-12357985Y4887981D01*
X-12357987Y4887981D01*
X-12369828Y4884541D01*
X-12389187Y4880532D01*
X-12390497Y4880366D01*
X-12409277Y4877994D01*
X-12416643Y4875078D01*
X-12416649Y4875076D01*
X-12450382Y4861720D01*
X-12461612Y4857875D01*
X-12477652Y4853215D01*
X-12504073Y4845539D01*
X-12510896Y4841504D01*
X-12521514Y4835225D01*
X-12539267Y4826528D01*
X-12546912Y4823501D01*
X-12558097Y4819072D01*
X-12571775Y4809134D01*
X-12593868Y4793083D01*
X-12603785Y4786569D01*
X-12641842Y4764062D01*
X-12656163Y4749741D01*
X-12671196Y4736901D01*
X-12687587Y4724992D01*
X-12713964Y4693107D01*
X-12715768Y4690927D01*
X-12723758Y4682146D01*
X-13346258Y4059647D01*
X-13354537Y4052113D01*
X-13361018Y4048000D01*
X-13407643Y3998349D01*
X-13410398Y3995507D01*
X-13430135Y3975770D01*
X-13432615Y3972573D01*
X-13440318Y3963553D01*
X-13470586Y3931321D01*
X-13474405Y3924375D01*
X-13474407Y3924372D01*
X-13480348Y3913566D01*
X-13491199Y3897047D01*
X-13503614Y3881041D01*
X-13506759Y3873772D01*
X-13506762Y3873768D01*
X-13521174Y3840463D01*
X-13526391Y3829813D01*
X-13543324Y3799010D01*
X-13564644Y3770616D01*
X-13628453Y3706807D01*
X-13632489Y3699983D01*
X-13632491Y3699980D01*
X-13696107Y3592411D01*
X-13713145Y3563601D01*
X-13759562Y3403831D01*
X-13762500Y3366502D01*
X-13762500Y1583498D01*
X-24491500Y1583498D01*
X-24491500Y9038519D01*
X-24484102Y12790987D01*
X-24480638Y12820080D01*
X-24462630Y12895286D01*
X-24454493Y12918755D01*
X-24445800Y12937587D01*
X-24418633Y12996434D01*
X-24406347Y13017439D01*
X-24356316Y13086639D01*
X-24340423Y13104701D01*
X-24278098Y13163180D01*
X-24259010Y13177925D01*
X-24186776Y13223399D01*
X-24164876Y13234372D01*
X-24084688Y13265210D01*
X-24060567Y13271827D01*
X-23985365Y13284604D01*
X-23962154Y13288548D01*
X-23941049Y13290328D01*
X-17979555Y13290327D01*
G37*
%TD.AperFunction*%
%TD*%
M02*
