%TF.GenerationSoftware,KiCad,Pcbnew,(6.0.4)*%
%TF.CreationDate,2022-04-09T22:58:29+02:00*%
%TF.ProjectId,cassette,63617373-6574-4746-952e-6b696361645f,rev?*%
%TF.SameCoordinates,Original*%
%TF.FileFunction,Profile,NP*%
%FSLAX46Y46*%
G04 Gerber Fmt 4.6, Leading zero omitted, Abs format (unit mm)*
G04 Created by KiCad (PCBNEW (6.0.4)) date 2022-04-09 22:58:29*
%MOMM*%
%LPD*%
G01*
G04 APERTURE LIST*
%TA.AperFunction,Profile*%
%ADD10C,0.100000*%
%TD*%
G04 APERTURE END LIST*
D10*
%TO.C,N1*%
X-25000000Y-13039062D02*
X-25000000Y-16718750D01*
X25000000Y-9359375D02*
X25000000Y-5679687D01*
X23994572Y-17798831D02*
X24208144Y-17762541D01*
X-23919922Y13798828D02*
X-23994568Y13798828D01*
X24581543Y-17575751D02*
X24732739Y-17433887D01*
X25000000Y-13039062D02*
X25000000Y-9359375D01*
X25000000Y1679688D02*
X25000000Y5359375D01*
X24942513Y-17074823D02*
X24992455Y-16866257D01*
X-24776921Y-17380371D02*
X-24635056Y-17531567D01*
X-23994568Y13798828D02*
X-24208140Y13762541D01*
X-24732743Y13433884D02*
X-24854506Y13265467D01*
X-25000000Y-2000000D02*
X-25000000Y-5679687D01*
X-24992455Y12866257D02*
X-25000000Y9039062D01*
X-25000000Y5359375D02*
X-25000000Y1679688D01*
X24466640Y13653334D02*
X24275992Y13741344D01*
X-25000000Y-16793400D02*
X-24963713Y-17006972D01*
X25000000Y9039062D02*
X25000000Y12718750D01*
X-5979980Y13798827D02*
X-11959961Y13798827D01*
X17939942Y-17798831D02*
X23919922Y-17798831D01*
X24963710Y13006968D02*
X24887910Y13204068D01*
X-17939941Y13798827D02*
X-23919922Y13798828D01*
X-5979980Y-17798831D02*
X0Y-17798831D01*
X24067421Y13791282D02*
X17939942Y13798827D01*
X-24067429Y-17791281D02*
X-17939941Y-17798831D01*
X-17939941Y-17798831D02*
X-11959961Y-17798831D01*
X-24405240Y13686741D02*
X-24581547Y13575749D01*
X-24963713Y-17006972D02*
X-24887913Y-17204063D01*
X0Y13798827D02*
X-5979980Y13798827D01*
X-24887913Y-17204063D02*
X-24776921Y-17380371D01*
X24405235Y-17686741D02*
X24581543Y-17575751D01*
X25000000Y-5679687D02*
X25000000Y-2000000D01*
X24776920Y13380375D02*
X24635056Y13531570D01*
X-24942516Y13074818D02*
X-24992455Y12866257D01*
X0Y-17798831D02*
X5979981Y-17798831D01*
X24992455Y-16866257D02*
X25000000Y-13039062D01*
X-24635056Y-17531567D02*
X-24466639Y-17653331D01*
X5979981Y13798827D02*
X0Y13798827D01*
X-24275990Y-17741341D02*
X-24067429Y-17791281D01*
X-11959961Y-17798831D02*
X-5979980Y-17798831D01*
X-25000000Y1679688D02*
X-25000000Y-2000000D01*
X5979981Y-17798831D02*
X11959961Y-17798831D01*
X24635056Y13531570D02*
X24466640Y13653334D01*
X-25000000Y-16718750D02*
X-25000000Y-16793400D01*
X25000000Y12718750D02*
X25000000Y12793400D01*
X-24208140Y13762541D02*
X-24405240Y13686741D01*
X25000000Y5359375D02*
X25000000Y9039062D01*
X24854503Y-17265471D02*
X24942513Y-17074823D01*
X-25000000Y9039062D02*
X-25000000Y5359375D01*
X11959961Y13798827D02*
X5979981Y13798827D01*
X17939942Y13798827D02*
X11959961Y13798827D01*
X24887910Y13204068D02*
X24776920Y13380375D01*
X24208144Y-17762541D02*
X24405235Y-17686741D01*
X-24854506Y13265467D02*
X-24942516Y13074818D01*
X23919922Y-17798831D02*
X23994572Y-17798831D01*
X-24581547Y13575749D02*
X-24732743Y13433884D01*
X-24466639Y-17653331D02*
X-24275990Y-17741341D01*
X-25000000Y-9359375D02*
X-25000000Y-13039062D01*
X-11959961Y13798827D02*
X-17939941Y13798827D01*
X11959961Y-17798831D02*
X17939942Y-17798831D01*
X24732739Y-17433887D02*
X24854503Y-17265471D01*
X24275992Y13741344D02*
X24067421Y13791282D01*
X25000000Y12793400D02*
X24963710Y13006968D01*
X-25000000Y-5679687D02*
X-25000000Y-9359375D01*
X25000000Y-2000000D02*
X25000000Y1679688D01*
%TD*%
M02*
