%TF.GenerationSoftware,KiCad,Pcbnew,(6.0.4)*%
%TF.CreationDate,2022-04-09T23:38:07+02:00*%
%TF.ProjectId,cassette,63617373-6574-4746-952e-6b696361645f,rev?*%
%TF.SameCoordinates,Original*%
%TF.FileFunction,Soldermask,Top*%
%TF.FilePolarity,Negative*%
%FSLAX46Y46*%
G04 Gerber Fmt 4.6, Leading zero omitted, Abs format (unit mm)*
G04 Created by KiCad (PCBNEW (6.0.4)) date 2022-04-09 23:38:07*
%MOMM*%
%LPD*%
G01*
G04 APERTURE LIST*
%ADD10C,0.010000*%
%ADD11O,1.727200X1.727200*%
%ADD12R,1.727200X1.727200*%
%ADD13C,1.727200*%
G04 APERTURE END LIST*
%TO.C,N1*%
G36*
X648420Y-10001021D02*
G01*
X1454047Y-10001085D01*
X2248191Y-10001189D01*
X3029815Y-10001333D01*
X3797881Y-10001516D01*
X4551352Y-10001737D01*
X5289190Y-10001995D01*
X6010357Y-10002288D01*
X6713816Y-10002616D01*
X7398530Y-10002978D01*
X8063460Y-10003372D01*
X8707569Y-10003797D01*
X9329820Y-10004253D01*
X9929175Y-10004739D01*
X10504596Y-10005252D01*
X11055047Y-10005793D01*
X11579488Y-10006360D01*
X12076883Y-10006952D01*
X12546193Y-10007568D01*
X12986383Y-10008208D01*
X13396413Y-10008869D01*
X13775246Y-10009551D01*
X14121845Y-10010253D01*
X14435172Y-10010973D01*
X14714190Y-10011712D01*
X14957860Y-10012467D01*
X15165146Y-10013238D01*
X15335010Y-10014023D01*
X15466413Y-10014822D01*
X15558320Y-10015633D01*
X15609691Y-10016456D01*
X15621000Y-10017066D01*
X15625674Y-10038353D01*
X15639317Y-10098424D01*
X15661362Y-10194817D01*
X15691239Y-10325070D01*
X15728381Y-10486723D01*
X15772219Y-10677314D01*
X15822184Y-10894381D01*
X15877710Y-11135463D01*
X15938226Y-11398099D01*
X16003166Y-11679827D01*
X16071961Y-11978185D01*
X16144042Y-12290714D01*
X16218841Y-12614950D01*
X16295790Y-12948432D01*
X16374321Y-13288700D01*
X16453865Y-13633291D01*
X16533854Y-13979745D01*
X16613720Y-14325599D01*
X16692895Y-14668393D01*
X16770810Y-15005665D01*
X16846896Y-15334954D01*
X16920587Y-15653798D01*
X16991312Y-15959736D01*
X17058505Y-16250306D01*
X17121597Y-16523046D01*
X17180019Y-16775497D01*
X17233203Y-17005196D01*
X17280581Y-17209681D01*
X17321585Y-17386491D01*
X17355647Y-17533166D01*
X17382197Y-17647243D01*
X17400668Y-17726261D01*
X17409557Y-17763875D01*
X17420973Y-17811500D01*
X11710861Y-17806227D01*
X11324995Y-17805882D01*
X10898923Y-17805521D01*
X10434775Y-17805146D01*
X9934678Y-17804758D01*
X9400761Y-17804358D01*
X8835151Y-17803948D01*
X8239978Y-17803529D01*
X7617370Y-17803102D01*
X6969455Y-17802668D01*
X6298360Y-17802229D01*
X5606215Y-17801787D01*
X4895148Y-17801342D01*
X4167286Y-17800895D01*
X3424759Y-17800449D01*
X2669694Y-17800003D01*
X1904220Y-17799561D01*
X1130465Y-17799122D01*
X350557Y-17798688D01*
X-433375Y-17798261D01*
X-1219204Y-17797841D01*
X-2004800Y-17797431D01*
X-2788037Y-17797031D01*
X-3566784Y-17796643D01*
X-4338915Y-17796267D01*
X-5102300Y-17795906D01*
X-5711998Y-17795625D01*
X-17424747Y-17790295D01*
X-17413216Y-17742689D01*
X-17408167Y-17717218D01*
X-17395715Y-17652237D01*
X-17376253Y-17549844D01*
X-17350179Y-17412138D01*
X-17317885Y-17241219D01*
X-17279769Y-17039184D01*
X-17236224Y-16808132D01*
X-17187646Y-16550162D01*
X-17134430Y-16267372D01*
X-17076971Y-15961862D01*
X-17015664Y-15635730D01*
X-16950905Y-15291074D01*
X-16883087Y-14929993D01*
X-16812608Y-14554586D01*
X-16739860Y-14166952D01*
X-16690950Y-13906250D01*
X-16616902Y-13511539D01*
X-16544858Y-13127572D01*
X-16475215Y-12756453D01*
X-16408367Y-12400290D01*
X-16344710Y-12061189D01*
X-16284641Y-11741257D01*
X-16228554Y-11442599D01*
X-16176846Y-11167323D01*
X-16129913Y-10917534D01*
X-16088149Y-10695339D01*
X-16051951Y-10502844D01*
X-16021714Y-10342156D01*
X-15997834Y-10215381D01*
X-15980707Y-10124625D01*
X-15970729Y-10071995D01*
X-15968259Y-10059208D01*
X-15956303Y-10001000D01*
X-167652Y-10001000D01*
X648420Y-10001021D01*
G37*
D10*
X648420Y-10001021D02*
X1454047Y-10001085D01*
X2248191Y-10001189D01*
X3029815Y-10001333D01*
X3797881Y-10001516D01*
X4551352Y-10001737D01*
X5289190Y-10001995D01*
X6010357Y-10002288D01*
X6713816Y-10002616D01*
X7398530Y-10002978D01*
X8063460Y-10003372D01*
X8707569Y-10003797D01*
X9329820Y-10004253D01*
X9929175Y-10004739D01*
X10504596Y-10005252D01*
X11055047Y-10005793D01*
X11579488Y-10006360D01*
X12076883Y-10006952D01*
X12546193Y-10007568D01*
X12986383Y-10008208D01*
X13396413Y-10008869D01*
X13775246Y-10009551D01*
X14121845Y-10010253D01*
X14435172Y-10010973D01*
X14714190Y-10011712D01*
X14957860Y-10012467D01*
X15165146Y-10013238D01*
X15335010Y-10014023D01*
X15466413Y-10014822D01*
X15558320Y-10015633D01*
X15609691Y-10016456D01*
X15621000Y-10017066D01*
X15625674Y-10038353D01*
X15639317Y-10098424D01*
X15661362Y-10194817D01*
X15691239Y-10325070D01*
X15728381Y-10486723D01*
X15772219Y-10677314D01*
X15822184Y-10894381D01*
X15877710Y-11135463D01*
X15938226Y-11398099D01*
X16003166Y-11679827D01*
X16071961Y-11978185D01*
X16144042Y-12290714D01*
X16218841Y-12614950D01*
X16295790Y-12948432D01*
X16374321Y-13288700D01*
X16453865Y-13633291D01*
X16533854Y-13979745D01*
X16613720Y-14325599D01*
X16692895Y-14668393D01*
X16770810Y-15005665D01*
X16846896Y-15334954D01*
X16920587Y-15653798D01*
X16991312Y-15959736D01*
X17058505Y-16250306D01*
X17121597Y-16523046D01*
X17180019Y-16775497D01*
X17233203Y-17005196D01*
X17280581Y-17209681D01*
X17321585Y-17386491D01*
X17355647Y-17533166D01*
X17382197Y-17647243D01*
X17400668Y-17726261D01*
X17409557Y-17763875D01*
X17420973Y-17811500D01*
X11710861Y-17806227D01*
X11324995Y-17805882D01*
X10898923Y-17805521D01*
X10434775Y-17805146D01*
X9934678Y-17804758D01*
X9400761Y-17804358D01*
X8835151Y-17803948D01*
X8239978Y-17803529D01*
X7617370Y-17803102D01*
X6969455Y-17802668D01*
X6298360Y-17802229D01*
X5606215Y-17801787D01*
X4895148Y-17801342D01*
X4167286Y-17800895D01*
X3424759Y-17800449D01*
X2669694Y-17800003D01*
X1904220Y-17799561D01*
X1130465Y-17799122D01*
X350557Y-17798688D01*
X-433375Y-17798261D01*
X-1219204Y-17797841D01*
X-2004800Y-17797431D01*
X-2788037Y-17797031D01*
X-3566784Y-17796643D01*
X-4338915Y-17796267D01*
X-5102300Y-17795906D01*
X-5711998Y-17795625D01*
X-17424747Y-17790295D01*
X-17413216Y-17742689D01*
X-17408167Y-17717218D01*
X-17395715Y-17652237D01*
X-17376253Y-17549844D01*
X-17350179Y-17412138D01*
X-17317885Y-17241219D01*
X-17279769Y-17039184D01*
X-17236224Y-16808132D01*
X-17187646Y-16550162D01*
X-17134430Y-16267372D01*
X-17076971Y-15961862D01*
X-17015664Y-15635730D01*
X-16950905Y-15291074D01*
X-16883087Y-14929993D01*
X-16812608Y-14554586D01*
X-16739860Y-14166952D01*
X-16690950Y-13906250D01*
X-16616902Y-13511539D01*
X-16544858Y-13127572D01*
X-16475215Y-12756453D01*
X-16408367Y-12400290D01*
X-16344710Y-12061189D01*
X-16284641Y-11741257D01*
X-16228554Y-11442599D01*
X-16176846Y-11167323D01*
X-16129913Y-10917534D01*
X-16088149Y-10695339D01*
X-16051951Y-10502844D01*
X-16021714Y-10342156D01*
X-15997834Y-10215381D01*
X-15980707Y-10124625D01*
X-15970729Y-10071995D01*
X-15968259Y-10059208D01*
X-15956303Y-10001000D01*
X-167652Y-10001000D01*
X648420Y-10001021D01*
G36*
X10502811Y1473342D02*
G01*
X10575274Y1415309D01*
X10635551Y1317560D01*
X10656736Y1266379D01*
X10708921Y1141342D01*
X10765103Y1033161D01*
X10820730Y949497D01*
X10871248Y898014D01*
X10878395Y893368D01*
X10955467Y861509D01*
X11031210Y860547D01*
X11109455Y892379D01*
X11194033Y958903D01*
X11288776Y1062019D01*
X11334586Y1119362D01*
X11417481Y1220121D01*
X11486438Y1287611D01*
X11547442Y1325913D01*
X11606479Y1339109D01*
X11651225Y1335339D01*
X11731945Y1305834D01*
X11785078Y1251378D01*
X11811261Y1169749D01*
X11811125Y1058728D01*
X11785307Y916092D01*
X11778593Y889250D01*
X11758591Y796913D01*
X11744562Y703710D01*
X11739832Y637796D01*
X11743358Y570613D01*
X11760651Y524272D01*
X11800628Y478650D01*
X11817202Y463171D01*
X11872328Y421158D01*
X11930818Y397998D01*
X12001141Y393316D01*
X12091763Y406739D01*
X12211153Y437893D01*
X12234333Y444750D01*
X12367011Y480251D01*
X12468340Y496527D01*
X12544783Y493386D01*
X12602804Y470636D01*
X12645202Y432543D01*
X12690449Y350020D01*
X12696378Y262125D01*
X12662819Y178333D01*
X12630477Y140375D01*
X12575053Y84974D01*
X12506180Y21557D01*
X12472514Y-7818D01*
X12366753Y-106248D01*
X12296977Y-191662D01*
X12260928Y-269196D01*
X12256347Y-343987D01*
X12280976Y-421170D01*
X12286168Y-431574D01*
X12316633Y-477400D01*
X12360659Y-516735D01*
X12425629Y-554044D01*
X12518927Y-593794D01*
X12609057Y-626880D01*
X12696715Y-659767D01*
X12773753Y-692158D01*
X12827878Y-718752D01*
X12840526Y-726701D01*
X12898707Y-791797D01*
X12924674Y-870953D01*
X12917949Y-952500D01*
X12878054Y-1024773D01*
X12853685Y-1047702D01*
X12821763Y-1070928D01*
X12789091Y-1087817D01*
X12747031Y-1100424D01*
X12686946Y-1110806D01*
X12600198Y-1121018D01*
X12506171Y-1130410D01*
X12376785Y-1146736D01*
X12282304Y-1168948D01*
X12215380Y-1200291D01*
X12168666Y-1244008D01*
X12139914Y-1292156D01*
X12119937Y-1349526D01*
X12117371Y-1408420D01*
X12134376Y-1475797D01*
X12173111Y-1558613D01*
X12235737Y-1663828D01*
X12273290Y-1721858D01*
X12342502Y-1833065D01*
X12385220Y-1919486D01*
X12402777Y-1988239D01*
X12396506Y-2046440D01*
X12367740Y-2101207D01*
X12348868Y-2125376D01*
X12293011Y-2173990D01*
X12227795Y-2193844D01*
X12148166Y-2184425D01*
X12049067Y-2145220D01*
X11938718Y-2083843D01*
X11812638Y-2011874D01*
X11711967Y-1965988D01*
X11630244Y-1944410D01*
X11561004Y-1945364D01*
X11503544Y-1964244D01*
X11451753Y-1997643D01*
X11412819Y-2045754D01*
X11384550Y-2114785D01*
X11364755Y-2210942D01*
X11351242Y-2340432D01*
X11346804Y-2408124D01*
X11339895Y-2516208D01*
X11332567Y-2590768D01*
X11322867Y-2640584D01*
X11308842Y-2674436D01*
X11288537Y-2701106D01*
X11279549Y-2710406D01*
X11220430Y-2751209D01*
X11152160Y-2775399D01*
X11151688Y-2775476D01*
X11097399Y-2778272D01*
X11052025Y-2761106D01*
X11003156Y-2723037D01*
X10938510Y-2644935D01*
X10880192Y-2528652D01*
X10870376Y-2503842D01*
X10812256Y-2366706D01*
X10756093Y-2266568D01*
X10698464Y-2198435D01*
X10635949Y-2157314D01*
X10631606Y-2155445D01*
X10579425Y-2137290D01*
X10535939Y-2136230D01*
X10480070Y-2152707D01*
X10463365Y-2158981D01*
X10412040Y-2184203D01*
X10361801Y-2223104D01*
X10304724Y-2282993D01*
X10232882Y-2371176D01*
X10231963Y-2372353D01*
X10169749Y-2449617D01*
X10112365Y-2516600D01*
X10067473Y-2564583D01*
X10047648Y-2582150D01*
X9976398Y-2609399D01*
X9892249Y-2609917D01*
X9814396Y-2584576D01*
X9793225Y-2570583D01*
X9748563Y-2520229D01*
X9726465Y-2453314D01*
X9726276Y-2363525D01*
X9747342Y-2244550D01*
X9755839Y-2209564D01*
X9788836Y-2051432D01*
X9799101Y-1925743D01*
X9786642Y-1829229D01*
X9756921Y-1765885D01*
X9712094Y-1717714D01*
X9655981Y-1688392D01*
X9582933Y-1677694D01*
X9487303Y-1685393D01*
X9363443Y-1711264D01*
X9239317Y-1745158D01*
X9130400Y-1773902D01*
X9051201Y-1785794D01*
X8992378Y-1780306D01*
X8944588Y-1756908D01*
X8909538Y-1726461D01*
X8865857Y-1670977D01*
X8849044Y-1609357D01*
X8847667Y-1574382D01*
X8849163Y-1536849D01*
X8856848Y-1504509D01*
X8875515Y-1470665D01*
X8909955Y-1428622D01*
X8964961Y-1371685D01*
X9045327Y-1293159D01*
X9057167Y-1281712D01*
X9135338Y-1203681D01*
X9202532Y-1131936D01*
X9252555Y-1073433D01*
X9279214Y-1035130D01*
X9281427Y-1029785D01*
X9288075Y-937905D01*
X9257339Y-848952D01*
X9197641Y-778447D01*
X9146097Y-745569D01*
X9067202Y-706322D01*
X8974028Y-666915D01*
X8922961Y-647960D01*
X8786448Y-592090D01*
X8690580Y-533685D01*
X8633669Y-470563D01*
X8614028Y-400541D01*
X8629971Y-321440D01*
X8644996Y-288570D01*
X8677295Y-243662D01*
X8725510Y-210338D01*
X8796597Y-186047D01*
X8897507Y-168235D01*
X9003307Y-157029D01*
X9144503Y-139689D01*
X9249972Y-114172D01*
X9325955Y-77830D01*
X9378696Y-28013D01*
X9403433Y12772D01*
X9424726Y70053D01*
X9428717Y127321D01*
X9413207Y191880D01*
X9375997Y271033D01*
X9314885Y372082D01*
X9278593Y427256D01*
X9205430Y544019D01*
X9160273Y636563D01*
X9141865Y711261D01*
X9148951Y774486D01*
X9180274Y832611D01*
X9195084Y851028D01*
X9238999Y891060D01*
X9290633Y907935D01*
X9339285Y910417D01*
X9391573Y905972D01*
X9446105Y889864D01*
X9513047Y857932D01*
X9602565Y806019D01*
X9619121Y795912D01*
X9762107Y718434D01*
X9882710Y675782D01*
X9982610Y667951D01*
X10063486Y694936D01*
X10127016Y756731D01*
X10149626Y794406D01*
X10167409Y850871D01*
X10182968Y944994D01*
X10195607Y1072124D01*
X10199336Y1125537D01*
X10206800Y1236789D01*
X10213962Y1313982D01*
X10222755Y1365333D01*
X10235110Y1399059D01*
X10252960Y1423376D01*
X10273950Y1442831D01*
X10348663Y1483810D01*
X10417271Y1492500D01*
X10502811Y1473342D01*
G37*
X10502811Y1473342D02*
X10575274Y1415309D01*
X10635551Y1317560D01*
X10656736Y1266379D01*
X10708921Y1141342D01*
X10765103Y1033161D01*
X10820730Y949497D01*
X10871248Y898014D01*
X10878395Y893368D01*
X10955467Y861509D01*
X11031210Y860547D01*
X11109455Y892379D01*
X11194033Y958903D01*
X11288776Y1062019D01*
X11334586Y1119362D01*
X11417481Y1220121D01*
X11486438Y1287611D01*
X11547442Y1325913D01*
X11606479Y1339109D01*
X11651225Y1335339D01*
X11731945Y1305834D01*
X11785078Y1251378D01*
X11811261Y1169749D01*
X11811125Y1058728D01*
X11785307Y916092D01*
X11778593Y889250D01*
X11758591Y796913D01*
X11744562Y703710D01*
X11739832Y637796D01*
X11743358Y570613D01*
X11760651Y524272D01*
X11800628Y478650D01*
X11817202Y463171D01*
X11872328Y421158D01*
X11930818Y397998D01*
X12001141Y393316D01*
X12091763Y406739D01*
X12211153Y437893D01*
X12234333Y444750D01*
X12367011Y480251D01*
X12468340Y496527D01*
X12544783Y493386D01*
X12602804Y470636D01*
X12645202Y432543D01*
X12690449Y350020D01*
X12696378Y262125D01*
X12662819Y178333D01*
X12630477Y140375D01*
X12575053Y84974D01*
X12506180Y21557D01*
X12472514Y-7818D01*
X12366753Y-106248D01*
X12296977Y-191662D01*
X12260928Y-269196D01*
X12256347Y-343987D01*
X12280976Y-421170D01*
X12286168Y-431574D01*
X12316633Y-477400D01*
X12360659Y-516735D01*
X12425629Y-554044D01*
X12518927Y-593794D01*
X12609057Y-626880D01*
X12696715Y-659767D01*
X12773753Y-692158D01*
X12827878Y-718752D01*
X12840526Y-726701D01*
X12898707Y-791797D01*
X12924674Y-870953D01*
X12917949Y-952500D01*
X12878054Y-1024773D01*
X12853685Y-1047702D01*
X12821763Y-1070928D01*
X12789091Y-1087817D01*
X12747031Y-1100424D01*
X12686946Y-1110806D01*
X12600198Y-1121018D01*
X12506171Y-1130410D01*
X12376785Y-1146736D01*
X12282304Y-1168948D01*
X12215380Y-1200291D01*
X12168666Y-1244008D01*
X12139914Y-1292156D01*
X12119937Y-1349526D01*
X12117371Y-1408420D01*
X12134376Y-1475797D01*
X12173111Y-1558613D01*
X12235737Y-1663828D01*
X12273290Y-1721858D01*
X12342502Y-1833065D01*
X12385220Y-1919486D01*
X12402777Y-1988239D01*
X12396506Y-2046440D01*
X12367740Y-2101207D01*
X12348868Y-2125376D01*
X12293011Y-2173990D01*
X12227795Y-2193844D01*
X12148166Y-2184425D01*
X12049067Y-2145220D01*
X11938718Y-2083843D01*
X11812638Y-2011874D01*
X11711967Y-1965988D01*
X11630244Y-1944410D01*
X11561004Y-1945364D01*
X11503544Y-1964244D01*
X11451753Y-1997643D01*
X11412819Y-2045754D01*
X11384550Y-2114785D01*
X11364755Y-2210942D01*
X11351242Y-2340432D01*
X11346804Y-2408124D01*
X11339895Y-2516208D01*
X11332567Y-2590768D01*
X11322867Y-2640584D01*
X11308842Y-2674436D01*
X11288537Y-2701106D01*
X11279549Y-2710406D01*
X11220430Y-2751209D01*
X11152160Y-2775399D01*
X11151688Y-2775476D01*
X11097399Y-2778272D01*
X11052025Y-2761106D01*
X11003156Y-2723037D01*
X10938510Y-2644935D01*
X10880192Y-2528652D01*
X10870376Y-2503842D01*
X10812256Y-2366706D01*
X10756093Y-2266568D01*
X10698464Y-2198435D01*
X10635949Y-2157314D01*
X10631606Y-2155445D01*
X10579425Y-2137290D01*
X10535939Y-2136230D01*
X10480070Y-2152707D01*
X10463365Y-2158981D01*
X10412040Y-2184203D01*
X10361801Y-2223104D01*
X10304724Y-2282993D01*
X10232882Y-2371176D01*
X10231963Y-2372353D01*
X10169749Y-2449617D01*
X10112365Y-2516600D01*
X10067473Y-2564583D01*
X10047648Y-2582150D01*
X9976398Y-2609399D01*
X9892249Y-2609917D01*
X9814396Y-2584576D01*
X9793225Y-2570583D01*
X9748563Y-2520229D01*
X9726465Y-2453314D01*
X9726276Y-2363525D01*
X9747342Y-2244550D01*
X9755839Y-2209564D01*
X9788836Y-2051432D01*
X9799101Y-1925743D01*
X9786642Y-1829229D01*
X9756921Y-1765885D01*
X9712094Y-1717714D01*
X9655981Y-1688392D01*
X9582933Y-1677694D01*
X9487303Y-1685393D01*
X9363443Y-1711264D01*
X9239317Y-1745158D01*
X9130400Y-1773902D01*
X9051201Y-1785794D01*
X8992378Y-1780306D01*
X8944588Y-1756908D01*
X8909538Y-1726461D01*
X8865857Y-1670977D01*
X8849044Y-1609357D01*
X8847667Y-1574382D01*
X8849163Y-1536849D01*
X8856848Y-1504509D01*
X8875515Y-1470665D01*
X8909955Y-1428622D01*
X8964961Y-1371685D01*
X9045327Y-1293159D01*
X9057167Y-1281712D01*
X9135338Y-1203681D01*
X9202532Y-1131936D01*
X9252555Y-1073433D01*
X9279214Y-1035130D01*
X9281427Y-1029785D01*
X9288075Y-937905D01*
X9257339Y-848952D01*
X9197641Y-778447D01*
X9146097Y-745569D01*
X9067202Y-706322D01*
X8974028Y-666915D01*
X8922961Y-647960D01*
X8786448Y-592090D01*
X8690580Y-533685D01*
X8633669Y-470563D01*
X8614028Y-400541D01*
X8629971Y-321440D01*
X8644996Y-288570D01*
X8677295Y-243662D01*
X8725510Y-210338D01*
X8796597Y-186047D01*
X8897507Y-168235D01*
X9003307Y-157029D01*
X9144503Y-139689D01*
X9249972Y-114172D01*
X9325955Y-77830D01*
X9378696Y-28013D01*
X9403433Y12772D01*
X9424726Y70053D01*
X9428717Y127321D01*
X9413207Y191880D01*
X9375997Y271033D01*
X9314885Y372082D01*
X9278593Y427256D01*
X9205430Y544019D01*
X9160273Y636563D01*
X9141865Y711261D01*
X9148951Y774486D01*
X9180274Y832611D01*
X9195084Y851028D01*
X9238999Y891060D01*
X9290633Y907935D01*
X9339285Y910417D01*
X9391573Y905972D01*
X9446105Y889864D01*
X9513047Y857932D01*
X9602565Y806019D01*
X9619121Y795912D01*
X9762107Y718434D01*
X9882710Y675782D01*
X9982610Y667951D01*
X10063486Y694936D01*
X10127016Y756731D01*
X10149626Y794406D01*
X10167409Y850871D01*
X10182968Y944994D01*
X10195607Y1072124D01*
X10199336Y1125537D01*
X10206800Y1236789D01*
X10213962Y1313982D01*
X10222755Y1365333D01*
X10235110Y1399059D01*
X10252960Y1423376D01*
X10273950Y1442831D01*
X10348663Y1483810D01*
X10417271Y1492500D01*
X10502811Y1473342D01*
G36*
X-14697312Y-354226D02*
G01*
X-14692895Y-190409D01*
X-14684062Y-48386D01*
X-14669609Y82090D01*
X-14648332Y211265D01*
X-14619027Y349384D01*
X-14580489Y506694D01*
X-14569178Y550583D01*
X-14452315Y922096D01*
X-14300325Y1275184D01*
X-14115289Y1607227D01*
X-13899288Y1915608D01*
X-13654403Y2197708D01*
X-13382716Y2450909D01*
X-13086309Y2672593D01*
X-12767263Y2860140D01*
X-12710583Y2888607D01*
X-12454965Y3004951D01*
X-12212144Y3095285D01*
X-11969821Y3162844D01*
X-11715694Y3210861D01*
X-11437463Y3242568D01*
X-11334750Y3250237D01*
X-11288874Y3252089D01*
X-11208641Y3253833D01*
X-11093711Y3255468D01*
X-10943741Y3256996D01*
X-10758389Y3258416D01*
X-10537314Y3259730D01*
X-10280174Y3260937D01*
X-9986627Y3262038D01*
X-9656332Y3263033D01*
X-9288946Y3263923D01*
X-8884129Y3264709D01*
X-8441537Y3265390D01*
X-7960830Y3265967D01*
X-7441666Y3266442D01*
X-6883702Y3266813D01*
X-6286598Y3267082D01*
X-5650011Y3267249D01*
X-4973600Y3267314D01*
X-4257023Y3267278D01*
X-3499938Y3267141D01*
X-2702003Y3266905D01*
X-1862877Y3266568D01*
X-982217Y3266132D01*
X-59683Y3265598D01*
X264583Y3265393D01*
X11525250Y3258134D01*
X11758083Y3212474D01*
X12159917Y3115089D01*
X12534344Y2985633D01*
X12882269Y2823509D01*
X13204592Y2628122D01*
X13502218Y2398876D01*
X13776049Y2135175D01*
X14026987Y1836424D01*
X14187667Y1608917D01*
X14376575Y1284747D01*
X14533314Y936877D01*
X14656650Y570513D01*
X14745344Y190857D01*
X14798161Y-196886D01*
X14813863Y-587512D01*
X14794492Y-944715D01*
X14733855Y-1349706D01*
X14636297Y-1738425D01*
X14503182Y-2108831D01*
X14335873Y-2458881D01*
X14135735Y-2786533D01*
X13904131Y-3089747D01*
X13642424Y-3366480D01*
X13351979Y-3614690D01*
X13034159Y-3832335D01*
X12767362Y-3979953D01*
X12444872Y-4121913D01*
X12112008Y-4229331D01*
X11762166Y-4303945D01*
X11388741Y-4347491D01*
X11362266Y-4349371D01*
X11321591Y-4350695D01*
X11240110Y-4351967D01*
X11119353Y-4353189D01*
X10960847Y-4354359D01*
X10766121Y-4355478D01*
X10536703Y-4356546D01*
X10274121Y-4357564D01*
X9979904Y-4358531D01*
X9655579Y-4359447D01*
X9302676Y-4360312D01*
X8922722Y-4361127D01*
X8517245Y-4361892D01*
X8087774Y-4362607D01*
X7635838Y-4363271D01*
X7162964Y-4363885D01*
X6670680Y-4364450D01*
X6160515Y-4364964D01*
X5633998Y-4365429D01*
X5092656Y-4365844D01*
X4538017Y-4366209D01*
X3971611Y-4366525D01*
X3394965Y-4366792D01*
X2809607Y-4367009D01*
X2217066Y-4367177D01*
X1618870Y-4367296D01*
X1016547Y-4367366D01*
X411626Y-4367387D01*
X-194366Y-4367359D01*
X-799899Y-4367282D01*
X-1403447Y-4367157D01*
X-2003479Y-4366983D01*
X-2598469Y-4366761D01*
X-3186888Y-4366491D01*
X-3767207Y-4366172D01*
X-4337899Y-4365805D01*
X-4897435Y-4365390D01*
X-5444286Y-4364927D01*
X-5976926Y-4364416D01*
X-6493824Y-4363857D01*
X-6993454Y-4363250D01*
X-7474286Y-4362596D01*
X-7934793Y-4361895D01*
X-8373447Y-4361146D01*
X-8788718Y-4360350D01*
X-9179079Y-4359506D01*
X-9543002Y-4358616D01*
X-9878958Y-4357678D01*
X-10185419Y-4356693D01*
X-10460856Y-4355662D01*
X-10703742Y-4354584D01*
X-10912548Y-4353459D01*
X-11085746Y-4352288D01*
X-11221808Y-4351070D01*
X-11319205Y-4349806D01*
X-11376410Y-4348495D01*
X-11387667Y-4347960D01*
X-11768642Y-4301602D01*
X-12135279Y-4216425D01*
X-12485623Y-4094091D01*
X-12817720Y-3936262D01*
X-13129615Y-3744600D01*
X-13419354Y-3520768D01*
X-13684983Y-3266428D01*
X-13924546Y-2983242D01*
X-14136089Y-2672872D01*
X-14317658Y-2336980D01*
X-14467299Y-1977230D01*
X-14571561Y-1640167D01*
X-14611979Y-1479947D01*
X-14643007Y-1339753D01*
X-14665822Y-1209481D01*
X-14681601Y-1079025D01*
X-14691519Y-938280D01*
X-14696756Y-777140D01*
X-14698486Y-585502D01*
X-14698495Y-574165D01*
X-13772535Y-574165D01*
X-13767926Y-762682D01*
X-13755993Y-935094D01*
X-13736634Y-1080059D01*
X-13730555Y-1111000D01*
X-13634915Y-1464092D01*
X-13503075Y-1800767D01*
X-13337179Y-2118013D01*
X-13139377Y-2412824D01*
X-12911813Y-2682188D01*
X-12656636Y-2923098D01*
X-12375992Y-3132544D01*
X-12219721Y-3228586D01*
X-11896203Y-3390042D01*
X-11558898Y-3513064D01*
X-11211698Y-3596881D01*
X-10858493Y-3640721D01*
X-10503174Y-3643815D01*
X-10244667Y-3619897D01*
X-9887311Y-3551897D01*
X-9550700Y-3447645D01*
X-9233015Y-3306234D01*
X-8932434Y-3126752D01*
X-8647139Y-2908292D01*
X-8444179Y-2720392D01*
X-8199238Y-2447882D01*
X-7991788Y-2156106D01*
X-7821216Y-1843940D01*
X-7713639Y-1576667D01*
X-5397500Y-1576667D01*
X5418667Y-1576667D01*
X5418667Y-642781D01*
X7588680Y-642781D01*
X7604766Y-885455D01*
X7636989Y-1104725D01*
X7637240Y-1105980D01*
X7727460Y-1453754D01*
X7854569Y-1785210D01*
X8016133Y-2097809D01*
X8209715Y-2389015D01*
X8432880Y-2656292D01*
X8683192Y-2897102D01*
X8958215Y-3108908D01*
X9255513Y-3289175D01*
X9572651Y-3435363D01*
X9907193Y-3544938D01*
X10001250Y-3568161D01*
X10254592Y-3612862D01*
X10529319Y-3637526D01*
X10809954Y-3641770D01*
X11081020Y-3625211D01*
X11266145Y-3599377D01*
X11613985Y-3515950D01*
X11945282Y-3394927D01*
X12257777Y-3238564D01*
X12549209Y-3049117D01*
X12817317Y-2828840D01*
X13059839Y-2579990D01*
X13274517Y-2304822D01*
X13459088Y-2005592D01*
X13611292Y-1684557D01*
X13728868Y-1343970D01*
X13792685Y-1078482D01*
X13812162Y-943972D01*
X13824974Y-779856D01*
X13831098Y-598335D01*
X13830513Y-411612D01*
X13823197Y-231889D01*
X13809127Y-71368D01*
X13794677Y26149D01*
X13709102Y375969D01*
X13586039Y710064D01*
X13427802Y1025775D01*
X13236702Y1320447D01*
X13015051Y1591423D01*
X12765159Y1836044D01*
X12489340Y2051655D01*
X12189905Y2235597D01*
X11869166Y2385215D01*
X11684000Y2452079D01*
X11498278Y2508521D01*
X11330815Y2549614D01*
X11168352Y2577346D01*
X10997635Y2593704D01*
X10805408Y2600677D01*
X10689167Y2601243D01*
X10532123Y2599530D01*
X10406388Y2594934D01*
X10300982Y2586572D01*
X10204928Y2573563D01*
X10107247Y2555024D01*
X10103095Y2554143D01*
X9746745Y2457542D01*
X9409992Y2324732D01*
X9094890Y2157783D01*
X8803491Y1958763D01*
X8537847Y1729740D01*
X8300013Y1472783D01*
X8092040Y1189960D01*
X7915981Y883341D01*
X7773889Y554993D01*
X7667816Y206985D01*
X7637240Y69314D01*
X7604917Y-149761D01*
X7588730Y-392338D01*
X7588680Y-642781D01*
X5418667Y-642781D01*
X5418667Y2000500D01*
X-5397500Y2000500D01*
X-5397500Y-1576667D01*
X-7713639Y-1576667D01*
X-7686912Y-1510264D01*
X-7588261Y-1153956D01*
X-7588123Y-1153333D01*
X-7570213Y-1044760D01*
X-7555999Y-905013D01*
X-7545811Y-745120D01*
X-7539978Y-576107D01*
X-7538830Y-409000D01*
X-7542696Y-254826D01*
X-7551905Y-124610D01*
X-7556296Y-87871D01*
X-7624477Y257711D01*
X-7731874Y591907D01*
X-7876161Y911479D01*
X-8055013Y1213190D01*
X-8266103Y1493802D01*
X-8507106Y1750079D01*
X-8775697Y1978783D01*
X-8807944Y2000500D01*
X-9069549Y2176678D01*
X-9256912Y2279226D01*
X-9409799Y2348242D01*
X-9589248Y2416679D01*
X-9779732Y2479390D01*
X-9965728Y2531228D01*
X-10117667Y2564554D01*
X-10267082Y2584581D01*
X-10444356Y2596971D01*
X-10636140Y2601715D01*
X-10829089Y2598804D01*
X-11009854Y2588229D01*
X-11165088Y2569981D01*
X-11192704Y2565263D01*
X-11548164Y2479635D01*
X-11885371Y2356892D01*
X-12202264Y2199033D01*
X-12496782Y2008057D01*
X-12766863Y1785965D01*
X-13010446Y1534756D01*
X-13225469Y1256429D01*
X-13409871Y952984D01*
X-13561591Y626420D01*
X-13678567Y278737D01*
X-13719722Y114137D01*
X-13743411Y-25390D01*
X-13760177Y-194178D01*
X-13769918Y-380883D01*
X-13772535Y-574165D01*
X-14698495Y-574165D01*
X-14698516Y-550083D01*
X-14697312Y-354226D01*
G37*
X-14697312Y-354226D02*
X-14692895Y-190409D01*
X-14684062Y-48386D01*
X-14669609Y82090D01*
X-14648332Y211265D01*
X-14619027Y349384D01*
X-14580489Y506694D01*
X-14569178Y550583D01*
X-14452315Y922096D01*
X-14300325Y1275184D01*
X-14115289Y1607227D01*
X-13899288Y1915608D01*
X-13654403Y2197708D01*
X-13382716Y2450909D01*
X-13086309Y2672593D01*
X-12767263Y2860140D01*
X-12710583Y2888607D01*
X-12454965Y3004951D01*
X-12212144Y3095285D01*
X-11969821Y3162844D01*
X-11715694Y3210861D01*
X-11437463Y3242568D01*
X-11334750Y3250237D01*
X-11288874Y3252089D01*
X-11208641Y3253833D01*
X-11093711Y3255468D01*
X-10943741Y3256996D01*
X-10758389Y3258416D01*
X-10537314Y3259730D01*
X-10280174Y3260937D01*
X-9986627Y3262038D01*
X-9656332Y3263033D01*
X-9288946Y3263923D01*
X-8884129Y3264709D01*
X-8441537Y3265390D01*
X-7960830Y3265967D01*
X-7441666Y3266442D01*
X-6883702Y3266813D01*
X-6286598Y3267082D01*
X-5650011Y3267249D01*
X-4973600Y3267314D01*
X-4257023Y3267278D01*
X-3499938Y3267141D01*
X-2702003Y3266905D01*
X-1862877Y3266568D01*
X-982217Y3266132D01*
X-59683Y3265598D01*
X264583Y3265393D01*
X11525250Y3258134D01*
X11758083Y3212474D01*
X12159917Y3115089D01*
X12534344Y2985633D01*
X12882269Y2823509D01*
X13204592Y2628122D01*
X13502218Y2398876D01*
X13776049Y2135175D01*
X14026987Y1836424D01*
X14187667Y1608917D01*
X14376575Y1284747D01*
X14533314Y936877D01*
X14656650Y570513D01*
X14745344Y190857D01*
X14798161Y-196886D01*
X14813863Y-587512D01*
X14794492Y-944715D01*
X14733855Y-1349706D01*
X14636297Y-1738425D01*
X14503182Y-2108831D01*
X14335873Y-2458881D01*
X14135735Y-2786533D01*
X13904131Y-3089747D01*
X13642424Y-3366480D01*
X13351979Y-3614690D01*
X13034159Y-3832335D01*
X12767362Y-3979953D01*
X12444872Y-4121913D01*
X12112008Y-4229331D01*
X11762166Y-4303945D01*
X11388741Y-4347491D01*
X11362266Y-4349371D01*
X11321591Y-4350695D01*
X11240110Y-4351967D01*
X11119353Y-4353189D01*
X10960847Y-4354359D01*
X10766121Y-4355478D01*
X10536703Y-4356546D01*
X10274121Y-4357564D01*
X9979904Y-4358531D01*
X9655579Y-4359447D01*
X9302676Y-4360312D01*
X8922722Y-4361127D01*
X8517245Y-4361892D01*
X8087774Y-4362607D01*
X7635838Y-4363271D01*
X7162964Y-4363885D01*
X6670680Y-4364450D01*
X6160515Y-4364964D01*
X5633998Y-4365429D01*
X5092656Y-4365844D01*
X4538017Y-4366209D01*
X3971611Y-4366525D01*
X3394965Y-4366792D01*
X2809607Y-4367009D01*
X2217066Y-4367177D01*
X1618870Y-4367296D01*
X1016547Y-4367366D01*
X411626Y-4367387D01*
X-194366Y-4367359D01*
X-799899Y-4367282D01*
X-1403447Y-4367157D01*
X-2003479Y-4366983D01*
X-2598469Y-4366761D01*
X-3186888Y-4366491D01*
X-3767207Y-4366172D01*
X-4337899Y-4365805D01*
X-4897435Y-4365390D01*
X-5444286Y-4364927D01*
X-5976926Y-4364416D01*
X-6493824Y-4363857D01*
X-6993454Y-4363250D01*
X-7474286Y-4362596D01*
X-7934793Y-4361895D01*
X-8373447Y-4361146D01*
X-8788718Y-4360350D01*
X-9179079Y-4359506D01*
X-9543002Y-4358616D01*
X-9878958Y-4357678D01*
X-10185419Y-4356693D01*
X-10460856Y-4355662D01*
X-10703742Y-4354584D01*
X-10912548Y-4353459D01*
X-11085746Y-4352288D01*
X-11221808Y-4351070D01*
X-11319205Y-4349806D01*
X-11376410Y-4348495D01*
X-11387667Y-4347960D01*
X-11768642Y-4301602D01*
X-12135279Y-4216425D01*
X-12485623Y-4094091D01*
X-12817720Y-3936262D01*
X-13129615Y-3744600D01*
X-13419354Y-3520768D01*
X-13684983Y-3266428D01*
X-13924546Y-2983242D01*
X-14136089Y-2672872D01*
X-14317658Y-2336980D01*
X-14467299Y-1977230D01*
X-14571561Y-1640167D01*
X-14611979Y-1479947D01*
X-14643007Y-1339753D01*
X-14665822Y-1209481D01*
X-14681601Y-1079025D01*
X-14691519Y-938280D01*
X-14696756Y-777140D01*
X-14698486Y-585502D01*
X-14698495Y-574165D01*
X-13772535Y-574165D01*
X-13767926Y-762682D01*
X-13755993Y-935094D01*
X-13736634Y-1080059D01*
X-13730555Y-1111000D01*
X-13634915Y-1464092D01*
X-13503075Y-1800767D01*
X-13337179Y-2118013D01*
X-13139377Y-2412824D01*
X-12911813Y-2682188D01*
X-12656636Y-2923098D01*
X-12375992Y-3132544D01*
X-12219721Y-3228586D01*
X-11896203Y-3390042D01*
X-11558898Y-3513064D01*
X-11211698Y-3596881D01*
X-10858493Y-3640721D01*
X-10503174Y-3643815D01*
X-10244667Y-3619897D01*
X-9887311Y-3551897D01*
X-9550700Y-3447645D01*
X-9233015Y-3306234D01*
X-8932434Y-3126752D01*
X-8647139Y-2908292D01*
X-8444179Y-2720392D01*
X-8199238Y-2447882D01*
X-7991788Y-2156106D01*
X-7821216Y-1843940D01*
X-7713639Y-1576667D01*
X-5397500Y-1576667D01*
X5418667Y-1576667D01*
X5418667Y-642781D01*
X7588680Y-642781D01*
X7604766Y-885455D01*
X7636989Y-1104725D01*
X7637240Y-1105980D01*
X7727460Y-1453754D01*
X7854569Y-1785210D01*
X8016133Y-2097809D01*
X8209715Y-2389015D01*
X8432880Y-2656292D01*
X8683192Y-2897102D01*
X8958215Y-3108908D01*
X9255513Y-3289175D01*
X9572651Y-3435363D01*
X9907193Y-3544938D01*
X10001250Y-3568161D01*
X10254592Y-3612862D01*
X10529319Y-3637526D01*
X10809954Y-3641770D01*
X11081020Y-3625211D01*
X11266145Y-3599377D01*
X11613985Y-3515950D01*
X11945282Y-3394927D01*
X12257777Y-3238564D01*
X12549209Y-3049117D01*
X12817317Y-2828840D01*
X13059839Y-2579990D01*
X13274517Y-2304822D01*
X13459088Y-2005592D01*
X13611292Y-1684557D01*
X13728868Y-1343970D01*
X13792685Y-1078482D01*
X13812162Y-943972D01*
X13824974Y-779856D01*
X13831098Y-598335D01*
X13830513Y-411612D01*
X13823197Y-231889D01*
X13809127Y-71368D01*
X13794677Y26149D01*
X13709102Y375969D01*
X13586039Y710064D01*
X13427802Y1025775D01*
X13236702Y1320447D01*
X13015051Y1591423D01*
X12765159Y1836044D01*
X12489340Y2051655D01*
X12189905Y2235597D01*
X11869166Y2385215D01*
X11684000Y2452079D01*
X11498278Y2508521D01*
X11330815Y2549614D01*
X11168352Y2577346D01*
X10997635Y2593704D01*
X10805408Y2600677D01*
X10689167Y2601243D01*
X10532123Y2599530D01*
X10406388Y2594934D01*
X10300982Y2586572D01*
X10204928Y2573563D01*
X10107247Y2555024D01*
X10103095Y2554143D01*
X9746745Y2457542D01*
X9409992Y2324732D01*
X9094890Y2157783D01*
X8803491Y1958763D01*
X8537847Y1729740D01*
X8300013Y1472783D01*
X8092040Y1189960D01*
X7915981Y883341D01*
X7773889Y554993D01*
X7667816Y206985D01*
X7637240Y69314D01*
X7604917Y-149761D01*
X7588730Y-392338D01*
X7588680Y-642781D01*
X5418667Y-642781D01*
X5418667Y2000500D01*
X-5397500Y2000500D01*
X-5397500Y-1576667D01*
X-7713639Y-1576667D01*
X-7686912Y-1510264D01*
X-7588261Y-1153956D01*
X-7588123Y-1153333D01*
X-7570213Y-1044760D01*
X-7555999Y-905013D01*
X-7545811Y-745120D01*
X-7539978Y-576107D01*
X-7538830Y-409000D01*
X-7542696Y-254826D01*
X-7551905Y-124610D01*
X-7556296Y-87871D01*
X-7624477Y257711D01*
X-7731874Y591907D01*
X-7876161Y911479D01*
X-8055013Y1213190D01*
X-8266103Y1493802D01*
X-8507106Y1750079D01*
X-8775697Y1978783D01*
X-8807944Y2000500D01*
X-9069549Y2176678D01*
X-9256912Y2279226D01*
X-9409799Y2348242D01*
X-9589248Y2416679D01*
X-9779732Y2479390D01*
X-9965728Y2531228D01*
X-10117667Y2564554D01*
X-10267082Y2584581D01*
X-10444356Y2596971D01*
X-10636140Y2601715D01*
X-10829089Y2598804D01*
X-11009854Y2588229D01*
X-11165088Y2569981D01*
X-11192704Y2565263D01*
X-11548164Y2479635D01*
X-11885371Y2356892D01*
X-12202264Y2199033D01*
X-12496782Y2008057D01*
X-12766863Y1785965D01*
X-13010446Y1534756D01*
X-13225469Y1256429D01*
X-13409871Y952984D01*
X-13561591Y626420D01*
X-13678567Y278737D01*
X-13719722Y114137D01*
X-13743411Y-25390D01*
X-13760177Y-194178D01*
X-13769918Y-380883D01*
X-13772535Y-574165D01*
X-14698495Y-574165D01*
X-14698516Y-550083D01*
X-14697312Y-354226D01*
G36*
X-10244987Y1480373D02*
G01*
X-10211361Y1470820D01*
X-10155499Y1446752D01*
X-10115469Y1412696D01*
X-10088674Y1361867D01*
X-10072518Y1287483D01*
X-10064406Y1182761D01*
X-10062043Y1080691D01*
X-10058833Y949013D01*
X-10051110Y851847D01*
X-10036906Y781451D01*
X-10014254Y730079D01*
X-9981186Y689987D01*
X-9957643Y669780D01*
X-9894685Y634331D01*
X-9822995Y623962D01*
X-9736412Y639528D01*
X-9628773Y681882D01*
X-9537486Y727984D01*
X-9420703Y788199D01*
X-9331912Y826995D01*
X-9263750Y846231D01*
X-9208853Y847770D01*
X-9159858Y833472D01*
X-9146173Y826874D01*
X-9078343Y775933D01*
X-9044555Y706527D01*
X-9038246Y641933D01*
X-9042290Y598037D01*
X-9056928Y552000D01*
X-9086069Y496680D01*
X-9133626Y424933D01*
X-9203508Y329615D01*
X-9224315Y302070D01*
X-9298341Y193271D01*
X-9339766Y102232D01*
X-9350471Y22158D01*
X-9332336Y-53750D01*
X-9326429Y-66921D01*
X-9284214Y-125042D01*
X-9216339Y-170806D01*
X-9117963Y-206319D01*
X-8984246Y-233691D01*
X-8923574Y-242341D01*
X-8789461Y-264288D01*
X-8692517Y-292361D01*
X-8627659Y-330036D01*
X-8589806Y-380785D01*
X-8573876Y-448083D01*
X-8572500Y-482337D01*
X-8579507Y-545043D01*
X-8604158Y-595871D01*
X-8651893Y-639129D01*
X-8728155Y-679123D01*
X-8838387Y-720160D01*
X-8896739Y-738935D01*
X-9031157Y-785181D01*
X-9129263Y-830075D01*
X-9196752Y-877512D01*
X-9239320Y-931392D01*
X-9260920Y-988167D01*
X-9265507Y-1055420D01*
X-9244071Y-1126313D01*
X-9193667Y-1206294D01*
X-9111349Y-1300812D01*
X-9068261Y-1344466D01*
X-8965984Y-1450630D01*
X-8896310Y-1537267D01*
X-8857426Y-1609498D01*
X-8847521Y-1672448D01*
X-8864781Y-1731238D01*
X-8907393Y-1790991D01*
X-8909436Y-1793291D01*
X-8956279Y-1838198D01*
X-9001982Y-1856711D01*
X-9062894Y-1858304D01*
X-9126081Y-1848858D01*
X-9212355Y-1827432D01*
X-9305659Y-1798165D01*
X-9329818Y-1789512D01*
X-9458903Y-1747263D01*
X-9559599Y-1727912D01*
X-9639007Y-1731280D01*
X-9704229Y-1757187D01*
X-9734643Y-1779295D01*
X-9791129Y-1842769D01*
X-9822106Y-1920670D01*
X-9829013Y-2020220D01*
X-9813291Y-2148639D01*
X-9810884Y-2161497D01*
X-9786580Y-2312405D01*
X-9778739Y-2428389D01*
X-9787526Y-2513591D01*
X-9813102Y-2572156D01*
X-9827643Y-2588651D01*
X-9906773Y-2637256D01*
X-9994870Y-2648763D01*
X-10070711Y-2626807D01*
X-10111616Y-2594729D01*
X-10166322Y-2537211D01*
X-10225610Y-2464341D01*
X-10251521Y-2428956D01*
X-10340624Y-2309093D01*
X-10415921Y-2223739D01*
X-10482318Y-2169429D01*
X-10544719Y-2142698D01*
X-10608028Y-2140080D01*
X-10648320Y-2148593D01*
X-10701272Y-2168524D01*
X-10746092Y-2199033D01*
X-10788531Y-2246899D01*
X-10834340Y-2318902D01*
X-10889269Y-2421821D01*
X-10902795Y-2448581D01*
X-10949876Y-2537816D01*
X-10995486Y-2616460D01*
X-11033487Y-2674323D01*
X-11052577Y-2697289D01*
X-11114900Y-2730353D01*
X-11194878Y-2741127D01*
X-11273902Y-2729162D01*
X-11322867Y-2703792D01*
X-11367760Y-2641030D01*
X-11393289Y-2542073D01*
X-11399135Y-2408534D01*
X-11395344Y-2338667D01*
X-11392952Y-2191987D01*
X-11412483Y-2077767D01*
X-11455073Y-1991588D01*
X-11495524Y-1948628D01*
X-11562051Y-1907412D01*
X-11636178Y-1893293D01*
X-11724250Y-1906887D01*
X-11832612Y-1948806D01*
X-11912094Y-1988928D01*
X-12040151Y-2054004D01*
X-12140286Y-2094918D01*
X-12218849Y-2112357D01*
X-12282189Y-2107009D01*
X-12336657Y-2079560D01*
X-12380468Y-2039639D01*
X-12420189Y-1968170D01*
X-12421625Y-1882461D01*
X-12385074Y-1785686D01*
X-12351436Y-1732436D01*
X-12267166Y-1613936D01*
X-12204612Y-1524069D01*
X-12160739Y-1457127D01*
X-12132515Y-1407396D01*
X-12116906Y-1369167D01*
X-12110879Y-1336729D01*
X-12111401Y-1304371D01*
X-12113405Y-1284307D01*
X-12129647Y-1207808D01*
X-12162664Y-1148762D01*
X-12217812Y-1103842D01*
X-12300446Y-1069724D01*
X-12415923Y-1043080D01*
X-12529979Y-1025647D01*
X-12665096Y-1003862D01*
X-12763150Y-977346D01*
X-12829396Y-942558D01*
X-12869087Y-895959D01*
X-12887478Y-834007D01*
X-12890500Y-782680D01*
X-12870593Y-698752D01*
X-12811369Y-629204D01*
X-12713576Y-574742D01*
X-12646205Y-552190D01*
X-12512528Y-512302D01*
X-12412533Y-475777D01*
X-12338145Y-438993D01*
X-12281292Y-398329D01*
X-12260792Y-379312D01*
X-12208164Y-307012D01*
X-12191994Y-229142D01*
X-12212987Y-143550D01*
X-12271849Y-48085D01*
X-12369284Y59405D01*
X-12420246Y107180D01*
X-12518357Y203445D01*
X-12581186Y285348D01*
X-12610918Y358231D01*
X-12609740Y427437D01*
X-12580085Y497889D01*
X-12520290Y563062D01*
X-12441588Y599144D01*
X-12403025Y603500D01*
X-12366836Y596782D01*
X-12301067Y578620D01*
X-12215935Y552000D01*
X-12144729Y528004D01*
X-12012619Y486378D01*
X-11910245Y465332D01*
X-11830326Y464907D01*
X-11765583Y485138D01*
X-11708737Y526066D01*
X-11704227Y530318D01*
X-11658352Y590057D01*
X-11634254Y664747D01*
X-11630912Y761717D01*
X-11647311Y888296D01*
X-11651435Y910417D01*
X-11674143Y1042624D01*
X-11683783Y1141928D01*
X-11679820Y1215860D01*
X-11661722Y1271951D01*
X-11628958Y1317733D01*
X-11622128Y1324795D01*
X-11546313Y1374630D01*
X-11462798Y1386093D01*
X-11381111Y1358483D01*
X-11360299Y1343999D01*
X-11324188Y1307837D01*
X-11273208Y1246972D01*
X-11215960Y1171931D01*
X-11189448Y1134920D01*
X-11112834Y1030280D01*
X-11050094Y957549D01*
X-10994726Y911527D01*
X-10940231Y887015D01*
X-10880109Y878813D01*
X-10869083Y878667D01*
X-10806337Y884673D01*
X-10752576Y906157D01*
X-10702581Y948319D01*
X-10651133Y1016358D01*
X-10593011Y1115474D01*
X-10550962Y1195543D01*
X-10497371Y1297412D01*
X-10455824Y1367922D01*
X-10421058Y1414346D01*
X-10387809Y1443958D01*
X-10359515Y1460076D01*
X-10298809Y1482158D01*
X-10244987Y1480373D01*
G37*
X-10244987Y1480373D02*
X-10211361Y1470820D01*
X-10155499Y1446752D01*
X-10115469Y1412696D01*
X-10088674Y1361867D01*
X-10072518Y1287483D01*
X-10064406Y1182761D01*
X-10062043Y1080691D01*
X-10058833Y949013D01*
X-10051110Y851847D01*
X-10036906Y781451D01*
X-10014254Y730079D01*
X-9981186Y689987D01*
X-9957643Y669780D01*
X-9894685Y634331D01*
X-9822995Y623962D01*
X-9736412Y639528D01*
X-9628773Y681882D01*
X-9537486Y727984D01*
X-9420703Y788199D01*
X-9331912Y826995D01*
X-9263750Y846231D01*
X-9208853Y847770D01*
X-9159858Y833472D01*
X-9146173Y826874D01*
X-9078343Y775933D01*
X-9044555Y706527D01*
X-9038246Y641933D01*
X-9042290Y598037D01*
X-9056928Y552000D01*
X-9086069Y496680D01*
X-9133626Y424933D01*
X-9203508Y329615D01*
X-9224315Y302070D01*
X-9298341Y193271D01*
X-9339766Y102232D01*
X-9350471Y22158D01*
X-9332336Y-53750D01*
X-9326429Y-66921D01*
X-9284214Y-125042D01*
X-9216339Y-170806D01*
X-9117963Y-206319D01*
X-8984246Y-233691D01*
X-8923574Y-242341D01*
X-8789461Y-264288D01*
X-8692517Y-292361D01*
X-8627659Y-330036D01*
X-8589806Y-380785D01*
X-8573876Y-448083D01*
X-8572500Y-482337D01*
X-8579507Y-545043D01*
X-8604158Y-595871D01*
X-8651893Y-639129D01*
X-8728155Y-679123D01*
X-8838387Y-720160D01*
X-8896739Y-738935D01*
X-9031157Y-785181D01*
X-9129263Y-830075D01*
X-9196752Y-877512D01*
X-9239320Y-931392D01*
X-9260920Y-988167D01*
X-9265507Y-1055420D01*
X-9244071Y-1126313D01*
X-9193667Y-1206294D01*
X-9111349Y-1300812D01*
X-9068261Y-1344466D01*
X-8965984Y-1450630D01*
X-8896310Y-1537267D01*
X-8857426Y-1609498D01*
X-8847521Y-1672448D01*
X-8864781Y-1731238D01*
X-8907393Y-1790991D01*
X-8909436Y-1793291D01*
X-8956279Y-1838198D01*
X-9001982Y-1856711D01*
X-9062894Y-1858304D01*
X-9126081Y-1848858D01*
X-9212355Y-1827432D01*
X-9305659Y-1798165D01*
X-9329818Y-1789512D01*
X-9458903Y-1747263D01*
X-9559599Y-1727912D01*
X-9639007Y-1731280D01*
X-9704229Y-1757187D01*
X-9734643Y-1779295D01*
X-9791129Y-1842769D01*
X-9822106Y-1920670D01*
X-9829013Y-2020220D01*
X-9813291Y-2148639D01*
X-9810884Y-2161497D01*
X-9786580Y-2312405D01*
X-9778739Y-2428389D01*
X-9787526Y-2513591D01*
X-9813102Y-2572156D01*
X-9827643Y-2588651D01*
X-9906773Y-2637256D01*
X-9994870Y-2648763D01*
X-10070711Y-2626807D01*
X-10111616Y-2594729D01*
X-10166322Y-2537211D01*
X-10225610Y-2464341D01*
X-10251521Y-2428956D01*
X-10340624Y-2309093D01*
X-10415921Y-2223739D01*
X-10482318Y-2169429D01*
X-10544719Y-2142698D01*
X-10608028Y-2140080D01*
X-10648320Y-2148593D01*
X-10701272Y-2168524D01*
X-10746092Y-2199033D01*
X-10788531Y-2246899D01*
X-10834340Y-2318902D01*
X-10889269Y-2421821D01*
X-10902795Y-2448581D01*
X-10949876Y-2537816D01*
X-10995486Y-2616460D01*
X-11033487Y-2674323D01*
X-11052577Y-2697289D01*
X-11114900Y-2730353D01*
X-11194878Y-2741127D01*
X-11273902Y-2729162D01*
X-11322867Y-2703792D01*
X-11367760Y-2641030D01*
X-11393289Y-2542073D01*
X-11399135Y-2408534D01*
X-11395344Y-2338667D01*
X-11392952Y-2191987D01*
X-11412483Y-2077767D01*
X-11455073Y-1991588D01*
X-11495524Y-1948628D01*
X-11562051Y-1907412D01*
X-11636178Y-1893293D01*
X-11724250Y-1906887D01*
X-11832612Y-1948806D01*
X-11912094Y-1988928D01*
X-12040151Y-2054004D01*
X-12140286Y-2094918D01*
X-12218849Y-2112357D01*
X-12282189Y-2107009D01*
X-12336657Y-2079560D01*
X-12380468Y-2039639D01*
X-12420189Y-1968170D01*
X-12421625Y-1882461D01*
X-12385074Y-1785686D01*
X-12351436Y-1732436D01*
X-12267166Y-1613936D01*
X-12204612Y-1524069D01*
X-12160739Y-1457127D01*
X-12132515Y-1407396D01*
X-12116906Y-1369167D01*
X-12110879Y-1336729D01*
X-12111401Y-1304371D01*
X-12113405Y-1284307D01*
X-12129647Y-1207808D01*
X-12162664Y-1148762D01*
X-12217812Y-1103842D01*
X-12300446Y-1069724D01*
X-12415923Y-1043080D01*
X-12529979Y-1025647D01*
X-12665096Y-1003862D01*
X-12763150Y-977346D01*
X-12829396Y-942558D01*
X-12869087Y-895959D01*
X-12887478Y-834007D01*
X-12890500Y-782680D01*
X-12870593Y-698752D01*
X-12811369Y-629204D01*
X-12713576Y-574742D01*
X-12646205Y-552190D01*
X-12512528Y-512302D01*
X-12412533Y-475777D01*
X-12338145Y-438993D01*
X-12281292Y-398329D01*
X-12260792Y-379312D01*
X-12208164Y-307012D01*
X-12191994Y-229142D01*
X-12212987Y-143550D01*
X-12271849Y-48085D01*
X-12369284Y59405D01*
X-12420246Y107180D01*
X-12518357Y203445D01*
X-12581186Y285348D01*
X-12610918Y358231D01*
X-12609740Y427437D01*
X-12580085Y497889D01*
X-12520290Y563062D01*
X-12441588Y599144D01*
X-12403025Y603500D01*
X-12366836Y596782D01*
X-12301067Y578620D01*
X-12215935Y552000D01*
X-12144729Y528004D01*
X-12012619Y486378D01*
X-11910245Y465332D01*
X-11830326Y464907D01*
X-11765583Y485138D01*
X-11708737Y526066D01*
X-11704227Y530318D01*
X-11658352Y590057D01*
X-11634254Y664747D01*
X-11630912Y761717D01*
X-11647311Y888296D01*
X-11651435Y910417D01*
X-11674143Y1042624D01*
X-11683783Y1141928D01*
X-11679820Y1215860D01*
X-11661722Y1271951D01*
X-11628958Y1317733D01*
X-11622128Y1324795D01*
X-11546313Y1374630D01*
X-11462798Y1386093D01*
X-11381111Y1358483D01*
X-11360299Y1343999D01*
X-11324188Y1307837D01*
X-11273208Y1246972D01*
X-11215960Y1171931D01*
X-11189448Y1134920D01*
X-11112834Y1030280D01*
X-11050094Y957549D01*
X-10994726Y911527D01*
X-10940231Y887015D01*
X-10880109Y878813D01*
X-10869083Y878667D01*
X-10806337Y884673D01*
X-10752576Y906157D01*
X-10702581Y948319D01*
X-10651133Y1016358D01*
X-10593011Y1115474D01*
X-10550962Y1195543D01*
X-10497371Y1297412D01*
X-10455824Y1367922D01*
X-10421058Y1414346D01*
X-10387809Y1443958D01*
X-10359515Y1460076D01*
X-10298809Y1482158D01*
X-10244987Y1480373D01*
%TD*%
D11*
%TO.C,X1*%
X-2480000Y1250000D03*
D12*
X-2480000Y-1290000D03*
D11*
X60000Y1250000D03*
X60000Y-1290000D03*
D13*
X2600000Y1250000D03*
X2600000Y-1290000D03*
%TD*%
M02*
