%TF.GenerationSoftware,KiCad,Pcbnew,(6.0.4)*%
%TF.CreationDate,2022-04-09T23:38:07+02:00*%
%TF.ProjectId,cassette,63617373-6574-4746-952e-6b696361645f,rev?*%
%TF.SameCoordinates,Original*%
%TF.FileFunction,Legend,Bot*%
%TF.FilePolarity,Positive*%
%FSLAX46Y46*%
G04 Gerber Fmt 4.6, Leading zero omitted, Abs format (unit mm)*
G04 Created by KiCad (PCBNEW (6.0.4)) date 2022-04-09 23:38:07*
%MOMM*%
%LPD*%
G01*
G04 APERTURE LIST*
%ADD10C,0.150000*%
%ADD11C,0.700000*%
%ADD12C,0.010000*%
%ADD13C,0.120000*%
G04 APERTURE END LIST*
D10*
%TO.C,X1*%
X-1540000Y3204714D02*
X-1790000Y2454714D01*
X-2040000Y3204714D01*
X-2718571Y2526142D02*
X-2682857Y2490428D01*
X-2575714Y2454714D01*
X-2504285Y2454714D01*
X-2397142Y2490428D01*
X-2325714Y2561857D01*
X-2290000Y2633285D01*
X-2254285Y2776142D01*
X-2254285Y2883285D01*
X-2290000Y3026142D01*
X-2325714Y3097571D01*
X-2397142Y3169000D01*
X-2504285Y3204714D01*
X-2575714Y3204714D01*
X-2682857Y3169000D01*
X-2718571Y3133285D01*
X-3468571Y2526142D02*
X-3432857Y2490428D01*
X-3325714Y2454714D01*
X-3254285Y2454714D01*
X-3147142Y2490428D01*
X-3075714Y2561857D01*
X-3040000Y2633285D01*
X-3004285Y2776142D01*
X-3004285Y2883285D01*
X-3040000Y3026142D01*
X-3075714Y3097571D01*
X-3147142Y3169000D01*
X-3254285Y3204714D01*
X-3325714Y3204714D01*
X-3432857Y3169000D01*
X-3468571Y3133285D01*
X5044142Y-2673000D02*
X5115571Y-2637285D01*
X5222714Y-2637285D01*
X5329857Y-2673000D01*
X5401285Y-2744428D01*
X5437000Y-2815857D01*
X5472714Y-2958714D01*
X5472714Y-3065857D01*
X5437000Y-3208714D01*
X5401285Y-3280142D01*
X5329857Y-3351571D01*
X5222714Y-3387285D01*
X5151285Y-3387285D01*
X5044142Y-3351571D01*
X5008428Y-3315857D01*
X5008428Y-3065857D01*
X5151285Y-3065857D01*
X4687000Y-3387285D02*
X4687000Y-2637285D01*
X4401285Y-2637285D01*
X4329857Y-2673000D01*
X4294142Y-2708714D01*
X4258428Y-2780142D01*
X4258428Y-2887285D01*
X4294142Y-2958714D01*
X4329857Y-2994428D01*
X4401285Y-3030142D01*
X4687000Y-3030142D01*
X3937000Y-3387285D02*
X3937000Y-2637285D01*
X3437000Y-2637285D02*
X3294142Y-2637285D01*
X3222714Y-2673000D01*
X3151285Y-2744428D01*
X3115571Y-2887285D01*
X3115571Y-3137285D01*
X3151285Y-3280142D01*
X3222714Y-3351571D01*
X3294142Y-3387285D01*
X3437000Y-3387285D01*
X3508428Y-3351571D01*
X3579857Y-3280142D01*
X3615571Y-3137285D01*
X3615571Y-2887285D01*
X3579857Y-2744428D01*
X3508428Y-2673000D01*
X3437000Y-2637285D01*
X2829857Y-2708714D02*
X2794142Y-2673000D01*
X2722714Y-2637285D01*
X2544142Y-2637285D01*
X2472714Y-2673000D01*
X2437000Y-2708714D01*
X2401285Y-2780142D01*
X2401285Y-2851571D01*
X2437000Y-2958714D01*
X2865571Y-3387285D01*
X2401285Y-3387285D01*
X-1968571Y-2673000D02*
X-1897142Y-2637285D01*
X-1790000Y-2637285D01*
X-1682857Y-2673000D01*
X-1611428Y-2744428D01*
X-1575714Y-2815857D01*
X-1540000Y-2958714D01*
X-1540000Y-3065857D01*
X-1575714Y-3208714D01*
X-1611428Y-3280142D01*
X-1682857Y-3351571D01*
X-1790000Y-3387285D01*
X-1861428Y-3387285D01*
X-1968571Y-3351571D01*
X-2004285Y-3315857D01*
X-2004285Y-3065857D01*
X-1861428Y-3065857D01*
X-2325714Y-3387285D02*
X-2325714Y-2637285D01*
X-2754285Y-3387285D01*
X-2754285Y-2637285D01*
X-3111428Y-3387285D02*
X-3111428Y-2637285D01*
X-3290000Y-2637285D01*
X-3397142Y-2673000D01*
X-3468571Y-2744428D01*
X-3504285Y-2815857D01*
X-3540000Y-2958714D01*
X-3540000Y-3065857D01*
X-3504285Y-3208714D01*
X-3468571Y-3280142D01*
X-3397142Y-3351571D01*
X-3290000Y-3387285D01*
X-3111428Y-3387285D01*
X5044142Y3169000D02*
X5115571Y3204714D01*
X5222714Y3204714D01*
X5329857Y3169000D01*
X5401285Y3097571D01*
X5437000Y3026142D01*
X5472714Y2883285D01*
X5472714Y2776142D01*
X5437000Y2633285D01*
X5401285Y2561857D01*
X5329857Y2490428D01*
X5222714Y2454714D01*
X5151285Y2454714D01*
X5044142Y2490428D01*
X5008428Y2526142D01*
X5008428Y2776142D01*
X5151285Y2776142D01*
X4687000Y2454714D02*
X4687000Y3204714D01*
X4401285Y3204714D01*
X4329857Y3169000D01*
X4294142Y3133285D01*
X4258428Y3061857D01*
X4258428Y2954714D01*
X4294142Y2883285D01*
X4329857Y2847571D01*
X4401285Y2811857D01*
X4687000Y2811857D01*
X3937000Y2454714D02*
X3937000Y3204714D01*
X3437000Y3204714D02*
X3294142Y3204714D01*
X3222714Y3169000D01*
X3151285Y3097571D01*
X3115571Y2954714D01*
X3115571Y2704714D01*
X3151285Y2561857D01*
X3222714Y2490428D01*
X3294142Y2454714D01*
X3437000Y2454714D01*
X3508428Y2490428D01*
X3579857Y2561857D01*
X3615571Y2704714D01*
X3615571Y2954714D01*
X3579857Y3097571D01*
X3508428Y3169000D01*
X3437000Y3204714D01*
X2401285Y2454714D02*
X2829857Y2454714D01*
X2615571Y2454714D02*
X2615571Y3204714D01*
X2687000Y3097571D01*
X2758428Y3026142D01*
X2829857Y2990428D01*
X892857Y-3351571D02*
X785714Y-3387285D01*
X607142Y-3387285D01*
X535714Y-3351571D01*
X500000Y-3315857D01*
X464285Y-3244428D01*
X464285Y-3173000D01*
X500000Y-3101571D01*
X535714Y-3065857D01*
X607142Y-3030142D01*
X750000Y-2994428D01*
X821428Y-2958714D01*
X857142Y-2923000D01*
X892857Y-2851571D01*
X892857Y-2780142D01*
X857142Y-2708714D01*
X821428Y-2673000D01*
X750000Y-2637285D01*
X571428Y-2637285D01*
X464285Y-2673000D01*
X-285714Y-3315857D02*
X-249999Y-3351571D01*
X-142857Y-3387285D01*
X-71428Y-3387285D01*
X35714Y-3351571D01*
X107142Y-3280142D01*
X142857Y-3208714D01*
X178571Y-3065857D01*
X178571Y-2958714D01*
X142857Y-2815857D01*
X107142Y-2744428D01*
X35714Y-2673000D01*
X-71428Y-2637285D01*
X-142857Y-2637285D01*
X-249999Y-2673000D01*
X-285714Y-2708714D01*
X-964285Y-3387285D02*
X-607142Y-3387285D01*
X-607142Y-2637285D01*
X910714Y2490428D02*
X803571Y2454714D01*
X624999Y2454714D01*
X553571Y2490428D01*
X517857Y2526142D01*
X482142Y2597571D01*
X482142Y2669000D01*
X517857Y2740428D01*
X553571Y2776142D01*
X624999Y2811857D01*
X767857Y2847571D01*
X839285Y2883285D01*
X874999Y2919000D01*
X910714Y2990428D01*
X910714Y3061857D01*
X874999Y3133285D01*
X839285Y3169000D01*
X767857Y3204714D01*
X589285Y3204714D01*
X482142Y3169000D01*
X160714Y2454714D02*
X160714Y3204714D01*
X-17857Y3204714D01*
X-124999Y3169000D01*
X-196428Y3097571D01*
X-232142Y3026142D01*
X-267857Y2883285D01*
X-267857Y2776142D01*
X-232142Y2633285D01*
X-196428Y2561857D01*
X-124999Y2490428D01*
X-17857Y2454714D01*
X160714Y2454714D01*
X-553571Y2669000D02*
X-910714Y2669000D01*
X-482142Y2454714D02*
X-732142Y3204714D01*
X-982142Y2454714D01*
%TO.C,R2*%
X-12914333Y-10579380D02*
X-12581000Y-10103190D01*
X-12342904Y-10579380D02*
X-12342904Y-9579380D01*
X-12723857Y-9579380D01*
X-12819095Y-9627000D01*
X-12866714Y-9674619D01*
X-12914333Y-9769857D01*
X-12914333Y-9912714D01*
X-12866714Y-10007952D01*
X-12819095Y-10055571D01*
X-12723857Y-10103190D01*
X-12342904Y-10103190D01*
X-13295285Y-9674619D02*
X-13342904Y-9627000D01*
X-13438142Y-9579380D01*
X-13676238Y-9579380D01*
X-13771476Y-9627000D01*
X-13819095Y-9674619D01*
X-13866714Y-9769857D01*
X-13866714Y-9865095D01*
X-13819095Y-10007952D01*
X-13247666Y-10579380D01*
X-13866714Y-10579380D01*
%TO.C,D1*%
X13819095Y-12452380D02*
X13819095Y-11452380D01*
X13581000Y-11452380D01*
X13438142Y-11500000D01*
X13342904Y-11595238D01*
X13295285Y-11690476D01*
X13247666Y-11880952D01*
X13247666Y-12023809D01*
X13295285Y-12214285D01*
X13342904Y-12309523D01*
X13438142Y-12404761D01*
X13581000Y-12452380D01*
X13819095Y-12452380D01*
X12295285Y-12452380D02*
X12866714Y-12452380D01*
X12581000Y-12452380D02*
X12581000Y-11452380D01*
X12676238Y-11595238D01*
X12771476Y-11690476D01*
X12866714Y-11738095D01*
%TO.C,R1*%
X13247666Y-10517380D02*
X13581000Y-10041190D01*
X13819095Y-10517380D02*
X13819095Y-9517380D01*
X13438142Y-9517380D01*
X13342904Y-9565000D01*
X13295285Y-9612619D01*
X13247666Y-9707857D01*
X13247666Y-9850714D01*
X13295285Y-9945952D01*
X13342904Y-9993571D01*
X13438142Y-10041190D01*
X13819095Y-10041190D01*
X12295285Y-10517380D02*
X12866714Y-10517380D01*
X12581000Y-10517380D02*
X12581000Y-9517380D01*
X12676238Y-9660238D01*
X12771476Y-9755476D01*
X12866714Y-9803095D01*
%TO.C,D2*%
X-12342904Y-12422380D02*
X-12342904Y-11422380D01*
X-12581000Y-11422380D01*
X-12723857Y-11470000D01*
X-12819095Y-11565238D01*
X-12866714Y-11660476D01*
X-12914333Y-11850952D01*
X-12914333Y-11993809D01*
X-12866714Y-12184285D01*
X-12819095Y-12279523D01*
X-12723857Y-12374761D01*
X-12581000Y-12422380D01*
X-12342904Y-12422380D01*
X-13295285Y-11517619D02*
X-13342904Y-11470000D01*
X-13438142Y-11422380D01*
X-13676238Y-11422380D01*
X-13771476Y-11470000D01*
X-13819095Y-11517619D01*
X-13866714Y-11612857D01*
X-13866714Y-11708095D01*
X-13819095Y-11850952D01*
X-13247666Y-12422380D01*
X-13866714Y-12422380D01*
%TO.C,U1*%
X-10287095Y547619D02*
X-10287095Y-261904D01*
X-10334714Y-357142D01*
X-10382333Y-404761D01*
X-10477571Y-452380D01*
X-10668047Y-452380D01*
X-10763285Y-404761D01*
X-10810904Y-357142D01*
X-10858523Y-261904D01*
X-10858523Y547619D01*
X-11858523Y-452380D02*
X-11287095Y-452380D01*
X-11572809Y-452380D02*
X-11572809Y547619D01*
X-11477571Y404761D01*
X-11382333Y309523D01*
X-11287095Y261904D01*
D11*
%TO.C,X1*%
X-7366000Y-4318000D02*
X7366000Y-4318000D01*
X-2540000Y4064000D02*
X-7366000Y4064000D01*
X7366000Y-4318000D02*
X7366000Y4064000D01*
X7279640Y4114800D02*
X2540000Y4114800D01*
X-7366000Y4064000D02*
X-7366000Y-4318000D01*
%TO.C,N2*%
G36*
X-5969000Y8153333D02*
G01*
X-6371167Y8153333D01*
X-6371167Y11540000D01*
X-5969000Y11540000D01*
X-5969000Y8153333D01*
G37*
D12*
X-5969000Y8153333D02*
X-6371167Y8153333D01*
X-6371167Y11540000D01*
X-5969000Y11540000D01*
X-5969000Y8153333D01*
G36*
X-71501Y7360358D02*
G01*
X17419Y7337446D01*
X90256Y7296312D01*
X176991Y7218974D01*
X249403Y7124809D01*
X295265Y7027461D01*
X306064Y6989024D01*
X334819Y6819808D01*
X333336Y6657701D01*
X303275Y6508523D01*
X246299Y6378094D01*
X164066Y6272232D01*
X58238Y6196759D01*
X37841Y6186908D01*
X-33808Y6159663D01*
X-109464Y6146147D01*
X-208075Y6142500D01*
X-297437Y6145780D01*
X-384056Y6154599D01*
X-447336Y6167017D01*
X-485266Y6179269D01*
X-515690Y6198120D01*
X-527306Y6231408D01*
X-529167Y6293078D01*
X-529167Y6394622D01*
X-439209Y6362766D01*
X-406073Y6352858D01*
X-319588Y6335821D01*
X-232834Y6327601D01*
X-193221Y6327853D01*
X-82926Y6348359D01*
X1138Y6399897D01*
X59961Y6483707D01*
X94530Y6601032D01*
X105833Y6753113D01*
X101594Y6863691D01*
X83526Y6967944D01*
X48655Y7047929D01*
X-5810Y7112643D01*
X-69471Y7154435D01*
X-175333Y7182016D01*
X-303579Y7179380D01*
X-449775Y7146193D01*
X-471531Y7143993D01*
X-491706Y7159509D01*
X-511954Y7201287D01*
X-537255Y7276759D01*
X-537942Y7279024D01*
X-539489Y7307791D01*
X-517107Y7327884D01*
X-461968Y7347608D01*
X-414885Y7358817D01*
X-304499Y7371401D01*
X-184422Y7371796D01*
X-71501Y7360358D01*
G37*
X-71501Y7360358D02*
X17419Y7337446D01*
X90256Y7296312D01*
X176991Y7218974D01*
X249403Y7124809D01*
X295265Y7027461D01*
X306064Y6989024D01*
X334819Y6819808D01*
X333336Y6657701D01*
X303275Y6508523D01*
X246299Y6378094D01*
X164066Y6272232D01*
X58238Y6196759D01*
X37841Y6186908D01*
X-33808Y6159663D01*
X-109464Y6146147D01*
X-208075Y6142500D01*
X-297437Y6145780D01*
X-384056Y6154599D01*
X-447336Y6167017D01*
X-485266Y6179269D01*
X-515690Y6198120D01*
X-527306Y6231408D01*
X-529167Y6293078D01*
X-529167Y6394622D01*
X-439209Y6362766D01*
X-406073Y6352858D01*
X-319588Y6335821D01*
X-232834Y6327601D01*
X-193221Y6327853D01*
X-82926Y6348359D01*
X1138Y6399897D01*
X59961Y6483707D01*
X94530Y6601032D01*
X105833Y6753113D01*
X101594Y6863691D01*
X83526Y6967944D01*
X48655Y7047929D01*
X-5810Y7112643D01*
X-69471Y7154435D01*
X-175333Y7182016D01*
X-303579Y7179380D01*
X-449775Y7146193D01*
X-471531Y7143993D01*
X-491706Y7159509D01*
X-511954Y7201287D01*
X-537255Y7276759D01*
X-537942Y7279024D01*
X-539489Y7307791D01*
X-517107Y7327884D01*
X-461968Y7347608D01*
X-414885Y7358817D01*
X-304499Y7371401D01*
X-184422Y7371796D01*
X-71501Y7360358D01*
G36*
X-3168687Y9273919D02*
G01*
X-3185805Y9062126D01*
X-3223421Y8879029D01*
X-3283927Y8717517D01*
X-3369716Y8570479D01*
X-3483181Y8430804D01*
X-3487341Y8426338D01*
X-3632997Y8299714D01*
X-3802986Y8205774D01*
X-4000500Y8142742D01*
X-4023413Y8137984D01*
X-4163516Y8122195D01*
X-4320913Y8121947D01*
X-4477290Y8136565D01*
X-4614334Y8165373D01*
X-4686843Y8189639D01*
X-4865993Y8278953D01*
X-5020903Y8402051D01*
X-5150104Y8557294D01*
X-5252124Y8743046D01*
X-5325493Y8957667D01*
X-5341231Y9037848D01*
X-5355557Y9174127D01*
X-5361314Y9327315D01*
X-5360337Y9381000D01*
X-4940040Y9381000D01*
X-4939618Y9325218D01*
X-4934752Y9212875D01*
X-4925620Y9108974D01*
X-4913503Y9030445D01*
X-4868784Y8884303D01*
X-4798059Y8744557D01*
X-4708532Y8629087D01*
X-4604868Y8543822D01*
X-4491735Y8494690D01*
X-4378374Y8472245D01*
X-4201225Y8464036D01*
X-4042018Y8492373D01*
X-3902558Y8556843D01*
X-3784655Y8657031D01*
X-3711269Y8761568D01*
X-3649195Y8905276D01*
X-3607137Y9070560D01*
X-3585137Y9249139D01*
X-3583238Y9432736D01*
X-3601482Y9613072D01*
X-3639912Y9781867D01*
X-3698570Y9930842D01*
X-3777499Y10051719D01*
X-3856169Y10126794D01*
X-3966366Y10189279D01*
X-4100660Y10225174D01*
X-4265084Y10236770D01*
X-4326770Y10236136D01*
X-4418077Y10230253D01*
X-4488212Y10216463D01*
X-4550834Y10192658D01*
X-4592919Y10171085D01*
X-4716647Y10077728D01*
X-4813183Y9952123D01*
X-4882568Y9794189D01*
X-4924840Y9603842D01*
X-4940040Y9381000D01*
X-5360337Y9381000D01*
X-5358477Y9483176D01*
X-5347020Y9627477D01*
X-5326918Y9745983D01*
X-5279009Y9899374D01*
X-5192079Y10080335D01*
X-5080370Y10239524D01*
X-4948539Y10370557D01*
X-4801240Y10467046D01*
X-4759656Y10487103D01*
X-4606179Y10544929D01*
X-4446320Y10577130D01*
X-4264239Y10587249D01*
X-4207486Y10586457D01*
X-4002131Y10565828D01*
X-3821797Y10515605D01*
X-3660320Y10433580D01*
X-3511533Y10317544D01*
X-3469768Y10276984D01*
X-3355530Y10138625D01*
X-3269965Y9983812D01*
X-3211246Y9807521D01*
X-3177546Y9604731D01*
X-3169833Y9432736D01*
X-3167039Y9370417D01*
X-3168687Y9273919D01*
G37*
X-3168687Y9273919D02*
X-3185805Y9062126D01*
X-3223421Y8879029D01*
X-3283927Y8717517D01*
X-3369716Y8570479D01*
X-3483181Y8430804D01*
X-3487341Y8426338D01*
X-3632997Y8299714D01*
X-3802986Y8205774D01*
X-4000500Y8142742D01*
X-4023413Y8137984D01*
X-4163516Y8122195D01*
X-4320913Y8121947D01*
X-4477290Y8136565D01*
X-4614334Y8165373D01*
X-4686843Y8189639D01*
X-4865993Y8278953D01*
X-5020903Y8402051D01*
X-5150104Y8557294D01*
X-5252124Y8743046D01*
X-5325493Y8957667D01*
X-5341231Y9037848D01*
X-5355557Y9174127D01*
X-5361314Y9327315D01*
X-5360337Y9381000D01*
X-4940040Y9381000D01*
X-4939618Y9325218D01*
X-4934752Y9212875D01*
X-4925620Y9108974D01*
X-4913503Y9030445D01*
X-4868784Y8884303D01*
X-4798059Y8744557D01*
X-4708532Y8629087D01*
X-4604868Y8543822D01*
X-4491735Y8494690D01*
X-4378374Y8472245D01*
X-4201225Y8464036D01*
X-4042018Y8492373D01*
X-3902558Y8556843D01*
X-3784655Y8657031D01*
X-3711269Y8761568D01*
X-3649195Y8905276D01*
X-3607137Y9070560D01*
X-3585137Y9249139D01*
X-3583238Y9432736D01*
X-3601482Y9613072D01*
X-3639912Y9781867D01*
X-3698570Y9930842D01*
X-3777499Y10051719D01*
X-3856169Y10126794D01*
X-3966366Y10189279D01*
X-4100660Y10225174D01*
X-4265084Y10236770D01*
X-4326770Y10236136D01*
X-4418077Y10230253D01*
X-4488212Y10216463D01*
X-4550834Y10192658D01*
X-4592919Y10171085D01*
X-4716647Y10077728D01*
X-4813183Y9952123D01*
X-4882568Y9794189D01*
X-4924840Y9603842D01*
X-4940040Y9381000D01*
X-5360337Y9381000D01*
X-5358477Y9483176D01*
X-5347020Y9627477D01*
X-5326918Y9745983D01*
X-5279009Y9899374D01*
X-5192079Y10080335D01*
X-5080370Y10239524D01*
X-4948539Y10370557D01*
X-4801240Y10467046D01*
X-4759656Y10487103D01*
X-4606179Y10544929D01*
X-4446320Y10577130D01*
X-4264239Y10587249D01*
X-4207486Y10586457D01*
X-4002131Y10565828D01*
X-3821797Y10515605D01*
X-3660320Y10433580D01*
X-3511533Y10317544D01*
X-3469768Y10276984D01*
X-3355530Y10138625D01*
X-3269965Y9983812D01*
X-3211246Y9807521D01*
X-3177546Y9604731D01*
X-3169833Y9432736D01*
X-3167039Y9370417D01*
X-3168687Y9273919D01*
G36*
X-2398203Y6650379D02*
G01*
X-2433479Y6495996D01*
X-2497078Y6362717D01*
X-2586080Y6256019D01*
X-2697569Y6181383D01*
X-2726000Y6169394D01*
X-2786120Y6153294D01*
X-2861331Y6146473D01*
X-2965050Y6147217D01*
X-2987807Y6148010D01*
X-3075770Y6153512D01*
X-3138900Y6164414D01*
X-3191670Y6184257D01*
X-3248555Y6216583D01*
X-3339367Y6290177D01*
X-3416171Y6396500D01*
X-3433440Y6427607D01*
X-3456241Y6474566D01*
X-3470483Y6519939D01*
X-3478173Y6574706D01*
X-3481315Y6649844D01*
X-3481917Y6756333D01*
X-3481898Y6766917D01*
X-3270250Y6766917D01*
X-3263314Y6631977D01*
X-3238983Y6519162D01*
X-3194953Y6433454D01*
X-3128952Y6368452D01*
X-3077758Y6341269D01*
X-2982901Y6319505D01*
X-2882247Y6321272D01*
X-2794114Y6347703D01*
X-2724458Y6397855D01*
X-2663599Y6485224D01*
X-2627437Y6603902D01*
X-2615013Y6756075D01*
X-2619924Y6869912D01*
X-2643773Y6986618D01*
X-2689630Y7076669D01*
X-2759963Y7146717D01*
X-2781596Y7160147D01*
X-2863304Y7186037D01*
X-2959368Y7192228D01*
X-3052603Y7178768D01*
X-3125823Y7145704D01*
X-3148044Y7128239D01*
X-3206936Y7066232D01*
X-3244522Y6991669D01*
X-3264421Y6895060D01*
X-3270250Y6766917D01*
X-3481898Y6766917D01*
X-3481826Y6806208D01*
X-3480253Y6898791D01*
X-3475249Y6964559D01*
X-3464931Y7014415D01*
X-3447417Y7059260D01*
X-3420823Y7109996D01*
X-3416567Y7117563D01*
X-3331427Y7231784D01*
X-3224776Y7311525D01*
X-3093783Y7358326D01*
X-2935616Y7373725D01*
X-2905589Y7373179D01*
X-2754083Y7349596D01*
X-2627177Y7292269D01*
X-2526185Y7202692D01*
X-2452421Y7082359D01*
X-2407199Y6932763D01*
X-2391892Y6756075D01*
X-2391834Y6755400D01*
X-2398203Y6650379D01*
G37*
X-2398203Y6650379D02*
X-2433479Y6495996D01*
X-2497078Y6362717D01*
X-2586080Y6256019D01*
X-2697569Y6181383D01*
X-2726000Y6169394D01*
X-2786120Y6153294D01*
X-2861331Y6146473D01*
X-2965050Y6147217D01*
X-2987807Y6148010D01*
X-3075770Y6153512D01*
X-3138900Y6164414D01*
X-3191670Y6184257D01*
X-3248555Y6216583D01*
X-3339367Y6290177D01*
X-3416171Y6396500D01*
X-3433440Y6427607D01*
X-3456241Y6474566D01*
X-3470483Y6519939D01*
X-3478173Y6574706D01*
X-3481315Y6649844D01*
X-3481917Y6756333D01*
X-3481898Y6766917D01*
X-3270250Y6766917D01*
X-3263314Y6631977D01*
X-3238983Y6519162D01*
X-3194953Y6433454D01*
X-3128952Y6368452D01*
X-3077758Y6341269D01*
X-2982901Y6319505D01*
X-2882247Y6321272D01*
X-2794114Y6347703D01*
X-2724458Y6397855D01*
X-2663599Y6485224D01*
X-2627437Y6603902D01*
X-2615013Y6756075D01*
X-2619924Y6869912D01*
X-2643773Y6986618D01*
X-2689630Y7076669D01*
X-2759963Y7146717D01*
X-2781596Y7160147D01*
X-2863304Y7186037D01*
X-2959368Y7192228D01*
X-3052603Y7178768D01*
X-3125823Y7145704D01*
X-3148044Y7128239D01*
X-3206936Y7066232D01*
X-3244522Y6991669D01*
X-3264421Y6895060D01*
X-3270250Y6766917D01*
X-3481898Y6766917D01*
X-3481826Y6806208D01*
X-3480253Y6898791D01*
X-3475249Y6964559D01*
X-3464931Y7014415D01*
X-3447417Y7059260D01*
X-3420823Y7109996D01*
X-3416567Y7117563D01*
X-3331427Y7231784D01*
X-3224776Y7311525D01*
X-3093783Y7358326D01*
X-2935616Y7373725D01*
X-2905589Y7373179D01*
X-2754083Y7349596D01*
X-2627177Y7292269D01*
X-2526185Y7202692D01*
X-2452421Y7082359D01*
X-2407199Y6932763D01*
X-2391892Y6756075D01*
X-2391834Y6755400D01*
X-2398203Y6650379D01*
G36*
X-7095644Y7370458D02*
G01*
X-6977708Y7355076D01*
X-6885968Y7326002D01*
X-6837610Y7299318D01*
X-6761667Y7231705D01*
X-6722109Y7145974D01*
X-6715702Y7036629D01*
X-6717382Y7017487D01*
X-6728966Y6955189D01*
X-6753050Y6902899D01*
X-6795030Y6855553D01*
X-6860299Y6808088D01*
X-6954250Y6755443D01*
X-7082276Y6692555D01*
X-7102724Y6682758D01*
X-7196339Y6635394D01*
X-7274197Y6592006D01*
X-7328675Y6557045D01*
X-7352151Y6534961D01*
X-7362996Y6462323D01*
X-7338456Y6401155D01*
X-7283417Y6354466D01*
X-7203164Y6324236D01*
X-7102980Y6312445D01*
X-6988151Y6321072D01*
X-6863960Y6352095D01*
X-6798165Y6373804D01*
X-6745446Y6390221D01*
X-6721085Y6396500D01*
X-6719900Y6395733D01*
X-6714543Y6371000D01*
X-6710879Y6323359D01*
X-6709416Y6269079D01*
X-6710662Y6224430D01*
X-6715125Y6205681D01*
X-6719340Y6204540D01*
X-6752040Y6193272D01*
X-6805084Y6173925D01*
X-6878799Y6156149D01*
X-6984455Y6146211D01*
X-7102758Y6145811D01*
X-7220128Y6154431D01*
X-7322985Y6171548D01*
X-7397750Y6196643D01*
X-7419367Y6209017D01*
X-7496525Y6279562D01*
X-7548043Y6371408D01*
X-7571154Y6473959D01*
X-7563091Y6576619D01*
X-7521085Y6668793D01*
X-7513275Y6677968D01*
X-7466074Y6716271D01*
X-7395170Y6760855D01*
X-7312382Y6804059D01*
X-7234662Y6840822D01*
X-7118356Y6897126D01*
X-7033708Y6941258D01*
X-6976248Y6976672D01*
X-6941502Y7006819D01*
X-6925000Y7035153D01*
X-6922270Y7065127D01*
X-6928839Y7100192D01*
X-6956043Y7146680D01*
X-7018279Y7182354D01*
X-7108278Y7198069D01*
X-7220478Y7192952D01*
X-7349313Y7166132D01*
X-7406606Y7151373D01*
X-7458667Y7141095D01*
X-7482317Y7140761D01*
X-7484766Y7144081D01*
X-7501239Y7176049D01*
X-7524021Y7227575D01*
X-7556396Y7305058D01*
X-7445323Y7338370D01*
X-7354245Y7358911D01*
X-7225812Y7371839D01*
X-7095644Y7370458D01*
G37*
X-7095644Y7370458D02*
X-6977708Y7355076D01*
X-6885968Y7326002D01*
X-6837610Y7299318D01*
X-6761667Y7231705D01*
X-6722109Y7145974D01*
X-6715702Y7036629D01*
X-6717382Y7017487D01*
X-6728966Y6955189D01*
X-6753050Y6902899D01*
X-6795030Y6855553D01*
X-6860299Y6808088D01*
X-6954250Y6755443D01*
X-7082276Y6692555D01*
X-7102724Y6682758D01*
X-7196339Y6635394D01*
X-7274197Y6592006D01*
X-7328675Y6557045D01*
X-7352151Y6534961D01*
X-7362996Y6462323D01*
X-7338456Y6401155D01*
X-7283417Y6354466D01*
X-7203164Y6324236D01*
X-7102980Y6312445D01*
X-6988151Y6321072D01*
X-6863960Y6352095D01*
X-6798165Y6373804D01*
X-6745446Y6390221D01*
X-6721085Y6396500D01*
X-6719900Y6395733D01*
X-6714543Y6371000D01*
X-6710879Y6323359D01*
X-6709416Y6269079D01*
X-6710662Y6224430D01*
X-6715125Y6205681D01*
X-6719340Y6204540D01*
X-6752040Y6193272D01*
X-6805084Y6173925D01*
X-6878799Y6156149D01*
X-6984455Y6146211D01*
X-7102758Y6145811D01*
X-7220128Y6154431D01*
X-7322985Y6171548D01*
X-7397750Y6196643D01*
X-7419367Y6209017D01*
X-7496525Y6279562D01*
X-7548043Y6371408D01*
X-7571154Y6473959D01*
X-7563091Y6576619D01*
X-7521085Y6668793D01*
X-7513275Y6677968D01*
X-7466074Y6716271D01*
X-7395170Y6760855D01*
X-7312382Y6804059D01*
X-7234662Y6840822D01*
X-7118356Y6897126D01*
X-7033708Y6941258D01*
X-6976248Y6976672D01*
X-6941502Y7006819D01*
X-6925000Y7035153D01*
X-6922270Y7065127D01*
X-6928839Y7100192D01*
X-6956043Y7146680D01*
X-7018279Y7182354D01*
X-7108278Y7198069D01*
X-7220478Y7192952D01*
X-7349313Y7166132D01*
X-7406606Y7151373D01*
X-7458667Y7141095D01*
X-7482317Y7140761D01*
X-7484766Y7144081D01*
X-7501239Y7176049D01*
X-7524021Y7227575D01*
X-7556396Y7305058D01*
X-7445323Y7338370D01*
X-7354245Y7358911D01*
X-7225812Y7371839D01*
X-7095644Y7370458D01*
G36*
X7506051Y7638631D02*
G01*
X7467093Y7498386D01*
X7392915Y7375758D01*
X7288709Y7277376D01*
X7159668Y7209866D01*
X7099387Y7192732D01*
X6959277Y7182261D01*
X6820347Y7208358D01*
X6692421Y7268454D01*
X6585323Y7359982D01*
X6519875Y7445256D01*
X6478917Y7531108D01*
X6460179Y7629055D01*
X6459231Y7743143D01*
X6733067Y7743143D01*
X6740588Y7657129D01*
X6780826Y7574477D01*
X6856147Y7503094D01*
X6868757Y7494838D01*
X6940446Y7461592D01*
X7009174Y7460868D01*
X7090833Y7491908D01*
X7127050Y7514674D01*
X7190241Y7584564D01*
X7226938Y7671332D01*
X7229944Y7761054D01*
X7204246Y7826101D01*
X7146843Y7894710D01*
X7072389Y7943964D01*
X6993796Y7962833D01*
X6982787Y7962655D01*
X6883122Y7942274D01*
X6806701Y7893623D01*
X6755894Y7824610D01*
X6733067Y7743143D01*
X6459231Y7743143D01*
X6459148Y7753160D01*
X6466416Y7916385D01*
X5967310Y8421664D01*
X5891535Y8498545D01*
X5763285Y8629821D01*
X5661398Y8736125D01*
X5583205Y8820450D01*
X5526038Y8885793D01*
X5487230Y8935146D01*
X5464112Y8971506D01*
X5454018Y8997867D01*
X5450884Y9019902D01*
X5445936Y9089744D01*
X5442517Y9186849D01*
X5440625Y9301281D01*
X5440260Y9423100D01*
X5441421Y9542370D01*
X5444108Y9649152D01*
X5448321Y9733508D01*
X5454058Y9785500D01*
X5455355Y9790612D01*
X5466791Y9815151D01*
X5490239Y9849604D01*
X5527973Y9896438D01*
X5582266Y9958124D01*
X5655392Y10037131D01*
X5749624Y10135927D01*
X5867235Y10256982D01*
X6010500Y10402764D01*
X6181692Y10575743D01*
X6895100Y11294863D01*
X7172755Y11303514D01*
X7286700Y11305639D01*
X7411812Y11305264D01*
X7524940Y11302351D01*
X7610935Y11297122D01*
X7771460Y11282080D01*
X8477250Y10597232D01*
X8572500Y10644056D01*
X8692264Y10691812D01*
X8877796Y10729946D01*
X9071691Y10732106D01*
X9265941Y10698428D01*
X9452537Y10629049D01*
X9515992Y10591986D01*
X9612673Y10519146D01*
X9710099Y10430972D01*
X9795600Y10339179D01*
X9856509Y10255481D01*
X9908726Y10150096D01*
X9964681Y9971109D01*
X9990521Y9781319D01*
X9989303Y9740069D01*
X9984954Y9592737D01*
X9946686Y9417374D01*
X9880076Y9261949D01*
X9772151Y9099316D01*
X9637987Y8963607D01*
X9482521Y8856906D01*
X9310688Y8781295D01*
X9127426Y8738859D01*
X8937670Y8731680D01*
X8746357Y8761843D01*
X8558424Y8831431D01*
X8460970Y8885267D01*
X8300940Y9008486D01*
X8172843Y9157655D01*
X8078765Y9329423D01*
X8020788Y9520439D01*
X8002342Y9713318D01*
X8467364Y9713318D01*
X8491829Y9566509D01*
X8501688Y9539362D01*
X8552630Y9450759D01*
X8625607Y9363894D01*
X8708715Y9291542D01*
X8790048Y9246477D01*
X8808478Y9240164D01*
X8964390Y9207054D01*
X9109638Y9214479D01*
X9245792Y9262494D01*
X9258818Y9269825D01*
X9330629Y9326409D01*
X9402895Y9404597D01*
X9463445Y9489796D01*
X9500107Y9567412D01*
X9507499Y9594350D01*
X9524623Y9740069D01*
X9505075Y9878543D01*
X9452813Y10004261D01*
X9371798Y10111710D01*
X9265990Y10195379D01*
X9139349Y10249755D01*
X8995833Y10269329D01*
X8965527Y10268571D01*
X8825327Y10242133D01*
X8702768Y10181962D01*
X8601770Y10093527D01*
X8526256Y9982295D01*
X8480147Y9853736D01*
X8467364Y9713318D01*
X8002342Y9713318D01*
X8001000Y9727353D01*
X8002486Y9782780D01*
X8015994Y9912130D01*
X8041255Y10035798D01*
X8075421Y10141609D01*
X8115642Y10217385D01*
X8117608Y10220090D01*
X8125590Y10236275D01*
X8124308Y10255329D01*
X8110288Y10281732D01*
X8080055Y10319966D01*
X8030133Y10374511D01*
X7957048Y10449848D01*
X7857325Y10550458D01*
X7567650Y10841500D01*
X7101138Y10841500D01*
X5905500Y9645310D01*
X5905500Y9141808D01*
X6355163Y8685362D01*
X6804827Y8228916D01*
X6953799Y8235133D01*
X7063630Y8233306D01*
X7179953Y8208672D01*
X7279574Y8154866D01*
X7373683Y8067422D01*
X7388263Y8050708D01*
X7467047Y7930642D01*
X7506180Y7800839D01*
X7506652Y7761054D01*
X7507914Y7654370D01*
X7506051Y7638631D01*
G37*
X7506051Y7638631D02*
X7467093Y7498386D01*
X7392915Y7375758D01*
X7288709Y7277376D01*
X7159668Y7209866D01*
X7099387Y7192732D01*
X6959277Y7182261D01*
X6820347Y7208358D01*
X6692421Y7268454D01*
X6585323Y7359982D01*
X6519875Y7445256D01*
X6478917Y7531108D01*
X6460179Y7629055D01*
X6459231Y7743143D01*
X6733067Y7743143D01*
X6740588Y7657129D01*
X6780826Y7574477D01*
X6856147Y7503094D01*
X6868757Y7494838D01*
X6940446Y7461592D01*
X7009174Y7460868D01*
X7090833Y7491908D01*
X7127050Y7514674D01*
X7190241Y7584564D01*
X7226938Y7671332D01*
X7229944Y7761054D01*
X7204246Y7826101D01*
X7146843Y7894710D01*
X7072389Y7943964D01*
X6993796Y7962833D01*
X6982787Y7962655D01*
X6883122Y7942274D01*
X6806701Y7893623D01*
X6755894Y7824610D01*
X6733067Y7743143D01*
X6459231Y7743143D01*
X6459148Y7753160D01*
X6466416Y7916385D01*
X5967310Y8421664D01*
X5891535Y8498545D01*
X5763285Y8629821D01*
X5661398Y8736125D01*
X5583205Y8820450D01*
X5526038Y8885793D01*
X5487230Y8935146D01*
X5464112Y8971506D01*
X5454018Y8997867D01*
X5450884Y9019902D01*
X5445936Y9089744D01*
X5442517Y9186849D01*
X5440625Y9301281D01*
X5440260Y9423100D01*
X5441421Y9542370D01*
X5444108Y9649152D01*
X5448321Y9733508D01*
X5454058Y9785500D01*
X5455355Y9790612D01*
X5466791Y9815151D01*
X5490239Y9849604D01*
X5527973Y9896438D01*
X5582266Y9958124D01*
X5655392Y10037131D01*
X5749624Y10135927D01*
X5867235Y10256982D01*
X6010500Y10402764D01*
X6181692Y10575743D01*
X6895100Y11294863D01*
X7172755Y11303514D01*
X7286700Y11305639D01*
X7411812Y11305264D01*
X7524940Y11302351D01*
X7610935Y11297122D01*
X7771460Y11282080D01*
X8477250Y10597232D01*
X8572500Y10644056D01*
X8692264Y10691812D01*
X8877796Y10729946D01*
X9071691Y10732106D01*
X9265941Y10698428D01*
X9452537Y10629049D01*
X9515992Y10591986D01*
X9612673Y10519146D01*
X9710099Y10430972D01*
X9795600Y10339179D01*
X9856509Y10255481D01*
X9908726Y10150096D01*
X9964681Y9971109D01*
X9990521Y9781319D01*
X9989303Y9740069D01*
X9984954Y9592737D01*
X9946686Y9417374D01*
X9880076Y9261949D01*
X9772151Y9099316D01*
X9637987Y8963607D01*
X9482521Y8856906D01*
X9310688Y8781295D01*
X9127426Y8738859D01*
X8937670Y8731680D01*
X8746357Y8761843D01*
X8558424Y8831431D01*
X8460970Y8885267D01*
X8300940Y9008486D01*
X8172843Y9157655D01*
X8078765Y9329423D01*
X8020788Y9520439D01*
X8002342Y9713318D01*
X8467364Y9713318D01*
X8491829Y9566509D01*
X8501688Y9539362D01*
X8552630Y9450759D01*
X8625607Y9363894D01*
X8708715Y9291542D01*
X8790048Y9246477D01*
X8808478Y9240164D01*
X8964390Y9207054D01*
X9109638Y9214479D01*
X9245792Y9262494D01*
X9258818Y9269825D01*
X9330629Y9326409D01*
X9402895Y9404597D01*
X9463445Y9489796D01*
X9500107Y9567412D01*
X9507499Y9594350D01*
X9524623Y9740069D01*
X9505075Y9878543D01*
X9452813Y10004261D01*
X9371798Y10111710D01*
X9265990Y10195379D01*
X9139349Y10249755D01*
X8995833Y10269329D01*
X8965527Y10268571D01*
X8825327Y10242133D01*
X8702768Y10181962D01*
X8601770Y10093527D01*
X8526256Y9982295D01*
X8480147Y9853736D01*
X8467364Y9713318D01*
X8002342Y9713318D01*
X8001000Y9727353D01*
X8002486Y9782780D01*
X8015994Y9912130D01*
X8041255Y10035798D01*
X8075421Y10141609D01*
X8115642Y10217385D01*
X8117608Y10220090D01*
X8125590Y10236275D01*
X8124308Y10255329D01*
X8110288Y10281732D01*
X8080055Y10319966D01*
X8030133Y10374511D01*
X7957048Y10449848D01*
X7857325Y10550458D01*
X7567650Y10841500D01*
X7101138Y10841500D01*
X5905500Y9645310D01*
X5905500Y9141808D01*
X6355163Y8685362D01*
X6804827Y8228916D01*
X6953799Y8235133D01*
X7063630Y8233306D01*
X7179953Y8208672D01*
X7279574Y8154866D01*
X7373683Y8067422D01*
X7388263Y8050708D01*
X7467047Y7930642D01*
X7506180Y7800839D01*
X7506652Y7761054D01*
X7507914Y7654370D01*
X7506051Y7638631D01*
G36*
X1139970Y10047359D02*
G01*
X1138693Y9814395D01*
X1137690Y9578074D01*
X1137264Y9379052D01*
X1137459Y9214615D01*
X1138318Y9082047D01*
X1139884Y8978632D01*
X1142201Y8901655D01*
X1145311Y8848401D01*
X1149259Y8816154D01*
X1154088Y8802198D01*
X1159841Y8803818D01*
X1168050Y8816005D01*
X1198123Y8861987D01*
X1247851Y8938632D01*
X1315318Y9042969D01*
X1398608Y9172026D01*
X1495804Y9322832D01*
X1604992Y9492414D01*
X1724255Y9677803D01*
X1851676Y9876025D01*
X1985341Y10084110D01*
X2783416Y11326971D01*
X3032125Y11327652D01*
X3280833Y11328333D01*
X3280833Y9752997D01*
X3280645Y9498741D01*
X3280106Y9256881D01*
X3279247Y9030745D01*
X3278095Y8823657D01*
X3276682Y8638946D01*
X3275037Y8479937D01*
X3273188Y8349956D01*
X3271167Y8252329D01*
X3269001Y8190383D01*
X3266722Y8167445D01*
X3259593Y8164499D01*
X3217818Y8158778D01*
X3148824Y8154815D01*
X3063040Y8153333D01*
X2873469Y8153333D01*
X2886183Y9386292D01*
X2888200Y9568777D01*
X2890989Y9787775D01*
X2894000Y9992864D01*
X2897152Y10179983D01*
X2900365Y10345071D01*
X2903559Y10484070D01*
X2906654Y10592917D01*
X2909570Y10667553D01*
X2912226Y10703917D01*
X2912494Y10711256D01*
X2906049Y10712767D01*
X2889538Y10697094D01*
X2861701Y10662379D01*
X2821279Y10606765D01*
X2767013Y10528394D01*
X2697644Y10425409D01*
X2611914Y10295952D01*
X2508562Y10138165D01*
X2386331Y9950191D01*
X2243961Y9730172D01*
X2080194Y9476250D01*
X1234833Y8163917D01*
X751416Y8163917D01*
X740564Y11328333D01*
X944044Y11328334D01*
X1147524Y11328334D01*
X1139970Y10047359D01*
G37*
X1139970Y10047359D02*
X1138693Y9814395D01*
X1137690Y9578074D01*
X1137264Y9379052D01*
X1137459Y9214615D01*
X1138318Y9082047D01*
X1139884Y8978632D01*
X1142201Y8901655D01*
X1145311Y8848401D01*
X1149259Y8816154D01*
X1154088Y8802198D01*
X1159841Y8803818D01*
X1168050Y8816005D01*
X1198123Y8861987D01*
X1247851Y8938632D01*
X1315318Y9042969D01*
X1398608Y9172026D01*
X1495804Y9322832D01*
X1604992Y9492414D01*
X1724255Y9677803D01*
X1851676Y9876025D01*
X1985341Y10084110D01*
X2783416Y11326971D01*
X3032125Y11327652D01*
X3280833Y11328333D01*
X3280833Y9752997D01*
X3280645Y9498741D01*
X3280106Y9256881D01*
X3279247Y9030745D01*
X3278095Y8823657D01*
X3276682Y8638946D01*
X3275037Y8479937D01*
X3273188Y8349956D01*
X3271167Y8252329D01*
X3269001Y8190383D01*
X3266722Y8167445D01*
X3259593Y8164499D01*
X3217818Y8158778D01*
X3148824Y8154815D01*
X3063040Y8153333D01*
X2873469Y8153333D01*
X2886183Y9386292D01*
X2888200Y9568777D01*
X2890989Y9787775D01*
X2894000Y9992864D01*
X2897152Y10179983D01*
X2900365Y10345071D01*
X2903559Y10484070D01*
X2906654Y10592917D01*
X2909570Y10667553D01*
X2912226Y10703917D01*
X2912494Y10711256D01*
X2906049Y10712767D01*
X2889538Y10697094D01*
X2861701Y10662379D01*
X2821279Y10606765D01*
X2767013Y10528394D01*
X2697644Y10425409D01*
X2611914Y10295952D01*
X2508562Y10138165D01*
X2386331Y9950191D01*
X2243961Y9730172D01*
X2080194Y9476250D01*
X1234833Y8163917D01*
X751416Y8163917D01*
X740564Y11328333D01*
X944044Y11328334D01*
X1147524Y11328334D01*
X1139970Y10047359D01*
G36*
X-6976025Y8533663D02*
G01*
X-6986761Y8503308D01*
X-7057446Y8378512D01*
X-7162039Y8274696D01*
X-7296578Y8195076D01*
X-7457103Y8142870D01*
X-7668679Y8115327D01*
X-7870004Y8125906D01*
X-8057357Y8173783D01*
X-8227291Y8258078D01*
X-8376359Y8377909D01*
X-8487134Y8488539D01*
X-8506658Y8410895D01*
X-8508178Y8404821D01*
X-8526861Y8327129D01*
X-8544777Y8248583D01*
X-8563371Y8163917D01*
X-8717490Y8157670D01*
X-8871610Y8151423D01*
X-8864085Y9089003D01*
X-8863255Y9191617D01*
X-8862095Y9317500D01*
X-8472887Y9317500D01*
X-8461068Y9119407D01*
X-8457081Y9067789D01*
X-8426394Y8893645D01*
X-8369770Y8751424D01*
X-8285523Y8638685D01*
X-8171968Y8552987D01*
X-8027418Y8491892D01*
X-7964358Y8474721D01*
X-7812819Y8453097D01*
X-7675294Y8460980D01*
X-7556376Y8496587D01*
X-7460662Y8558136D01*
X-7392746Y8643844D01*
X-7357221Y8751929D01*
X-7355711Y8872888D01*
X-7390705Y8995361D01*
X-7460129Y9101675D01*
X-7559998Y9185891D01*
X-7686323Y9242071D01*
X-7736332Y9254240D01*
X-7840444Y9272616D01*
X-7966862Y9289407D01*
X-8103456Y9303264D01*
X-8238096Y9312840D01*
X-8358652Y9316787D01*
X-8472887Y9317500D01*
X-8862095Y9317500D01*
X-8861169Y9418037D01*
X-8858554Y9607750D01*
X-8854795Y9764764D01*
X-8849279Y9893089D01*
X-8841391Y9996731D01*
X-8830518Y10079700D01*
X-8816046Y10146004D01*
X-8797360Y10199652D01*
X-8773847Y10244652D01*
X-8744892Y10285012D01*
X-8709882Y10324740D01*
X-8668203Y10367846D01*
X-8602909Y10429100D01*
X-8519938Y10488480D01*
X-8428769Y10530123D01*
X-8321011Y10556725D01*
X-8188274Y10570986D01*
X-8022167Y10575603D01*
X-7920501Y10575254D01*
X-7813924Y10571757D01*
X-7728019Y10563624D01*
X-7650484Y10549571D01*
X-7569015Y10528313D01*
X-7565328Y10527245D01*
X-7450835Y10491571D01*
X-7349888Y10455512D01*
X-7269321Y10421910D01*
X-7215969Y10393609D01*
X-7196667Y10373450D01*
X-7196693Y10372826D01*
X-7204870Y10343422D01*
X-7224846Y10287146D01*
X-7252516Y10215604D01*
X-7265720Y10183461D01*
X-7295646Y10121005D01*
X-7319827Y10091122D01*
X-7342474Y10087831D01*
X-7362872Y10094916D01*
X-7418679Y10114410D01*
X-7497163Y10141885D01*
X-7588250Y10173816D01*
X-7716715Y10213215D01*
X-7894771Y10246501D01*
X-8052685Y10249172D01*
X-8188081Y10221812D01*
X-8298585Y10165005D01*
X-8381821Y10079336D01*
X-8435414Y9965388D01*
X-8437092Y9959458D01*
X-8448803Y9902026D01*
X-8458575Y9829233D01*
X-8465563Y9752529D01*
X-8468922Y9683361D01*
X-8467807Y9633178D01*
X-8461375Y9613429D01*
X-8447434Y9612621D01*
X-8397310Y9609786D01*
X-8317410Y9605293D01*
X-8214726Y9599534D01*
X-8096250Y9592902D01*
X-8089381Y9592514D01*
X-7849144Y9573108D01*
X-7645888Y9543704D01*
X-7475273Y9503008D01*
X-7332958Y9449722D01*
X-7214603Y9382552D01*
X-7115867Y9300200D01*
X-7031839Y9195026D01*
X-6964692Y9051210D01*
X-6932439Y8889928D01*
X-6932782Y8872888D01*
X-6935933Y8715854D01*
X-6976025Y8533663D01*
G37*
X-6976025Y8533663D02*
X-6986761Y8503308D01*
X-7057446Y8378512D01*
X-7162039Y8274696D01*
X-7296578Y8195076D01*
X-7457103Y8142870D01*
X-7668679Y8115327D01*
X-7870004Y8125906D01*
X-8057357Y8173783D01*
X-8227291Y8258078D01*
X-8376359Y8377909D01*
X-8487134Y8488539D01*
X-8506658Y8410895D01*
X-8508178Y8404821D01*
X-8526861Y8327129D01*
X-8544777Y8248583D01*
X-8563371Y8163917D01*
X-8717490Y8157670D01*
X-8871610Y8151423D01*
X-8864085Y9089003D01*
X-8863255Y9191617D01*
X-8862095Y9317500D01*
X-8472887Y9317500D01*
X-8461068Y9119407D01*
X-8457081Y9067789D01*
X-8426394Y8893645D01*
X-8369770Y8751424D01*
X-8285523Y8638685D01*
X-8171968Y8552987D01*
X-8027418Y8491892D01*
X-7964358Y8474721D01*
X-7812819Y8453097D01*
X-7675294Y8460980D01*
X-7556376Y8496587D01*
X-7460662Y8558136D01*
X-7392746Y8643844D01*
X-7357221Y8751929D01*
X-7355711Y8872888D01*
X-7390705Y8995361D01*
X-7460129Y9101675D01*
X-7559998Y9185891D01*
X-7686323Y9242071D01*
X-7736332Y9254240D01*
X-7840444Y9272616D01*
X-7966862Y9289407D01*
X-8103456Y9303264D01*
X-8238096Y9312840D01*
X-8358652Y9316787D01*
X-8472887Y9317500D01*
X-8862095Y9317500D01*
X-8861169Y9418037D01*
X-8858554Y9607750D01*
X-8854795Y9764764D01*
X-8849279Y9893089D01*
X-8841391Y9996731D01*
X-8830518Y10079700D01*
X-8816046Y10146004D01*
X-8797360Y10199652D01*
X-8773847Y10244652D01*
X-8744892Y10285012D01*
X-8709882Y10324740D01*
X-8668203Y10367846D01*
X-8602909Y10429100D01*
X-8519938Y10488480D01*
X-8428769Y10530123D01*
X-8321011Y10556725D01*
X-8188274Y10570986D01*
X-8022167Y10575603D01*
X-7920501Y10575254D01*
X-7813924Y10571757D01*
X-7728019Y10563624D01*
X-7650484Y10549571D01*
X-7569015Y10528313D01*
X-7565328Y10527245D01*
X-7450835Y10491571D01*
X-7349888Y10455512D01*
X-7269321Y10421910D01*
X-7215969Y10393609D01*
X-7196667Y10373450D01*
X-7196693Y10372826D01*
X-7204870Y10343422D01*
X-7224846Y10287146D01*
X-7252516Y10215604D01*
X-7265720Y10183461D01*
X-7295646Y10121005D01*
X-7319827Y10091122D01*
X-7342474Y10087831D01*
X-7362872Y10094916D01*
X-7418679Y10114410D01*
X-7497163Y10141885D01*
X-7588250Y10173816D01*
X-7716715Y10213215D01*
X-7894771Y10246501D01*
X-8052685Y10249172D01*
X-8188081Y10221812D01*
X-8298585Y10165005D01*
X-8381821Y10079336D01*
X-8435414Y9965388D01*
X-8437092Y9959458D01*
X-8448803Y9902026D01*
X-8458575Y9829233D01*
X-8465563Y9752529D01*
X-8468922Y9683361D01*
X-8467807Y9633178D01*
X-8461375Y9613429D01*
X-8447434Y9612621D01*
X-8397310Y9609786D01*
X-8317410Y9605293D01*
X-8214726Y9599534D01*
X-8096250Y9592902D01*
X-8089381Y9592514D01*
X-7849144Y9573108D01*
X-7645888Y9543704D01*
X-7475273Y9503008D01*
X-7332958Y9449722D01*
X-7214603Y9382552D01*
X-7115867Y9300200D01*
X-7031839Y9195026D01*
X-6964692Y9051210D01*
X-6932439Y8889928D01*
X-6932782Y8872888D01*
X-6935933Y8715854D01*
X-6976025Y8533663D01*
G36*
X-6099448Y7365700D02*
G01*
X-6020793Y7351602D01*
X-5972934Y7334551D01*
X-5870077Y7270720D01*
X-5780233Y7179049D01*
X-5714187Y7069463D01*
X-5688628Y6991903D01*
X-5667527Y6864061D01*
X-5662151Y6723899D01*
X-5672869Y6587061D01*
X-5700049Y6469191D01*
X-5710673Y6441837D01*
X-5775527Y6333710D01*
X-5865815Y6240597D01*
X-5969000Y6176157D01*
X-5970019Y6175722D01*
X-6042258Y6156854D01*
X-6140455Y6146251D01*
X-6249282Y6144211D01*
X-6353407Y6151034D01*
X-6437503Y6167017D01*
X-6477001Y6179851D01*
X-6506401Y6198781D01*
X-6517571Y6232493D01*
X-6519334Y6294762D01*
X-6519097Y6325271D01*
X-6515416Y6370510D01*
X-6504351Y6385346D01*
X-6482188Y6378110D01*
X-6465953Y6370523D01*
X-6389594Y6347964D01*
X-6295435Y6332526D01*
X-6202313Y6326632D01*
X-6129068Y6332703D01*
X-6074109Y6350070D01*
X-5989750Y6406212D01*
X-5930577Y6493918D01*
X-5895843Y6614525D01*
X-5884798Y6769373D01*
X-5885316Y6795866D01*
X-5902737Y6929749D01*
X-5942947Y7040417D01*
X-6003365Y7120233D01*
X-6017736Y7131481D01*
X-6097137Y7166207D01*
X-6200090Y7181455D01*
X-6314882Y7176402D01*
X-6429803Y7150222D01*
X-6460263Y7144768D01*
X-6484826Y7160877D01*
X-6509178Y7209175D01*
X-6514253Y7221567D01*
X-6532940Y7272526D01*
X-6540500Y7302637D01*
X-6540204Y7305589D01*
X-6516207Y7328523D01*
X-6460225Y7347440D01*
X-6381407Y7361479D01*
X-6288905Y7369776D01*
X-6191869Y7371471D01*
X-6099448Y7365700D01*
G37*
X-6099448Y7365700D02*
X-6020793Y7351602D01*
X-5972934Y7334551D01*
X-5870077Y7270720D01*
X-5780233Y7179049D01*
X-5714187Y7069463D01*
X-5688628Y6991903D01*
X-5667527Y6864061D01*
X-5662151Y6723899D01*
X-5672869Y6587061D01*
X-5700049Y6469191D01*
X-5710673Y6441837D01*
X-5775527Y6333710D01*
X-5865815Y6240597D01*
X-5969000Y6176157D01*
X-5970019Y6175722D01*
X-6042258Y6156854D01*
X-6140455Y6146251D01*
X-6249282Y6144211D01*
X-6353407Y6151034D01*
X-6437503Y6167017D01*
X-6477001Y6179851D01*
X-6506401Y6198781D01*
X-6517571Y6232493D01*
X-6519334Y6294762D01*
X-6519097Y6325271D01*
X-6515416Y6370510D01*
X-6504351Y6385346D01*
X-6482188Y6378110D01*
X-6465953Y6370523D01*
X-6389594Y6347964D01*
X-6295435Y6332526D01*
X-6202313Y6326632D01*
X-6129068Y6332703D01*
X-6074109Y6350070D01*
X-5989750Y6406212D01*
X-5930577Y6493918D01*
X-5895843Y6614525D01*
X-5884798Y6769373D01*
X-5885316Y6795866D01*
X-5902737Y6929749D01*
X-5942947Y7040417D01*
X-6003365Y7120233D01*
X-6017736Y7131481D01*
X-6097137Y7166207D01*
X-6200090Y7181455D01*
X-6314882Y7176402D01*
X-6429803Y7150222D01*
X-6460263Y7144768D01*
X-6484826Y7160877D01*
X-6509178Y7209175D01*
X-6514253Y7221567D01*
X-6532940Y7272526D01*
X-6540500Y7302637D01*
X-6540204Y7305589D01*
X-6516207Y7328523D01*
X-6460225Y7347440D01*
X-6381407Y7361479D01*
X-6288905Y7369776D01*
X-6191869Y7371471D01*
X-6099448Y7365700D01*
G36*
X-165069Y11422909D02*
G01*
X-79709Y11372403D01*
X-44666Y11338395D01*
X-22071Y11302483D01*
X-12540Y11254831D01*
X-10584Y11180167D01*
X-12013Y11112748D01*
X-20343Y11062656D01*
X-41078Y11026141D01*
X-79709Y10987931D01*
X-80561Y10987172D01*
X-166053Y10937097D01*
X-261050Y10927231D01*
X-360257Y10958136D01*
X-390046Y10975654D01*
X-435470Y11021105D01*
X-458971Y11085683D01*
X-465667Y11180167D01*
X-464337Y11228197D01*
X-450518Y11307532D01*
X-417531Y11361939D01*
X-360257Y11402198D01*
X-359182Y11402751D01*
X-259992Y11433213D01*
X-165069Y11422909D01*
G37*
X-165069Y11422909D02*
X-79709Y11372403D01*
X-44666Y11338395D01*
X-22071Y11302483D01*
X-12540Y11254831D01*
X-10584Y11180167D01*
X-12013Y11112748D01*
X-20343Y11062656D01*
X-41078Y11026141D01*
X-79709Y10987931D01*
X-80561Y10987172D01*
X-166053Y10937097D01*
X-261050Y10927231D01*
X-360257Y10958136D01*
X-390046Y10975654D01*
X-435470Y11021105D01*
X-458971Y11085683D01*
X-465667Y11180167D01*
X-464337Y11228197D01*
X-450518Y11307532D01*
X-417531Y11361939D01*
X-360257Y11402198D01*
X-359182Y11402751D01*
X-259992Y11433213D01*
X-165069Y11422909D01*
G36*
X-1972360Y10578962D02*
G01*
X-1830072Y10555106D01*
X-1686460Y10508331D01*
X-1507553Y10415240D01*
X-1356694Y10291275D01*
X-1234484Y10137438D01*
X-1141524Y9954732D01*
X-1078413Y9744158D01*
X-1045753Y9506719D01*
X-1044143Y9243417D01*
X-1053661Y9116859D01*
X-1086484Y8910036D01*
X-1141017Y8731541D01*
X-1219464Y8574999D01*
X-1324030Y8434032D01*
X-1416916Y8348015D01*
X-1543242Y8264307D01*
X-1682738Y8197405D01*
X-1820334Y8155758D01*
X-1867305Y8146415D01*
X-1934873Y8132997D01*
X-1979084Y8124247D01*
X-2007789Y8119704D01*
X-2118688Y8114352D01*
X-2251122Y8121156D01*
X-2391206Y8138545D01*
X-2525053Y8164951D01*
X-2638779Y8198805D01*
X-2751667Y8241042D01*
X-2751667Y8419438D01*
X-2751411Y8451321D01*
X-2748488Y8526162D01*
X-2742992Y8578156D01*
X-2735792Y8597563D01*
X-2730855Y8596751D01*
X-2693408Y8586475D01*
X-2629842Y8566903D01*
X-2550584Y8541208D01*
X-2461738Y8516889D01*
X-2329526Y8493951D01*
X-2191723Y8482090D01*
X-2059824Y8481708D01*
X-1945322Y8493207D01*
X-1859713Y8516992D01*
X-1750381Y8581173D01*
X-1640889Y8689173D01*
X-1557161Y8828894D01*
X-1499851Y8998832D01*
X-1469611Y9197480D01*
X-1467092Y9423333D01*
X-1473746Y9517181D01*
X-1493608Y9665399D01*
X-1522307Y9786412D01*
X-1580943Y9923686D01*
X-1672857Y10048268D01*
X-1790504Y10140910D01*
X-1931933Y10200818D01*
X-2095191Y10227197D01*
X-2278329Y10219252D01*
X-2479394Y10176188D01*
X-2514060Y10166453D01*
X-2589421Y10147934D01*
X-2644440Y10138179D01*
X-2669094Y10139146D01*
X-2670667Y10141403D01*
X-2685766Y10173660D01*
X-2709629Y10232853D01*
X-2737844Y10308139D01*
X-2793916Y10462695D01*
X-2719841Y10493646D01*
X-2639781Y10521768D01*
X-2486082Y10557032D01*
X-2314314Y10578962D01*
X-2138423Y10586593D01*
X-1972360Y10578962D01*
G37*
X-1972360Y10578962D02*
X-1830072Y10555106D01*
X-1686460Y10508331D01*
X-1507553Y10415240D01*
X-1356694Y10291275D01*
X-1234484Y10137438D01*
X-1141524Y9954732D01*
X-1078413Y9744158D01*
X-1045753Y9506719D01*
X-1044143Y9243417D01*
X-1053661Y9116859D01*
X-1086484Y8910036D01*
X-1141017Y8731541D01*
X-1219464Y8574999D01*
X-1324030Y8434032D01*
X-1416916Y8348015D01*
X-1543242Y8264307D01*
X-1682738Y8197405D01*
X-1820334Y8155758D01*
X-1867305Y8146415D01*
X-1934873Y8132997D01*
X-1979084Y8124247D01*
X-2007789Y8119704D01*
X-2118688Y8114352D01*
X-2251122Y8121156D01*
X-2391206Y8138545D01*
X-2525053Y8164951D01*
X-2638779Y8198805D01*
X-2751667Y8241042D01*
X-2751667Y8419438D01*
X-2751411Y8451321D01*
X-2748488Y8526162D01*
X-2742992Y8578156D01*
X-2735792Y8597563D01*
X-2730855Y8596751D01*
X-2693408Y8586475D01*
X-2629842Y8566903D01*
X-2550584Y8541208D01*
X-2461738Y8516889D01*
X-2329526Y8493951D01*
X-2191723Y8482090D01*
X-2059824Y8481708D01*
X-1945322Y8493207D01*
X-1859713Y8516992D01*
X-1750381Y8581173D01*
X-1640889Y8689173D01*
X-1557161Y8828894D01*
X-1499851Y8998832D01*
X-1469611Y9197480D01*
X-1467092Y9423333D01*
X-1473746Y9517181D01*
X-1493608Y9665399D01*
X-1522307Y9786412D01*
X-1580943Y9923686D01*
X-1672857Y10048268D01*
X-1790504Y10140910D01*
X-1931933Y10200818D01*
X-2095191Y10227197D01*
X-2278329Y10219252D01*
X-2479394Y10176188D01*
X-2514060Y10166453D01*
X-2589421Y10147934D01*
X-2644440Y10138179D01*
X-2669094Y10139146D01*
X-2670667Y10141403D01*
X-2685766Y10173660D01*
X-2709629Y10232853D01*
X-2737844Y10308139D01*
X-2793916Y10462695D01*
X-2719841Y10493646D01*
X-2639781Y10521768D01*
X-2486082Y10557032D01*
X-2314314Y10578962D01*
X-2138423Y10586593D01*
X-1972360Y10578962D01*
G36*
X7086707Y11783417D02*
G01*
X7086736Y11778404D01*
X7083898Y11745269D01*
X7076949Y11745972D01*
X7073066Y11763365D01*
X7076165Y11809472D01*
X7077212Y11813112D01*
X7083655Y11816245D01*
X7086707Y11783417D01*
G37*
X7086707Y11783417D02*
X7086736Y11778404D01*
X7083898Y11745269D01*
X7076949Y11745972D01*
X7073066Y11763365D01*
X7076165Y11809472D01*
X7077212Y11813112D01*
X7083655Y11816245D01*
X7086707Y11783417D01*
G36*
X-9784292Y10540642D02*
G01*
X-9577917Y10534583D01*
X-9572418Y9370417D01*
X-9571863Y9239052D01*
X-9571252Y9027389D01*
X-9571031Y8830496D01*
X-9571185Y8652309D01*
X-9571699Y8496766D01*
X-9572557Y8367806D01*
X-9573745Y8269365D01*
X-9575246Y8205381D01*
X-9577046Y8179792D01*
X-9581204Y8174245D01*
X-9614481Y8162320D01*
X-9682486Y8155503D01*
X-9788919Y8153333D01*
X-9990667Y8153333D01*
X-9990667Y10546700D01*
X-9784292Y10540642D01*
G37*
X-9784292Y10540642D02*
X-9577917Y10534583D01*
X-9572418Y9370417D01*
X-9571863Y9239052D01*
X-9571252Y9027389D01*
X-9571031Y8830496D01*
X-9571185Y8652309D01*
X-9571699Y8496766D01*
X-9572557Y8367806D01*
X-9573745Y8269365D01*
X-9575246Y8205381D01*
X-9577046Y8179792D01*
X-9581204Y8174245D01*
X-9614481Y8162320D01*
X-9682486Y8155503D01*
X-9788919Y8153333D01*
X-9990667Y8153333D01*
X-9990667Y10546700D01*
X-9784292Y10540642D01*
G36*
X1973791Y7852815D02*
G01*
X2084916Y7846417D01*
X2095986Y6163667D01*
X1862666Y6163667D01*
X1862666Y7859212D01*
X1973791Y7852815D01*
G37*
X1973791Y7852815D02*
X2084916Y7846417D01*
X2095986Y6163667D01*
X1862666Y6163667D01*
X1862666Y7859212D01*
X1973791Y7852815D01*
G36*
X3280833Y6163667D02*
G01*
X2391833Y6163667D01*
X2391833Y6354167D01*
X3069166Y6354167D01*
X3069166Y6883333D01*
X2434166Y6883333D01*
X2434166Y7095000D01*
X3069166Y7095000D01*
X3069166Y7560667D01*
X2391833Y7560667D01*
X2391833Y7751167D01*
X3280833Y7751167D01*
X3280833Y6163667D01*
G37*
X3280833Y6163667D02*
X2391833Y6163667D01*
X2391833Y6354167D01*
X3069166Y6354167D01*
X3069166Y6883333D01*
X2434166Y6883333D01*
X2434166Y7095000D01*
X3069166Y7095000D01*
X3069166Y7560667D01*
X2391833Y7560667D01*
X2391833Y7751167D01*
X3280833Y7751167D01*
X3280833Y6163667D01*
G36*
X5897540Y7299986D02*
G01*
X5846689Y7185003D01*
X6424631Y6608167D01*
X6902551Y6608167D01*
X8106833Y7800129D01*
X8106833Y8263407D01*
X7636478Y8744680D01*
X7166123Y9225952D01*
X7086569Y9205759D01*
X6971393Y9195202D01*
X6844952Y9218341D01*
X6722636Y9272083D01*
X6614520Y9351940D01*
X6530677Y9453424D01*
X6522212Y9467300D01*
X6492458Y9522597D01*
X6475616Y9574409D01*
X6468123Y9637989D01*
X6466713Y9712805D01*
X6737059Y9712805D01*
X6760853Y9625694D01*
X6819544Y9546712D01*
X6853217Y9518713D01*
X6908167Y9493474D01*
X6981947Y9486939D01*
X7046783Y9494142D01*
X7134135Y9531939D01*
X7197371Y9595290D01*
X7232025Y9676448D01*
X7233630Y9767664D01*
X7197720Y9861191D01*
X7153210Y9918751D01*
X7079308Y9965067D01*
X6981688Y9979440D01*
X6927693Y9973963D01*
X6843480Y9938624D01*
X6781531Y9877699D01*
X6745005Y9799617D01*
X6737059Y9712805D01*
X6466713Y9712805D01*
X6466416Y9728590D01*
X6466419Y9733179D01*
X6468551Y9824090D01*
X6476954Y9888780D01*
X6494995Y9942629D01*
X6526040Y10001018D01*
X6553861Y10043812D01*
X6650624Y10146838D01*
X6765394Y10217522D01*
X6891475Y10256062D01*
X7022172Y10262656D01*
X7150788Y10237501D01*
X7270629Y10180795D01*
X7374998Y10092736D01*
X7457200Y9973521D01*
X7481062Y9924088D01*
X7502914Y9861425D01*
X7511527Y9795318D01*
X7511289Y9767664D01*
X7510764Y9706504D01*
X7504878Y9555758D01*
X8026587Y9022332D01*
X8548295Y8488905D01*
X8562503Y8356231D01*
X8563212Y8349146D01*
X8567795Y8272629D01*
X8570475Y8168256D01*
X8571049Y8048845D01*
X8569314Y7927209D01*
X8561916Y7630862D01*
X8406882Y7458920D01*
X8359390Y7408166D01*
X8283563Y7330002D01*
X8186166Y7231436D01*
X8071810Y7117076D01*
X7945105Y6991531D01*
X7810660Y6859410D01*
X7673087Y6725323D01*
X7094326Y6163667D01*
X6663955Y6164616D01*
X6233583Y6165565D01*
X5516367Y6856137D01*
X5379359Y6792023D01*
X5356438Y6781499D01*
X5286303Y6753497D01*
X5218186Y6735754D01*
X5137306Y6725175D01*
X5028884Y6718667D01*
X5003879Y6717645D01*
X4901067Y6715786D01*
X4822661Y6720405D01*
X4753952Y6733043D01*
X4680234Y6755245D01*
X4497630Y6836266D01*
X4335863Y6948158D01*
X4202449Y7084211D01*
X4098866Y7239736D01*
X4026594Y7410050D01*
X3987109Y7590467D01*
X3985363Y7652651D01*
X4453763Y7652651D01*
X4486655Y7523631D01*
X4553384Y7405095D01*
X4652779Y7303089D01*
X4783666Y7223663D01*
X4867852Y7194530D01*
X4998963Y7181233D01*
X5126221Y7202708D01*
X5244229Y7254542D01*
X5347590Y7332323D01*
X5430906Y7431638D01*
X5488779Y7548075D01*
X5515813Y7677223D01*
X5506609Y7814667D01*
X5495384Y7859488D01*
X5434683Y7995274D01*
X5341800Y8107586D01*
X5221862Y8191296D01*
X5080000Y8241276D01*
X5003896Y8251544D01*
X4864813Y8239484D01*
X4734722Y8186357D01*
X4615127Y8092643D01*
X4569849Y8042136D01*
X4494188Y7917951D01*
X4455883Y7786107D01*
X4453763Y7652651D01*
X3985363Y7652651D01*
X3981892Y7776300D01*
X4012421Y7962865D01*
X4080173Y8145476D01*
X4186629Y8319447D01*
X4235343Y8379242D01*
X4381244Y8514375D01*
X4549257Y8616911D01*
X4733460Y8684421D01*
X4927933Y8714480D01*
X5126753Y8704662D01*
X5254373Y8676841D01*
X5437422Y8604837D01*
X5598375Y8502017D01*
X5734747Y8372912D01*
X5844050Y8222051D01*
X5923800Y8053965D01*
X5971510Y7873186D01*
X5984694Y7684242D01*
X5983825Y7677223D01*
X5960866Y7491665D01*
X5897540Y7299986D01*
G37*
X5897540Y7299986D02*
X5846689Y7185003D01*
X6424631Y6608167D01*
X6902551Y6608167D01*
X8106833Y7800129D01*
X8106833Y8263407D01*
X7636478Y8744680D01*
X7166123Y9225952D01*
X7086569Y9205759D01*
X6971393Y9195202D01*
X6844952Y9218341D01*
X6722636Y9272083D01*
X6614520Y9351940D01*
X6530677Y9453424D01*
X6522212Y9467300D01*
X6492458Y9522597D01*
X6475616Y9574409D01*
X6468123Y9637989D01*
X6466713Y9712805D01*
X6737059Y9712805D01*
X6760853Y9625694D01*
X6819544Y9546712D01*
X6853217Y9518713D01*
X6908167Y9493474D01*
X6981947Y9486939D01*
X7046783Y9494142D01*
X7134135Y9531939D01*
X7197371Y9595290D01*
X7232025Y9676448D01*
X7233630Y9767664D01*
X7197720Y9861191D01*
X7153210Y9918751D01*
X7079308Y9965067D01*
X6981688Y9979440D01*
X6927693Y9973963D01*
X6843480Y9938624D01*
X6781531Y9877699D01*
X6745005Y9799617D01*
X6737059Y9712805D01*
X6466713Y9712805D01*
X6466416Y9728590D01*
X6466419Y9733179D01*
X6468551Y9824090D01*
X6476954Y9888780D01*
X6494995Y9942629D01*
X6526040Y10001018D01*
X6553861Y10043812D01*
X6650624Y10146838D01*
X6765394Y10217522D01*
X6891475Y10256062D01*
X7022172Y10262656D01*
X7150788Y10237501D01*
X7270629Y10180795D01*
X7374998Y10092736D01*
X7457200Y9973521D01*
X7481062Y9924088D01*
X7502914Y9861425D01*
X7511527Y9795318D01*
X7511289Y9767664D01*
X7510764Y9706504D01*
X7504878Y9555758D01*
X8026587Y9022332D01*
X8548295Y8488905D01*
X8562503Y8356231D01*
X8563212Y8349146D01*
X8567795Y8272629D01*
X8570475Y8168256D01*
X8571049Y8048845D01*
X8569314Y7927209D01*
X8561916Y7630862D01*
X8406882Y7458920D01*
X8359390Y7408166D01*
X8283563Y7330002D01*
X8186166Y7231436D01*
X8071810Y7117076D01*
X7945105Y6991531D01*
X7810660Y6859410D01*
X7673087Y6725323D01*
X7094326Y6163667D01*
X6663955Y6164616D01*
X6233583Y6165565D01*
X5516367Y6856137D01*
X5379359Y6792023D01*
X5356438Y6781499D01*
X5286303Y6753497D01*
X5218186Y6735754D01*
X5137306Y6725175D01*
X5028884Y6718667D01*
X5003879Y6717645D01*
X4901067Y6715786D01*
X4822661Y6720405D01*
X4753952Y6733043D01*
X4680234Y6755245D01*
X4497630Y6836266D01*
X4335863Y6948158D01*
X4202449Y7084211D01*
X4098866Y7239736D01*
X4026594Y7410050D01*
X3987109Y7590467D01*
X3985363Y7652651D01*
X4453763Y7652651D01*
X4486655Y7523631D01*
X4553384Y7405095D01*
X4652779Y7303089D01*
X4783666Y7223663D01*
X4867852Y7194530D01*
X4998963Y7181233D01*
X5126221Y7202708D01*
X5244229Y7254542D01*
X5347590Y7332323D01*
X5430906Y7431638D01*
X5488779Y7548075D01*
X5515813Y7677223D01*
X5506609Y7814667D01*
X5495384Y7859488D01*
X5434683Y7995274D01*
X5341800Y8107586D01*
X5221862Y8191296D01*
X5080000Y8241276D01*
X5003896Y8251544D01*
X4864813Y8239484D01*
X4734722Y8186357D01*
X4615127Y8092643D01*
X4569849Y8042136D01*
X4494188Y7917951D01*
X4455883Y7786107D01*
X4453763Y7652651D01*
X3985363Y7652651D01*
X3981892Y7776300D01*
X4012421Y7962865D01*
X4080173Y8145476D01*
X4186629Y8319447D01*
X4235343Y8379242D01*
X4381244Y8514375D01*
X4549257Y8616911D01*
X4733460Y8684421D01*
X4927933Y8714480D01*
X5126753Y8704662D01*
X5254373Y8676841D01*
X5437422Y8604837D01*
X5598375Y8502017D01*
X5734747Y8372912D01*
X5844050Y8222051D01*
X5923800Y8053965D01*
X5971510Y7873186D01*
X5984694Y7684242D01*
X5983825Y7677223D01*
X5960866Y7491665D01*
X5897540Y7299986D01*
G36*
X-2119163Y7369645D02*
G01*
X-1996166Y7343632D01*
X-1900007Y7289968D01*
X-1826139Y7206763D01*
X-1788584Y7149112D01*
X-1778000Y7243764D01*
X-1772709Y7286181D01*
X-1760661Y7323439D01*
X-1732969Y7338937D01*
X-1677459Y7344926D01*
X-1587500Y7351434D01*
X-1587500Y6163667D01*
X-1795805Y6163667D01*
X-1802777Y6549958D01*
X-1804974Y6661107D01*
X-1808136Y6771421D01*
X-1812449Y6851804D01*
X-1818740Y6909227D01*
X-1827836Y6950659D01*
X-1840563Y6983071D01*
X-1857748Y7013435D01*
X-1877768Y7043303D01*
X-1945924Y7113604D01*
X-2032494Y7156532D01*
X-2147975Y7178041D01*
X-2275417Y7190250D01*
X-2287423Y7280208D01*
X-2299430Y7370167D01*
X-2223923Y7372410D01*
X-2119163Y7369645D01*
G37*
X-2119163Y7369645D02*
X-1996166Y7343632D01*
X-1900007Y7289968D01*
X-1826139Y7206763D01*
X-1788584Y7149112D01*
X-1778000Y7243764D01*
X-1772709Y7286181D01*
X-1760661Y7323439D01*
X-1732969Y7338937D01*
X-1677459Y7344926D01*
X-1587500Y7351434D01*
X-1587500Y6163667D01*
X-1795805Y6163667D01*
X-1802777Y6549958D01*
X-1804974Y6661107D01*
X-1808136Y6771421D01*
X-1812449Y6851804D01*
X-1818740Y6909227D01*
X-1827836Y6950659D01*
X-1840563Y6983071D01*
X-1857748Y7013435D01*
X-1877768Y7043303D01*
X-1945924Y7113604D01*
X-2032494Y7156532D01*
X-2147975Y7178041D01*
X-2275417Y7190250D01*
X-2287423Y7280208D01*
X-2299430Y7370167D01*
X-2223923Y7372410D01*
X-2119163Y7369645D01*
G36*
X-4244898Y7363370D02*
G01*
X-4141597Y7329435D01*
X-4063423Y7274303D01*
X-4040304Y7250977D01*
X-4003987Y7225781D01*
X-3984886Y7237126D01*
X-3979334Y7285500D01*
X-3978795Y7309456D01*
X-3970395Y7336531D01*
X-3942654Y7347159D01*
X-3884084Y7349000D01*
X-3788834Y7349000D01*
X-3788834Y6163667D01*
X-4000500Y6163667D01*
X-4000500Y6501292D01*
X-4000621Y6550549D01*
X-4003548Y6712768D01*
X-4011146Y6840062D01*
X-4024429Y6938185D01*
X-4044409Y7012894D01*
X-4072099Y7069943D01*
X-4108511Y7115088D01*
X-4131706Y7135505D01*
X-4216532Y7179996D01*
X-4312301Y7196744D01*
X-4407726Y7186447D01*
X-4491519Y7149808D01*
X-4552393Y7087526D01*
X-4565003Y7064019D01*
X-4575722Y7033286D01*
X-4583334Y6991825D01*
X-4588357Y6933315D01*
X-4591311Y6851437D01*
X-4592715Y6739869D01*
X-4593088Y6592292D01*
X-4593167Y6163667D01*
X-4804834Y6163667D01*
X-4803904Y6613458D01*
X-4803802Y6648698D01*
X-4802099Y6814926D01*
X-4797853Y6945587D01*
X-4790240Y7046362D01*
X-4778438Y7122932D01*
X-4761625Y7180980D01*
X-4738977Y7226188D01*
X-4709672Y7264236D01*
X-4681069Y7290707D01*
X-4591410Y7339778D01*
X-4481219Y7368364D01*
X-4361910Y7376288D01*
X-4244898Y7363370D01*
G37*
X-4244898Y7363370D02*
X-4141597Y7329435D01*
X-4063423Y7274303D01*
X-4040304Y7250977D01*
X-4003987Y7225781D01*
X-3984886Y7237126D01*
X-3979334Y7285500D01*
X-3978795Y7309456D01*
X-3970395Y7336531D01*
X-3942654Y7347159D01*
X-3884084Y7349000D01*
X-3788834Y7349000D01*
X-3788834Y6163667D01*
X-4000500Y6163667D01*
X-4000500Y6501292D01*
X-4000621Y6550549D01*
X-4003548Y6712768D01*
X-4011146Y6840062D01*
X-4024429Y6938185D01*
X-4044409Y7012894D01*
X-4072099Y7069943D01*
X-4108511Y7115088D01*
X-4131706Y7135505D01*
X-4216532Y7179996D01*
X-4312301Y7196744D01*
X-4407726Y7186447D01*
X-4491519Y7149808D01*
X-4552393Y7087526D01*
X-4565003Y7064019D01*
X-4575722Y7033286D01*
X-4583334Y6991825D01*
X-4588357Y6933315D01*
X-4591311Y6851437D01*
X-4592715Y6739869D01*
X-4593088Y6592292D01*
X-4593167Y6163667D01*
X-4804834Y6163667D01*
X-4803904Y6613458D01*
X-4803802Y6648698D01*
X-4802099Y6814926D01*
X-4797853Y6945587D01*
X-4790240Y7046362D01*
X-4778438Y7122932D01*
X-4761625Y7180980D01*
X-4738977Y7226188D01*
X-4709672Y7264236D01*
X-4681069Y7290707D01*
X-4591410Y7339778D01*
X-4481219Y7368364D01*
X-4361910Y7376288D01*
X-4244898Y7363370D01*
G36*
X-9711236Y11422909D02*
G01*
X-9625876Y11372403D01*
X-9590833Y11338395D01*
X-9568237Y11302483D01*
X-9558707Y11254831D01*
X-9556750Y11180167D01*
X-9558180Y11112748D01*
X-9566509Y11062656D01*
X-9587244Y11026141D01*
X-9625876Y10987931D01*
X-9626728Y10987172D01*
X-9712219Y10937097D01*
X-9807217Y10927231D01*
X-9906424Y10958136D01*
X-9936213Y10975654D01*
X-9981637Y11021105D01*
X-10005137Y11085683D01*
X-10011834Y11180167D01*
X-10010504Y11228197D01*
X-9996685Y11307532D01*
X-9963697Y11361939D01*
X-9906424Y11402198D01*
X-9905349Y11402751D01*
X-9806159Y11433213D01*
X-9711236Y11422909D01*
G37*
X-9711236Y11422909D02*
X-9625876Y11372403D01*
X-9590833Y11338395D01*
X-9568237Y11302483D01*
X-9558707Y11254831D01*
X-9556750Y11180167D01*
X-9558180Y11112748D01*
X-9566509Y11062656D01*
X-9587244Y11026141D01*
X-9625876Y10987931D01*
X-9626728Y10987172D01*
X-9712219Y10937097D01*
X-9807217Y10927231D01*
X-9906424Y10958136D01*
X-9936213Y10975654D01*
X-9981637Y11021105D01*
X-10005137Y11085683D01*
X-10011834Y11180167D01*
X-10010504Y11228197D01*
X-9996685Y11307532D01*
X-9963697Y11361939D01*
X-9906424Y11402198D01*
X-9905349Y11402751D01*
X-9806159Y11433213D01*
X-9711236Y11422909D01*
G36*
X-947835Y7620216D02*
G01*
X-916637Y7615474D01*
X-887942Y7600003D01*
X-867065Y7564518D01*
X-845095Y7498460D01*
X-834436Y7464678D01*
X-809653Y7407760D01*
X-776257Y7371412D01*
X-722760Y7340831D01*
X-671451Y7312218D01*
X-642425Y7280684D01*
X-635000Y7238997D01*
X-635097Y7228788D01*
X-641142Y7195860D01*
X-665308Y7182305D01*
X-719667Y7179667D01*
X-804334Y7179667D01*
X-804334Y6803819D01*
X-805061Y6702575D01*
X-807853Y6582357D01*
X-812369Y6478807D01*
X-818215Y6400480D01*
X-824995Y6355929D01*
X-859175Y6280841D01*
X-917301Y6208755D01*
X-984250Y6162694D01*
X-984327Y6162662D01*
X-1032772Y6152277D01*
X-1107357Y6146085D01*
X-1192107Y6144402D01*
X-1271049Y6147548D01*
X-1328209Y6155841D01*
X-1353337Y6166438D01*
X-1371314Y6195075D01*
X-1375834Y6252099D01*
X-1375834Y6335594D01*
X-1280292Y6321267D01*
X-1264318Y6319170D01*
X-1164750Y6321819D01*
X-1087882Y6352690D01*
X-1039913Y6409510D01*
X-1037752Y6415263D01*
X-1028661Y6466930D01*
X-1021816Y6554995D01*
X-1017501Y6674586D01*
X-1016000Y6820829D01*
X-1016000Y7179667D01*
X-1354667Y7179667D01*
X-1354667Y7349000D01*
X-1016000Y7349000D01*
X-1016000Y7626849D01*
X-947835Y7620216D01*
G37*
X-947835Y7620216D02*
X-916637Y7615474D01*
X-887942Y7600003D01*
X-867065Y7564518D01*
X-845095Y7498460D01*
X-834436Y7464678D01*
X-809653Y7407760D01*
X-776257Y7371412D01*
X-722760Y7340831D01*
X-671451Y7312218D01*
X-642425Y7280684D01*
X-635000Y7238997D01*
X-635097Y7228788D01*
X-641142Y7195860D01*
X-665308Y7182305D01*
X-719667Y7179667D01*
X-804334Y7179667D01*
X-804334Y6803819D01*
X-805061Y6702575D01*
X-807853Y6582357D01*
X-812369Y6478807D01*
X-818215Y6400480D01*
X-824995Y6355929D01*
X-859175Y6280841D01*
X-917301Y6208755D01*
X-984250Y6162694D01*
X-984327Y6162662D01*
X-1032772Y6152277D01*
X-1107357Y6146085D01*
X-1192107Y6144402D01*
X-1271049Y6147548D01*
X-1328209Y6155841D01*
X-1353337Y6166438D01*
X-1371314Y6195075D01*
X-1375834Y6252099D01*
X-1375834Y6335594D01*
X-1280292Y6321267D01*
X-1264318Y6319170D01*
X-1164750Y6321819D01*
X-1087882Y6352690D01*
X-1039913Y6409510D01*
X-1037752Y6415263D01*
X-1028661Y6466930D01*
X-1021816Y6554995D01*
X-1017501Y6674586D01*
X-1016000Y6820829D01*
X-1016000Y7179667D01*
X-1354667Y7179667D01*
X-1354667Y7349000D01*
X-1016000Y7349000D01*
X-1016000Y7626849D01*
X-947835Y7620216D01*
G36*
X-42334Y8153333D02*
G01*
X-444500Y8153333D01*
X-444500Y10545167D01*
X-42334Y10545167D01*
X-42334Y8153333D01*
G37*
X-42334Y8153333D02*
X-444500Y8153333D01*
X-444500Y10545167D01*
X-42334Y10545167D01*
X-42334Y8153333D01*
G36*
X1573873Y6735167D02*
G01*
X1570594Y6650137D01*
X1543913Y6497178D01*
X1488886Y6372819D01*
X1403681Y6273623D01*
X1286467Y6196154D01*
X1279837Y6192810D01*
X1227417Y6168412D01*
X1180387Y6153405D01*
X1126833Y6146048D01*
X1054842Y6144599D01*
X952500Y6147315D01*
X907092Y6149208D01*
X781541Y6159678D01*
X691957Y6178074D01*
X633706Y6206368D01*
X602154Y6246533D01*
X592666Y6300545D01*
X592735Y6306755D01*
X598770Y6357384D01*
X611579Y6384524D01*
X621418Y6386467D01*
X663914Y6380278D01*
X722704Y6362463D01*
X781540Y6345108D01*
X892188Y6327999D01*
X1005880Y6325708D01*
X1108349Y6338148D01*
X1185333Y6365234D01*
X1238035Y6408215D01*
X1296277Y6485113D01*
X1338431Y6572976D01*
X1354666Y6654985D01*
X1354666Y6714000D01*
X550333Y6714000D01*
X550333Y6827053D01*
X554862Y6883333D01*
X783166Y6883333D01*
X1068916Y6883333D01*
X1165527Y6883412D01*
X1256352Y6885308D01*
X1313892Y6891973D01*
X1343243Y6906381D01*
X1349498Y6931502D01*
X1337752Y6970308D01*
X1313099Y7025771D01*
X1292230Y7064740D01*
X1223993Y7141401D01*
X1139967Y7187126D01*
X1048578Y7201474D01*
X958252Y7184004D01*
X877415Y7134276D01*
X814494Y7051849D01*
X793088Y6995802D01*
X783166Y6937301D01*
X783166Y6883333D01*
X554862Y6883333D01*
X561416Y6964784D01*
X603268Y7106616D01*
X674634Y7220232D01*
X773781Y7303735D01*
X898979Y7355227D01*
X1048497Y7372813D01*
X1095006Y7371342D01*
X1237575Y7344081D01*
X1356901Y7281888D01*
X1454476Y7184068D01*
X1509893Y7096743D01*
X1547740Y6998338D01*
X1559377Y6931502D01*
X1568077Y6881532D01*
X1573873Y6735167D01*
G37*
X1573873Y6735167D02*
X1570594Y6650137D01*
X1543913Y6497178D01*
X1488886Y6372819D01*
X1403681Y6273623D01*
X1286467Y6196154D01*
X1279837Y6192810D01*
X1227417Y6168412D01*
X1180387Y6153405D01*
X1126833Y6146048D01*
X1054842Y6144599D01*
X952500Y6147315D01*
X907092Y6149208D01*
X781541Y6159678D01*
X691957Y6178074D01*
X633706Y6206368D01*
X602154Y6246533D01*
X592666Y6300545D01*
X592735Y6306755D01*
X598770Y6357384D01*
X611579Y6384524D01*
X621418Y6386467D01*
X663914Y6380278D01*
X722704Y6362463D01*
X781540Y6345108D01*
X892188Y6327999D01*
X1005880Y6325708D01*
X1108349Y6338148D01*
X1185333Y6365234D01*
X1238035Y6408215D01*
X1296277Y6485113D01*
X1338431Y6572976D01*
X1354666Y6654985D01*
X1354666Y6714000D01*
X550333Y6714000D01*
X550333Y6827053D01*
X554862Y6883333D01*
X783166Y6883333D01*
X1068916Y6883333D01*
X1165527Y6883412D01*
X1256352Y6885308D01*
X1313892Y6891973D01*
X1343243Y6906381D01*
X1349498Y6931502D01*
X1337752Y6970308D01*
X1313099Y7025771D01*
X1292230Y7064740D01*
X1223993Y7141401D01*
X1139967Y7187126D01*
X1048578Y7201474D01*
X958252Y7184004D01*
X877415Y7134276D01*
X814494Y7051849D01*
X793088Y6995802D01*
X783166Y6937301D01*
X783166Y6883333D01*
X554862Y6883333D01*
X561416Y6964784D01*
X603268Y7106616D01*
X674634Y7220232D01*
X773781Y7303735D01*
X898979Y7355227D01*
X1048497Y7372813D01*
X1095006Y7371342D01*
X1237575Y7344081D01*
X1356901Y7281888D01*
X1454476Y7184068D01*
X1509893Y7096743D01*
X1547740Y6998338D01*
X1559377Y6931502D01*
X1568077Y6881532D01*
X1573873Y6735167D01*
G36*
X-5143500Y6163667D02*
G01*
X-5376334Y6163667D01*
X-5376334Y7349000D01*
X-5143500Y7349000D01*
X-5143500Y6163667D01*
G37*
X-5143500Y6163667D02*
X-5376334Y6163667D01*
X-5376334Y7349000D01*
X-5143500Y7349000D01*
X-5143500Y6163667D01*
G36*
X-5207125Y7786318D02*
G01*
X-5168900Y7768100D01*
X-5153660Y7742399D01*
X-5144329Y7683462D01*
X-5152305Y7620071D01*
X-5176762Y7572762D01*
X-5198406Y7556030D01*
X-5262802Y7540663D01*
X-5335392Y7561412D01*
X-5338839Y7563366D01*
X-5367641Y7598667D01*
X-5376334Y7663012D01*
X-5376128Y7676393D01*
X-5363058Y7745244D01*
X-5326013Y7782384D01*
X-5259917Y7793500D01*
X-5207125Y7786318D01*
G37*
X-5207125Y7786318D02*
X-5168900Y7768100D01*
X-5153660Y7742399D01*
X-5144329Y7683462D01*
X-5152305Y7620071D01*
X-5176762Y7572762D01*
X-5198406Y7556030D01*
X-5262802Y7540663D01*
X-5335392Y7561412D01*
X-5338839Y7563366D01*
X-5367641Y7598667D01*
X-5376334Y7663012D01*
X-5376128Y7676393D01*
X-5363058Y7745244D01*
X-5326013Y7782384D01*
X-5259917Y7793500D01*
X-5207125Y7786318D01*
D13*
%TO.C,R2*%
X-10227064Y-9265000D02*
X-9772936Y-9265000D01*
X-10227064Y-10735000D02*
X-9772936Y-10735000D01*
%TO.C,D1*%
X11860000Y-11040000D02*
X11860000Y-12960000D01*
X9000000Y-11040000D02*
X11860000Y-11040000D01*
X11860000Y-12960000D02*
X9000000Y-12960000D01*
%TO.C,R1*%
X10227064Y-9265000D02*
X9772936Y-9265000D01*
X10227064Y-10735000D02*
X9772936Y-10735000D01*
%TO.C,D2*%
X-11860000Y-12960000D02*
X-11860000Y-11040000D01*
X-9000000Y-12960000D02*
X-11860000Y-12960000D01*
X-11860000Y-11040000D02*
X-9000000Y-11040000D01*
%TO.C,U1*%
X-8489000Y0D02*
X-8489000Y-3450000D01*
X-8489000Y0D02*
X-8489000Y1950000D01*
X-13609000Y0D02*
X-13609000Y-1950000D01*
X-13609000Y0D02*
X-13609000Y1950000D01*
%TD*%
M02*
