%TF.GenerationSoftware,KiCad,Pcbnew,(6.0.4)*%
%TF.CreationDate,2022-04-09T22:58:28+02:00*%
%TF.ProjectId,cassette,63617373-6574-4746-952e-6b696361645f,rev?*%
%TF.SameCoordinates,Original*%
%TF.FileFunction,Legend,Top*%
%TF.FilePolarity,Positive*%
%FSLAX46Y46*%
G04 Gerber Fmt 4.6, Leading zero omitted, Abs format (unit mm)*
G04 Created by KiCad (PCBNEW (6.0.4)) date 2022-04-09 22:58:28*
%MOMM*%
%LPD*%
G01*
G04 APERTURE LIST*
%ADD10C,0.010000*%
G04 APERTURE END LIST*
%TO.C,N1*%
G36*
X5439833Y-1597833D02*
G01*
X-5418667Y-1597833D01*
X-5418667Y2021667D01*
X5439833Y2021667D01*
X5439833Y-1597833D01*
G37*
D10*
X5439833Y-1597833D02*
X-5418667Y-1597833D01*
X-5418667Y2021667D01*
X5439833Y2021667D01*
X5439833Y-1597833D01*
G36*
X-22140092Y620232D02*
G01*
X-22140082Y1205906D01*
X-22140046Y1985502D01*
X-22139975Y2723830D01*
X-22139867Y3421954D01*
X-22139720Y4080938D01*
X-22139529Y4701847D01*
X-22139291Y5285745D01*
X-22139004Y5833697D01*
X-22138664Y6346767D01*
X-22138269Y6826020D01*
X-22137814Y7272520D01*
X-22137297Y7687332D01*
X-22136715Y8071521D01*
X-22136065Y8426150D01*
X-22135343Y8752285D01*
X-22134546Y9050990D01*
X-22133672Y9323330D01*
X-22132717Y9570368D01*
X-22131677Y9793170D01*
X-22130550Y9992800D01*
X-22129333Y10170323D01*
X-22128023Y10326803D01*
X-22126616Y10463304D01*
X-22125109Y10580891D01*
X-22123499Y10680629D01*
X-22121783Y10763583D01*
X-22119957Y10830815D01*
X-22118020Y10883393D01*
X-22115967Y10922379D01*
X-22113795Y10948838D01*
X-22111502Y10963835D01*
X-22111310Y10964583D01*
X-22056525Y11123209D01*
X-21980284Y11260733D01*
X-21874056Y11391728D01*
X-21841410Y11425571D01*
X-21686883Y11556984D01*
X-21520826Y11649563D01*
X-21337283Y11706437D01*
X-21290677Y11715007D01*
X-21262293Y11716192D01*
X-21192673Y11717346D01*
X-21082915Y11718468D01*
X-20934114Y11719559D01*
X-20747369Y11720618D01*
X-20523777Y11721645D01*
X-20264434Y11722642D01*
X-19970439Y11723606D01*
X-19642887Y11724540D01*
X-19282878Y11725442D01*
X-18891506Y11726312D01*
X-18469871Y11727152D01*
X-18019069Y11727960D01*
X-17540197Y11728736D01*
X-17034352Y11729481D01*
X-16502632Y11730195D01*
X-15946134Y11730877D01*
X-15365955Y11731529D01*
X-14763192Y11732148D01*
X-14138942Y11732737D01*
X-13494304Y11733294D01*
X-12830372Y11733820D01*
X-12148246Y11734315D01*
X-11449022Y11734778D01*
X-10733798Y11735210D01*
X-10003670Y11735611D01*
X-9259736Y11735980D01*
X-8503093Y11736319D01*
X-7734838Y11736626D01*
X-6956068Y11736902D01*
X-6167881Y11737147D01*
X-5371374Y11737360D01*
X-4567643Y11737542D01*
X-3757787Y11737694D01*
X-2942902Y11737814D01*
X-2124086Y11737902D01*
X-1302436Y11737960D01*
X-479048Y11737987D01*
X344979Y11737982D01*
X1168550Y11737946D01*
X1990565Y11737880D01*
X2809929Y11737782D01*
X3625544Y11737653D01*
X4436313Y11737493D01*
X5241138Y11737301D01*
X6038923Y11737079D01*
X6828570Y11736826D01*
X7608983Y11736542D01*
X8379063Y11736226D01*
X9137714Y11735880D01*
X9883838Y11735503D01*
X10616339Y11735094D01*
X11334119Y11734655D01*
X12036081Y11734184D01*
X12721127Y11733683D01*
X13388161Y11733151D01*
X14036085Y11732588D01*
X14663803Y11731993D01*
X15270216Y11731368D01*
X15854228Y11730712D01*
X16414742Y11730025D01*
X16950660Y11729307D01*
X17460885Y11728558D01*
X17944320Y11727779D01*
X18399868Y11726968D01*
X18826431Y11726127D01*
X19222913Y11725254D01*
X19588216Y11724351D01*
X19921243Y11723417D01*
X20220897Y11722452D01*
X20486080Y11721457D01*
X20715696Y11720430D01*
X20908646Y11719373D01*
X21063835Y11718285D01*
X21180165Y11717166D01*
X21256538Y11716016D01*
X21291857Y11714836D01*
X21293667Y11714638D01*
X21486555Y11662780D01*
X21663212Y11574347D01*
X21819184Y11453423D01*
X21950017Y11304095D01*
X22051256Y11130448D01*
X22111309Y10964583D01*
X22113613Y10950473D01*
X22115794Y10924987D01*
X22117857Y10887061D01*
X22119804Y10835630D01*
X22121638Y10769630D01*
X22123363Y10687997D01*
X22124981Y10589665D01*
X22126496Y10473571D01*
X22127912Y10338649D01*
X22129230Y10183836D01*
X22130454Y10008066D01*
X22131588Y9810276D01*
X22132635Y9589401D01*
X22133597Y9344375D01*
X22134478Y9074136D01*
X22135281Y8777617D01*
X22136009Y8453756D01*
X22136665Y8101486D01*
X22137252Y7719744D01*
X22137774Y7307465D01*
X22138233Y6863584D01*
X22138634Y6387038D01*
X22138978Y5876761D01*
X22139269Y5331689D01*
X22139511Y4750757D01*
X22139705Y4132902D01*
X22139857Y3477058D01*
X22139967Y2782161D01*
X22140041Y2047146D01*
X22140080Y1270949D01*
X22140082Y1205906D01*
X22140092Y437572D01*
X22140077Y-289560D01*
X22140034Y-976624D01*
X22139959Y-1624753D01*
X22139849Y-2235078D01*
X22139700Y-2808733D01*
X22139507Y-3346850D01*
X22139268Y-3850561D01*
X22138978Y-4321000D01*
X22138633Y-4759297D01*
X22138231Y-5166587D01*
X22137767Y-5544002D01*
X22137238Y-5892674D01*
X22136639Y-6213736D01*
X22135967Y-6508320D01*
X22135219Y-6777559D01*
X22134390Y-7022585D01*
X22133476Y-7244531D01*
X22132475Y-7444530D01*
X22131382Y-7623714D01*
X22130194Y-7783216D01*
X22128907Y-7924167D01*
X22127516Y-8047701D01*
X22126019Y-8154951D01*
X22124412Y-8247048D01*
X22122690Y-8325126D01*
X22120851Y-8390317D01*
X22118889Y-8443753D01*
X22116803Y-8486566D01*
X22114587Y-8519891D01*
X22112239Y-8544858D01*
X22109754Y-8562602D01*
X22107779Y-8571924D01*
X22037942Y-8758759D01*
X21932887Y-8925435D01*
X21796369Y-9068308D01*
X21632147Y-9183738D01*
X21443980Y-9268083D01*
X21364976Y-9291750D01*
X21355165Y-9293477D01*
X21338738Y-9295142D01*
X21314942Y-9296745D01*
X21283021Y-9298286D01*
X21242220Y-9299769D01*
X21191786Y-9301192D01*
X21130963Y-9302558D01*
X21058997Y-9303868D01*
X20975134Y-9305122D01*
X20878619Y-9306322D01*
X20768697Y-9307468D01*
X20644614Y-9308562D01*
X20505615Y-9309606D01*
X20350946Y-9310599D01*
X20179851Y-9311543D01*
X19991577Y-9312439D01*
X19785370Y-9313289D01*
X19560473Y-9314093D01*
X19316133Y-9314852D01*
X19051596Y-9315568D01*
X18766106Y-9316241D01*
X18458909Y-9316873D01*
X18129250Y-9317464D01*
X17776376Y-9318017D01*
X17399531Y-9318531D01*
X16997960Y-9319008D01*
X16570910Y-9319449D01*
X16117626Y-9319855D01*
X15637352Y-9320227D01*
X15129335Y-9320566D01*
X14592820Y-9320874D01*
X14027053Y-9321151D01*
X13431278Y-9321399D01*
X12804741Y-9321618D01*
X12146688Y-9321809D01*
X11456364Y-9321975D01*
X10733015Y-9322115D01*
X9975886Y-9322231D01*
X9184222Y-9322324D01*
X8357268Y-9322395D01*
X7494271Y-9322444D01*
X6594476Y-9322475D01*
X5657128Y-9322486D01*
X4681472Y-9322479D01*
X3666754Y-9322456D01*
X2612220Y-9322418D01*
X1517114Y-9322365D01*
X380683Y-9322299D01*
X-9739Y-9322273D01*
X-1166093Y-9322192D01*
X-2280853Y-9322100D01*
X-3354757Y-9321998D01*
X-4388544Y-9321884D01*
X-5382954Y-9321757D01*
X-6338724Y-9321615D01*
X-7256595Y-9321459D01*
X-8137304Y-9321286D01*
X-8981591Y-9321096D01*
X-9790194Y-9320887D01*
X-10563853Y-9320659D01*
X-11303306Y-9320410D01*
X-12009291Y-9320139D01*
X-12682549Y-9319845D01*
X-13323818Y-9319528D01*
X-13933837Y-9319185D01*
X-14513344Y-9318816D01*
X-15063078Y-9318421D01*
X-15583779Y-9317996D01*
X-16076185Y-9317543D01*
X-16541035Y-9317059D01*
X-16979068Y-9316543D01*
X-17391022Y-9315995D01*
X-17777638Y-9315413D01*
X-18139653Y-9314796D01*
X-18477806Y-9314143D01*
X-18792837Y-9313453D01*
X-19085483Y-9312725D01*
X-19356485Y-9311958D01*
X-19606580Y-9311150D01*
X-19836509Y-9310301D01*
X-20047009Y-9309410D01*
X-20238819Y-9308475D01*
X-20412679Y-9307495D01*
X-20569327Y-9306469D01*
X-20709501Y-9305397D01*
X-20833942Y-9304277D01*
X-20943388Y-9303107D01*
X-21038578Y-9301888D01*
X-21120250Y-9300617D01*
X-21189143Y-9299294D01*
X-21245997Y-9297918D01*
X-21291550Y-9296487D01*
X-21326541Y-9295000D01*
X-21351708Y-9293457D01*
X-21367792Y-9291856D01*
X-21373977Y-9290718D01*
X-21566973Y-9218508D01*
X-21738985Y-9113458D01*
X-21885712Y-8979782D01*
X-22002852Y-8821694D01*
X-22086103Y-8643405D01*
X-22107779Y-8571924D01*
X-22110370Y-8558898D01*
X-22112822Y-8539505D01*
X-22115138Y-8512614D01*
X-22117321Y-8477090D01*
X-22119377Y-8431802D01*
X-22121308Y-8375617D01*
X-22123119Y-8307403D01*
X-22124813Y-8226026D01*
X-22126393Y-8130355D01*
X-22127864Y-8019257D01*
X-22129229Y-7891599D01*
X-22130492Y-7746249D01*
X-22131657Y-7582075D01*
X-22132727Y-7397943D01*
X-22133706Y-7192721D01*
X-22134599Y-6965277D01*
X-22135408Y-6714478D01*
X-22136137Y-6439191D01*
X-22136791Y-6138284D01*
X-22137373Y-5810625D01*
X-22137886Y-5455081D01*
X-22138335Y-5070519D01*
X-22138722Y-4655807D01*
X-22139053Y-4209812D01*
X-22139330Y-3731402D01*
X-22139558Y-3219444D01*
X-22139740Y-2672805D01*
X-22139880Y-2090354D01*
X-22139981Y-1470957D01*
X-22140048Y-813482D01*
X-22140058Y-610879D01*
X-14691160Y-610879D01*
X-14667324Y-1006051D01*
X-14605937Y-1400860D01*
X-14591550Y-1468360D01*
X-14486308Y-1853439D01*
X-14347093Y-2217425D01*
X-14175824Y-2558596D01*
X-13974415Y-2875230D01*
X-13744786Y-3165605D01*
X-13488851Y-3428000D01*
X-13208529Y-3660693D01*
X-12905736Y-3861963D01*
X-12582389Y-4030087D01*
X-12240404Y-4163344D01*
X-11881700Y-4260012D01*
X-11508192Y-4318369D01*
X-11408833Y-4327059D01*
X-11368936Y-4328428D01*
X-11288254Y-4329749D01*
X-11168314Y-4331021D01*
X-11010637Y-4332243D01*
X-10816749Y-4333416D01*
X-10588172Y-4334539D01*
X-10326431Y-4335613D01*
X-10033050Y-4336638D01*
X-9709553Y-4337613D01*
X-9357462Y-4338539D01*
X-8978302Y-4339415D01*
X-8573598Y-4340241D01*
X-8144872Y-4341018D01*
X-7693648Y-4341745D01*
X-7221451Y-4342423D01*
X-6729803Y-4343051D01*
X-6220230Y-4343629D01*
X-5694255Y-4344157D01*
X-5153401Y-4344635D01*
X-4599192Y-4345064D01*
X-4033153Y-4345442D01*
X-3456806Y-4345771D01*
X-2871677Y-4346050D01*
X-2279288Y-4346278D01*
X-1681163Y-4346457D01*
X-1078827Y-4346585D01*
X-473803Y-4346663D01*
X132385Y-4346692D01*
X738214Y-4346669D01*
X1342159Y-4346597D01*
X1942696Y-4346475D01*
X2538303Y-4346302D01*
X3127454Y-4346078D01*
X3708627Y-4345805D01*
X4280297Y-4345481D01*
X4840940Y-4345106D01*
X5389033Y-4344681D01*
X5923052Y-4344205D01*
X6441473Y-4343679D01*
X6942773Y-4343103D01*
X7425427Y-4342475D01*
X7887911Y-4341797D01*
X8328703Y-4341068D01*
X8746277Y-4340289D01*
X9139111Y-4339458D01*
X9505680Y-4338577D01*
X9844460Y-4337645D01*
X10153928Y-4336662D01*
X10432561Y-4335628D01*
X10678833Y-4334544D01*
X10891221Y-4333408D01*
X11068202Y-4332221D01*
X11208252Y-4330983D01*
X11309846Y-4329694D01*
X11371462Y-4328354D01*
X11387667Y-4327602D01*
X11688567Y-4295763D01*
X11962505Y-4246486D01*
X12222517Y-4176201D01*
X12481639Y-4081337D01*
X12752906Y-3958325D01*
X12774083Y-3947875D01*
X13101845Y-3761958D01*
X13407305Y-3541438D01*
X13688185Y-3289010D01*
X13942208Y-3007368D01*
X14167095Y-2699208D01*
X14360570Y-2367222D01*
X14520355Y-2014108D01*
X14601491Y-1785785D01*
X14704623Y-1396748D01*
X14768192Y-1002181D01*
X14792754Y-605542D01*
X14778866Y-210291D01*
X14727087Y180115D01*
X14637972Y562217D01*
X14512079Y932557D01*
X14349966Y1287677D01*
X14152189Y1624118D01*
X14022546Y1807755D01*
X13903852Y1953031D01*
X13760477Y2109003D01*
X13603063Y2265314D01*
X13442253Y2411609D01*
X13288690Y2537532D01*
X13221928Y2586817D01*
X13072462Y2684221D01*
X12897754Y2784826D01*
X12712153Y2881193D01*
X12530012Y2965889D01*
X12365679Y3031477D01*
X12359669Y3033601D01*
X12122011Y3105856D01*
X11860691Y3165607D01*
X11593448Y3209187D01*
X11421634Y3227378D01*
X11380166Y3229002D01*
X11297891Y3230566D01*
X11176337Y3232070D01*
X11017032Y3233515D01*
X10821503Y3234900D01*
X10591277Y3236225D01*
X10327882Y3237491D01*
X10032844Y3238697D01*
X9707691Y3239844D01*
X9353951Y3240931D01*
X8973151Y3241958D01*
X8566817Y3242925D01*
X8136477Y3243833D01*
X7683660Y3244681D01*
X7209890Y3245470D01*
X6716697Y3246199D01*
X6205608Y3246868D01*
X5678149Y3247478D01*
X5135848Y3248027D01*
X4580232Y3248518D01*
X4012829Y3248948D01*
X3435166Y3249319D01*
X2848770Y3249630D01*
X2255169Y3249882D01*
X1655889Y3250074D01*
X1052458Y3250206D01*
X446404Y3250279D01*
X-160747Y3250292D01*
X-767467Y3250245D01*
X-1372229Y3250139D01*
X-1973505Y3249973D01*
X-2569768Y3249747D01*
X-3159491Y3249462D01*
X-3741147Y3249117D01*
X-4313208Y3248713D01*
X-4874147Y3248248D01*
X-5422437Y3247724D01*
X-5956550Y3247141D01*
X-6474960Y3246498D01*
X-6976138Y3245795D01*
X-7458558Y3245032D01*
X-7920692Y3244210D01*
X-8361013Y3243328D01*
X-8777994Y3242387D01*
X-9170107Y3241385D01*
X-9535825Y3240325D01*
X-9873621Y3239204D01*
X-10181968Y3238024D01*
X-10459337Y3236784D01*
X-10704203Y3235485D01*
X-10915037Y3234126D01*
X-11090313Y3232707D01*
X-11228502Y3231228D01*
X-11328079Y3229690D01*
X-11387514Y3228093D01*
X-11400468Y3227378D01*
X-11788666Y3177033D01*
X-12156736Y3089715D01*
X-12506313Y2964760D01*
X-12839035Y2801506D01*
X-13156538Y2599290D01*
X-13383023Y2423867D01*
X-13651568Y2172189D01*
X-13891677Y1891523D01*
X-14102337Y1585129D01*
X-14282535Y1256270D01*
X-14431259Y908205D01*
X-14547496Y544197D01*
X-14630234Y167506D01*
X-14678459Y-218607D01*
X-14691160Y-610879D01*
X-22140058Y-610879D01*
X-22140083Y-116796D01*
X-22140092Y620232D01*
G37*
X-22140092Y620232D02*
X-22140082Y1205906D01*
X-22140046Y1985502D01*
X-22139975Y2723830D01*
X-22139867Y3421954D01*
X-22139720Y4080938D01*
X-22139529Y4701847D01*
X-22139291Y5285745D01*
X-22139004Y5833697D01*
X-22138664Y6346767D01*
X-22138269Y6826020D01*
X-22137814Y7272520D01*
X-22137297Y7687332D01*
X-22136715Y8071521D01*
X-22136065Y8426150D01*
X-22135343Y8752285D01*
X-22134546Y9050990D01*
X-22133672Y9323330D01*
X-22132717Y9570368D01*
X-22131677Y9793170D01*
X-22130550Y9992800D01*
X-22129333Y10170323D01*
X-22128023Y10326803D01*
X-22126616Y10463304D01*
X-22125109Y10580891D01*
X-22123499Y10680629D01*
X-22121783Y10763583D01*
X-22119957Y10830815D01*
X-22118020Y10883393D01*
X-22115967Y10922379D01*
X-22113795Y10948838D01*
X-22111502Y10963835D01*
X-22111310Y10964583D01*
X-22056525Y11123209D01*
X-21980284Y11260733D01*
X-21874056Y11391728D01*
X-21841410Y11425571D01*
X-21686883Y11556984D01*
X-21520826Y11649563D01*
X-21337283Y11706437D01*
X-21290677Y11715007D01*
X-21262293Y11716192D01*
X-21192673Y11717346D01*
X-21082915Y11718468D01*
X-20934114Y11719559D01*
X-20747369Y11720618D01*
X-20523777Y11721645D01*
X-20264434Y11722642D01*
X-19970439Y11723606D01*
X-19642887Y11724540D01*
X-19282878Y11725442D01*
X-18891506Y11726312D01*
X-18469871Y11727152D01*
X-18019069Y11727960D01*
X-17540197Y11728736D01*
X-17034352Y11729481D01*
X-16502632Y11730195D01*
X-15946134Y11730877D01*
X-15365955Y11731529D01*
X-14763192Y11732148D01*
X-14138942Y11732737D01*
X-13494304Y11733294D01*
X-12830372Y11733820D01*
X-12148246Y11734315D01*
X-11449022Y11734778D01*
X-10733798Y11735210D01*
X-10003670Y11735611D01*
X-9259736Y11735980D01*
X-8503093Y11736319D01*
X-7734838Y11736626D01*
X-6956068Y11736902D01*
X-6167881Y11737147D01*
X-5371374Y11737360D01*
X-4567643Y11737542D01*
X-3757787Y11737694D01*
X-2942902Y11737814D01*
X-2124086Y11737902D01*
X-1302436Y11737960D01*
X-479048Y11737987D01*
X344979Y11737982D01*
X1168550Y11737946D01*
X1990565Y11737880D01*
X2809929Y11737782D01*
X3625544Y11737653D01*
X4436313Y11737493D01*
X5241138Y11737301D01*
X6038923Y11737079D01*
X6828570Y11736826D01*
X7608983Y11736542D01*
X8379063Y11736226D01*
X9137714Y11735880D01*
X9883838Y11735503D01*
X10616339Y11735094D01*
X11334119Y11734655D01*
X12036081Y11734184D01*
X12721127Y11733683D01*
X13388161Y11733151D01*
X14036085Y11732588D01*
X14663803Y11731993D01*
X15270216Y11731368D01*
X15854228Y11730712D01*
X16414742Y11730025D01*
X16950660Y11729307D01*
X17460885Y11728558D01*
X17944320Y11727779D01*
X18399868Y11726968D01*
X18826431Y11726127D01*
X19222913Y11725254D01*
X19588216Y11724351D01*
X19921243Y11723417D01*
X20220897Y11722452D01*
X20486080Y11721457D01*
X20715696Y11720430D01*
X20908646Y11719373D01*
X21063835Y11718285D01*
X21180165Y11717166D01*
X21256538Y11716016D01*
X21291857Y11714836D01*
X21293667Y11714638D01*
X21486555Y11662780D01*
X21663212Y11574347D01*
X21819184Y11453423D01*
X21950017Y11304095D01*
X22051256Y11130448D01*
X22111309Y10964583D01*
X22113613Y10950473D01*
X22115794Y10924987D01*
X22117857Y10887061D01*
X22119804Y10835630D01*
X22121638Y10769630D01*
X22123363Y10687997D01*
X22124981Y10589665D01*
X22126496Y10473571D01*
X22127912Y10338649D01*
X22129230Y10183836D01*
X22130454Y10008066D01*
X22131588Y9810276D01*
X22132635Y9589401D01*
X22133597Y9344375D01*
X22134478Y9074136D01*
X22135281Y8777617D01*
X22136009Y8453756D01*
X22136665Y8101486D01*
X22137252Y7719744D01*
X22137774Y7307465D01*
X22138233Y6863584D01*
X22138634Y6387038D01*
X22138978Y5876761D01*
X22139269Y5331689D01*
X22139511Y4750757D01*
X22139705Y4132902D01*
X22139857Y3477058D01*
X22139967Y2782161D01*
X22140041Y2047146D01*
X22140080Y1270949D01*
X22140082Y1205906D01*
X22140092Y437572D01*
X22140077Y-289560D01*
X22140034Y-976624D01*
X22139959Y-1624753D01*
X22139849Y-2235078D01*
X22139700Y-2808733D01*
X22139507Y-3346850D01*
X22139268Y-3850561D01*
X22138978Y-4321000D01*
X22138633Y-4759297D01*
X22138231Y-5166587D01*
X22137767Y-5544002D01*
X22137238Y-5892674D01*
X22136639Y-6213736D01*
X22135967Y-6508320D01*
X22135219Y-6777559D01*
X22134390Y-7022585D01*
X22133476Y-7244531D01*
X22132475Y-7444530D01*
X22131382Y-7623714D01*
X22130194Y-7783216D01*
X22128907Y-7924167D01*
X22127516Y-8047701D01*
X22126019Y-8154951D01*
X22124412Y-8247048D01*
X22122690Y-8325126D01*
X22120851Y-8390317D01*
X22118889Y-8443753D01*
X22116803Y-8486566D01*
X22114587Y-8519891D01*
X22112239Y-8544858D01*
X22109754Y-8562602D01*
X22107779Y-8571924D01*
X22037942Y-8758759D01*
X21932887Y-8925435D01*
X21796369Y-9068308D01*
X21632147Y-9183738D01*
X21443980Y-9268083D01*
X21364976Y-9291750D01*
X21355165Y-9293477D01*
X21338738Y-9295142D01*
X21314942Y-9296745D01*
X21283021Y-9298286D01*
X21242220Y-9299769D01*
X21191786Y-9301192D01*
X21130963Y-9302558D01*
X21058997Y-9303868D01*
X20975134Y-9305122D01*
X20878619Y-9306322D01*
X20768697Y-9307468D01*
X20644614Y-9308562D01*
X20505615Y-9309606D01*
X20350946Y-9310599D01*
X20179851Y-9311543D01*
X19991577Y-9312439D01*
X19785370Y-9313289D01*
X19560473Y-9314093D01*
X19316133Y-9314852D01*
X19051596Y-9315568D01*
X18766106Y-9316241D01*
X18458909Y-9316873D01*
X18129250Y-9317464D01*
X17776376Y-9318017D01*
X17399531Y-9318531D01*
X16997960Y-9319008D01*
X16570910Y-9319449D01*
X16117626Y-9319855D01*
X15637352Y-9320227D01*
X15129335Y-9320566D01*
X14592820Y-9320874D01*
X14027053Y-9321151D01*
X13431278Y-9321399D01*
X12804741Y-9321618D01*
X12146688Y-9321809D01*
X11456364Y-9321975D01*
X10733015Y-9322115D01*
X9975886Y-9322231D01*
X9184222Y-9322324D01*
X8357268Y-9322395D01*
X7494271Y-9322444D01*
X6594476Y-9322475D01*
X5657128Y-9322486D01*
X4681472Y-9322479D01*
X3666754Y-9322456D01*
X2612220Y-9322418D01*
X1517114Y-9322365D01*
X380683Y-9322299D01*
X-9739Y-9322273D01*
X-1166093Y-9322192D01*
X-2280853Y-9322100D01*
X-3354757Y-9321998D01*
X-4388544Y-9321884D01*
X-5382954Y-9321757D01*
X-6338724Y-9321615D01*
X-7256595Y-9321459D01*
X-8137304Y-9321286D01*
X-8981591Y-9321096D01*
X-9790194Y-9320887D01*
X-10563853Y-9320659D01*
X-11303306Y-9320410D01*
X-12009291Y-9320139D01*
X-12682549Y-9319845D01*
X-13323818Y-9319528D01*
X-13933837Y-9319185D01*
X-14513344Y-9318816D01*
X-15063078Y-9318421D01*
X-15583779Y-9317996D01*
X-16076185Y-9317543D01*
X-16541035Y-9317059D01*
X-16979068Y-9316543D01*
X-17391022Y-9315995D01*
X-17777638Y-9315413D01*
X-18139653Y-9314796D01*
X-18477806Y-9314143D01*
X-18792837Y-9313453D01*
X-19085483Y-9312725D01*
X-19356485Y-9311958D01*
X-19606580Y-9311150D01*
X-19836509Y-9310301D01*
X-20047009Y-9309410D01*
X-20238819Y-9308475D01*
X-20412679Y-9307495D01*
X-20569327Y-9306469D01*
X-20709501Y-9305397D01*
X-20833942Y-9304277D01*
X-20943388Y-9303107D01*
X-21038578Y-9301888D01*
X-21120250Y-9300617D01*
X-21189143Y-9299294D01*
X-21245997Y-9297918D01*
X-21291550Y-9296487D01*
X-21326541Y-9295000D01*
X-21351708Y-9293457D01*
X-21367792Y-9291856D01*
X-21373977Y-9290718D01*
X-21566973Y-9218508D01*
X-21738985Y-9113458D01*
X-21885712Y-8979782D01*
X-22002852Y-8821694D01*
X-22086103Y-8643405D01*
X-22107779Y-8571924D01*
X-22110370Y-8558898D01*
X-22112822Y-8539505D01*
X-22115138Y-8512614D01*
X-22117321Y-8477090D01*
X-22119377Y-8431802D01*
X-22121308Y-8375617D01*
X-22123119Y-8307403D01*
X-22124813Y-8226026D01*
X-22126393Y-8130355D01*
X-22127864Y-8019257D01*
X-22129229Y-7891599D01*
X-22130492Y-7746249D01*
X-22131657Y-7582075D01*
X-22132727Y-7397943D01*
X-22133706Y-7192721D01*
X-22134599Y-6965277D01*
X-22135408Y-6714478D01*
X-22136137Y-6439191D01*
X-22136791Y-6138284D01*
X-22137373Y-5810625D01*
X-22137886Y-5455081D01*
X-22138335Y-5070519D01*
X-22138722Y-4655807D01*
X-22139053Y-4209812D01*
X-22139330Y-3731402D01*
X-22139558Y-3219444D01*
X-22139740Y-2672805D01*
X-22139880Y-2090354D01*
X-22139981Y-1470957D01*
X-22140048Y-813482D01*
X-22140058Y-610879D01*
X-14691160Y-610879D01*
X-14667324Y-1006051D01*
X-14605937Y-1400860D01*
X-14591550Y-1468360D01*
X-14486308Y-1853439D01*
X-14347093Y-2217425D01*
X-14175824Y-2558596D01*
X-13974415Y-2875230D01*
X-13744786Y-3165605D01*
X-13488851Y-3428000D01*
X-13208529Y-3660693D01*
X-12905736Y-3861963D01*
X-12582389Y-4030087D01*
X-12240404Y-4163344D01*
X-11881700Y-4260012D01*
X-11508192Y-4318369D01*
X-11408833Y-4327059D01*
X-11368936Y-4328428D01*
X-11288254Y-4329749D01*
X-11168314Y-4331021D01*
X-11010637Y-4332243D01*
X-10816749Y-4333416D01*
X-10588172Y-4334539D01*
X-10326431Y-4335613D01*
X-10033050Y-4336638D01*
X-9709553Y-4337613D01*
X-9357462Y-4338539D01*
X-8978302Y-4339415D01*
X-8573598Y-4340241D01*
X-8144872Y-4341018D01*
X-7693648Y-4341745D01*
X-7221451Y-4342423D01*
X-6729803Y-4343051D01*
X-6220230Y-4343629D01*
X-5694255Y-4344157D01*
X-5153401Y-4344635D01*
X-4599192Y-4345064D01*
X-4033153Y-4345442D01*
X-3456806Y-4345771D01*
X-2871677Y-4346050D01*
X-2279288Y-4346278D01*
X-1681163Y-4346457D01*
X-1078827Y-4346585D01*
X-473803Y-4346663D01*
X132385Y-4346692D01*
X738214Y-4346669D01*
X1342159Y-4346597D01*
X1942696Y-4346475D01*
X2538303Y-4346302D01*
X3127454Y-4346078D01*
X3708627Y-4345805D01*
X4280297Y-4345481D01*
X4840940Y-4345106D01*
X5389033Y-4344681D01*
X5923052Y-4344205D01*
X6441473Y-4343679D01*
X6942773Y-4343103D01*
X7425427Y-4342475D01*
X7887911Y-4341797D01*
X8328703Y-4341068D01*
X8746277Y-4340289D01*
X9139111Y-4339458D01*
X9505680Y-4338577D01*
X9844460Y-4337645D01*
X10153928Y-4336662D01*
X10432561Y-4335628D01*
X10678833Y-4334544D01*
X10891221Y-4333408D01*
X11068202Y-4332221D01*
X11208252Y-4330983D01*
X11309846Y-4329694D01*
X11371462Y-4328354D01*
X11387667Y-4327602D01*
X11688567Y-4295763D01*
X11962505Y-4246486D01*
X12222517Y-4176201D01*
X12481639Y-4081337D01*
X12752906Y-3958325D01*
X12774083Y-3947875D01*
X13101845Y-3761958D01*
X13407305Y-3541438D01*
X13688185Y-3289010D01*
X13942208Y-3007368D01*
X14167095Y-2699208D01*
X14360570Y-2367222D01*
X14520355Y-2014108D01*
X14601491Y-1785785D01*
X14704623Y-1396748D01*
X14768192Y-1002181D01*
X14792754Y-605542D01*
X14778866Y-210291D01*
X14727087Y180115D01*
X14637972Y562217D01*
X14512079Y932557D01*
X14349966Y1287677D01*
X14152189Y1624118D01*
X14022546Y1807755D01*
X13903852Y1953031D01*
X13760477Y2109003D01*
X13603063Y2265314D01*
X13442253Y2411609D01*
X13288690Y2537532D01*
X13221928Y2586817D01*
X13072462Y2684221D01*
X12897754Y2784826D01*
X12712153Y2881193D01*
X12530012Y2965889D01*
X12365679Y3031477D01*
X12359669Y3033601D01*
X12122011Y3105856D01*
X11860691Y3165607D01*
X11593448Y3209187D01*
X11421634Y3227378D01*
X11380166Y3229002D01*
X11297891Y3230566D01*
X11176337Y3232070D01*
X11017032Y3233515D01*
X10821503Y3234900D01*
X10591277Y3236225D01*
X10327882Y3237491D01*
X10032844Y3238697D01*
X9707691Y3239844D01*
X9353951Y3240931D01*
X8973151Y3241958D01*
X8566817Y3242925D01*
X8136477Y3243833D01*
X7683660Y3244681D01*
X7209890Y3245470D01*
X6716697Y3246199D01*
X6205608Y3246868D01*
X5678149Y3247478D01*
X5135848Y3248027D01*
X4580232Y3248518D01*
X4012829Y3248948D01*
X3435166Y3249319D01*
X2848770Y3249630D01*
X2255169Y3249882D01*
X1655889Y3250074D01*
X1052458Y3250206D01*
X446404Y3250279D01*
X-160747Y3250292D01*
X-767467Y3250245D01*
X-1372229Y3250139D01*
X-1973505Y3249973D01*
X-2569768Y3249747D01*
X-3159491Y3249462D01*
X-3741147Y3249117D01*
X-4313208Y3248713D01*
X-4874147Y3248248D01*
X-5422437Y3247724D01*
X-5956550Y3247141D01*
X-6474960Y3246498D01*
X-6976138Y3245795D01*
X-7458558Y3245032D01*
X-7920692Y3244210D01*
X-8361013Y3243328D01*
X-8777994Y3242387D01*
X-9170107Y3241385D01*
X-9535825Y3240325D01*
X-9873621Y3239204D01*
X-10181968Y3238024D01*
X-10459337Y3236784D01*
X-10704203Y3235485D01*
X-10915037Y3234126D01*
X-11090313Y3232707D01*
X-11228502Y3231228D01*
X-11328079Y3229690D01*
X-11387514Y3228093D01*
X-11400468Y3227378D01*
X-11788666Y3177033D01*
X-12156736Y3089715D01*
X-12506313Y2964760D01*
X-12839035Y2801506D01*
X-13156538Y2599290D01*
X-13383023Y2423867D01*
X-13651568Y2172189D01*
X-13891677Y1891523D01*
X-14102337Y1585129D01*
X-14282535Y1256270D01*
X-14431259Y908205D01*
X-14547496Y544197D01*
X-14630234Y167506D01*
X-14678459Y-218607D01*
X-14691160Y-610879D01*
X-22140058Y-610879D01*
X-22140083Y-116796D01*
X-22140092Y620232D01*
%TD*%
M02*
