%TF.GenerationSoftware,KiCad,Pcbnew,(6.0.4)*%
%TF.CreationDate,2022-04-09T23:43:22+02:00*%
%TF.ProjectId,cloud,636c6f75-642e-46b6-9963-61645f706362,rev?*%
%TF.SameCoordinates,Original*%
%TF.FileFunction,Legend,Top*%
%TF.FilePolarity,Positive*%
%FSLAX46Y46*%
G04 Gerber Fmt 4.6, Leading zero omitted, Abs format (unit mm)*
G04 Created by KiCad (PCBNEW (6.0.4)) date 2022-04-09 23:43:22*
%MOMM*%
%LPD*%
G01*
G04 APERTURE LIST*
%ADD10C,0.010000*%
G04 APERTURE END LIST*
%TO.C,N1*%
G36*
X-14261814Y-2413940D02*
G01*
X-14092232Y-2414509D01*
X-13888080Y-2415775D01*
X-13657115Y-2417656D01*
X-13407091Y-2420074D01*
X-13145765Y-2422947D01*
X-12880894Y-2426195D01*
X-12620233Y-2429739D01*
X-12371917Y-2433492D01*
X-12119233Y-2437596D01*
X-11905141Y-2441297D01*
X-11725903Y-2444777D01*
X-11577781Y-2448220D01*
X-11457039Y-2451809D01*
X-11359938Y-2455730D01*
X-11282741Y-2460164D01*
X-11221711Y-2465297D01*
X-11173109Y-2471312D01*
X-11133199Y-2478392D01*
X-11098243Y-2486721D01*
X-11064503Y-2496483D01*
X-11059583Y-2497999D01*
X-10827089Y-2587672D01*
X-10624909Y-2704292D01*
X-10448482Y-2850813D01*
X-10351327Y-2956410D01*
X-10259428Y-3076951D01*
X-10182743Y-3203324D01*
X-10114194Y-3348445D01*
X-10060018Y-3487925D01*
X-9985525Y-3693583D01*
X-9984604Y-4169833D01*
X-9985009Y-4342439D01*
X-9987240Y-4479948D01*
X-9991700Y-4589572D01*
X-9998794Y-4678525D01*
X-10008924Y-4754019D01*
X-10020752Y-4815417D01*
X-10094265Y-5062455D01*
X-10200861Y-5283080D01*
X-10340531Y-5477285D01*
X-10513267Y-5645060D01*
X-10719063Y-5786398D01*
X-10957911Y-5901291D01*
X-11059583Y-5938782D01*
X-11121501Y-5958875D01*
X-11178413Y-5974066D01*
X-11238310Y-5985300D01*
X-11309183Y-5993524D01*
X-11399023Y-5999682D01*
X-11515819Y-6004721D01*
X-11654564Y-6009200D01*
X-12080211Y-6021917D01*
X-11657429Y-6741583D01*
X-11546157Y-6931255D01*
X-11427330Y-7134284D01*
X-11302851Y-7347381D01*
X-11174626Y-7567260D01*
X-11044560Y-7790634D01*
X-10914555Y-8014215D01*
X-10786518Y-8234716D01*
X-10662352Y-8448850D01*
X-10543961Y-8653329D01*
X-10433251Y-8844867D01*
X-10332126Y-9020176D01*
X-10242490Y-9175968D01*
X-10166248Y-9308958D01*
X-10105304Y-9415856D01*
X-10061563Y-9493377D01*
X-10036928Y-9538232D01*
X-10034649Y-9542625D01*
X-9998644Y-9650453D01*
X-9986792Y-9773517D01*
X-9999258Y-9894564D01*
X-10030430Y-9985629D01*
X-10093738Y-10076984D01*
X-10181553Y-10162182D01*
X-10277452Y-10225966D01*
X-10300656Y-10236731D01*
X-10410957Y-10263515D01*
X-10536812Y-10263397D01*
X-10661941Y-10237377D01*
X-10728557Y-10210419D01*
X-10797976Y-10169712D01*
X-10856706Y-10124750D01*
X-10881222Y-10098923D01*
X-10897313Y-10073448D01*
X-10933374Y-10013865D01*
X-10987976Y-9922590D01*
X-11059690Y-9802043D01*
X-11147088Y-9654641D01*
X-11248741Y-9482801D01*
X-11363219Y-9288942D01*
X-11489095Y-9075482D01*
X-11624938Y-8844839D01*
X-11769322Y-8599430D01*
X-11920815Y-8341673D01*
X-12077991Y-8073987D01*
X-12102408Y-8032379D01*
X-13282132Y-6021917D01*
X-13970000Y-6010285D01*
X-13970465Y-7952851D01*
X-13970578Y-8284328D01*
X-13970781Y-8576134D01*
X-13971128Y-8830929D01*
X-13971669Y-9051374D01*
X-13972457Y-9240132D01*
X-13973543Y-9399862D01*
X-13974980Y-9533226D01*
X-13976817Y-9642887D01*
X-13979109Y-9731503D01*
X-13981906Y-9801739D01*
X-13985259Y-9856253D01*
X-13989222Y-9897708D01*
X-13993845Y-9928765D01*
X-13999181Y-9952085D01*
X-14005281Y-9970330D01*
X-14009923Y-9981264D01*
X-14067566Y-10069930D01*
X-14151327Y-10152712D01*
X-14246350Y-10216548D01*
X-14305671Y-10241268D01*
X-14404519Y-10259448D01*
X-14515712Y-10262688D01*
X-14618245Y-10251046D01*
X-14657917Y-10240294D01*
X-14772538Y-10178755D01*
X-14871423Y-10082524D01*
X-14916737Y-10016408D01*
X-14975417Y-9916583D01*
X-14981481Y-6164792D01*
X-14983398Y-4978227D01*
X-13970000Y-4978227D01*
X-12673542Y-4970905D01*
X-11377083Y-4963583D01*
X-11271362Y-4910667D01*
X-11180616Y-4850162D01*
X-11110643Y-4767780D01*
X-11059940Y-4659603D01*
X-11027005Y-4521716D01*
X-11010337Y-4350202D01*
X-11007512Y-4222750D01*
X-11013280Y-4035666D01*
X-11031962Y-3883981D01*
X-11065600Y-3762180D01*
X-11116238Y-3664748D01*
X-11185917Y-3586169D01*
X-11264786Y-3528126D01*
X-11362846Y-3467500D01*
X-12666423Y-3455555D01*
X-13970000Y-3443609D01*
X-13970000Y-4978227D01*
X-14983398Y-4978227D01*
X-14987545Y-2413000D01*
X-14261814Y-2413940D01*
G37*
D10*
X-14261814Y-2413940D02*
X-14092232Y-2414509D01*
X-13888080Y-2415775D01*
X-13657115Y-2417656D01*
X-13407091Y-2420074D01*
X-13145765Y-2422947D01*
X-12880894Y-2426195D01*
X-12620233Y-2429739D01*
X-12371917Y-2433492D01*
X-12119233Y-2437596D01*
X-11905141Y-2441297D01*
X-11725903Y-2444777D01*
X-11577781Y-2448220D01*
X-11457039Y-2451809D01*
X-11359938Y-2455730D01*
X-11282741Y-2460164D01*
X-11221711Y-2465297D01*
X-11173109Y-2471312D01*
X-11133199Y-2478392D01*
X-11098243Y-2486721D01*
X-11064503Y-2496483D01*
X-11059583Y-2497999D01*
X-10827089Y-2587672D01*
X-10624909Y-2704292D01*
X-10448482Y-2850813D01*
X-10351327Y-2956410D01*
X-10259428Y-3076951D01*
X-10182743Y-3203324D01*
X-10114194Y-3348445D01*
X-10060018Y-3487925D01*
X-9985525Y-3693583D01*
X-9984604Y-4169833D01*
X-9985009Y-4342439D01*
X-9987240Y-4479948D01*
X-9991700Y-4589572D01*
X-9998794Y-4678525D01*
X-10008924Y-4754019D01*
X-10020752Y-4815417D01*
X-10094265Y-5062455D01*
X-10200861Y-5283080D01*
X-10340531Y-5477285D01*
X-10513267Y-5645060D01*
X-10719063Y-5786398D01*
X-10957911Y-5901291D01*
X-11059583Y-5938782D01*
X-11121501Y-5958875D01*
X-11178413Y-5974066D01*
X-11238310Y-5985300D01*
X-11309183Y-5993524D01*
X-11399023Y-5999682D01*
X-11515819Y-6004721D01*
X-11654564Y-6009200D01*
X-12080211Y-6021917D01*
X-11657429Y-6741583D01*
X-11546157Y-6931255D01*
X-11427330Y-7134284D01*
X-11302851Y-7347381D01*
X-11174626Y-7567260D01*
X-11044560Y-7790634D01*
X-10914555Y-8014215D01*
X-10786518Y-8234716D01*
X-10662352Y-8448850D01*
X-10543961Y-8653329D01*
X-10433251Y-8844867D01*
X-10332126Y-9020176D01*
X-10242490Y-9175968D01*
X-10166248Y-9308958D01*
X-10105304Y-9415856D01*
X-10061563Y-9493377D01*
X-10036928Y-9538232D01*
X-10034649Y-9542625D01*
X-9998644Y-9650453D01*
X-9986792Y-9773517D01*
X-9999258Y-9894564D01*
X-10030430Y-9985629D01*
X-10093738Y-10076984D01*
X-10181553Y-10162182D01*
X-10277452Y-10225966D01*
X-10300656Y-10236731D01*
X-10410957Y-10263515D01*
X-10536812Y-10263397D01*
X-10661941Y-10237377D01*
X-10728557Y-10210419D01*
X-10797976Y-10169712D01*
X-10856706Y-10124750D01*
X-10881222Y-10098923D01*
X-10897313Y-10073448D01*
X-10933374Y-10013865D01*
X-10987976Y-9922590D01*
X-11059690Y-9802043D01*
X-11147088Y-9654641D01*
X-11248741Y-9482801D01*
X-11363219Y-9288942D01*
X-11489095Y-9075482D01*
X-11624938Y-8844839D01*
X-11769322Y-8599430D01*
X-11920815Y-8341673D01*
X-12077991Y-8073987D01*
X-12102408Y-8032379D01*
X-13282132Y-6021917D01*
X-13970000Y-6010285D01*
X-13970465Y-7952851D01*
X-13970578Y-8284328D01*
X-13970781Y-8576134D01*
X-13971128Y-8830929D01*
X-13971669Y-9051374D01*
X-13972457Y-9240132D01*
X-13973543Y-9399862D01*
X-13974980Y-9533226D01*
X-13976817Y-9642887D01*
X-13979109Y-9731503D01*
X-13981906Y-9801739D01*
X-13985259Y-9856253D01*
X-13989222Y-9897708D01*
X-13993845Y-9928765D01*
X-13999181Y-9952085D01*
X-14005281Y-9970330D01*
X-14009923Y-9981264D01*
X-14067566Y-10069930D01*
X-14151327Y-10152712D01*
X-14246350Y-10216548D01*
X-14305671Y-10241268D01*
X-14404519Y-10259448D01*
X-14515712Y-10262688D01*
X-14618245Y-10251046D01*
X-14657917Y-10240294D01*
X-14772538Y-10178755D01*
X-14871423Y-10082524D01*
X-14916737Y-10016408D01*
X-14975417Y-9916583D01*
X-14981481Y-6164792D01*
X-14983398Y-4978227D01*
X-13970000Y-4978227D01*
X-12673542Y-4970905D01*
X-11377083Y-4963583D01*
X-11271362Y-4910667D01*
X-11180616Y-4850162D01*
X-11110643Y-4767780D01*
X-11059940Y-4659603D01*
X-11027005Y-4521716D01*
X-11010337Y-4350202D01*
X-11007512Y-4222750D01*
X-11013280Y-4035666D01*
X-11031962Y-3883981D01*
X-11065600Y-3762180D01*
X-11116238Y-3664748D01*
X-11185917Y-3586169D01*
X-11264786Y-3528126D01*
X-11362846Y-3467500D01*
X-12666423Y-3455555D01*
X-13970000Y-3443609D01*
X-13970000Y-4978227D01*
X-14983398Y-4978227D01*
X-14987545Y-2413000D01*
X-14261814Y-2413940D01*
G36*
X-6429375Y-2422663D02*
G01*
X-6065126Y-2425113D01*
X-5740800Y-2427394D01*
X-5453987Y-2429558D01*
X-5202277Y-2431658D01*
X-4983261Y-2433748D01*
X-4794530Y-2435879D01*
X-4633672Y-2438106D01*
X-4498279Y-2440480D01*
X-4385941Y-2443055D01*
X-4294247Y-2445883D01*
X-4220789Y-2449019D01*
X-4163156Y-2452514D01*
X-4118939Y-2456421D01*
X-4085728Y-2460793D01*
X-4061113Y-2465684D01*
X-4042684Y-2471147D01*
X-4032250Y-2475305D01*
X-3915253Y-2549244D01*
X-3822744Y-2654186D01*
X-3786269Y-2719917D01*
X-3757457Y-2818982D01*
X-3747335Y-2937435D01*
X-3755915Y-3056672D01*
X-3783208Y-3158090D01*
X-3785990Y-3164417D01*
X-3841026Y-3251146D01*
X-3919396Y-3332540D01*
X-4007605Y-3396459D01*
X-4078377Y-3427473D01*
X-4117187Y-3432189D01*
X-4197702Y-3436351D01*
X-4320000Y-3439960D01*
X-4484160Y-3443017D01*
X-4690259Y-3445522D01*
X-4938374Y-3447476D01*
X-5228585Y-3448882D01*
X-5560968Y-3449739D01*
X-5935602Y-3450048D01*
X-5942542Y-3450048D01*
X-7725833Y-3450167D01*
X-7725833Y-5820833D01*
X-7381875Y-5822006D01*
X-7147556Y-5823862D01*
X-6923860Y-5827672D01*
X-6714851Y-5833235D01*
X-6524592Y-5840353D01*
X-6357146Y-5848826D01*
X-6216575Y-5858453D01*
X-6106944Y-5869036D01*
X-6032314Y-5880374D01*
X-6000449Y-5889903D01*
X-5892701Y-5968667D01*
X-5811434Y-6073991D01*
X-5759115Y-6197571D01*
X-5738212Y-6331102D01*
X-5751192Y-6466281D01*
X-5794375Y-6583430D01*
X-5871318Y-6699597D01*
X-5963845Y-6779095D01*
X-6077986Y-6826496D01*
X-6129034Y-6837168D01*
X-6180083Y-6842067D01*
X-6267499Y-6846556D01*
X-6385317Y-6850493D01*
X-6527572Y-6853732D01*
X-6688298Y-6856132D01*
X-6861530Y-6857547D01*
X-6990292Y-6857877D01*
X-7725833Y-6858000D01*
X-7725833Y-9221853D01*
X-5922254Y-9236805D01*
X-5603468Y-9239485D01*
X-5324235Y-9241952D01*
X-5081778Y-9244285D01*
X-4873316Y-9246566D01*
X-4696072Y-9248876D01*
X-4547267Y-9251295D01*
X-4424122Y-9253903D01*
X-4323858Y-9256783D01*
X-4243696Y-9260014D01*
X-4180859Y-9263677D01*
X-4132566Y-9267854D01*
X-4096040Y-9272624D01*
X-4068502Y-9278069D01*
X-4047173Y-9284269D01*
X-4029274Y-9291305D01*
X-4027994Y-9291869D01*
X-3909933Y-9365592D01*
X-3822568Y-9467307D01*
X-3767686Y-9594079D01*
X-3747076Y-9742973D01*
X-3746965Y-9753221D01*
X-3762337Y-9902528D01*
X-3810662Y-10025984D01*
X-3893546Y-10126190D01*
X-4012590Y-10205742D01*
X-4032250Y-10215387D01*
X-4138083Y-10265420D01*
X-6439958Y-10265626D01*
X-8741833Y-10265833D01*
X-8741833Y-2407329D01*
X-6429375Y-2422663D01*
G37*
X-6429375Y-2422663D02*
X-6065126Y-2425113D01*
X-5740800Y-2427394D01*
X-5453987Y-2429558D01*
X-5202277Y-2431658D01*
X-4983261Y-2433748D01*
X-4794530Y-2435879D01*
X-4633672Y-2438106D01*
X-4498279Y-2440480D01*
X-4385941Y-2443055D01*
X-4294247Y-2445883D01*
X-4220789Y-2449019D01*
X-4163156Y-2452514D01*
X-4118939Y-2456421D01*
X-4085728Y-2460793D01*
X-4061113Y-2465684D01*
X-4042684Y-2471147D01*
X-4032250Y-2475305D01*
X-3915253Y-2549244D01*
X-3822744Y-2654186D01*
X-3786269Y-2719917D01*
X-3757457Y-2818982D01*
X-3747335Y-2937435D01*
X-3755915Y-3056672D01*
X-3783208Y-3158090D01*
X-3785990Y-3164417D01*
X-3841026Y-3251146D01*
X-3919396Y-3332540D01*
X-4007605Y-3396459D01*
X-4078377Y-3427473D01*
X-4117187Y-3432189D01*
X-4197702Y-3436351D01*
X-4320000Y-3439960D01*
X-4484160Y-3443017D01*
X-4690259Y-3445522D01*
X-4938374Y-3447476D01*
X-5228585Y-3448882D01*
X-5560968Y-3449739D01*
X-5935602Y-3450048D01*
X-5942542Y-3450048D01*
X-7725833Y-3450167D01*
X-7725833Y-5820833D01*
X-7381875Y-5822006D01*
X-7147556Y-5823862D01*
X-6923860Y-5827672D01*
X-6714851Y-5833235D01*
X-6524592Y-5840353D01*
X-6357146Y-5848826D01*
X-6216575Y-5858453D01*
X-6106944Y-5869036D01*
X-6032314Y-5880374D01*
X-6000449Y-5889903D01*
X-5892701Y-5968667D01*
X-5811434Y-6073991D01*
X-5759115Y-6197571D01*
X-5738212Y-6331102D01*
X-5751192Y-6466281D01*
X-5794375Y-6583430D01*
X-5871318Y-6699597D01*
X-5963845Y-6779095D01*
X-6077986Y-6826496D01*
X-6129034Y-6837168D01*
X-6180083Y-6842067D01*
X-6267499Y-6846556D01*
X-6385317Y-6850493D01*
X-6527572Y-6853732D01*
X-6688298Y-6856132D01*
X-6861530Y-6857547D01*
X-6990292Y-6857877D01*
X-7725833Y-6858000D01*
X-7725833Y-9221853D01*
X-5922254Y-9236805D01*
X-5603468Y-9239485D01*
X-5324235Y-9241952D01*
X-5081778Y-9244285D01*
X-4873316Y-9246566D01*
X-4696072Y-9248876D01*
X-4547267Y-9251295D01*
X-4424122Y-9253903D01*
X-4323858Y-9256783D01*
X-4243696Y-9260014D01*
X-4180859Y-9263677D01*
X-4132566Y-9267854D01*
X-4096040Y-9272624D01*
X-4068502Y-9278069D01*
X-4047173Y-9284269D01*
X-4029274Y-9291305D01*
X-4027994Y-9291869D01*
X-3909933Y-9365592D01*
X-3822568Y-9467307D01*
X-3767686Y-9594079D01*
X-3747076Y-9742973D01*
X-3746965Y-9753221D01*
X-3762337Y-9902528D01*
X-3810662Y-10025984D01*
X-3893546Y-10126190D01*
X-4012590Y-10205742D01*
X-4032250Y-10215387D01*
X-4138083Y-10265420D01*
X-6439958Y-10265626D01*
X-8741833Y-10265833D01*
X-8741833Y-2407329D01*
X-6429375Y-2422663D01*
G36*
X-1826295Y-2422986D02*
G01*
X-1662210Y-2426866D01*
X-1512387Y-2430585D01*
X-1381885Y-2434004D01*
X-1275762Y-2436984D01*
X-1199077Y-2439384D01*
X-1156887Y-2441066D01*
X-1150222Y-2441633D01*
X-1141425Y-2461026D01*
X-1116803Y-2516513D01*
X-1077533Y-2605415D01*
X-1024792Y-2725057D01*
X-959757Y-2872762D01*
X-883606Y-3045854D01*
X-797517Y-3241656D01*
X-702665Y-3457492D01*
X-600230Y-3690686D01*
X-491388Y-3938562D01*
X-377317Y-4198443D01*
X-343428Y-4275667D01*
X-213263Y-4572243D01*
X-77444Y-4881603D01*
X61638Y-5198307D01*
X201592Y-5516914D01*
X340028Y-5831983D01*
X474554Y-6138076D01*
X602780Y-6429751D01*
X722315Y-6701568D01*
X830768Y-6948086D01*
X925748Y-7163866D01*
X965543Y-7254226D01*
X1471083Y-8401868D01*
X1481667Y-5592642D01*
X1483218Y-5188922D01*
X1484697Y-4825388D01*
X1486138Y-4499893D01*
X1487575Y-4210290D01*
X1489042Y-3954432D01*
X1490575Y-3730171D01*
X1492208Y-3535362D01*
X1493975Y-3367855D01*
X1495910Y-3225505D01*
X1498048Y-3106165D01*
X1500424Y-3007687D01*
X1503072Y-2927924D01*
X1506027Y-2864729D01*
X1509322Y-2815955D01*
X1512993Y-2779454D01*
X1517074Y-2753081D01*
X1521599Y-2734688D01*
X1526603Y-2722127D01*
X1527780Y-2719917D01*
X1619431Y-2594517D01*
X1733230Y-2504010D01*
X1866224Y-2450198D01*
X1995638Y-2434631D01*
X2143536Y-2453192D01*
X2272635Y-2509487D01*
X2381520Y-2602651D01*
X2462480Y-2719917D01*
X2508250Y-2804583D01*
X2514953Y-6535208D01*
X2521657Y-10265833D01*
X1148305Y-10265833D01*
X958955Y-9837208D01*
X926718Y-9764039D01*
X878755Y-9654892D01*
X816296Y-9512577D01*
X740571Y-9339905D01*
X652812Y-9139684D01*
X554250Y-8914727D01*
X446115Y-8667842D01*
X329638Y-8401841D01*
X206051Y-8119532D01*
X76583Y-7823728D01*
X-57534Y-7517237D01*
X-195068Y-7202871D01*
X-334791Y-6883439D01*
X-340156Y-6871171D01*
X-1449917Y-4333759D01*
X-1462856Y-5029671D01*
X-1464782Y-5153613D01*
X-1466694Y-5315613D01*
X-1468567Y-5511396D01*
X-1470377Y-5736688D01*
X-1472098Y-5987212D01*
X-1473704Y-6258694D01*
X-1475172Y-6546859D01*
X-1476475Y-6847432D01*
X-1477588Y-7156138D01*
X-1478487Y-7468701D01*
X-1479146Y-7780846D01*
X-1479196Y-7810500D01*
X-1479786Y-8154509D01*
X-1480402Y-8458744D01*
X-1481092Y-8725767D01*
X-1481908Y-8958136D01*
X-1482900Y-9158413D01*
X-1484118Y-9329157D01*
X-1485612Y-9472928D01*
X-1487434Y-9592287D01*
X-1489633Y-9689794D01*
X-1492259Y-9768008D01*
X-1495364Y-9829490D01*
X-1498997Y-9876801D01*
X-1503209Y-9912499D01*
X-1508050Y-9939146D01*
X-1513570Y-9959301D01*
X-1519821Y-9975525D01*
X-1521880Y-9980083D01*
X-1595536Y-10091140D01*
X-1697714Y-10178078D01*
X-1820039Y-10237531D01*
X-1954136Y-10266137D01*
X-2091631Y-10260530D01*
X-2169583Y-10240294D01*
X-2284205Y-10178755D01*
X-2383090Y-10082524D01*
X-2428403Y-10016408D01*
X-2487083Y-9916583D01*
X-2493045Y-6162020D01*
X-2499006Y-2407457D01*
X-1826295Y-2422986D01*
G37*
X-1826295Y-2422986D02*
X-1662210Y-2426866D01*
X-1512387Y-2430585D01*
X-1381885Y-2434004D01*
X-1275762Y-2436984D01*
X-1199077Y-2439384D01*
X-1156887Y-2441066D01*
X-1150222Y-2441633D01*
X-1141425Y-2461026D01*
X-1116803Y-2516513D01*
X-1077533Y-2605415D01*
X-1024792Y-2725057D01*
X-959757Y-2872762D01*
X-883606Y-3045854D01*
X-797517Y-3241656D01*
X-702665Y-3457492D01*
X-600230Y-3690686D01*
X-491388Y-3938562D01*
X-377317Y-4198443D01*
X-343428Y-4275667D01*
X-213263Y-4572243D01*
X-77444Y-4881603D01*
X61638Y-5198307D01*
X201592Y-5516914D01*
X340028Y-5831983D01*
X474554Y-6138076D01*
X602780Y-6429751D01*
X722315Y-6701568D01*
X830768Y-6948086D01*
X925748Y-7163866D01*
X965543Y-7254226D01*
X1471083Y-8401868D01*
X1481667Y-5592642D01*
X1483218Y-5188922D01*
X1484697Y-4825388D01*
X1486138Y-4499893D01*
X1487575Y-4210290D01*
X1489042Y-3954432D01*
X1490575Y-3730171D01*
X1492208Y-3535362D01*
X1493975Y-3367855D01*
X1495910Y-3225505D01*
X1498048Y-3106165D01*
X1500424Y-3007687D01*
X1503072Y-2927924D01*
X1506027Y-2864729D01*
X1509322Y-2815955D01*
X1512993Y-2779454D01*
X1517074Y-2753081D01*
X1521599Y-2734688D01*
X1526603Y-2722127D01*
X1527780Y-2719917D01*
X1619431Y-2594517D01*
X1733230Y-2504010D01*
X1866224Y-2450198D01*
X1995638Y-2434631D01*
X2143536Y-2453192D01*
X2272635Y-2509487D01*
X2381520Y-2602651D01*
X2462480Y-2719917D01*
X2508250Y-2804583D01*
X2514953Y-6535208D01*
X2521657Y-10265833D01*
X1148305Y-10265833D01*
X958955Y-9837208D01*
X926718Y-9764039D01*
X878755Y-9654892D01*
X816296Y-9512577D01*
X740571Y-9339905D01*
X652812Y-9139684D01*
X554250Y-8914727D01*
X446115Y-8667842D01*
X329638Y-8401841D01*
X206051Y-8119532D01*
X76583Y-7823728D01*
X-57534Y-7517237D01*
X-195068Y-7202871D01*
X-334791Y-6883439D01*
X-340156Y-6871171D01*
X-1449917Y-4333759D01*
X-1462856Y-5029671D01*
X-1464782Y-5153613D01*
X-1466694Y-5315613D01*
X-1468567Y-5511396D01*
X-1470377Y-5736688D01*
X-1472098Y-5987212D01*
X-1473704Y-6258694D01*
X-1475172Y-6546859D01*
X-1476475Y-6847432D01*
X-1477588Y-7156138D01*
X-1478487Y-7468701D01*
X-1479146Y-7780846D01*
X-1479196Y-7810500D01*
X-1479786Y-8154509D01*
X-1480402Y-8458744D01*
X-1481092Y-8725767D01*
X-1481908Y-8958136D01*
X-1482900Y-9158413D01*
X-1484118Y-9329157D01*
X-1485612Y-9472928D01*
X-1487434Y-9592287D01*
X-1489633Y-9689794D01*
X-1492259Y-9768008D01*
X-1495364Y-9829490D01*
X-1498997Y-9876801D01*
X-1503209Y-9912499D01*
X-1508050Y-9939146D01*
X-1513570Y-9959301D01*
X-1519821Y-9975525D01*
X-1521880Y-9980083D01*
X-1595536Y-10091140D01*
X-1697714Y-10178078D01*
X-1820039Y-10237531D01*
X-1954136Y-10266137D01*
X-2091631Y-10260530D01*
X-2169583Y-10240294D01*
X-2284205Y-10178755D01*
X-2383090Y-10082524D01*
X-2428403Y-10016408D01*
X-2487083Y-9916583D01*
X-2493045Y-6162020D01*
X-2499006Y-2407457D01*
X-1826295Y-2422986D01*
G36*
X7927868Y-2418038D02*
G01*
X8001000Y-2418432D01*
X8752417Y-2423583D01*
X8758256Y-2745804D01*
X8764096Y-3068025D01*
X7231616Y-5687971D01*
X7047064Y-6003494D01*
X6865091Y-6314630D01*
X6687184Y-6618835D01*
X6514829Y-6913567D01*
X6349513Y-7196281D01*
X6192724Y-7464436D01*
X6045948Y-7715487D01*
X5910671Y-7946891D01*
X5788381Y-8156106D01*
X5680565Y-8340587D01*
X5588709Y-8497793D01*
X5514301Y-8625179D01*
X5458826Y-8720202D01*
X5433863Y-8763000D01*
X5168589Y-9218083D01*
X6759420Y-9234168D01*
X7067006Y-9237271D01*
X7335192Y-9240099D01*
X7566905Y-9242887D01*
X7765074Y-9245870D01*
X7932628Y-9249283D01*
X8072497Y-9253361D01*
X8187608Y-9258339D01*
X8280891Y-9264452D01*
X8355275Y-9271936D01*
X8413688Y-9281024D01*
X8459059Y-9291953D01*
X8494318Y-9304957D01*
X8522393Y-9320271D01*
X8546212Y-9338131D01*
X8568706Y-9358771D01*
X8591538Y-9381193D01*
X8666299Y-9469246D01*
X8711621Y-9564113D01*
X8734311Y-9680961D01*
X8736396Y-9703960D01*
X8732082Y-9860353D01*
X8692456Y-9993399D01*
X8617523Y-10103094D01*
X8507285Y-10189429D01*
X8456237Y-10216064D01*
X8350250Y-10265420D01*
X6048375Y-10265626D01*
X3746500Y-10265833D01*
X3746500Y-9597824D01*
X4426625Y-8434287D01*
X4728657Y-7917520D01*
X5016356Y-7425152D01*
X5289294Y-6957919D01*
X5547044Y-6516556D01*
X5789177Y-6101796D01*
X6015266Y-5714374D01*
X6224882Y-5355025D01*
X6417597Y-5024484D01*
X6592985Y-4723484D01*
X6750616Y-4452761D01*
X6890062Y-4213050D01*
X7010897Y-4005084D01*
X7112691Y-3829599D01*
X7195016Y-3687329D01*
X7257446Y-3579009D01*
X7299551Y-3505372D01*
X7320905Y-3467155D01*
X7323667Y-3461540D01*
X7303047Y-3459709D01*
X7243374Y-3457968D01*
X7147928Y-3456343D01*
X7019989Y-3454856D01*
X6862838Y-3453531D01*
X6679755Y-3452392D01*
X6474020Y-3451462D01*
X6248913Y-3450766D01*
X6007715Y-3450326D01*
X5753705Y-3450167D01*
X5743914Y-3450167D01*
X5415249Y-3449946D01*
X5127196Y-3449267D01*
X4878037Y-3448105D01*
X4666053Y-3446434D01*
X4489527Y-3444229D01*
X4346739Y-3441464D01*
X4235970Y-3438114D01*
X4155503Y-3434154D01*
X4103618Y-3429558D01*
X4082170Y-3425601D01*
X3983073Y-3377980D01*
X3888661Y-3301300D01*
X3812823Y-3207826D01*
X3790694Y-3168260D01*
X3751769Y-3043673D01*
X3745592Y-2908693D01*
X3770299Y-2774937D01*
X3824025Y-2654023D01*
X3885905Y-2575076D01*
X3909223Y-2551375D01*
X3929974Y-2530758D01*
X3951120Y-2512981D01*
X3975621Y-2497802D01*
X4006437Y-2484979D01*
X4046527Y-2474268D01*
X4098853Y-2465426D01*
X4166372Y-2458211D01*
X4252047Y-2452381D01*
X4358837Y-2447691D01*
X4489701Y-2443900D01*
X4647601Y-2440764D01*
X4835495Y-2438041D01*
X5056344Y-2435488D01*
X5313109Y-2432862D01*
X5608748Y-2429921D01*
X5662083Y-2429382D01*
X5942254Y-2426726D01*
X6228609Y-2424356D01*
X6515453Y-2422300D01*
X6797091Y-2420584D01*
X7067828Y-2419234D01*
X7321970Y-2418279D01*
X7553820Y-2417743D01*
X7757684Y-2417654D01*
X7927868Y-2418038D01*
G37*
X7927868Y-2418038D02*
X8001000Y-2418432D01*
X8752417Y-2423583D01*
X8758256Y-2745804D01*
X8764096Y-3068025D01*
X7231616Y-5687971D01*
X7047064Y-6003494D01*
X6865091Y-6314630D01*
X6687184Y-6618835D01*
X6514829Y-6913567D01*
X6349513Y-7196281D01*
X6192724Y-7464436D01*
X6045948Y-7715487D01*
X5910671Y-7946891D01*
X5788381Y-8156106D01*
X5680565Y-8340587D01*
X5588709Y-8497793D01*
X5514301Y-8625179D01*
X5458826Y-8720202D01*
X5433863Y-8763000D01*
X5168589Y-9218083D01*
X6759420Y-9234168D01*
X7067006Y-9237271D01*
X7335192Y-9240099D01*
X7566905Y-9242887D01*
X7765074Y-9245870D01*
X7932628Y-9249283D01*
X8072497Y-9253361D01*
X8187608Y-9258339D01*
X8280891Y-9264452D01*
X8355275Y-9271936D01*
X8413688Y-9281024D01*
X8459059Y-9291953D01*
X8494318Y-9304957D01*
X8522393Y-9320271D01*
X8546212Y-9338131D01*
X8568706Y-9358771D01*
X8591538Y-9381193D01*
X8666299Y-9469246D01*
X8711621Y-9564113D01*
X8734311Y-9680961D01*
X8736396Y-9703960D01*
X8732082Y-9860353D01*
X8692456Y-9993399D01*
X8617523Y-10103094D01*
X8507285Y-10189429D01*
X8456237Y-10216064D01*
X8350250Y-10265420D01*
X6048375Y-10265626D01*
X3746500Y-10265833D01*
X3746500Y-9597824D01*
X4426625Y-8434287D01*
X4728657Y-7917520D01*
X5016356Y-7425152D01*
X5289294Y-6957919D01*
X5547044Y-6516556D01*
X5789177Y-6101796D01*
X6015266Y-5714374D01*
X6224882Y-5355025D01*
X6417597Y-5024484D01*
X6592985Y-4723484D01*
X6750616Y-4452761D01*
X6890062Y-4213050D01*
X7010897Y-4005084D01*
X7112691Y-3829599D01*
X7195016Y-3687329D01*
X7257446Y-3579009D01*
X7299551Y-3505372D01*
X7320905Y-3467155D01*
X7323667Y-3461540D01*
X7303047Y-3459709D01*
X7243374Y-3457968D01*
X7147928Y-3456343D01*
X7019989Y-3454856D01*
X6862838Y-3453531D01*
X6679755Y-3452392D01*
X6474020Y-3451462D01*
X6248913Y-3450766D01*
X6007715Y-3450326D01*
X5753705Y-3450167D01*
X5743914Y-3450167D01*
X5415249Y-3449946D01*
X5127196Y-3449267D01*
X4878037Y-3448105D01*
X4666053Y-3446434D01*
X4489527Y-3444229D01*
X4346739Y-3441464D01*
X4235970Y-3438114D01*
X4155503Y-3434154D01*
X4103618Y-3429558D01*
X4082170Y-3425601D01*
X3983073Y-3377980D01*
X3888661Y-3301300D01*
X3812823Y-3207826D01*
X3790694Y-3168260D01*
X3751769Y-3043673D01*
X3745592Y-2908693D01*
X3770299Y-2774937D01*
X3824025Y-2654023D01*
X3885905Y-2575076D01*
X3909223Y-2551375D01*
X3929974Y-2530758D01*
X3951120Y-2512981D01*
X3975621Y-2497802D01*
X4006437Y-2484979D01*
X4046527Y-2474268D01*
X4098853Y-2465426D01*
X4166372Y-2458211D01*
X4252047Y-2452381D01*
X4358837Y-2447691D01*
X4489701Y-2443900D01*
X4647601Y-2440764D01*
X4835495Y-2438041D01*
X5056344Y-2435488D01*
X5313109Y-2432862D01*
X5608748Y-2429921D01*
X5662083Y-2429382D01*
X5942254Y-2426726D01*
X6228609Y-2424356D01*
X6515453Y-2422300D01*
X6797091Y-2420584D01*
X7067828Y-2419234D01*
X7321970Y-2418279D01*
X7553820Y-2417743D01*
X7757684Y-2417654D01*
X7927868Y-2418038D01*
G36*
X12281958Y-2422203D02*
G01*
X12675426Y-2424974D01*
X13036529Y-2427929D01*
X13364240Y-2431054D01*
X13657531Y-2434332D01*
X13915375Y-2437748D01*
X14136743Y-2441285D01*
X14320610Y-2444927D01*
X14465947Y-2448659D01*
X14571726Y-2452464D01*
X14636920Y-2456327D01*
X14657879Y-2459063D01*
X14738541Y-2496356D01*
X14821948Y-2561260D01*
X14896012Y-2641739D01*
X14948645Y-2725754D01*
X14962325Y-2762250D01*
X14983624Y-2899958D01*
X14977985Y-3045183D01*
X14962602Y-3122083D01*
X14925671Y-3199071D01*
X14861625Y-3280446D01*
X14782439Y-3354352D01*
X14700088Y-3408931D01*
X14654170Y-3427460D01*
X14615432Y-3432176D01*
X14535119Y-3436338D01*
X14413138Y-3439947D01*
X14249394Y-3443003D01*
X14043794Y-3445509D01*
X13796243Y-3447465D01*
X13506647Y-3448873D01*
X13174911Y-3449733D01*
X12800943Y-3450048D01*
X12789958Y-3450048D01*
X11006667Y-3450167D01*
X11006667Y-5820833D01*
X11350625Y-5822006D01*
X11584944Y-5823862D01*
X11808640Y-5827672D01*
X12017649Y-5833235D01*
X12207908Y-5840353D01*
X12375354Y-5848826D01*
X12515925Y-5858453D01*
X12625556Y-5869036D01*
X12700186Y-5880374D01*
X12732051Y-5889903D01*
X12839799Y-5968667D01*
X12921066Y-6073991D01*
X12973385Y-6197571D01*
X12994288Y-6331102D01*
X12981308Y-6466281D01*
X12938125Y-6583430D01*
X12863469Y-6697689D01*
X12774980Y-6775603D01*
X12665151Y-6822687D01*
X12592009Y-6837572D01*
X12538298Y-6842281D01*
X12448378Y-6846608D01*
X12328374Y-6850412D01*
X12184408Y-6853549D01*
X12022606Y-6855878D01*
X11849090Y-6857255D01*
X11731625Y-6857574D01*
X11006667Y-6858000D01*
X11006667Y-9221853D01*
X12810246Y-9236805D01*
X13129630Y-9239498D01*
X13409444Y-9241993D01*
X13652451Y-9244365D01*
X13861411Y-9246694D01*
X14039088Y-9249056D01*
X14188244Y-9251530D01*
X14311642Y-9254194D01*
X14412042Y-9257125D01*
X14492209Y-9260402D01*
X14554903Y-9264101D01*
X14602887Y-9268301D01*
X14638924Y-9273080D01*
X14665776Y-9278515D01*
X14686204Y-9284685D01*
X14699371Y-9290018D01*
X14820138Y-9364430D01*
X14907521Y-9464795D01*
X14961658Y-9591315D01*
X14980563Y-9703960D01*
X14976248Y-9860353D01*
X14936623Y-9993399D01*
X14861689Y-10103094D01*
X14751452Y-10189429D01*
X14700404Y-10216064D01*
X14594417Y-10265420D01*
X12292542Y-10265626D01*
X9990667Y-10265833D01*
X9990667Y-2407243D01*
X12281958Y-2422203D01*
G37*
X12281958Y-2422203D02*
X12675426Y-2424974D01*
X13036529Y-2427929D01*
X13364240Y-2431054D01*
X13657531Y-2434332D01*
X13915375Y-2437748D01*
X14136743Y-2441285D01*
X14320610Y-2444927D01*
X14465947Y-2448659D01*
X14571726Y-2452464D01*
X14636920Y-2456327D01*
X14657879Y-2459063D01*
X14738541Y-2496356D01*
X14821948Y-2561260D01*
X14896012Y-2641739D01*
X14948645Y-2725754D01*
X14962325Y-2762250D01*
X14983624Y-2899958D01*
X14977985Y-3045183D01*
X14962602Y-3122083D01*
X14925671Y-3199071D01*
X14861625Y-3280446D01*
X14782439Y-3354352D01*
X14700088Y-3408931D01*
X14654170Y-3427460D01*
X14615432Y-3432176D01*
X14535119Y-3436338D01*
X14413138Y-3439947D01*
X14249394Y-3443003D01*
X14043794Y-3445509D01*
X13796243Y-3447465D01*
X13506647Y-3448873D01*
X13174911Y-3449733D01*
X12800943Y-3450048D01*
X12789958Y-3450048D01*
X11006667Y-3450167D01*
X11006667Y-5820833D01*
X11350625Y-5822006D01*
X11584944Y-5823862D01*
X11808640Y-5827672D01*
X12017649Y-5833235D01*
X12207908Y-5840353D01*
X12375354Y-5848826D01*
X12515925Y-5858453D01*
X12625556Y-5869036D01*
X12700186Y-5880374D01*
X12732051Y-5889903D01*
X12839799Y-5968667D01*
X12921066Y-6073991D01*
X12973385Y-6197571D01*
X12994288Y-6331102D01*
X12981308Y-6466281D01*
X12938125Y-6583430D01*
X12863469Y-6697689D01*
X12774980Y-6775603D01*
X12665151Y-6822687D01*
X12592009Y-6837572D01*
X12538298Y-6842281D01*
X12448378Y-6846608D01*
X12328374Y-6850412D01*
X12184408Y-6853549D01*
X12022606Y-6855878D01*
X11849090Y-6857255D01*
X11731625Y-6857574D01*
X11006667Y-6858000D01*
X11006667Y-9221853D01*
X12810246Y-9236805D01*
X13129630Y-9239498D01*
X13409444Y-9241993D01*
X13652451Y-9244365D01*
X13861411Y-9246694D01*
X14039088Y-9249056D01*
X14188244Y-9251530D01*
X14311642Y-9254194D01*
X14412042Y-9257125D01*
X14492209Y-9260402D01*
X14554903Y-9264101D01*
X14602887Y-9268301D01*
X14638924Y-9273080D01*
X14665776Y-9278515D01*
X14686204Y-9284685D01*
X14699371Y-9290018D01*
X14820138Y-9364430D01*
X14907521Y-9464795D01*
X14961658Y-9591315D01*
X14980563Y-9703960D01*
X14976248Y-9860353D01*
X14936623Y-9993399D01*
X14861689Y-10103094D01*
X14751452Y-10189429D01*
X14700404Y-10216064D01*
X14594417Y-10265420D01*
X12292542Y-10265626D01*
X9990667Y-10265833D01*
X9990667Y-2407243D01*
X12281958Y-2422203D01*
%TD*%
M02*
